<?xml version="1.0" encoding="UTF-8" standalone="no"?>
<!DOCTYPE svg PUBLIC "-//W3C//DTD SVG 1.1//EN" "http://www.w3.org/Graphics/SVG/1.1/DTD/svg11.dtd">
<svg width="100%" height="100%" viewBox="0 0 11812 11812" version="1.1" xmlns="http://www.w3.org/2000/svg" xmlns:xlink="http://www.w3.org/1999/xlink" xml:space="preserve" xmlns:serif="http://www.serif.com/" style="fill-rule:evenodd;clip-rule:evenodd;stroke-linecap:round;stroke-linejoin:round;stroke-miterlimit:1.5;">
    <g transform="matrix(1,0,0,1,-53.046001,-0)">
        <path d="M8832.366,3640.456L8832.366,7212.217C8832.366,7463.111 8628.672,7666.805 8377.779,7666.805L2682.105,7666.805C2431.212,7666.805 2227.518,7463.111 2227.518,7212.217L2227.518,3640.456C2227.518,3389.562 2431.212,3185.868 2682.105,3185.868L8377.779,3185.868C8628.672,3185.868 8832.366,3389.562 8832.366,3640.456Z" style="fill:rgb(107,0,38);stroke:rgb(59,0,46);stroke-width:42.8px;"/>
    </g>
    <g transform="matrix(1,0,0,1,817.608022,0)">
        <path d="M4538.073,3185.868L6269.715,3185.868L5189.171,7666.805L3499.087,7666.805L4538.073,3185.868Z" style="fill:rgb(121,7,38);"/>
    </g>
    <g transform="matrix(1,0,0,1,12.970767,0)">
        <path d="M4538.073,3185.868L5108.362,3185.868L4025.507,7666.805L3499.087,7666.805L4538.073,3185.868Z" style="fill:rgb(121,7,38);"/>
    </g>
    <g transform="matrix(1.016964,0,0,1.016964,-82.966215,-84.837353)">
        <g transform="matrix(1,0,0,1,1573.266296,-692.538765)">
            <path d="M1259.103,4462.912C1259.103,4462.912 1122.298,4493.241 1116.516,4524.021C1110.734,4554.801 1174.513,4649.648 1224.411,4647.593C1274.31,4645.537 1415.859,4572.191 1415.907,4511.689C1416.013,4378.066 1306.526,4293.988 1306.526,4293.988C1116.037,4254.492 1015.782,4318.664 988.251,4466.388L974.989,5102.939L949.739,6118.875L949.739,6425.39" style="fill:none;stroke:rgb(59,0,46);stroke-width:70.88px;"/>
        </g>
        <g transform="matrix(1,0,0,-1,1573.266296,11682.916713)">
            <path d="M1259.103,4462.912C1259.103,4462.912 1122.298,4493.241 1116.516,4524.021C1110.734,4554.801 1174.513,4649.648 1224.411,4647.593C1274.31,4645.537 1415.859,4572.191 1415.907,4511.689C1416.013,4378.066 1306.526,4293.988 1306.526,4293.988C1116.037,4254.492 1015.782,4318.664 988.251,4466.388L974.989,5102.939L949.739,6129.305" style="fill:none;stroke:rgb(59,0,46);stroke-width:70.88px;"/>
        </g>
        <g transform="matrix(-1,0,0,1,9415.906391,-692.538765)">
            <path d="M1259.103,4462.912C1259.103,4462.912 1122.298,4493.241 1116.516,4524.021C1110.734,4554.801 1174.513,4649.648 1224.411,4647.593C1274.31,4645.537 1415.859,4572.191 1415.907,4511.689C1416.013,4378.066 1306.526,4293.988 1306.526,4293.988C1116.037,4254.492 1015.782,4318.664 988.251,4466.388L974.989,5102.939L949.739,6118.875L949.739,6321.697" style="fill:none;stroke:rgb(59,0,46);stroke-width:70.88px;"/>
        </g>
        <g transform="matrix(-1,0,0,-1,9415.906391,11682.916713)">
            <path d="M1259.103,4462.912C1259.103,4462.912 1122.298,4493.241 1116.516,4524.021C1110.734,4554.801 1174.513,4649.648 1224.411,4647.593C1274.31,4645.537 1415.859,4572.191 1415.907,4511.689C1416.013,4378.066 1306.526,4293.988 1306.526,4293.988C1116.037,4254.492 1015.782,4318.664 988.251,4466.388L974.989,5102.939L949.739,6129.305" style="fill:none;stroke:rgb(59,0,46);stroke-width:70.88px;"/>
        </g>
        <g transform="matrix(-0.022532,0.999746,0.999746,0.022532,-1498.121835,2287.727475)">
            <path d="M1259.103,4462.912C1259.103,4462.912 1122.298,4493.241 1116.516,4524.021C1110.734,4554.801 1174.513,4649.648 1224.411,4647.593C1274.31,4645.537 1415.859,4572.191 1415.907,4511.689C1416.013,4378.066 1306.526,4293.988 1306.526,4293.988C1116.037,4254.492 1015.782,4318.664 988.251,4466.388L974.989,5102.939L949.739,6118.875L912.301,7426.075" style="fill:none;stroke:rgb(59,0,46);stroke-width:70.88px;"/>
        </g>
        <g transform="matrix(0.022532,0.999746,-0.999746,0.022532,12578.617632,2287.727475)">
            <path d="M1259.103,4462.912C1259.103,4462.912 1122.298,4493.241 1116.516,4524.021C1110.734,4554.801 1174.513,4649.648 1224.411,4647.593C1274.31,4645.537 1415.859,4572.191 1415.907,4511.689C1416.013,4378.066 1306.526,4293.988 1306.526,4293.988C1116.037,4254.492 1015.782,4318.664 988.251,4466.388L974.989,5102.939L949.739,6118.875L912.301,7426.075" style="fill:none;stroke:rgb(59,0,46);stroke-width:70.88px;"/>
        </g>
        <g transform="matrix(-0.021391,-0.999746,0.949121,-0.022532,-1173.23474,8547.652259)">
            <path d="M1259.103,4462.912C1259.103,4462.912 1122.298,4493.241 1116.516,4524.021C1110.734,4554.801 1174.513,4649.648 1224.411,4647.593C1274.31,4645.537 1415.859,4572.191 1415.907,4511.689C1416.013,4378.066 1306.526,4293.988 1306.526,4293.988C1116.037,4254.492 1015.782,4318.664 988.251,4466.388L974.989,5102.939L949.739,6118.875L912.301,7426.075" style="fill:none;stroke:rgb(59,0,46);stroke-width:72.61px;"/>
        </g>
        <g transform="matrix(0.021391,-0.999746,-0.949121,-0.022532,12190.681957,8547.652259)">
            <path d="M1259.103,4462.912C1259.103,4462.912 1122.298,4493.241 1116.516,4524.021C1110.734,4554.801 1174.513,4649.648 1224.411,4647.593C1274.31,4645.537 1415.859,4572.191 1415.907,4511.689C1416.013,4378.066 1306.526,4293.988 1306.526,4293.988C1116.037,4254.492 1015.782,4318.664 988.251,4466.388L974.989,5102.939L949.739,6118.875L912.301,7426.075" style="fill:none;stroke:rgb(59,0,46);stroke-width:72.61px;"/>
        </g>
    </g>
    <g>
        <g transform="matrix(1,0,0,1,1573.266296,-692.538765)">
            <path d="M1259.103,4462.912C1259.103,4462.912 1122.298,4493.241 1116.516,4524.021C1110.734,4554.801 1174.513,4649.648 1224.411,4647.593C1274.31,4645.537 1415.859,4572.191 1415.907,4511.689C1416.013,4378.066 1306.526,4293.988 1306.526,4293.988C1116.037,4254.492 1015.782,4318.664 988.251,4466.388L974.989,5102.939L949.739,6118.875L949.739,6425.39" style="fill:none;stroke:rgb(202,136,0);stroke-width:72.08px;"/>
        </g>
        <g transform="matrix(1,0,0,-1,1573.266296,11682.916713)">
            <path d="M1259.103,4462.912C1259.103,4462.912 1122.298,4493.241 1116.516,4524.021C1110.734,4554.801 1174.513,4649.648 1224.411,4647.593C1274.31,4645.537 1415.859,4572.191 1415.907,4511.689C1416.013,4378.066 1306.526,4293.988 1306.526,4293.988C1116.037,4254.492 1015.782,4318.664 988.251,4466.388L974.989,5102.939L949.739,6129.305" style="fill:none;stroke:rgb(202,136,0);stroke-width:72.08px;"/>
        </g>
        <g transform="matrix(-1,0,0,1,9415.906391,-692.538765)">
            <path d="M1259.103,4462.912C1259.103,4462.912 1122.298,4493.241 1116.516,4524.021C1110.734,4554.801 1174.513,4649.648 1224.411,4647.593C1274.31,4645.537 1415.859,4572.191 1415.907,4511.689C1416.013,4378.066 1306.526,4293.988 1306.526,4293.988C1116.037,4254.492 1015.782,4318.664 988.251,4466.388L974.989,5102.939L949.739,6118.875L949.739,6321.697" style="fill:none;stroke:rgb(202,136,0);stroke-width:72.08px;"/>
        </g>
        <g transform="matrix(-1,0,0,-1,9415.906391,11682.916713)">
            <path d="M1259.103,4462.912C1259.103,4462.912 1122.298,4493.241 1116.516,4524.021C1110.734,4554.801 1174.513,4649.648 1224.411,4647.593C1274.31,4645.537 1415.859,4572.191 1415.907,4511.689C1416.013,4378.066 1306.526,4293.988 1306.526,4293.988C1116.037,4254.492 1015.782,4318.664 988.251,4466.388L974.989,5102.939L949.739,6129.305" style="fill:none;stroke:rgb(202,136,0);stroke-width:72.08px;"/>
        </g>
        <g transform="matrix(-0.022532,0.999746,0.999746,0.022532,-1498.121835,2287.727475)">
            <path d="M1259.103,4462.912C1259.103,4462.912 1122.298,4493.241 1116.516,4524.021C1110.734,4554.801 1174.513,4649.648 1224.411,4647.593C1274.31,4645.537 1415.859,4572.191 1415.907,4511.689C1416.013,4378.066 1306.526,4293.988 1306.526,4293.988C1116.037,4254.492 1015.782,4318.664 988.251,4466.388L974.989,5102.939L949.739,6118.875L912.301,7426.075" style="fill:none;stroke:rgb(202,136,0);stroke-width:72.08px;"/>
        </g>
        <g transform="matrix(0.022532,0.999746,-0.999746,0.022532,12578.617632,2287.727475)">
            <path d="M1259.103,4462.912C1259.103,4462.912 1122.298,4493.241 1116.516,4524.021C1110.734,4554.801 1174.513,4649.648 1224.411,4647.593C1274.31,4645.537 1415.859,4572.191 1415.907,4511.689C1416.013,4378.066 1306.526,4293.988 1306.526,4293.988C1116.037,4254.492 1015.782,4318.664 988.251,4466.388L974.989,5102.939L949.739,6118.875L912.301,7426.075" style="fill:none;stroke:rgb(202,136,0);stroke-width:72.08px;"/>
        </g>
        <g transform="matrix(-0.021391,-0.999746,0.949121,-0.022532,-1173.23474,8547.652259)">
            <path d="M1259.103,4462.912C1259.103,4462.912 1122.298,4493.241 1116.516,4524.021C1110.734,4554.801 1174.513,4649.648 1224.411,4647.593C1274.31,4645.537 1415.859,4572.191 1415.907,4511.689C1416.013,4378.066 1306.526,4293.988 1306.526,4293.988C1116.037,4254.492 1015.782,4318.664 988.251,4466.388L974.989,5102.939L949.739,6118.875L912.301,7426.075" style="fill:none;stroke:rgb(202,136,0);stroke-width:73.84px;"/>
        </g>
        <g transform="matrix(0.021391,-0.999746,-0.949121,-0.022532,12190.681957,8547.652259)">
            <path d="M1259.103,4462.912C1259.103,4462.912 1122.298,4493.241 1116.516,4524.021C1110.734,4554.801 1174.513,4649.648 1224.411,4647.593C1274.31,4645.537 1415.859,4572.191 1415.907,4511.689C1416.013,4378.066 1306.526,4293.988 1306.526,4293.988C1116.037,4254.492 1015.782,4318.664 988.251,4466.388L974.989,5102.939L949.739,6118.875L912.301,7426.075" style="fill:none;stroke:rgb(202,136,0);stroke-width:73.84px;"/>
        </g>
    </g>
    <g transform="matrix(0.492935,-0.449374,0.381435,0.41841,435.873624,3241.306855)">
        <path d="M2167.703,2563.735L2368.048,2909.158L1967.357,2909.158L2167.703,2563.735Z" style="fill:rgb(202,136,0);stroke:rgb(59,0,46);stroke-width:40.21px;"/>
    </g>
    <g transform="matrix(-0.296565,-0.59747,-0.507141,0.251728,10587.161143,4049.644809)">
        <path d="M2167.703,2563.735L2368.048,2909.158L1967.357,2909.158L2167.703,2563.735Z" style="fill:rgb(202,136,0);stroke:rgb(59,0,46);stroke-width:40.21px;"/>
    </g>
    <g transform="matrix(0.492935,0.449374,0.381435,-0.41841,435.873624,7672.962664)">
        <path d="M2167.703,2563.735L2368.048,2909.158L1967.357,2909.158L2167.703,2563.735Z" style="fill:rgb(202,136,0);stroke:rgb(59,0,46);stroke-width:40.21px;"/>
    </g>
    <g transform="matrix(-0.409942,0.526183,-0.446632,-0.347965,10667.348826,7282.499278)">
        <path d="M2167.703,2563.735L2368.048,2909.158L1967.357,2909.158L2167.703,2563.735Z" style="fill:rgb(202,136,0);stroke:rgb(59,0,46);stroke-width:40.21px;"/>
    </g>
</svg>
