<svg xmlns="http://www.w3.org/2000/svg" xmlns:xlink="http://www.w3.org/1999/xlink" xmlns:serif="http://www.serif.com/" version="1.1" xml:space="preserve" style="fill-rule:evenodd;clip-rule:evenodd;stroke-linecap:round;stroke-linejoin:round;stroke-miterlimit:1.5;" viewBox="2153.07 2058.53 6647.65 5629.67">
    <g transform="matrix(1,0,0,1,-53.046001,-0)">
        <path d="M8832.366,3640.456L8832.366,7212.217C8832.366,7463.111 8628.672,7666.805 8377.779,7666.805L2682.105,7666.805C2431.212,7666.805 2227.518,7463.111 2227.518,7212.217L2227.518,3640.456C2227.518,3389.562 2431.212,3185.868 2682.105,3185.868L8377.779,3185.868C8628.672,3185.868 8832.366,3389.562 8832.366,3640.456Z" style="fill:rgb(107,0,38);stroke:rgb(59,0,46);stroke-width:42.8px;"/>
    </g>
    <g>
        <g transform="matrix(1,0,0,1,817.608022,0)">
            <path d="M4538.073,3185.868L6269.715,3185.868L5189.171,7666.805L3499.087,7666.805L4538.073,3185.868Z" style="fill:rgb(121,7,38);"/>
        </g>
        <g transform="matrix(1,0,0,1,12.970767,0)">
            <path d="M4538.073,3185.868L5108.362,3185.868L4025.507,7666.805L3499.087,7666.805L4538.073,3185.868Z" style="fill:rgb(121,7,38);"/>
        </g>
    </g>
    <g transform="matrix(1.016964,0,0,1.016964,-82.966215,-84.837353)">
        <g transform="matrix(1,0,0,1,1573.266296,-692.538765)">
            <path d="M1259.103,4462.912C1259.103,4462.912 1122.298,4493.241 1116.516,4524.021C1110.734,4554.801 1174.513,4649.648 1224.411,4647.593C1274.31,4645.537 1415.859,4572.191 1415.907,4511.689C1416.013,4378.066 1306.526,4293.988 1306.526,4293.988C1116.037,4254.492 1015.782,4318.664 988.251,4466.388L974.989,5102.939L949.739,6118.875L949.739,6425.39" style="fill:none;stroke:rgb(59,0,46);stroke-width:70.88px;"/>
        </g>
        <g transform="matrix(1,0,0,-1,1573.266296,11682.916713)">
            <path d="M1259.103,4462.912C1259.103,4462.912 1122.298,4493.241 1116.516,4524.021C1110.734,4554.801 1174.513,4649.648 1224.411,4647.593C1274.31,4645.537 1415.859,4572.191 1415.907,4511.689C1416.013,4378.066 1306.526,4293.988 1306.526,4293.988C1116.037,4254.492 1015.782,4318.664 988.251,4466.388L974.989,5102.939L949.739,6129.305" style="fill:none;stroke:rgb(59,0,46);stroke-width:70.88px;"/>
        </g>
        <g transform="matrix(-1,0,0,1,9415.906391,-692.538765)">
            <path d="M1259.103,4462.912C1259.103,4462.912 1122.298,4493.241 1116.516,4524.021C1110.734,4554.801 1174.513,4649.648 1224.411,4647.593C1274.31,4645.537 1415.859,4572.191 1415.907,4511.689C1416.013,4378.066 1306.526,4293.988 1306.526,4293.988C1116.037,4254.492 1015.782,4318.664 988.251,4466.388L974.989,5102.939L949.739,6118.875L949.739,6321.697" style="fill:none;stroke:rgb(59,0,46);stroke-width:70.88px;"/>
        </g>
        <g transform="matrix(-1,0,0,-1,9415.906391,11682.916713)">
            <path d="M1259.103,4462.912C1259.103,4462.912 1122.298,4493.241 1116.516,4524.021C1110.734,4554.801 1174.513,4649.648 1224.411,4647.593C1274.31,4645.537 1415.859,4572.191 1415.907,4511.689C1416.013,4378.066 1306.526,4293.988 1306.526,4293.988C1116.037,4254.492 1015.782,4318.664 988.251,4466.388L974.989,5102.939L949.739,6129.305" style="fill:none;stroke:rgb(59,0,46);stroke-width:70.88px;"/>
        </g>
        <g transform="matrix(-0.022532,0.999746,0.999746,0.022532,-1498.121835,2287.727475)">
            <path d="M1259.103,4462.912C1259.103,4462.912 1122.298,4493.241 1116.516,4524.021C1110.734,4554.801 1174.513,4649.648 1224.411,4647.593C1274.31,4645.537 1415.859,4572.191 1415.907,4511.689C1416.013,4378.066 1306.526,4293.988 1306.526,4293.988C1116.037,4254.492 1015.782,4318.664 988.251,4466.388L974.989,5102.939L949.739,6118.875L912.301,7426.075" style="fill:none;stroke:rgb(59,0,46);stroke-width:70.88px;"/>
        </g>
        <g transform="matrix(0.022532,0.999746,-0.999746,0.022532,12578.617632,2287.727475)">
            <path d="M1259.103,4462.912C1259.103,4462.912 1122.298,4493.241 1116.516,4524.021C1110.734,4554.801 1174.513,4649.648 1224.411,4647.593C1274.31,4645.537 1415.859,4572.191 1415.907,4511.689C1416.013,4378.066 1306.526,4293.988 1306.526,4293.988C1116.037,4254.492 1015.782,4318.664 988.251,4466.388L974.989,5102.939L949.739,6118.875L912.301,7426.075" style="fill:none;stroke:rgb(59,0,46);stroke-width:70.88px;"/>
        </g>
        <g transform="matrix(-0.021391,-0.999746,0.949121,-0.022532,-1173.23474,8547.652259)">
            <path d="M1259.103,4462.912C1259.103,4462.912 1122.298,4493.241 1116.516,4524.021C1110.734,4554.801 1174.513,4649.648 1224.411,4647.593C1274.31,4645.537 1415.859,4572.191 1415.907,4511.689C1416.013,4378.066 1306.526,4293.988 1306.526,4293.988C1116.037,4254.492 1015.782,4318.664 988.251,4466.388L974.989,5102.939L949.739,6118.875L912.301,7426.075" style="fill:none;stroke:rgb(59,0,46);stroke-width:72.61px;"/>
        </g>
        <g transform="matrix(0.021391,-0.999746,-0.949121,-0.022532,12190.681957,8547.652259)">
            <path d="M1259.103,4462.912C1259.103,4462.912 1122.298,4493.241 1116.516,4524.021C1110.734,4554.801 1174.513,4649.648 1224.411,4647.593C1274.31,4645.537 1415.859,4572.191 1415.907,4511.689C1416.013,4378.066 1306.526,4293.988 1306.526,4293.988C1116.037,4254.492 1015.782,4318.664 988.251,4466.388L974.989,5102.939L949.739,6118.875L912.301,7426.075" style="fill:none;stroke:rgb(59,0,46);stroke-width:72.61px;"/>
        </g>
    </g>
    <g>
        <g transform="matrix(1,0,0,1,1573.266296,-692.538765)">
            <path d="M1259.103,4462.912C1259.103,4462.912 1122.298,4493.241 1116.516,4524.021C1110.734,4554.801 1174.513,4649.648 1224.411,4647.593C1274.31,4645.537 1415.859,4572.191 1415.907,4511.689C1416.013,4378.066 1306.526,4293.988 1306.526,4293.988C1116.037,4254.492 1015.782,4318.664 988.251,4466.388L974.989,5102.939L949.739,6118.875L949.739,6425.39" style="fill:none;stroke:rgb(202,136,0);stroke-width:72.08px;"/>
        </g>
        <g transform="matrix(1,0,0,-1,1573.266296,11682.916713)">
            <path d="M1259.103,4462.912C1259.103,4462.912 1122.298,4493.241 1116.516,4524.021C1110.734,4554.801 1174.513,4649.648 1224.411,4647.593C1274.31,4645.537 1415.859,4572.191 1415.907,4511.689C1416.013,4378.066 1306.526,4293.988 1306.526,4293.988C1116.037,4254.492 1015.782,4318.664 988.251,4466.388L974.989,5102.939L949.739,6129.305" style="fill:none;stroke:rgb(202,136,0);stroke-width:72.08px;"/>
        </g>
        <g transform="matrix(-1,0,0,1,9415.906391,-692.538765)">
            <path d="M1259.103,4462.912C1259.103,4462.912 1122.298,4493.241 1116.516,4524.021C1110.734,4554.801 1174.513,4649.648 1224.411,4647.593C1274.31,4645.537 1415.859,4572.191 1415.907,4511.689C1416.013,4378.066 1306.526,4293.988 1306.526,4293.988C1116.037,4254.492 1015.782,4318.664 988.251,4466.388L974.989,5102.939L949.739,6118.875L949.739,6321.697" style="fill:none;stroke:rgb(202,136,0);stroke-width:72.08px;"/>
        </g>
        <g transform="matrix(-1,0,0,-1,9415.906391,11682.916713)">
            <path d="M1259.103,4462.912C1259.103,4462.912 1122.298,4493.241 1116.516,4524.021C1110.734,4554.801 1174.513,4649.648 1224.411,4647.593C1274.31,4645.537 1415.859,4572.191 1415.907,4511.689C1416.013,4378.066 1306.526,4293.988 1306.526,4293.988C1116.037,4254.492 1015.782,4318.664 988.251,4466.388L974.989,5102.939L949.739,6129.305" style="fill:none;stroke:rgb(202,136,0);stroke-width:72.08px;"/>
        </g>
        <g transform="matrix(-0.022532,0.999746,0.999746,0.022532,-1498.121835,2287.727475)">
            <path d="M1259.103,4462.912C1259.103,4462.912 1122.298,4493.241 1116.516,4524.021C1110.734,4554.801 1174.513,4649.648 1224.411,4647.593C1274.31,4645.537 1415.859,4572.191 1415.907,4511.689C1416.013,4378.066 1306.526,4293.988 1306.526,4293.988C1116.037,4254.492 1015.782,4318.664 988.251,4466.388L974.989,5102.939L949.739,6118.875L912.301,7426.075" style="fill:none;stroke:rgb(202,136,0);stroke-width:72.08px;"/>
        </g>
        <g transform="matrix(0.022532,0.999746,-0.999746,0.022532,12578.617632,2287.727475)">
            <path d="M1259.103,4462.912C1259.103,4462.912 1122.298,4493.241 1116.516,4524.021C1110.734,4554.801 1174.513,4649.648 1224.411,4647.593C1274.31,4645.537 1415.859,4572.191 1415.907,4511.689C1416.013,4378.066 1306.526,4293.988 1306.526,4293.988C1116.037,4254.492 1015.782,4318.664 988.251,4466.388L974.989,5102.939L949.739,6118.875L912.301,7426.075" style="fill:none;stroke:rgb(202,136,0);stroke-width:72.08px;"/>
        </g>
        <g transform="matrix(-0.021391,-0.999746,0.949121,-0.022532,-1173.23474,8547.652259)">
            <path d="M1259.103,4462.912C1259.103,4462.912 1122.298,4493.241 1116.516,4524.021C1110.734,4554.801 1174.513,4649.648 1224.411,4647.593C1274.31,4645.537 1415.859,4572.191 1415.907,4511.689C1416.013,4378.066 1306.526,4293.988 1306.526,4293.988C1116.037,4254.492 1015.782,4318.664 988.251,4466.388L974.989,5102.939L949.739,6118.875L912.301,7426.075" style="fill:none;stroke:rgb(202,136,0);stroke-width:73.84px;"/>
        </g>
        <g transform="matrix(0.021391,-0.999746,-0.949121,-0.022532,12190.681957,8547.652259)">
            <path d="M1259.103,4462.912C1259.103,4462.912 1122.298,4493.241 1116.516,4524.021C1110.734,4554.801 1174.513,4649.648 1224.411,4647.593C1274.31,4645.537 1415.859,4572.191 1415.907,4511.689C1416.013,4378.066 1306.526,4293.988 1306.526,4293.988C1116.037,4254.492 1015.782,4318.664 988.251,4466.388L974.989,5102.939L949.739,6118.875L912.301,7426.075" style="fill:none;stroke:rgb(202,136,0);stroke-width:73.84px;"/>
        </g>
    </g>
    <g transform="matrix(0.492935,-0.449374,0.381435,0.41841,435.873624,3241.306855)">
        <path d="M2167.703,2563.735L2368.048,2909.158L1967.357,2909.158L2167.703,2563.735Z" style="fill:rgb(202,136,0);stroke:rgb(59,0,46);stroke-width:40.21px;"/>
    </g>
    <g transform="matrix(-0.296565,-0.59747,-0.507141,0.251728,10587.161143,4049.644809)">
        <path d="M2167.703,2563.735L2368.048,2909.158L1967.357,2909.158L2167.703,2563.735Z" style="fill:rgb(202,136,0);stroke:rgb(59,0,46);stroke-width:40.21px;"/>
    </g>
    <g transform="matrix(0.492935,0.449374,0.381435,-0.41841,435.873624,7672.962664)">
        <path d="M2167.703,2563.735L2368.048,2909.158L1967.357,2909.158L2167.703,2563.735Z" style="fill:rgb(202,136,0);stroke:rgb(59,0,46);stroke-width:40.21px;"/>
    </g>
    <g transform="matrix(-0.409942,0.526183,-0.446632,-0.347965,10667.348826,7282.499278)">
        <path d="M2167.703,2563.735L2368.048,2909.158L1967.357,2909.158L2167.703,2563.735Z" style="fill:rgb(202,136,0);stroke:rgb(59,0,46);stroke-width:40.21px;"/>
    </g>
    <g transform="matrix(1,0,0,1,4032.611811,6480.649527)">
        <path d="M97.2,0C92.7,0.3 86.55,0.6 78.75,0.9C70.95,1.2 66,1.35 63.9,1.35C57.9,1.35 53.025,1.198 49.275,0.893C45.525,0.593 43.05,-0.159 41.85,-1.364L41.85,-207.9L2.7,-207.9L2.7,-244.8L24.3,-244.8C36,-244.8 41.85,-246.877 41.85,-251.03C41.85,-267.047 40.05,-280.542 36.45,-291.516C32.25,-301.598 28.2,-311.681 24.3,-321.764C24.3,-325.027 38.25,-332.59 66.15,-344.454C94.05,-356.318 111.15,-362.25 117.45,-362.25C124.95,-362.25 133.35,-355.8 142.65,-342.9C151.95,-330 156.6,-319.8 156.6,-312.3C156.6,-310.5 154.575,-308.025 150.525,-304.875C146.475,-301.725 135.45,-294.15 117.45,-282.15C113.55,-288.75 109.95,-295.05 106.65,-301.05C103.35,-307.05 99.15,-313.8 94.05,-321.3L89.1,-321.3L89.1,-312.3L98.1,-250.137C98.7,-248.355 100.5,-247.02 103.5,-246.129C106.5,-245.243 109.8,-244.8 113.4,-244.8L147.6,-244.8L147.6,-211.373C141.9,-209.058 137.1,-207.9 133.2,-207.9C130.8,-207.9 128.25,-208.425 125.55,-209.475C122.85,-210.525 120.9,-211.05 119.7,-211.05C111.3,-211.05 104.1,-208.945 98.1,-204.736L98.1,-81.626L97.2,0Z" style="fill:rgb(201,135,0);fill-rule:nonzero;"/>
        <clipPath id="_clip1">
            <path d="M97.2,0C92.7,0.3 86.55,0.6 78.75,0.9C70.95,1.2 66,1.35 63.9,1.35C57.9,1.35 53.025,1.198 49.275,0.893C45.525,0.593 43.05,-0.159 41.85,-1.364L41.85,-207.9L2.7,-207.9L2.7,-244.8L24.3,-244.8C36,-244.8 41.85,-246.877 41.85,-251.03C41.85,-267.047 40.05,-280.542 36.45,-291.516C32.25,-301.598 28.2,-311.681 24.3,-321.764C24.3,-325.027 38.25,-332.59 66.15,-344.454C94.05,-356.318 111.15,-362.25 117.45,-362.25C124.95,-362.25 133.35,-355.8 142.65,-342.9C151.95,-330 156.6,-319.8 156.6,-312.3C156.6,-310.5 154.575,-308.025 150.525,-304.875C146.475,-301.725 135.45,-294.15 117.45,-282.15C113.55,-288.75 109.95,-295.05 106.65,-301.05C103.35,-307.05 99.15,-313.8 94.05,-321.3L89.1,-321.3L89.1,-312.3L98.1,-250.137C98.7,-248.355 100.5,-247.02 103.5,-246.129C106.5,-245.243 109.8,-244.8 113.4,-244.8L147.6,-244.8L147.6,-211.373C141.9,-209.058 137.1,-207.9 133.2,-207.9C130.8,-207.9 128.25,-208.425 125.55,-209.475C122.85,-210.525 120.9,-211.05 119.7,-211.05C111.3,-211.05 104.1,-208.945 98.1,-204.736L98.1,-81.626L97.2,0Z" clip-rule="nonzero"/>
        </clipPath>
        <g clip-path="url(#_clip1)">
            <g transform="matrix(0.819735,0,0,1,-3458.813086,-6480.649527)">
                <path d="M4859.836,3185.868L5405.376,3185.868L4309.882,7666.805L3726.587,7666.805L4859.836,3185.868Z" style="fill:rgb(231,190,106);"/>
            </g>
            <g transform="matrix(0.753613,0,0,1.245803,-2352.872582,-8365.176338)">
                <path d="M5104.367,3185.868L5953.515,3165.077L4673.627,7666.805L3499.087,7666.805L5104.367,3185.868Z" style="fill:rgb(231,190,106);"/>
            </g>
        </g>
        <path d="M281.7,-351L281.7,-341.55C281.7,-338.55 281.85,-335.85 282.15,-333.45C282.15,-326.25 278.55,-321.3 271.35,-318.6C252.45,-313.2 232.05,-307.2 210.15,-300.6C209.55,-303 209.25,-304.8 209.25,-306C209.85,-309.9 210.15,-313.2 210.15,-315.9C210.15,-326.1 216.225,-334.5 228.375,-341.1C240.525,-347.7 256.05,-356.1 274.95,-366.3L281.7,-366.3C282.6,-362.7 283.05,-359.7 283.05,-357.3C283.05,-354.6 282.9,-352.95 282.6,-352.35C282.3,-351.75 282,-351.3 281.7,-351ZM314.55,-24.75C312.15,-22.65 303.075,-17.025 287.325,-7.875C271.575,1.275 262.5,5.85 260.1,5.85C251.1,-1.35 242.025,-9.075 232.875,-17.325C223.725,-25.575 219.15,-32.4 219.15,-37.8L219.15,-172.35C219.15,-183.15 213.3,-191.85 201.6,-198.45C189.9,-205.05 184.05,-209.55 184.05,-211.95C192.45,-220.05 201.075,-228.15 209.925,-236.25C218.775,-244.35 224.55,-248.4 227.25,-248.4C238.05,-241.2 248.7,-232.725 259.2,-222.975C269.7,-213.225 274.95,-202.2 274.95,-189.9L274.95,-109.35C274.95,-82.35 276.975,-63.3 281.025,-52.2C285.075,-41.1 296.25,-34.8 314.55,-33.3L314.55,-24.75Z" style="fill:rgb(201,135,0);fill-rule:nonzero;"/>
        <clipPath id="_clip2">
            <path d="M281.7,-351L281.7,-341.55C281.7,-338.55 281.85,-335.85 282.15,-333.45C282.15,-326.25 278.55,-321.3 271.35,-318.6C252.45,-313.2 232.05,-307.2 210.15,-300.6C209.55,-303 209.25,-304.8 209.25,-306C209.85,-309.9 210.15,-313.2 210.15,-315.9C210.15,-326.1 216.225,-334.5 228.375,-341.1C240.525,-347.7 256.05,-356.1 274.95,-366.3L281.7,-366.3C282.6,-362.7 283.05,-359.7 283.05,-357.3C283.05,-354.6 282.9,-352.95 282.6,-352.35C282.3,-351.75 282,-351.3 281.7,-351ZM314.55,-24.75C312.15,-22.65 303.075,-17.025 287.325,-7.875C271.575,1.275 262.5,5.85 260.1,5.85C251.1,-1.35 242.025,-9.075 232.875,-17.325C223.725,-25.575 219.15,-32.4 219.15,-37.8L219.15,-172.35C219.15,-183.15 213.3,-191.85 201.6,-198.45C189.9,-205.05 184.05,-209.55 184.05,-211.95C192.45,-220.05 201.075,-228.15 209.925,-236.25C218.775,-244.35 224.55,-248.4 227.25,-248.4C238.05,-241.2 248.7,-232.725 259.2,-222.975C269.7,-213.225 274.95,-202.2 274.95,-189.9L274.95,-109.35C274.95,-82.35 276.975,-63.3 281.025,-52.2C285.075,-41.1 296.25,-34.8 314.55,-33.3L314.55,-24.75Z" clip-rule="nonzero"/>
        </clipPath>
        <g clip-path="url(#_clip2)">
            <g transform="matrix(0.819735,0,0,1,-3458.813086,-6480.649527)">
                <path d="M4859.836,3185.868L5405.376,3185.868L4309.882,7666.805L3726.587,7666.805L4859.836,3185.868Z" style="fill:rgb(231,190,106);"/>
            </g>
            <g transform="matrix(0.753613,0,0,1.245803,-2352.872582,-8365.176338)">
                <path d="M5104.367,3185.868L5953.515,3165.077L4673.627,7666.805L3499.087,7666.805L5104.367,3185.868Z" style="fill:rgb(231,190,106);"/>
            </g>
        </g>
        <path d="M501.75,-189.105C501.75,-183.115 495.075,-173.531 481.725,-160.355C468.375,-147.178 456.15,-138.645 445.05,-134.754C444.45,-137.749 443.85,-144.038 443.25,-153.619C442.65,-163.2 442.35,-171.584 442.35,-178.77C442.35,-184.46 442.65,-188.503 443.25,-190.898L434.25,-190.898C429.75,-190.898 425.85,-189.401 422.55,-186.405C419.25,-183.415 417.6,-179.972 417.6,-176.077L417.6,3.15L363.6,3.15L363.6,-115.207C363.6,-122.248 363.75,-129.061 364.05,-135.647C364.05,-156.609 361.425,-172.481 356.175,-183.263C350.925,-194.044 339.6,-201.68 322.2,-206.17L322.2,-210.663C324.6,-213.359 332.925,-220.097 347.175,-230.878C361.425,-241.659 369.6,-247.05 371.7,-247.05C380.7,-247.05 389.25,-241.725 397.35,-231.075C405.45,-220.425 412.2,-211.5 417.6,-204.3C429.6,-213.9 441.45,-223.425 453.15,-232.875C464.85,-242.325 471.6,-247.05 473.4,-247.05C477.3,-247.05 483,-241.434 490.5,-230.203C498,-218.977 501.75,-205.277 501.75,-189.105Z" style="fill:rgb(201,135,0);fill-rule:nonzero;"/>
        <clipPath id="_clip3">
            <path d="M501.75,-189.105C501.75,-183.115 495.075,-173.531 481.725,-160.355C468.375,-147.178 456.15,-138.645 445.05,-134.754C444.45,-137.749 443.85,-144.038 443.25,-153.619C442.65,-163.2 442.35,-171.584 442.35,-178.77C442.35,-184.46 442.65,-188.503 443.25,-190.898L434.25,-190.898C429.75,-190.898 425.85,-189.401 422.55,-186.405C419.25,-183.415 417.6,-179.972 417.6,-176.077L417.6,3.15L363.6,3.15L363.6,-115.207C363.6,-122.248 363.75,-129.061 364.05,-135.647C364.05,-156.609 361.425,-172.481 356.175,-183.263C350.925,-194.044 339.6,-201.68 322.2,-206.17L322.2,-210.663C324.6,-213.359 332.925,-220.097 347.175,-230.878C361.425,-241.659 369.6,-247.05 371.7,-247.05C380.7,-247.05 389.25,-241.725 397.35,-231.075C405.45,-220.425 412.2,-211.5 417.6,-204.3C429.6,-213.9 441.45,-223.425 453.15,-232.875C464.85,-242.325 471.6,-247.05 473.4,-247.05C477.3,-247.05 483,-241.434 490.5,-230.203C498,-218.977 501.75,-205.277 501.75,-189.105Z" clip-rule="nonzero"/>
        </clipPath>
        <g clip-path="url(#_clip3)">
            <g transform="matrix(0.819735,0,0,1,-3458.813086,-6480.649527)">
                <path d="M4859.836,3185.868L5405.376,3185.868L4309.882,7666.805L3726.587,7666.805L4859.836,3185.868Z" style="fill:rgb(231,190,106);"/>
            </g>
            <g transform="matrix(0.753613,0,0,1.245803,-2352.872582,-8365.176338)">
                <path d="M5104.367,3185.868L5953.515,3165.077L4673.627,7666.805L3499.087,7666.805L5104.367,3185.868Z" style="fill:rgb(231,190,106);"/>
            </g>
        </g>
        <path d="M714.15,-90.9C714.15,-64.8 704.85,-42.45 686.25,-23.85C667.65,-5.25 644.55,4.05 616.95,4.05C596.85,4.05 574.575,-3.9 550.125,-19.8C525.675,-35.7 513.45,-50.85 513.45,-65.25C513.45,-67.95 519.975,-72.675 533.025,-79.425C546.075,-86.175 557.4,-91.35 567,-94.95L567,-73.35C567,-58.95 571.725,-47.175 581.175,-38.025C590.625,-28.875 602.55,-24.3 616.95,-24.3C630.75,-24.3 642.45,-28.8 652.05,-37.8C661.65,-46.8 666.45,-58.05 666.45,-71.55C666.45,-83.85 662.175,-95.475 653.625,-106.425C645.075,-117.375 634.95,-122.85 623.25,-122.85C612.75,-122.85 598.35,-118.95 580.05,-111.15C561.75,-103.35 550.95,-99.45 547.65,-99.45C541.35,-107.55 535.125,-117.225 528.975,-128.475C522.825,-139.725 519.75,-153.9 519.75,-171C519.75,-194.7 529.575,-214.65 549.225,-230.85C568.875,-247.05 590.1,-255.15 612.9,-255.15C628.8,-255.15 646.8,-249.6 666.9,-238.5C687,-227.4 699.9,-214.2 705.6,-198.9L651.15,-168.75C646.65,-187.35 642,-201.75 637.2,-211.95C632.4,-222.15 621.3,-227.25 603.9,-227.25C593.7,-227.25 585,-223.35 577.8,-215.55C570.6,-207.75 567,-198.6 567,-188.1C567,-176.1 571.05,-165.6 579.15,-156.6C587.25,-147.6 596.25,-143.1 606.15,-143.1C617.55,-143.1 633.15,-147.75 652.95,-157.05C672.75,-166.35 683.1,-171 684,-171C690.6,-163.5 697.275,-153.825 704.025,-141.975C710.775,-130.125 714.15,-113.1 714.15,-90.9Z" style="fill:rgb(201,135,0);fill-rule:nonzero;"/>
        <clipPath id="_clip4">
            <path d="M714.15,-90.9C714.15,-64.8 704.85,-42.45 686.25,-23.85C667.65,-5.25 644.55,4.05 616.95,4.05C596.85,4.05 574.575,-3.9 550.125,-19.8C525.675,-35.7 513.45,-50.85 513.45,-65.25C513.45,-67.95 519.975,-72.675 533.025,-79.425C546.075,-86.175 557.4,-91.35 567,-94.95L567,-73.35C567,-58.95 571.725,-47.175 581.175,-38.025C590.625,-28.875 602.55,-24.3 616.95,-24.3C630.75,-24.3 642.45,-28.8 652.05,-37.8C661.65,-46.8 666.45,-58.05 666.45,-71.55C666.45,-83.85 662.175,-95.475 653.625,-106.425C645.075,-117.375 634.95,-122.85 623.25,-122.85C612.75,-122.85 598.35,-118.95 580.05,-111.15C561.75,-103.35 550.95,-99.45 547.65,-99.45C541.35,-107.55 535.125,-117.225 528.975,-128.475C522.825,-139.725 519.75,-153.9 519.75,-171C519.75,-194.7 529.575,-214.65 549.225,-230.85C568.875,-247.05 590.1,-255.15 612.9,-255.15C628.8,-255.15 646.8,-249.6 666.9,-238.5C687,-227.4 699.9,-214.2 705.6,-198.9L651.15,-168.75C646.65,-187.35 642,-201.75 637.2,-211.95C632.4,-222.15 621.3,-227.25 603.9,-227.25C593.7,-227.25 585,-223.35 577.8,-215.55C570.6,-207.75 567,-198.6 567,-188.1C567,-176.1 571.05,-165.6 579.15,-156.6C587.25,-147.6 596.25,-143.1 606.15,-143.1C617.55,-143.1 633.15,-147.75 652.95,-157.05C672.75,-166.35 683.1,-171 684,-171C690.6,-163.5 697.275,-153.825 704.025,-141.975C710.775,-130.125 714.15,-113.1 714.15,-90.9Z" clip-rule="nonzero"/>
        </clipPath>
        <g clip-path="url(#_clip4)">
            <g transform="matrix(0.819735,0,0,1,-3458.813086,-6480.649527)">
                <path d="M4859.836,3185.868L5405.376,3185.868L4309.882,7666.805L3726.587,7666.805L4859.836,3185.868Z" style="fill:rgb(231,190,106);"/>
            </g>
            <g transform="matrix(0.753613,0,0,1.245803,-2352.872582,-8365.176338)">
                <path d="M5104.367,3185.868L5953.515,3165.077L4673.627,7666.805L3499.087,7666.805L5104.367,3185.868Z" style="fill:rgb(231,190,106);"/>
            </g>
        </g>
        <path d="M883.8,-211.95L829.35,-211.95L829.35,-79.65C829.35,-66.45 834.15,-56.625 843.75,-50.175C853.35,-43.725 865.2,-40.5 879.3,-40.5L879.3,-32.316C864.3,-20.494 852.525,-11.627 843.975,-5.716C835.425,0.195 829.95,3.15 827.55,3.15C818.85,3.15 807.675,-2.761 794.025,-14.583C780.375,-26.409 773.55,-39.959 773.55,-55.23L773.55,-206.114C770.55,-208.209 767.475,-209.705 764.325,-210.6C761.175,-211.5 758.25,-211.95 755.55,-211.95L733.95,-211.95L733.95,-235.35L812.7,-304.65L827.55,-304.65C827.55,-297.75 827.7,-291.45 828,-285.75C828.3,-280.05 828.6,-274.35 828.9,-268.65C828.9,-262.65 828.45,-256.05 827.55,-248.85L883.8,-248.85L883.8,-211.95Z" style="fill:rgb(201,135,0);fill-rule:nonzero;"/>
        <clipPath id="_clip5">
            <path d="M883.8,-211.95L829.35,-211.95L829.35,-79.65C829.35,-66.45 834.15,-56.625 843.75,-50.175C853.35,-43.725 865.2,-40.5 879.3,-40.5L879.3,-32.316C864.3,-20.494 852.525,-11.627 843.975,-5.716C835.425,0.195 829.95,3.15 827.55,3.15C818.85,3.15 807.675,-2.761 794.025,-14.583C780.375,-26.409 773.55,-39.959 773.55,-55.23L773.55,-206.114C770.55,-208.209 767.475,-209.705 764.325,-210.6C761.175,-211.5 758.25,-211.95 755.55,-211.95L733.95,-211.95L733.95,-235.35L812.7,-304.65L827.55,-304.65C827.55,-297.75 827.7,-291.45 828,-285.75C828.3,-280.05 828.6,-274.35 828.9,-268.65C828.9,-262.65 828.45,-256.05 827.55,-248.85L883.8,-248.85L883.8,-211.95Z" clip-rule="nonzero"/>
        </clipPath>
        <g clip-path="url(#_clip5)">
            <g transform="matrix(0.819735,0,0,1,-3458.813086,-6480.649527)">
                <path d="M4859.836,3185.868L5405.376,3185.868L4309.882,7666.805L3726.587,7666.805L4859.836,3185.868Z" style="fill:rgb(231,190,106);"/>
            </g>
            <g transform="matrix(0.753613,0,0,1.245803,-2352.872582,-8365.176338)">
                <path d="M5104.367,3185.868L5953.515,3165.077L4673.627,7666.805L3499.087,7666.805L5104.367,3185.868Z" style="fill:rgb(231,190,106);"/>
            </g>
        </g>
        <path d="M1278,-211.95L1223.55,-211.95L1223.55,-79.65C1223.55,-66.45 1228.35,-56.625 1237.95,-50.175C1247.55,-43.725 1259.4,-40.5 1273.5,-40.5L1273.5,-32.316C1258.5,-20.494 1246.725,-11.627 1238.175,-5.716C1229.625,0.195 1224.15,3.15 1221.75,3.15C1213.05,3.15 1201.875,-2.761 1188.225,-14.583C1174.575,-26.409 1167.75,-39.959 1167.75,-55.23L1167.75,-206.114C1164.75,-208.209 1161.675,-209.705 1158.525,-210.6C1155.375,-211.5 1152.45,-211.95 1149.75,-211.95L1128.15,-211.95L1128.15,-235.35L1206.9,-304.65L1221.75,-304.65C1221.75,-297.75 1221.9,-291.45 1222.2,-285.75C1222.5,-280.05 1222.8,-274.35 1223.1,-268.65C1223.1,-262.65 1222.65,-256.05 1221.75,-248.85L1278,-248.85L1278,-211.95Z" style="fill:rgb(201,135,0);fill-rule:nonzero;"/>
        <clipPath id="_clip6">
            <path d="M1278,-211.95L1223.55,-211.95L1223.55,-79.65C1223.55,-66.45 1228.35,-56.625 1237.95,-50.175C1247.55,-43.725 1259.4,-40.5 1273.5,-40.5L1273.5,-32.316C1258.5,-20.494 1246.725,-11.627 1238.175,-5.716C1229.625,0.195 1224.15,3.15 1221.75,3.15C1213.05,3.15 1201.875,-2.761 1188.225,-14.583C1174.575,-26.409 1167.75,-39.959 1167.75,-55.23L1167.75,-206.114C1164.75,-208.209 1161.675,-209.705 1158.525,-210.6C1155.375,-211.5 1152.45,-211.95 1149.75,-211.95L1128.15,-211.95L1128.15,-235.35L1206.9,-304.65L1221.75,-304.65C1221.75,-297.75 1221.9,-291.45 1222.2,-285.75C1222.5,-280.05 1222.8,-274.35 1223.1,-268.65C1223.1,-262.65 1222.65,-256.05 1221.75,-248.85L1278,-248.85L1278,-211.95Z" clip-rule="nonzero"/>
        </clipPath>
        <g clip-path="url(#_clip6)">
            <g transform="matrix(0.819735,0,0,1,-3458.813086,-6480.649527)">
                <path d="M4859.836,3185.868L5405.376,3185.868L4309.882,7666.805L3726.587,7666.805L4859.836,3185.868Z" style="fill:rgb(231,190,106);"/>
            </g>
            <g transform="matrix(0.753613,0,0,1.245803,-2352.872582,-8365.176338)">
                <path d="M5104.367,3185.868L5953.515,3165.077L4673.627,7666.805L3499.087,7666.805L5104.367,3185.868Z" style="fill:rgb(231,190,106);"/>
            </g>
        </g>
        <path d="M1400.4,-351L1400.4,-341.55C1400.4,-338.55 1400.55,-335.85 1400.85,-333.45C1400.85,-326.25 1397.25,-321.3 1390.05,-318.6C1371.15,-313.2 1350.75,-307.2 1328.85,-300.6C1328.25,-303 1327.95,-304.8 1327.95,-306C1328.55,-309.9 1328.85,-313.2 1328.85,-315.9C1328.85,-326.1 1334.925,-334.5 1347.075,-341.1C1359.225,-347.7 1374.75,-356.1 1393.65,-366.3L1400.4,-366.3C1401.3,-362.7 1401.75,-359.7 1401.75,-357.3C1401.75,-354.6 1401.6,-352.95 1401.3,-352.35C1401,-351.75 1400.7,-351.3 1400.4,-351ZM1433.25,-24.75C1430.85,-22.65 1421.775,-17.025 1406.025,-7.875C1390.275,1.275 1381.2,5.85 1378.8,5.85C1369.8,-1.35 1360.725,-9.075 1351.575,-17.325C1342.425,-25.575 1337.85,-32.4 1337.85,-37.8L1337.85,-172.35C1337.85,-183.15 1332,-191.85 1320.3,-198.45C1308.6,-205.05 1302.75,-209.55 1302.75,-211.95C1311.15,-220.05 1319.775,-228.15 1328.625,-236.25C1337.475,-244.35 1343.25,-248.4 1345.95,-248.4C1356.75,-241.2 1367.4,-232.725 1377.9,-222.975C1388.4,-213.225 1393.65,-202.2 1393.65,-189.9L1393.65,-109.35C1393.65,-82.35 1395.675,-63.3 1399.725,-52.2C1403.775,-41.1 1414.95,-34.8 1433.25,-33.3L1433.25,-24.75Z" style="fill:rgb(201,135,0);fill-rule:nonzero;"/>
        <clipPath id="_clip7">
            <path d="M1400.4,-351L1400.4,-341.55C1400.4,-338.55 1400.55,-335.85 1400.85,-333.45C1400.85,-326.25 1397.25,-321.3 1390.05,-318.6C1371.15,-313.2 1350.75,-307.2 1328.85,-300.6C1328.25,-303 1327.95,-304.8 1327.95,-306C1328.55,-309.9 1328.85,-313.2 1328.85,-315.9C1328.85,-326.1 1334.925,-334.5 1347.075,-341.1C1359.225,-347.7 1374.75,-356.1 1393.65,-366.3L1400.4,-366.3C1401.3,-362.7 1401.75,-359.7 1401.75,-357.3C1401.75,-354.6 1401.6,-352.95 1401.3,-352.35C1401,-351.75 1400.7,-351.3 1400.4,-351ZM1433.25,-24.75C1430.85,-22.65 1421.775,-17.025 1406.025,-7.875C1390.275,1.275 1381.2,5.85 1378.8,5.85C1369.8,-1.35 1360.725,-9.075 1351.575,-17.325C1342.425,-25.575 1337.85,-32.4 1337.85,-37.8L1337.85,-172.35C1337.85,-183.15 1332,-191.85 1320.3,-198.45C1308.6,-205.05 1302.75,-209.55 1302.75,-211.95C1311.15,-220.05 1319.775,-228.15 1328.625,-236.25C1337.475,-244.35 1343.25,-248.4 1345.95,-248.4C1356.75,-241.2 1367.4,-232.725 1377.9,-222.975C1388.4,-213.225 1393.65,-202.2 1393.65,-189.9L1393.65,-109.35C1393.65,-82.35 1395.675,-63.3 1399.725,-52.2C1403.775,-41.1 1414.95,-34.8 1433.25,-33.3L1433.25,-24.75Z" clip-rule="nonzero"/>
        </clipPath>
        <g clip-path="url(#_clip7)">
            <g transform="matrix(0.819735,0,0,1,-3458.813086,-6480.649527)">
                <path d="M4859.836,3185.868L5405.376,3185.868L4309.882,7666.805L3726.587,7666.805L4859.836,3185.868Z" style="fill:rgb(231,190,106);"/>
            </g>
            <g transform="matrix(0.753613,0,0,1.245803,-2352.872582,-8365.176338)">
                <path d="M5104.367,3185.868L5953.515,3165.077L4673.627,7666.805L3499.087,7666.805L5104.367,3185.868Z" style="fill:rgb(231,190,106);"/>
            </g>
        </g>
        <path d="M1812.15,2.25L1758.15,2.25L1758.15,-111.375C1758.15,-117.525 1758.3,-123.45 1758.6,-129.15C1758.6,-151.35 1755.825,-167.25 1750.275,-176.85C1744.725,-186.45 1732.35,-191.25 1713.15,-191.25C1695.75,-191.25 1684.125,-188.85 1678.275,-184.05C1672.425,-179.25 1669.5,-171.3 1669.5,-160.2C1669.5,-153.9 1669.95,-144.975 1670.85,-133.425C1671.75,-121.875 1672.2,-114.6 1672.2,-111.6L1672.2,2.25L1616.4,2.25L1616.4,-159.3C1616.4,-169.5 1611.975,-177.75 1603.125,-184.05C1594.275,-190.35 1584.15,-193.5 1572.75,-193.5C1571.25,-193.5 1564.35,-192.075 1552.05,-189.225C1539.75,-186.375 1532.4,-184.2 1530,-182.7L1530,2.25L1476.45,2.25L1476.45,-150.3C1476.45,-171.3 1473.975,-185.55 1469.025,-193.05C1464.075,-200.55 1453.5,-204.3 1437.3,-204.3L1437.3,-208.814C1438.5,-213.323 1444.125,-219.488 1454.175,-227.306C1464.225,-235.125 1474.35,-242.644 1484.55,-249.863C1496.25,-249.863 1507.35,-242.344 1517.85,-227.306C1522.35,-218.888 1527,-210.469 1531.8,-202.05L1536.75,-202.05C1540.35,-205.959 1552.05,-214.905 1571.85,-228.888C1591.65,-242.871 1602.9,-249.863 1605.6,-249.863C1611.9,-249.863 1621.575,-247.08 1634.625,-241.516C1647.675,-235.952 1655.55,-231.366 1658.25,-227.756C1660.95,-224.152 1663.5,-218.965 1665.9,-212.196C1668.3,-205.432 1671.3,-202.05 1674.9,-202.05C1675.8,-202.05 1687.5,-210.019 1710,-225.956C1732.5,-241.894 1745.7,-249.863 1749.6,-249.863C1763.7,-249.863 1777.65,-244.085 1791.45,-232.53C1805.25,-220.976 1812.15,-201.691 1812.15,-174.677L1812.15,2.25Z" style="fill:rgb(201,135,0);fill-rule:nonzero;"/>
        <clipPath id="_clip8">
            <path d="M1812.15,2.25L1758.15,2.25L1758.15,-111.375C1758.15,-117.525 1758.3,-123.45 1758.6,-129.15C1758.6,-151.35 1755.825,-167.25 1750.275,-176.85C1744.725,-186.45 1732.35,-191.25 1713.15,-191.25C1695.75,-191.25 1684.125,-188.85 1678.275,-184.05C1672.425,-179.25 1669.5,-171.3 1669.5,-160.2C1669.5,-153.9 1669.95,-144.975 1670.85,-133.425C1671.75,-121.875 1672.2,-114.6 1672.2,-111.6L1672.2,2.25L1616.4,2.25L1616.4,-159.3C1616.4,-169.5 1611.975,-177.75 1603.125,-184.05C1594.275,-190.35 1584.15,-193.5 1572.75,-193.5C1571.25,-193.5 1564.35,-192.075 1552.05,-189.225C1539.75,-186.375 1532.4,-184.2 1530,-182.7L1530,2.25L1476.45,2.25L1476.45,-150.3C1476.45,-171.3 1473.975,-185.55 1469.025,-193.05C1464.075,-200.55 1453.5,-204.3 1437.3,-204.3L1437.3,-208.814C1438.5,-213.323 1444.125,-219.488 1454.175,-227.306C1464.225,-235.125 1474.35,-242.644 1484.55,-249.863C1496.25,-249.863 1507.35,-242.344 1517.85,-227.306C1522.35,-218.888 1527,-210.469 1531.8,-202.05L1536.75,-202.05C1540.35,-205.959 1552.05,-214.905 1571.85,-228.888C1591.65,-242.871 1602.9,-249.863 1605.6,-249.863C1611.9,-249.863 1621.575,-247.08 1634.625,-241.516C1647.675,-235.952 1655.55,-231.366 1658.25,-227.756C1660.95,-224.152 1663.5,-218.965 1665.9,-212.196C1668.3,-205.432 1671.3,-202.05 1674.9,-202.05C1675.8,-202.05 1687.5,-210.019 1710,-225.956C1732.5,-241.894 1745.7,-249.863 1749.6,-249.863C1763.7,-249.863 1777.65,-244.085 1791.45,-232.53C1805.25,-220.976 1812.15,-201.691 1812.15,-174.677L1812.15,2.25Z" clip-rule="nonzero"/>
        </clipPath>
        <g clip-path="url(#_clip8)">
            <g transform="matrix(0.819735,0,0,1,-3458.813086,-6480.649527)">
                <path d="M4859.836,3185.868L5405.376,3185.868L4309.882,7666.805L3726.587,7666.805L4859.836,3185.868Z" style="fill:rgb(231,190,106);"/>
            </g>
            <g transform="matrix(0.753613,0,0,1.245803,-2352.872582,-8365.176338)">
                <path d="M5104.367,3185.868L5953.515,3165.077L4673.627,7666.805L3499.087,7666.805L5104.367,3185.868Z" style="fill:rgb(231,190,106);"/>
            </g>
        </g>
        <path d="M2003.4,-62.55C1995.9,-47.648 1988.1,-32.747 1980,-17.845C1971.9,-2.948 1965.3,4.5 1960.2,4.5C1952.1,4.5 1939.425,2.1 1922.175,-2.7C1904.925,-7.505 1887.75,-18.984 1870.65,-37.139C1853.55,-55.298 1845,-82.088 1845,-117.506C1845,-142.416 1848,-160.198 1854,-170.852C1860,-181.507 1871.475,-195.312 1888.425,-212.266C1905.375,-229.226 1916.325,-240.105 1921.275,-244.905C1926.225,-249.71 1930.35,-252.113 1933.65,-252.113C1947.75,-242.194 1962,-231.748 1976.4,-220.774C1990.8,-209.805 1999.05,-201.314 2001.15,-195.3L1899.45,-95.857C1907.55,-79.952 1916.55,-69.825 1926.45,-65.475C1936.35,-61.125 1949.7,-58.95 1966.5,-58.95C1981.2,-58.95 1992,-60.15 1998.9,-62.55L2003.4,-62.55ZM1896.75,-117.577L1944.9,-164.777C1941,-171.977 1935.975,-177.527 1929.825,-181.427C1923.675,-185.327 1917.75,-188.627 1912.05,-191.327C1905.75,-191.327 1899.675,-186.002 1893.825,-175.352C1887.975,-164.707 1885.05,-153.689 1885.05,-142.298C1885.05,-130.013 1888.95,-121.772 1896.75,-117.577Z" style="fill:rgb(201,135,0);fill-rule:nonzero;"/>
        <clipPath id="_clip9">
            <path d="M2003.4,-62.55C1995.9,-47.648 1988.1,-32.747 1980,-17.845C1971.9,-2.948 1965.3,4.5 1960.2,4.5C1952.1,4.5 1939.425,2.1 1922.175,-2.7C1904.925,-7.505 1887.75,-18.984 1870.65,-37.139C1853.55,-55.298 1845,-82.088 1845,-117.506C1845,-142.416 1848,-160.198 1854,-170.852C1860,-181.507 1871.475,-195.312 1888.425,-212.266C1905.375,-229.226 1916.325,-240.105 1921.275,-244.905C1926.225,-249.71 1930.35,-252.113 1933.65,-252.113C1947.75,-242.194 1962,-231.748 1976.4,-220.774C1990.8,-209.805 1999.05,-201.314 2001.15,-195.3L1899.45,-95.857C1907.55,-79.952 1916.55,-69.825 1926.45,-65.475C1936.35,-61.125 1949.7,-58.95 1966.5,-58.95C1981.2,-58.95 1992,-60.15 1998.9,-62.55L2003.4,-62.55ZM1896.75,-117.577L1944.9,-164.777C1941,-171.977 1935.975,-177.527 1929.825,-181.427C1923.675,-185.327 1917.75,-188.627 1912.05,-191.327C1905.75,-191.327 1899.675,-186.002 1893.825,-175.352C1887.975,-164.707 1885.05,-153.689 1885.05,-142.298C1885.05,-130.013 1888.95,-121.772 1896.75,-117.577Z" clip-rule="nonzero"/>
        </clipPath>
        <g clip-path="url(#_clip9)">
            <g transform="matrix(0.819735,0,0,1,-3458.813086,-6480.649527)">
                <path d="M4859.836,3185.868L5405.376,3185.868L4309.882,7666.805L3726.587,7666.805L4859.836,3185.868Z" style="fill:rgb(231,190,106);"/>
            </g>
            <g transform="matrix(0.753613,0,0,1.245803,-2352.872582,-8365.176338)">
                <path d="M5104.367,3185.868L5953.515,3165.077L4673.627,7666.805L3499.087,7666.805L5104.367,3185.868Z" style="fill:rgb(231,190,106);"/>
            </g>
        </g>
        <path d="M2321.1,-245.25C2321.1,-239.55 2321.25,-233.85 2321.55,-228.15C2321.85,-222.45 2322,-219.3 2322,-218.7C2322,-217.5 2321.7,-215.4 2321.1,-212.4L2327.4,-212.4C2330.7,-213.6 2339.55,-220.05 2353.95,-231.75C2368.35,-243.45 2376.9,-249.3 2379.6,-249.3C2400.6,-249.3 2421.75,-237.755 2443.05,-214.664C2464.35,-191.573 2475,-163.385 2475,-130.099C2475,-112.709 2471.025,-94.416 2463.075,-75.22C2455.125,-56.03 2443.65,-38.862 2428.65,-23.716C2413.65,-8.576 2402.55,2.067 2395.35,8.213C2388.15,14.363 2383.65,17.438 2381.85,17.438C2381.25,17.438 2376.75,13.09 2368.35,4.395C2393.85,-25.291 2409.675,-47.105 2415.825,-61.045C2421.975,-74.986 2425.05,-90.652 2425.05,-108.042C2425.05,-128.133 2419.275,-146.573 2407.725,-163.364C2396.175,-180.155 2379.6,-188.55 2358,-188.55C2345.7,-188.55 2336.85,-187.05 2331.45,-184.05C2326.05,-181.05 2323.35,-175.2 2323.35,-166.5L2323.35,2.25C2317.35,3.45 2306.1,4.05 2289.6,4.05C2285.1,4.05 2281.125,3.975 2277.675,3.825C2274.225,3.675 2270.55,3.15 2266.65,2.25L2266.65,-268.65C2266.65,-282.45 2264.7,-293.7 2260.8,-302.4C2256.3,-309.9 2251.8,-317.55 2247.3,-325.35C2247.3,-327.15 2257.275,-333.3 2277.225,-343.8C2297.175,-354.3 2309.55,-361.05 2314.35,-364.05L2327.4,-364.05C2325.9,-351.15 2325.15,-339.6 2325.15,-329.4C2325.15,-320.1 2324.475,-304.95 2323.125,-283.95C2321.775,-262.95 2321.1,-250.05 2321.1,-245.25Z" style="fill:rgb(201,135,0);fill-rule:nonzero;"/>
        <clipPath id="_clip10">
            <path d="M2321.1,-245.25C2321.1,-239.55 2321.25,-233.85 2321.55,-228.15C2321.85,-222.45 2322,-219.3 2322,-218.7C2322,-217.5 2321.7,-215.4 2321.1,-212.4L2327.4,-212.4C2330.7,-213.6 2339.55,-220.05 2353.95,-231.75C2368.35,-243.45 2376.9,-249.3 2379.6,-249.3C2400.6,-249.3 2421.75,-237.755 2443.05,-214.664C2464.35,-191.573 2475,-163.385 2475,-130.099C2475,-112.709 2471.025,-94.416 2463.075,-75.22C2455.125,-56.03 2443.65,-38.862 2428.65,-23.716C2413.65,-8.576 2402.55,2.067 2395.35,8.213C2388.15,14.363 2383.65,17.438 2381.85,17.438C2381.25,17.438 2376.75,13.09 2368.35,4.395C2393.85,-25.291 2409.675,-47.105 2415.825,-61.045C2421.975,-74.986 2425.05,-90.652 2425.05,-108.042C2425.05,-128.133 2419.275,-146.573 2407.725,-163.364C2396.175,-180.155 2379.6,-188.55 2358,-188.55C2345.7,-188.55 2336.85,-187.05 2331.45,-184.05C2326.05,-181.05 2323.35,-175.2 2323.35,-166.5L2323.35,2.25C2317.35,3.45 2306.1,4.05 2289.6,4.05C2285.1,4.05 2281.125,3.975 2277.675,3.825C2274.225,3.675 2270.55,3.15 2266.65,2.25L2266.65,-268.65C2266.65,-282.45 2264.7,-293.7 2260.8,-302.4C2256.3,-309.9 2251.8,-317.55 2247.3,-325.35C2247.3,-327.15 2257.275,-333.3 2277.225,-343.8C2297.175,-354.3 2309.55,-361.05 2314.35,-364.05L2327.4,-364.05C2325.9,-351.15 2325.15,-339.6 2325.15,-329.4C2325.15,-320.1 2324.475,-304.95 2323.125,-283.95C2321.775,-262.95 2321.1,-250.05 2321.1,-245.25Z" clip-rule="nonzero"/>
        </clipPath>
        <g clip-path="url(#_clip10)">
            <g transform="matrix(0.819735,0,0,1,-3458.813086,-6480.649527)">
                <path d="M4859.836,3185.868L5405.376,3185.868L4309.882,7666.805L3726.587,7666.805L4859.836,3185.868Z" style="fill:rgb(231,190,106);"/>
            </g>
            <g transform="matrix(0.753613,0,0,1.245803,-2352.872582,-8365.176338)">
                <path d="M5104.367,3185.868L5953.515,3165.077L4673.627,7666.805L3499.087,7666.805L5104.367,3185.868Z" style="fill:rgb(231,190,106);"/>
            </g>
        </g>
        <path d="M2645.1,-86.85L2645.1,-173.7C2637.6,-181.5 2628.975,-187.95 2619.225,-193.05C2609.475,-198.15 2600.55,-202.65 2592.45,-206.55C2581.65,-206.55 2571.675,-196.95 2562.525,-177.75C2553.375,-158.55 2548.8,-144.15 2548.8,-134.55C2548.8,-114.75 2555.4,-97.8 2568.6,-83.7C2581.8,-69.6 2594.1,-62.55 2605.5,-62.55C2618.7,-62.55 2628.6,-65.4 2635.2,-71.1C2641.8,-76.8 2645.1,-82.05 2645.1,-86.85ZM2705.4,-64.35C2705.4,-60.15 2709.675,-53.925 2718.225,-45.675C2726.775,-37.425 2731.05,-32.85 2731.05,-31.95C2731.05,-31.05 2723.925,-24.825 2709.675,-13.275C2695.425,-1.725 2687.55,4.05 2686.05,4.05C2677.95,-1.05 2669.85,-7.35 2661.75,-14.85C2653.65,-22.35 2649.6,-31.95 2649.6,-43.65L2640.6,-47.25C2636.1,-43.05 2624.775,-34.05 2606.625,-20.25C2588.475,-6.45 2578.65,0.45 2577.15,0.45C2559.75,0.45 2541.225,-10.875 2521.575,-33.525C2501.925,-56.175 2492.1,-80.55 2492.1,-106.65C2492.1,-125.85 2495.7,-142.5 2502.9,-156.6C2510.1,-170.7 2517.975,-182.1 2526.525,-190.8C2535.075,-199.5 2551.8,-213.825 2576.7,-233.775C2601.6,-253.725 2615.7,-263.7 2619,-263.7L2673.45,-233.1C2684.85,-227.1 2696.25,-221.1 2707.65,-215.1C2718.15,-208.5 2723.4,-203.55 2723.4,-200.25C2723.4,-196.95 2720.1,-192.3 2713.5,-186.3C2706.9,-180.3 2703.6,-174 2703.6,-167.4L2703.6,-97.65C2702.7,-91.95 2701.875,-86.1 2701.125,-80.1C2700.375,-74.1 2700,-69.75 2700,-67.05C2700,-62.85 2700.6,-60.75 2701.8,-60.75C2702.4,-60.75 2703.075,-61.2 2703.825,-62.1C2704.575,-63 2705.1,-63.75 2705.4,-64.35Z" style="fill:rgb(201,135,0);fill-rule:nonzero;"/>
        <clipPath id="_clip11">
            <path d="M2645.1,-86.85L2645.1,-173.7C2637.6,-181.5 2628.975,-187.95 2619.225,-193.05C2609.475,-198.15 2600.55,-202.65 2592.45,-206.55C2581.65,-206.55 2571.675,-196.95 2562.525,-177.75C2553.375,-158.55 2548.8,-144.15 2548.8,-134.55C2548.8,-114.75 2555.4,-97.8 2568.6,-83.7C2581.8,-69.6 2594.1,-62.55 2605.5,-62.55C2618.7,-62.55 2628.6,-65.4 2635.2,-71.1C2641.8,-76.8 2645.1,-82.05 2645.1,-86.85ZM2705.4,-64.35C2705.4,-60.15 2709.675,-53.925 2718.225,-45.675C2726.775,-37.425 2731.05,-32.85 2731.05,-31.95C2731.05,-31.05 2723.925,-24.825 2709.675,-13.275C2695.425,-1.725 2687.55,4.05 2686.05,4.05C2677.95,-1.05 2669.85,-7.35 2661.75,-14.85C2653.65,-22.35 2649.6,-31.95 2649.6,-43.65L2640.6,-47.25C2636.1,-43.05 2624.775,-34.05 2606.625,-20.25C2588.475,-6.45 2578.65,0.45 2577.15,0.45C2559.75,0.45 2541.225,-10.875 2521.575,-33.525C2501.925,-56.175 2492.1,-80.55 2492.1,-106.65C2492.1,-125.85 2495.7,-142.5 2502.9,-156.6C2510.1,-170.7 2517.975,-182.1 2526.525,-190.8C2535.075,-199.5 2551.8,-213.825 2576.7,-233.775C2601.6,-253.725 2615.7,-263.7 2619,-263.7L2673.45,-233.1C2684.85,-227.1 2696.25,-221.1 2707.65,-215.1C2718.15,-208.5 2723.4,-203.55 2723.4,-200.25C2723.4,-196.95 2720.1,-192.3 2713.5,-186.3C2706.9,-180.3 2703.6,-174 2703.6,-167.4L2703.6,-97.65C2702.7,-91.95 2701.875,-86.1 2701.125,-80.1C2700.375,-74.1 2700,-69.75 2700,-67.05C2700,-62.85 2700.6,-60.75 2701.8,-60.75C2702.4,-60.75 2703.075,-61.2 2703.825,-62.1C2704.575,-63 2705.1,-63.75 2705.4,-64.35Z" clip-rule="nonzero"/>
        </clipPath>
        <g clip-path="url(#_clip11)">
            <g transform="matrix(0.819735,0,0,1,-3458.813086,-6480.649527)">
                <path d="M4859.836,3185.868L5405.376,3185.868L4309.882,7666.805L3726.587,7666.805L4859.836,3185.868Z" style="fill:rgb(231,190,106);"/>
            </g>
            <g transform="matrix(0.753613,0,0,1.245803,-2352.872582,-8365.176338)">
                <path d="M5104.367,3185.868L5953.515,3165.077L4673.627,7666.805L3499.087,7666.805L5104.367,3185.868Z" style="fill:rgb(231,190,106);"/>
            </g>
        </g>
        <path d="M2912.4,-64.35C2901,-41.85 2890.95,-24.825 2882.25,-13.275C2873.55,-1.725 2856.6,4.05 2831.4,4.05C2808.9,4.05 2789.325,-4.727 2772.675,-22.282C2756.025,-39.841 2747.7,-57.626 2747.7,-75.635L2747.7,-176.027C2747.7,-181.732 2752.8,-187.584 2763,-193.584C2773.2,-199.589 2789.325,-210.019 2811.375,-224.873C2833.425,-239.733 2845.65,-247.163 2848.05,-247.163C2859.75,-239.344 2871.975,-231.298 2884.725,-223.024C2897.475,-214.755 2905.95,-208.516 2910.15,-204.307C2908.95,-201.002 2903.775,-193.35 2894.625,-181.35C2885.475,-169.35 2880,-163.35 2878.2,-163.35C2876.1,-163.35 2866.8,-169.725 2850.3,-182.475C2833.8,-195.225 2821.65,-201.6 2813.85,-201.6C2811.15,-201.6 2808.3,-199.95 2805.3,-196.65C2802.3,-193.35 2800.8,-190.05 2800.8,-186.75L2800.8,-92.25C2800.8,-81.75 2805.3,-72 2814.3,-63C2823.3,-54 2834.55,-49.5 2848.05,-49.5C2857.65,-49.5 2868.075,-52.125 2879.325,-57.375C2890.575,-62.625 2899.5,-68.7 2906.1,-75.6L2912.4,-75.6L2912.4,-64.35Z" style="fill:rgb(201,135,0);fill-rule:nonzero;"/>
        <clipPath id="_clip12">
            <path d="M2912.4,-64.35C2901,-41.85 2890.95,-24.825 2882.25,-13.275C2873.55,-1.725 2856.6,4.05 2831.4,4.05C2808.9,4.05 2789.325,-4.727 2772.675,-22.282C2756.025,-39.841 2747.7,-57.626 2747.7,-75.635L2747.7,-176.027C2747.7,-181.732 2752.8,-187.584 2763,-193.584C2773.2,-199.589 2789.325,-210.019 2811.375,-224.873C2833.425,-239.733 2845.65,-247.163 2848.05,-247.163C2859.75,-239.344 2871.975,-231.298 2884.725,-223.024C2897.475,-214.755 2905.95,-208.516 2910.15,-204.307C2908.95,-201.002 2903.775,-193.35 2894.625,-181.35C2885.475,-169.35 2880,-163.35 2878.2,-163.35C2876.1,-163.35 2866.8,-169.725 2850.3,-182.475C2833.8,-195.225 2821.65,-201.6 2813.85,-201.6C2811.15,-201.6 2808.3,-199.95 2805.3,-196.65C2802.3,-193.35 2800.8,-190.05 2800.8,-186.75L2800.8,-92.25C2800.8,-81.75 2805.3,-72 2814.3,-63C2823.3,-54 2834.55,-49.5 2848.05,-49.5C2857.65,-49.5 2868.075,-52.125 2879.325,-57.375C2890.575,-62.625 2899.5,-68.7 2906.1,-75.6L2912.4,-75.6L2912.4,-64.35Z" clip-rule="nonzero"/>
        </clipPath>
        <g clip-path="url(#_clip12)">
            <g transform="matrix(0.819735,0,0,1,-3458.813086,-6480.649527)">
                <path d="M4859.836,3185.868L5405.376,3185.868L4309.882,7666.805L3726.587,7666.805L4859.836,3185.868Z" style="fill:rgb(231,190,106);"/>
            </g>
            <g transform="matrix(0.753613,0,0,1.245803,-2352.872582,-8365.176338)">
                <path d="M5104.367,3185.868L5953.515,3165.077L4673.627,7666.805L3499.087,7666.805L5104.367,3185.868Z" style="fill:rgb(231,190,106);"/>
            </g>
        </g>
        <path d="M3154.95,1.8L3094.65,1.8C3094.65,-25.2 3088.125,-50.025 3075.075,-72.675C3062.025,-95.325 3043.95,-106.65 3020.85,-106.65C3015.45,-106.65 3011.85,-105.15 3010.05,-102.15C3008.25,-99.15 3007.35,-94.05 3007.35,-86.85C3007.35,-83.25 3007.5,-76.8 3007.8,-67.5C3008.1,-58.2 3008.25,-52.35 3008.25,-49.95L3008.25,1.8L2954.25,1.8L2954.25,-274.95C2954.25,-280.35 2951.7,-287.55 2946.6,-296.55C2941.5,-305.55 2936.1,-314.1 2930.4,-322.2C2930.4,-323.7 2940.6,-330.225 2961,-341.775C2981.4,-353.325 2997.15,-361.35 3008.25,-365.85C3008.85,-364.65 3010.35,-364.65 3012.75,-365.85C3011.55,-359.55 3010.5,-353.025 3009.6,-346.275C3008.7,-339.525 3008.25,-334.5 3008.25,-331.2L3008.25,-206.1C3016.05,-204.9 3027.9,-212.1 3043.8,-227.7C3059.7,-243.3 3069.45,-251.1 3073.05,-251.1C3088.95,-251.1 3105.225,-241.65 3121.875,-222.75C3138.525,-203.85 3146.85,-181.65 3146.85,-156.15C3146.85,-148.65 3139.875,-142.275 3125.925,-137.025C3111.975,-131.775 3103.65,-128.1 3100.95,-126C3119.25,-105 3132.9,-82.8 3141.9,-59.4C3148.8,-36.9 3153.15,-22.95 3154.95,-17.55L3154.95,1.8ZM3085.65,-166.95C3085.65,-172.35 3082.35,-178.35 3075.75,-184.95C3069.15,-191.55 3061.8,-194.85 3053.7,-194.85C3043.2,-194.85 3033.375,-191.475 3024.225,-184.725C3015.075,-177.975 3010.5,-167.7 3010.5,-153.9C3010.2,-148.5 3010.05,-144.3 3010.05,-141.3C3010.05,-137.7 3010.425,-134.925 3011.175,-132.975C3011.925,-131.025 3013.8,-130.05 3016.8,-130.05C3038.7,-130.05 3054.3,-134.1 3063.6,-142.2C3072.9,-150.3 3080.25,-158.55 3085.65,-166.95Z" style="fill:rgb(201,135,0);fill-rule:nonzero;"/>
        <clipPath id="_clip13">
            <path d="M3154.95,1.8L3094.65,1.8C3094.65,-25.2 3088.125,-50.025 3075.075,-72.675C3062.025,-95.325 3043.95,-106.65 3020.85,-106.65C3015.45,-106.65 3011.85,-105.15 3010.05,-102.15C3008.25,-99.15 3007.35,-94.05 3007.35,-86.85C3007.35,-83.25 3007.5,-76.8 3007.8,-67.5C3008.1,-58.2 3008.25,-52.35 3008.25,-49.95L3008.25,1.8L2954.25,1.8L2954.25,-274.95C2954.25,-280.35 2951.7,-287.55 2946.6,-296.55C2941.5,-305.55 2936.1,-314.1 2930.4,-322.2C2930.4,-323.7 2940.6,-330.225 2961,-341.775C2981.4,-353.325 2997.15,-361.35 3008.25,-365.85C3008.85,-364.65 3010.35,-364.65 3012.75,-365.85C3011.55,-359.55 3010.5,-353.025 3009.6,-346.275C3008.7,-339.525 3008.25,-334.5 3008.25,-331.2L3008.25,-206.1C3016.05,-204.9 3027.9,-212.1 3043.8,-227.7C3059.7,-243.3 3069.45,-251.1 3073.05,-251.1C3088.95,-251.1 3105.225,-241.65 3121.875,-222.75C3138.525,-203.85 3146.85,-181.65 3146.85,-156.15C3146.85,-148.65 3139.875,-142.275 3125.925,-137.025C3111.975,-131.775 3103.65,-128.1 3100.95,-126C3119.25,-105 3132.9,-82.8 3141.9,-59.4C3148.8,-36.9 3153.15,-22.95 3154.95,-17.55L3154.95,1.8ZM3085.65,-166.95C3085.65,-172.35 3082.35,-178.35 3075.75,-184.95C3069.15,-191.55 3061.8,-194.85 3053.7,-194.85C3043.2,-194.85 3033.375,-191.475 3024.225,-184.725C3015.075,-177.975 3010.5,-167.7 3010.5,-153.9C3010.2,-148.5 3010.05,-144.3 3010.05,-141.3C3010.05,-137.7 3010.425,-134.925 3011.175,-132.975C3011.925,-131.025 3013.8,-130.05 3016.8,-130.05C3038.7,-130.05 3054.3,-134.1 3063.6,-142.2C3072.9,-150.3 3080.25,-158.55 3085.65,-166.95Z" clip-rule="nonzero"/>
        </clipPath>
        <g clip-path="url(#_clip13)">
            <g transform="matrix(0.819735,0,0,1,-3458.813086,-6480.649527)">
                <path d="M4859.836,3185.868L5405.376,3185.868L4309.882,7666.805L3726.587,7666.805L4859.836,3185.868Z" style="fill:rgb(231,190,106);"/>
            </g>
            <g transform="matrix(0.753613,0,0,1.245803,-2352.872582,-8365.176338)">
                <path d="M5104.367,3185.868L5953.515,3165.077L4673.627,7666.805L3499.087,7666.805L5104.367,3185.868Z" style="fill:rgb(231,190,106);"/>
            </g>
        </g>
        <path d="M3338.55,-62.55C3331.05,-47.648 3323.25,-32.747 3315.15,-17.845C3307.05,-2.948 3300.45,4.5 3295.35,4.5C3287.25,4.5 3274.575,2.1 3257.325,-2.7C3240.075,-7.505 3222.9,-18.984 3205.8,-37.139C3188.7,-55.298 3180.15,-82.088 3180.15,-117.506C3180.15,-142.416 3183.15,-160.198 3189.15,-170.852C3195.15,-181.507 3206.625,-195.312 3223.575,-212.266C3240.525,-229.226 3251.475,-240.105 3256.425,-244.905C3261.375,-249.71 3265.5,-252.113 3268.8,-252.113C3282.9,-242.194 3297.15,-231.748 3311.55,-220.774C3325.95,-209.805 3334.2,-201.314 3336.3,-195.3L3234.6,-95.857C3242.7,-79.952 3251.7,-69.825 3261.6,-65.475C3271.5,-61.125 3284.85,-58.95 3301.65,-58.95C3316.35,-58.95 3327.15,-60.15 3334.05,-62.55L3338.55,-62.55ZM3231.9,-117.577L3280.05,-164.777C3276.15,-171.977 3271.125,-177.527 3264.975,-181.427C3258.825,-185.327 3252.9,-188.627 3247.2,-191.327C3240.9,-191.327 3234.825,-186.002 3228.975,-175.352C3223.125,-164.707 3220.2,-153.689 3220.2,-142.298C3220.2,-130.013 3224.1,-121.772 3231.9,-117.577Z" style="fill:rgb(201,135,0);fill-rule:nonzero;"/>
        <clipPath id="_clip14">
            <path d="M3338.55,-62.55C3331.05,-47.648 3323.25,-32.747 3315.15,-17.845C3307.05,-2.948 3300.45,4.5 3295.35,4.5C3287.25,4.5 3274.575,2.1 3257.325,-2.7C3240.075,-7.505 3222.9,-18.984 3205.8,-37.139C3188.7,-55.298 3180.15,-82.088 3180.15,-117.506C3180.15,-142.416 3183.15,-160.198 3189.15,-170.852C3195.15,-181.507 3206.625,-195.312 3223.575,-212.266C3240.525,-229.226 3251.475,-240.105 3256.425,-244.905C3261.375,-249.71 3265.5,-252.113 3268.8,-252.113C3282.9,-242.194 3297.15,-231.748 3311.55,-220.774C3325.95,-209.805 3334.2,-201.314 3336.3,-195.3L3234.6,-95.857C3242.7,-79.952 3251.7,-69.825 3261.6,-65.475C3271.5,-61.125 3284.85,-58.95 3301.65,-58.95C3316.35,-58.95 3327.15,-60.15 3334.05,-62.55L3338.55,-62.55ZM3231.9,-117.577L3280.05,-164.777C3276.15,-171.977 3271.125,-177.527 3264.975,-181.427C3258.825,-185.327 3252.9,-188.627 3247.2,-191.327C3240.9,-191.327 3234.825,-186.002 3228.975,-175.352C3223.125,-164.707 3220.2,-153.689 3220.2,-142.298C3220.2,-130.013 3224.1,-121.772 3231.9,-117.577Z" clip-rule="nonzero"/>
        </clipPath>
        <g clip-path="url(#_clip14)">
            <g transform="matrix(0.819735,0,0,1,-3458.813086,-6480.649527)">
                <path d="M4859.836,3185.868L5405.376,3185.868L4309.882,7666.805L3726.587,7666.805L4859.836,3185.868Z" style="fill:rgb(231,190,106);"/>
            </g>
            <g transform="matrix(0.753613,0,0,1.245803,-2352.872582,-8365.176338)">
                <path d="M5104.367,3185.868L5953.515,3165.077L4673.627,7666.805L3499.087,7666.805L5104.367,3185.868Z" style="fill:rgb(231,190,106);"/>
            </g>
        </g>
        <path d="M3530.7,-189.105C3530.7,-183.115 3524.025,-173.531 3510.675,-160.355C3497.325,-147.178 3485.1,-138.645 3474,-134.754C3473.4,-137.749 3472.8,-144.038 3472.2,-153.619C3471.6,-163.2 3471.3,-171.584 3471.3,-178.77C3471.3,-184.46 3471.6,-188.503 3472.2,-190.898L3463.2,-190.898C3458.7,-190.898 3454.8,-189.401 3451.5,-186.405C3448.2,-183.415 3446.55,-179.972 3446.55,-176.077L3446.55,3.15L3392.55,3.15L3392.55,-115.207C3392.55,-122.248 3392.7,-129.061 3393,-135.647C3393,-156.609 3390.375,-172.481 3385.125,-183.263C3379.875,-194.044 3368.55,-201.68 3351.15,-206.17L3351.15,-210.663C3353.55,-213.359 3361.875,-220.097 3376.125,-230.878C3390.375,-241.659 3398.55,-247.05 3400.65,-247.05C3409.65,-247.05 3418.2,-241.725 3426.3,-231.075C3434.4,-220.425 3441.15,-211.5 3446.55,-204.3C3458.55,-213.9 3470.4,-223.425 3482.1,-232.875C3493.8,-242.325 3500.55,-247.05 3502.35,-247.05C3506.25,-247.05 3511.95,-241.434 3519.45,-230.203C3526.95,-218.977 3530.7,-205.277 3530.7,-189.105Z" style="fill:rgb(201,135,0);fill-rule:nonzero;"/>
        <clipPath id="_clip15">
            <path d="M3530.7,-189.105C3530.7,-183.115 3524.025,-173.531 3510.675,-160.355C3497.325,-147.178 3485.1,-138.645 3474,-134.754C3473.4,-137.749 3472.8,-144.038 3472.2,-153.619C3471.6,-163.2 3471.3,-171.584 3471.3,-178.77C3471.3,-184.46 3471.6,-188.503 3472.2,-190.898L3463.2,-190.898C3458.7,-190.898 3454.8,-189.401 3451.5,-186.405C3448.2,-183.415 3446.55,-179.972 3446.55,-176.077L3446.55,3.15L3392.55,3.15L3392.55,-115.207C3392.55,-122.248 3392.7,-129.061 3393,-135.647C3393,-156.609 3390.375,-172.481 3385.125,-183.263C3379.875,-194.044 3368.55,-201.68 3351.15,-206.17L3351.15,-210.663C3353.55,-213.359 3361.875,-220.097 3376.125,-230.878C3390.375,-241.659 3398.55,-247.05 3400.65,-247.05C3409.65,-247.05 3418.2,-241.725 3426.3,-231.075C3434.4,-220.425 3441.15,-211.5 3446.55,-204.3C3458.55,-213.9 3470.4,-223.425 3482.1,-232.875C3493.8,-242.325 3500.55,-247.05 3502.35,-247.05C3506.25,-247.05 3511.95,-241.434 3519.45,-230.203C3526.95,-218.977 3530.7,-205.277 3530.7,-189.105Z" clip-rule="nonzero"/>
        </clipPath>
        <g clip-path="url(#_clip15)">
            <g transform="matrix(0.819735,0,0,1,-3458.813086,-6480.649527)">
                <path d="M4859.836,3185.868L5405.376,3185.868L4309.882,7666.805L3726.587,7666.805L4859.836,3185.868Z" style="fill:rgb(231,190,106);"/>
            </g>
            <g transform="matrix(0.753613,0,0,1.245803,-2352.872582,-8365.176338)">
                <path d="M5104.367,3185.868L5953.515,3165.077L4673.627,7666.805L3499.087,7666.805L5104.367,3185.868Z" style="fill:rgb(231,190,106);"/>
            </g>
        </g>
        <path d="M3743.1,-90.9C3743.1,-64.8 3733.8,-42.45 3715.2,-23.85C3696.6,-5.25 3673.5,4.05 3645.9,4.05C3625.8,4.05 3603.525,-3.9 3579.075,-19.8C3554.625,-35.7 3542.4,-50.85 3542.4,-65.25C3542.4,-67.95 3548.925,-72.675 3561.975,-79.425C3575.025,-86.175 3586.35,-91.35 3595.95,-94.95L3595.95,-73.35C3595.95,-58.95 3600.675,-47.175 3610.125,-38.025C3619.575,-28.875 3631.5,-24.3 3645.9,-24.3C3659.7,-24.3 3671.4,-28.8 3681,-37.8C3690.6,-46.8 3695.4,-58.05 3695.4,-71.55C3695.4,-83.85 3691.125,-95.475 3682.575,-106.425C3674.025,-117.375 3663.9,-122.85 3652.2,-122.85C3641.7,-122.85 3627.3,-118.95 3609,-111.15C3590.7,-103.35 3579.9,-99.45 3576.6,-99.45C3570.3,-107.55 3564.075,-117.225 3557.925,-128.475C3551.775,-139.725 3548.7,-153.9 3548.7,-171C3548.7,-194.7 3558.525,-214.65 3578.175,-230.85C3597.825,-247.05 3619.05,-255.15 3641.85,-255.15C3657.75,-255.15 3675.75,-249.6 3695.85,-238.5C3715.95,-227.4 3728.85,-214.2 3734.55,-198.9L3680.1,-168.75C3675.6,-187.35 3670.95,-201.75 3666.15,-211.95C3661.35,-222.15 3650.25,-227.25 3632.85,-227.25C3622.65,-227.25 3613.95,-223.35 3606.75,-215.55C3599.55,-207.75 3595.95,-198.6 3595.95,-188.1C3595.95,-176.1 3600,-165.6 3608.1,-156.6C3616.2,-147.6 3625.2,-143.1 3635.1,-143.1C3646.5,-143.1 3662.1,-147.75 3681.9,-157.05C3701.7,-166.35 3712.05,-171 3712.95,-171C3719.55,-163.5 3726.225,-153.825 3732.975,-141.975C3739.725,-130.125 3743.1,-113.1 3743.1,-90.9Z" style="fill:rgb(201,135,0);fill-rule:nonzero;"/>
        <clipPath id="_clip16">
            <path d="M3743.1,-90.9C3743.1,-64.8 3733.8,-42.45 3715.2,-23.85C3696.6,-5.25 3673.5,4.05 3645.9,4.05C3625.8,4.05 3603.525,-3.9 3579.075,-19.8C3554.625,-35.7 3542.4,-50.85 3542.4,-65.25C3542.4,-67.95 3548.925,-72.675 3561.975,-79.425C3575.025,-86.175 3586.35,-91.35 3595.95,-94.95L3595.95,-73.35C3595.95,-58.95 3600.675,-47.175 3610.125,-38.025C3619.575,-28.875 3631.5,-24.3 3645.9,-24.3C3659.7,-24.3 3671.4,-28.8 3681,-37.8C3690.6,-46.8 3695.4,-58.05 3695.4,-71.55C3695.4,-83.85 3691.125,-95.475 3682.575,-106.425C3674.025,-117.375 3663.9,-122.85 3652.2,-122.85C3641.7,-122.85 3627.3,-118.95 3609,-111.15C3590.7,-103.35 3579.9,-99.45 3576.6,-99.45C3570.3,-107.55 3564.075,-117.225 3557.925,-128.475C3551.775,-139.725 3548.7,-153.9 3548.7,-171C3548.7,-194.7 3558.525,-214.65 3578.175,-230.85C3597.825,-247.05 3619.05,-255.15 3641.85,-255.15C3657.75,-255.15 3675.75,-249.6 3695.85,-238.5C3715.95,-227.4 3728.85,-214.2 3734.55,-198.9L3680.1,-168.75C3675.6,-187.35 3670.95,-201.75 3666.15,-211.95C3661.35,-222.15 3650.25,-227.25 3632.85,-227.25C3622.65,-227.25 3613.95,-223.35 3606.75,-215.55C3599.55,-207.75 3595.95,-198.6 3595.95,-188.1C3595.95,-176.1 3600,-165.6 3608.1,-156.6C3616.2,-147.6 3625.2,-143.1 3635.1,-143.1C3646.5,-143.1 3662.1,-147.75 3681.9,-157.05C3701.7,-166.35 3712.05,-171 3712.95,-171C3719.55,-163.5 3726.225,-153.825 3732.975,-141.975C3739.725,-130.125 3743.1,-113.1 3743.1,-90.9Z" clip-rule="nonzero"/>
        </clipPath>
        <g clip-path="url(#_clip16)">
            <g transform="matrix(0.819735,0,0,1,-3458.813086,-6480.649527)">
                <path d="M4859.836,3185.868L5405.376,3185.868L4309.882,7666.805L3726.587,7666.805L4859.836,3185.868Z" style="fill:rgb(231,190,106);"/>
            </g>
            <g transform="matrix(0.753613,0,0,1.245803,-2352.872582,-8365.176338)">
                <path d="M5104.367,3185.868L5953.515,3165.077L4673.627,7666.805L3499.087,7666.805L5104.367,3185.868Z" style="fill:rgb(231,190,106);"/>
            </g>
        </g>
    </g>
    <g transform="matrix(1,0,0,1,-556.644929,-2978.511912)">
        <path d="M5220.134,8563.734C5183.157,8670.267 5119.512,8762.956 5029.201,8841.801C4938.89,8920.623 4821.912,8960.034 4678.268,8960.034C4537.468,8960.034 4411.246,8913.456 4299.601,8820.301C4187.957,8727.145 4118.623,8636.478 4091.601,8548.301L4091.601,8509.901L4149.201,8509.901C4201.823,8558.256 4266.534,8601.989 4343.334,8641.101C4420.134,8680.212 4494.801,8699.767 4567.334,8699.767C4649.823,8699.767 4725.201,8668.834 4793.468,8606.967C4861.734,8545.101 4895.868,8480.034 4895.868,8411.767C4895.868,8315.056 4863.868,8254.256 4799.868,8229.367C4735.868,8204.478 4649.112,8192.034 4539.601,8192.034L4503.334,8192.034L4503.334,8051.234C4582.979,8051.234 4662.268,8037.101 4741.201,8008.834C4820.134,7980.545 4859.601,7931.767 4859.601,7862.501C4859.601,7831.412 4835.779,7796.434 4788.134,7757.567C4740.49,7718.678 4670.446,7699.234 4578.001,7699.234C4553.823,7699.234 4516.49,7704.367 4466.001,7714.634C4415.512,7724.878 4371.779,7737.523 4334.801,7752.567L4334.801,7722.834C4381.734,7636.501 4418.001,7546.634 4443.601,7453.234C4469.201,7359.812 4510.446,7313.101 4567.334,7313.101C4706.712,7313.101 4835.068,7366.723 4952.401,7473.967C5069.734,7581.189 5128.401,7678.123 5128.401,7764.767C5128.401,7810.234 5106.712,7862.445 5063.334,7921.401C5019.957,7980.334 4992.579,8021.167 4981.201,8043.901C5016.757,8077.989 5064.046,8115.278 5123.068,8155.767C5182.09,8196.234 5216.934,8230.678 5227.601,8259.101C5238.268,8287.501 5247.868,8312.356 5256.401,8333.667C5264.934,8354.956 5269.201,8374.123 5269.201,8391.167C5269.201,8429.523 5262.801,8463.612 5250.001,8493.434C5237.201,8523.256 5227.246,8546.689 5220.134,8563.734Z" style="fill:rgb(202,136,0);fill-rule:nonzero;"/>
        <clipPath id="_clip17">
            <path d="M5220.134,8563.734C5183.157,8670.267 5119.512,8762.956 5029.201,8841.801C4938.89,8920.623 4821.912,8960.034 4678.268,8960.034C4537.468,8960.034 4411.246,8913.456 4299.601,8820.301C4187.957,8727.145 4118.623,8636.478 4091.601,8548.301L4091.601,8509.901L4149.201,8509.901C4201.823,8558.256 4266.534,8601.989 4343.334,8641.101C4420.134,8680.212 4494.801,8699.767 4567.334,8699.767C4649.823,8699.767 4725.201,8668.834 4793.468,8606.967C4861.734,8545.101 4895.868,8480.034 4895.868,8411.767C4895.868,8315.056 4863.868,8254.256 4799.868,8229.367C4735.868,8204.478 4649.112,8192.034 4539.601,8192.034L4503.334,8192.034L4503.334,8051.234C4582.979,8051.234 4662.268,8037.101 4741.201,8008.834C4820.134,7980.545 4859.601,7931.767 4859.601,7862.501C4859.601,7831.412 4835.779,7796.434 4788.134,7757.567C4740.49,7718.678 4670.446,7699.234 4578.001,7699.234C4553.823,7699.234 4516.49,7704.367 4466.001,7714.634C4415.512,7724.878 4371.779,7737.523 4334.801,7752.567L4334.801,7722.834C4381.734,7636.501 4418.001,7546.634 4443.601,7453.234C4469.201,7359.812 4510.446,7313.101 4567.334,7313.101C4706.712,7313.101 4835.068,7366.723 4952.401,7473.967C5069.734,7581.189 5128.401,7678.123 5128.401,7764.767C5128.401,7810.234 5106.712,7862.445 5063.334,7921.401C5019.957,7980.334 4992.579,8021.167 4981.201,8043.901C5016.757,8077.989 5064.046,8115.278 5123.068,8155.767C5182.09,8196.234 5216.934,8230.678 5227.601,8259.101C5238.268,8287.501 5247.868,8312.356 5256.401,8333.667C5264.934,8354.956 5269.201,8374.123 5269.201,8391.167C5269.201,8429.523 5262.801,8463.612 5250.001,8493.434C5237.201,8523.256 5227.246,8546.689 5220.134,8563.734Z" clip-rule="nonzero"/>
        </clipPath>
        <g clip-path="url(#_clip17)">
            <g transform="matrix(0.753613,0,0,1.245803,2236.384158,1093.985101)">
                <path d="M5104.367,3185.868L5953.515,3165.077L4673.627,7666.805L3499.087,7666.805L5104.367,3185.868Z" style="fill:rgb(231,190,106);"/>
            </g>
            <g transform="matrix(0.819735,0,0,1,1130.443655,2978.511912)">
                <path d="M4859.836,3185.868L5405.376,3185.868L4309.882,7666.805L3726.587,7666.805L4859.836,3185.868Z" style="fill:rgb(231,190,106);"/>
            </g>
        </g>
        <path d="M6534.268,8484.301C6534.268,8522.701 6516.134,8563.589 6479.868,8606.967C6443.601,8650.345 6389.912,8698.345 6318.801,8750.967C6247.69,8803.589 6177.29,8855.145 6107.601,8905.634C6037.912,8956.123 5985.29,8981.367 5949.734,8981.367C5917.023,8981.367 5835.246,8934.789 5704.401,8841.634C5573.557,8748.478 5486.09,8682.345 5442.001,8643.234C5397.912,8604.123 5375.868,8558.256 5375.868,8505.634C5375.868,8448.745 5414.979,8390.078 5493.201,8329.634C5571.423,8269.189 5648.934,8209.812 5725.734,8151.501C5698.712,8121.634 5638.979,8071.501 5546.534,8001.101C5454.09,7930.701 5407.868,7869.189 5407.868,7816.567C5407.868,7773.901 5429.557,7733.723 5472.934,7696.034C5516.312,7658.345 5567.868,7614.967 5627.601,7565.901C5687.334,7516.834 5747.779,7468.834 5808.934,7421.901C5870.09,7374.967 5917.023,7351.501 5949.734,7351.501C5981.023,7351.501 6029.734,7375.678 6095.868,7424.034C6162.001,7472.389 6220.668,7516.478 6271.868,7556.301C6323.068,7596.123 6374.979,7637.367 6427.601,7680.034C6473.112,7729.812 6495.868,7775.323 6495.868,7816.567C6495.868,7854.967 6467.423,7901.189 6410.534,7955.234C6346.534,8010.701 6282.534,8066.167 6218.534,8121.634C6299.601,8184.212 6372.49,8245.723 6437.201,8306.167C6501.912,8366.612 6534.268,8425.989 6534.268,8484.301ZM6218.534,7904.034C6218.534,7882.701 6194.001,7849.634 6144.934,7804.834C6095.868,7760.034 6057.823,7729.101 6030.801,7712.034C6003.779,7694.967 5968.934,7666.878 5926.268,7627.767C5883.601,7588.656 5853.734,7569.101 5836.668,7569.101C5819.601,7569.101 5792.934,7591.856 5756.668,7637.367C5720.401,7682.878 5702.268,7711.323 5702.268,7722.701C5702.268,7734.078 5758.801,7783.856 5871.868,7872.034C5984.934,7960.212 6062.801,8018.523 6105.468,8046.967C6136.757,8018.523 6163.423,7989.012 6185.468,7958.434C6207.512,7927.856 6218.534,7909.723 6218.534,7904.034ZM6237.734,8590.967C6237.734,8563.945 6215.69,8531.589 6171.601,8493.901C6127.512,8456.212 6090.534,8427.056 6060.668,8406.434C6030.801,8385.812 5987.068,8352.389 5929.468,8306.167C5871.868,8259.945 5840.934,8236.834 5836.668,8236.834C5818.179,8236.834 5786.534,8261.012 5741.734,8309.367C5696.934,8357.723 5674.534,8390.434 5674.534,8407.501C5674.534,8427.412 5693.379,8455.501 5731.068,8491.767C5768.757,8528.034 5811.068,8561.101 5858.001,8590.967L6084.134,8742.434C6094.09,8742.434 6122.179,8722.878 6168.401,8683.767C6214.623,8644.656 6237.734,8613.723 6237.734,8590.967Z" style="fill:rgb(202,136,0);fill-rule:nonzero;"/>
        <clipPath id="_clip18">
            <path d="M6534.268,8484.301C6534.268,8522.701 6516.134,8563.589 6479.868,8606.967C6443.601,8650.345 6389.912,8698.345 6318.801,8750.967C6247.69,8803.589 6177.29,8855.145 6107.601,8905.634C6037.912,8956.123 5985.29,8981.367 5949.734,8981.367C5917.023,8981.367 5835.246,8934.789 5704.401,8841.634C5573.557,8748.478 5486.09,8682.345 5442.001,8643.234C5397.912,8604.123 5375.868,8558.256 5375.868,8505.634C5375.868,8448.745 5414.979,8390.078 5493.201,8329.634C5571.423,8269.189 5648.934,8209.812 5725.734,8151.501C5698.712,8121.634 5638.979,8071.501 5546.534,8001.101C5454.09,7930.701 5407.868,7869.189 5407.868,7816.567C5407.868,7773.901 5429.557,7733.723 5472.934,7696.034C5516.312,7658.345 5567.868,7614.967 5627.601,7565.901C5687.334,7516.834 5747.779,7468.834 5808.934,7421.901C5870.09,7374.967 5917.023,7351.501 5949.734,7351.501C5981.023,7351.501 6029.734,7375.678 6095.868,7424.034C6162.001,7472.389 6220.668,7516.478 6271.868,7556.301C6323.068,7596.123 6374.979,7637.367 6427.601,7680.034C6473.112,7729.812 6495.868,7775.323 6495.868,7816.567C6495.868,7854.967 6467.423,7901.189 6410.534,7955.234C6346.534,8010.701 6282.534,8066.167 6218.534,8121.634C6299.601,8184.212 6372.49,8245.723 6437.201,8306.167C6501.912,8366.612 6534.268,8425.989 6534.268,8484.301ZM6218.534,7904.034C6218.534,7882.701 6194.001,7849.634 6144.934,7804.834C6095.868,7760.034 6057.823,7729.101 6030.801,7712.034C6003.779,7694.967 5968.934,7666.878 5926.268,7627.767C5883.601,7588.656 5853.734,7569.101 5836.668,7569.101C5819.601,7569.101 5792.934,7591.856 5756.668,7637.367C5720.401,7682.878 5702.268,7711.323 5702.268,7722.701C5702.268,7734.078 5758.801,7783.856 5871.868,7872.034C5984.934,7960.212 6062.801,8018.523 6105.468,8046.967C6136.757,8018.523 6163.423,7989.012 6185.468,7958.434C6207.512,7927.856 6218.534,7909.723 6218.534,7904.034ZM6237.734,8590.967C6237.734,8563.945 6215.69,8531.589 6171.601,8493.901C6127.512,8456.212 6090.534,8427.056 6060.668,8406.434C6030.801,8385.812 5987.068,8352.389 5929.468,8306.167C5871.868,8259.945 5840.934,8236.834 5836.668,8236.834C5818.179,8236.834 5786.534,8261.012 5741.734,8309.367C5696.934,8357.723 5674.534,8390.434 5674.534,8407.501C5674.534,8427.412 5693.379,8455.501 5731.068,8491.767C5768.757,8528.034 5811.068,8561.101 5858.001,8590.967L6084.134,8742.434C6094.09,8742.434 6122.179,8722.878 6168.401,8683.767C6214.623,8644.656 6237.734,8613.723 6237.734,8590.967Z" clip-rule="nonzero"/>
        </clipPath>
        <g clip-path="url(#_clip18)">
            <g transform="matrix(0.753613,0,0,1.245803,2236.384158,1093.985101)">
                <path d="M5104.367,3185.868L5953.515,3165.077L4673.627,7666.805L3499.087,7666.805L5104.367,3185.868Z" style="fill:rgb(231,190,106);"/>
            </g>
            <g transform="matrix(0.819735,0,0,1,1130.443655,2978.511912)">
                <path d="M4859.836,3185.868L5405.376,3185.868L4309.882,7666.805L3726.587,7666.805L4859.836,3185.868Z" style="fill:rgb(231,190,106);"/>
            </g>
        </g>
        <path d="M6758.493,7791.084C6758.493,7682.056 6785.923,7589.348 6840.784,7512.959C6895.646,7436.57 6975.159,7398.376 7079.326,7398.376C7175.159,7398.376 7254.5,7432.577 7317.347,7500.98C7380.194,7569.383 7411.618,7669.903 7411.618,7802.542C7411.618,7931.709 7379.847,8031.188 7316.305,8100.98C7252.764,8170.771 7174.465,8205.667 7081.409,8205.667C6989.048,8205.667 6912.139,8171.292 6850.68,8102.542C6789.222,8033.792 6758.493,7929.973 6758.493,7791.084ZM7084.534,7527.542C7038.007,7527.542 6999.291,7547.681 6968.389,7587.959C6937.486,7628.237 6922.034,7702.195 6922.034,7809.834C6922.034,7907.751 6937.659,7976.674 6968.909,8016.605C7000.159,8056.535 7038.701,8076.501 7084.534,8076.501C7131.757,8076.501 7170.819,8056.362 7201.722,8016.084C7232.625,7975.806 7248.076,7902.195 7248.076,7795.251C7248.076,7696.639 7232.451,7627.369 7201.201,7587.438C7169.951,7547.508 7131.062,7527.542 7084.534,7527.542ZM7085.576,9007.751L7920.993,7398.376L8073.076,7398.376L7240.784,9007.751L7085.576,9007.751ZM7745.993,8593.167C7745.993,8483.445 7773.423,8390.563 7828.284,8314.521C7883.146,8238.48 7963.007,8200.459 8067.868,8200.459C8163.701,8200.459 8243.041,8234.66 8305.889,8303.063C8368.736,8371.466 8400.159,8471.987 8400.159,8604.626C8400.159,8733.792 8368.389,8833.271 8304.847,8903.063C8241.305,8972.855 8162.659,9007.751 8068.909,9007.751C7976.548,9007.751 7899.639,8973.202 7838.18,8904.105C7776.722,8835.008 7745.993,8731.362 7745.993,8593.167ZM8073.076,8329.626C8025.854,8329.626 7986.791,8349.764 7955.889,8390.042C7924.986,8430.32 7909.534,8504.278 7909.534,8611.917C7909.534,8709.139 7925.159,8777.889 7956.409,8818.167C7987.659,8858.445 8026.201,8878.584 8072.034,8878.584C8119.951,8878.584 8159.361,8858.445 8190.264,8818.167C8221.166,8777.889 8236.618,8704.278 8236.618,8597.334C8236.618,8498.723 8220.993,8429.452 8189.743,8389.521C8158.493,8349.591 8119.604,8329.626 8073.076,8329.626Z" style="fill:rgb(202,136,0);fill-rule:nonzero;"/>
        <clipPath id="_clip19">
            <path d="M6758.493,7791.084C6758.493,7682.056 6785.923,7589.348 6840.784,7512.959C6895.646,7436.57 6975.159,7398.376 7079.326,7398.376C7175.159,7398.376 7254.5,7432.577 7317.347,7500.98C7380.194,7569.383 7411.618,7669.903 7411.618,7802.542C7411.618,7931.709 7379.847,8031.188 7316.305,8100.98C7252.764,8170.771 7174.465,8205.667 7081.409,8205.667C6989.048,8205.667 6912.139,8171.292 6850.68,8102.542C6789.222,8033.792 6758.493,7929.973 6758.493,7791.084ZM7084.534,7527.542C7038.007,7527.542 6999.291,7547.681 6968.389,7587.959C6937.486,7628.237 6922.034,7702.195 6922.034,7809.834C6922.034,7907.751 6937.659,7976.674 6968.909,8016.605C7000.159,8056.535 7038.701,8076.501 7084.534,8076.501C7131.757,8076.501 7170.819,8056.362 7201.722,8016.084C7232.625,7975.806 7248.076,7902.195 7248.076,7795.251C7248.076,7696.639 7232.451,7627.369 7201.201,7587.438C7169.951,7547.508 7131.062,7527.542 7084.534,7527.542ZM7085.576,9007.751L7920.993,7398.376L8073.076,7398.376L7240.784,9007.751L7085.576,9007.751ZM7745.993,8593.167C7745.993,8483.445 7773.423,8390.563 7828.284,8314.521C7883.146,8238.48 7963.007,8200.459 8067.868,8200.459C8163.701,8200.459 8243.041,8234.66 8305.889,8303.063C8368.736,8371.466 8400.159,8471.987 8400.159,8604.626C8400.159,8733.792 8368.389,8833.271 8304.847,8903.063C8241.305,8972.855 8162.659,9007.751 8068.909,9007.751C7976.548,9007.751 7899.639,8973.202 7838.18,8904.105C7776.722,8835.008 7745.993,8731.362 7745.993,8593.167ZM8073.076,8329.626C8025.854,8329.626 7986.791,8349.764 7955.889,8390.042C7924.986,8430.32 7909.534,8504.278 7909.534,8611.917C7909.534,8709.139 7925.159,8777.889 7956.409,8818.167C7987.659,8858.445 8026.201,8878.584 8072.034,8878.584C8119.951,8878.584 8159.361,8858.445 8190.264,8818.167C8221.166,8777.889 8236.618,8704.278 8236.618,8597.334C8236.618,8498.723 8220.993,8429.452 8189.743,8389.521C8158.493,8349.591 8119.604,8329.626 8073.076,8329.626Z" clip-rule="nonzero"/>
        </clipPath>
        <g clip-path="url(#_clip19)">
            <g transform="matrix(0.753613,0,0,1.245803,2236.384158,1093.985101)">
                <path d="M5104.367,3185.868L5953.515,3165.077L4673.627,7666.805L3499.087,7666.805L5104.367,3185.868Z" style="fill:rgb(231,190,106);"/>
            </g>
            <g transform="matrix(0.819735,0,0,1,1130.443655,2978.511912)">
                <path d="M4859.836,3185.868L5405.376,3185.868L4309.882,7666.805L3726.587,7666.805L4859.836,3185.868Z" style="fill:rgb(231,190,106);"/>
            </g>
        </g>
    </g>
</svg>