<svg width="1440" height="1019.2" xmlns="http://www.w3.org/2000/svg" data-name="Layer 1">

 <g>
  <title>Layer 1</title>
  <g>

   <g>
    <path stroke-miterlimit="10" fill="none" stroke="#ae2012" stroke-width="33.2px" d="m1504.49223,-3934.82805l-52.3,0c-38.5,0 -69.7,0 -69.7,189.03672l0,5192.33848c0,200.56731 16,200.56731 69.7,200.56731l52.3,0" class="cls-1"/>
    <path stroke-width="33.3px" stroke="#ee9b00" stroke-miterlimit="10" fill="none" d="m1486.55193,-4035.7028l-61.5,0c-56.1,0 -101.5,0 -101.5,191.79756c0,0 0.5293,5360.37518 0.5293,5429.53761c6.7,132.52059 56.0707,161.49939 107.0707,161.49939l55.4,0" class="cls-5"/>
    <path stroke-width="33.5px" stroke="#005f73" stroke-miterlimit="10" fill="none" d="m1501.55193,-4137.52928l-88.6,0c-72.7,0 -102.4,0 -130.5,94.03115c-4.2,14.12903 -15.8,58.62737 -15.8,303.69301c0,0 0.1084,5182.55351 0.1084,5302.46856c2.2,206.4138 52.2916,285.8076 146.0916,285.8076l88.6,0" class="cls-6"/>
   </g>
   <g>
    <path stroke-width="34.1px" stroke-miterlimit="10" fill="none" stroke="#ae2012" d="m-56.34807,-3663.80067l124.9,0c23.5,0 42.8,41.57509 42.6,203.97776l0,1499.46393c0,25.01001 -11.5,45.14794 -25.8,45.14794l0,0c-12.8,0 -23.3,18.1891 -23.3,40.76307l0,1664.30265c0,16.88988 7.9,30.69411 17.5,30.69411l0,0c6.7,0 12.1,9.41936 12.1,21.11235l0,1568.80987c0,28.09566 -13,50.99444 -29.1,50.99444l-107.2,0" class="cls-2"/>
    <path stroke="#ee9b00" stroke-width="34.1px" stroke-miterlimit="10" fill="none" d="m-45.11089,-3741.62556l140,0c37.8,0 68.5,81.20134 68.5,205.60179l0,1619.80438c0,29.88209 -31,54.08009 -31,54.08009l0,0c0,0 -18.1,14.12903 -18.1,31.50612l0,1527.55959c0,19.16352 19.8,34.59177 19.8,34.59177l0,0c0,0 15.4,12.1802 15.3,26.95884l0.0896,1551.38942c-0.1,37.02781 -22.68957,66.46606 -43.88957,66.62846l-150.7,1.62403" class="cls-3"/>
    <path stroke="#005f73" stroke-width="34.1px" stroke-miterlimit="10" fill="none" d="m-29.64807,-3833.02426l165.5,0c56.7,0 84.8,120.99 84.8,337.31036l0,1621.42834c0,30.85651 -14.3,55.86652 -32,55.86652l0,0c-9.4,0 -17.1,13.31702 -17.1,29.88209l0,1397.96225c0,19.00111 8.8,34.26697 19.6,34.26697l0,0c7.3,0 13.1,10.39377 13.1,23.06118l-0.15696,1559.52287c0,41.25028 -22.04304,74.89768 -45.64304,75.22248l-188.2,1.94883" class="cls-4"/>
   </g>
  </g>
 </g>
</svg>