<?xml version="1.0" encoding="UTF-8"?>
<svg id="Layer_1" data-name="Layer 1" xmlns="http://www.w3.org/2000/svg" viewBox="0 0 1440 2247.2">
  <defs>
    <style>
      .cls-1, .cls-2, .cls-3, .cls-4, .cls-5, .cls-6 {
        fill: none;
        stroke-miterlimit: 10;
      }

      .cls-1, .cls-3 {
        stroke: #ee9b00;
      }

      .cls-1, .cls-4, .cls-5 {
        stroke-width: 24px;
      }

      .cls-2 {
        stroke-width: 23.19px;
      }

      .cls-2, .cls-4 {
        stroke: #ae2012;
      }

      .cls-3 {
        stroke-width: 23.5px;
      }

      .cls-5, .cls-6 {
        stroke: #005f73;
      }

      .cls-6 {
        stroke-width: 23.8px;
      }
    </style>
  </defs>
  <g>
    <path class="cls-2" d="M1497.94,254.02h-52.29c-38.5,0-69.71,0-69.71,56.87v1561.99c0,60.35,16.02,60.35,69.71,60.35h52.29"/>
    <path class="cls-3" d="M1494.94,212.75h-61.49c-56.06,0-101.51,0-101.51,58.7,0,0,3.84,1640.43,7.37,1661.77,6.71,40.55,49.15,48.8,100.22,48.8h55.41"/>
    <path class="cls-6" d="M1530.94,167.73h-88.62c-72.69,0-102.38-.02-130.49,29.26-4.22,4.4-15.75,18.25-15.75,94.46,0,0,.14,1611.92,1.45,1649.36,2.24,64.2,50.99,88.74,144.79,88.74h88.62"/>
  </g>
  <g>
    <path class="cls-4" d="M-71.65,371.43H53.26c23.5,0,42.83,12.66,42.56,62.14v456.94c0,7.6-11.55,13.76-25.8,13.76h0c-12.85,0-23.26,5.55-23.26,12.41v507.16c0,5.17,7.85,9.35,17.54,9.35h0c6.66,0,12.06,2.88,12.06,6.43v478.06c0,8.58-13.04,15.53-29.12,15.53H-60.03"/>
    <path class="cls-1" d="M-74.34,333.89H65.62c37.81,0,68.46,24.74,68.46,62.67v493.59c0,9.1-13.87,16.47-30.98,16.47h0c-9.98,0-18.07,4.3-18.07,9.61v465.5c0,5.82,8.86,10.54,19.81,10.56h0c8.51.01,15.39,3.7,15.34,8.22l-5.32,472.55c-.13,11.28-17.3,20.41-38.53,20.48l-150.67.49"/>
    <path class="cls-5" d="M-77.94,294.52H87.54c56.7,0,84.81,36.8,84.81,102.68v493.51c0,9.4-14.32,17.02-31.99,17.02h0c-9.42,0-17.06,4.06-17.06,9.08v425.47c0,5.77,8.79,10.45,19.64,10.45h0c7.26,0,13.14,3.14,13.12,7l-3.02,474.73c-.08,12.56-19.16,22.74-42.77,22.82l-188.22.61"/>
  </g>
</svg>