<svg width="1440" height="960.0000000000001" xmlns="http://www.w3.org/2000/svg" data-name="Layer 1">

 <g>
  <title>Layer 1</title>
  <g id="svg_1">
   <path id="svg_2" stroke-miterlimit="10" fill="none" stroke="#ae2012" stroke-width="33.2px" d="m1504.4,-248.59613l-52.3,0c-38.5,0 -69.7,0 -69.7,116.4l0,3197.2c0,123.5 16,123.5 69.7,123.5l52.3,0" class="cls-1"/>
   <path id="svg_3" stroke-width="33.3px" stroke="#ee9b00" stroke-miterlimit="10" fill="none" d="m1486.4,-310.69613l-61.5,0c-56.1,0 -101.5,0 -101.5,118.1c0,0 3.8,3301.5 7.4,3344.5c6.7,81.6 49.2,98.2 100.2,98.2l55.4,0" class="cls-5"/>
   <path id="svg_4" stroke-width="33.5px" stroke="#005f73" stroke-miterlimit="10" fill="none" d="m1501.4,-373.39613l-88.6,0c-72.7,0 -102.4,0 -130.5,57.9c-4.2,8.7 -15.8,36.1 -15.8,187c0,0 0.1,3191.2 1.4,3265.3c2.2,127.1 51,175.7 144.8,175.7l88.6,0" class="cls-6"/>
  </g>
  <g id="svg_5">
   <path id="svg_6" stroke-width="34.1px" stroke-miterlimit="10" fill="none" stroke="#ae2012" d="m-56.5,-158.54485l124.9,0c23.5,0 42.8,29.17725 42.6,143.15088l0,1052.31852c0,17.55194 -11.5,31.68467 -25.8,31.68467l0,0c-12.8,0 -23.3,12.76505 -23.3,28.60738l0,1168.00175c0,11.85326 7.9,21.54102 17.5,21.54102l0,0c6.7,0 12.1,6.61047 12.1,14.81657l0,1100.98526c0,19.71744 -13,35.78772 -29.1,35.78772l-107.2,0" class="cls-2"/>
   <path id="svg_7" stroke="#ee9b00" stroke-width="34.1px" stroke-miterlimit="10" fill="none" d="m-45.2,-213.13822l140,0c37.8,0 68.5,56.98681 68.5,144.29061l0,1136.77298c0,20.97115 -13.9,37.95322 -31,37.95322l0,0c-10,0 -18.1,9.91571 -18.1,22.11088l0,1072.03596c0,13.44889 8.9,24.27638 19.8,24.27638l0,0c8.5,0 15.4,8.54802 15.3,18.91962l-5.3,1088.33419c-0.1,25.98599 -17.3,47.07111 -38.5,47.18508l-150.7,1.13974" class="cls-3"/>
   <path id="svg_8" stroke="#005f73" stroke-width="34.1px" stroke-miterlimit="10" fill="none" d="m-29.8,-277.30537l165.5,0c56.7,0 84.8,84.91035 84.8,236.72323l0,1137.91272c0,21.65499 -14.3,39.20693 -32,39.20693l0,0c-9.4,0 -17.1,9.34584 -17.1,20.97115l0,981.085c0,13.33491 8.8,24.04844 19.6,24.04844l0,0c7.3,0 13.1,7.29431 13.1,16.18426l-3,1094.60274c0,28.9493 -19.2,52.42787 -42.8,52.65582l-188.2,1.36768" class="cls-4"/>
  </g>
 </g>
</svg>