<svg width="1440" height="960" xmlns="http://www.w3.org/2000/svg" data-name="Layer 1">
 <g>
  <title>Layer 1</title>
  <g id="svg_1">
   <path id="svg_2" stroke-width="24.35px" stroke="#ae2012" stroke-miterlimit="10" fill="none" d="m1487,229.64l-52.29,0c-38.5,0 -69.71,9.15 -69.71,43.5l0,3336.58c0,38.52 31.21,56.72 69.71,56.72l52.29,0" class="cls-6"/>
   <path id="svg_3" stroke="#ee9b00" stroke-width="24.48px" stroke-miterlimit="10" fill="none" d="m1485,188.76l-61.49,0c-56.06,0 -101.51,17.01 -101.51,64.04l0,3378.78c0,10.81 1.6,21.6 5.14,31.81c14.28,41.25 51.39,52.87 102.45,52.87l55.41,0" class="cls-3"/>
   <path id="svg_4" stroke-width="24.6px" stroke-miterlimit="10" fill="none" stroke="#005f73" d="m1513,143.41l-88.62,0c-72.69,0 -125.63,10.4 -142.12,71c-2.85,10.47 -4.13,21.31 -4.13,32.17l0,3383.95c0,8.32 0.49,16.64 1.65,24.88c11.37,80.69 68.87,105.43 144.59,105.43l88.62,0" class="cls-2"/>
  </g>
  <g id="svg_5">
   <path id="svg_6" stroke="#ae2012" stroke-width="25.04px" stroke-miterlimit="10" fill="none" d="m-84.88,360.73l138.94,0c26.14,0 47.34,21.19 47.34,47.34l0,1035.23c0,15.85 -12.85,28.69 -28.69,28.69l0,0c-14.29,0 -25.88,11.58 -25.88,25.88l0,1057.71c0,10.77 8.73,19.51 19.51,19.51l0,0c7.41,0 13.42,6.01 13.42,13.42l0,997.02c0,17.89 -14.5,32.39 -32.39,32.39l-119.32,0" class="cls-4"/>
   <path id="svg_7" stroke-width="25.06px" stroke="#ee9b00" stroke-miterlimit="10" fill="none" d="m-87.88,314.49l155.69,0c42.06,0 76.15,34.09 76.15,76.15l0,1087.87c0,19.03 -15.43,34.47 -34.47,34.47l0,0c-11.1,0 -20.1,9 -20.1,20.1l0,974.11c0,12.18 9.86,22.06 22.04,22.1l0,0c9.47,0.02 17.12,7.74 17.06,17.21l-5.92,988.86c-0.14,23.61 -19.25,42.72 -42.86,42.86l-167.59,1.02" class="cls-5"/>
   <path id="svg_8" stroke-miterlimit="10" fill="none" stroke="#005f73" stroke-width="25.07px" d="m-92.88,270.15l184.08,0c52.1,0 94.34,42.24 94.34,94.34l0,1151.97c0,19.66 -15.93,35.59 -35.59,35.59l0,0c-10.48,0 -18.98,8.5 -18.98,18.98l0,889.43c0,12.07 9.78,21.85 21.85,21.85l0,0c8.08,0 14.62,6.56 14.59,14.64l-3.36,992.4c-0.09,26.26 -21.31,47.54 -47.57,47.7l-209.37,1.28" class="cls-1"/>
  </g>
  <g id="svg_28">
   <path id="svg_20" class="cls-1" d="m192.79361,304.61724c-2.01482,1.31027 -3.41202,3.1283 -4.49355,5.11725c-0.06588,0.12137 -0.43645,0.0644 -0.44743,0.08421c-6.78836,-1.64218 -13.50535,-3.59149 -20.10705,-5.75876c-24.07357,-7.90375 -65.1249,-24.8828 -68.79495,-50.87029c-0.81252,-5.75876 0.43096,-11.52743 2.77519,-16.8775c43.84299,-13.27363 72.8548,28.41236 87.07934,59.14805c1.39994,3.02428 2.59127,6.13277 3.98847,9.15705l-0.00001,0z" fill="#9c2327"/>
   <path id="svg_21" class="cls-1" d="m187.02912,314.52478c-0.03843,2.09792 1.34779,6.02379 2.74499,7.67835c-7.73264,6.56127 -15.95663,12.7312 -24.61982,18.2819c-22.38539,14.3486 -56.22565,30.34434 -83.26654,17.01869c-1.5921,-0.78517 -9.20121,-5.26338 -9.56355,-6.50183c0.22509,-1.87996 0.6039,-3.74258 1.13642,-5.57052c10,-34.33212 71.94346,-34.11168 102.72029,-31.89735c3.61516,0.26008 7.21933,0.82232 10.84546,0.98828l0.00274,0.00248l0.00001,-0.00001z" fill="#9c2327"/>
   <path id="svg_22" class="cls-1" d="m211.45954,325.67077c2.56108,-1.24835 5.888,-4.43363 6.86248,-6.93528c17.944,3.17537 36.2778,7.62633 52.89048,14.56904c20.06039,8.38426 41.74307,21.67276 39.88746,44.25205c-0.08235,1.01057 -0.95251,5.734 -1.50975,6.31606c-0.49959,0.51767 -5.45429,2.01866 -6.51112,2.29855c-38.22125,10.13047 -68.87456,-24.6475 -85.62723,-50.67462c-2.0807,-3.22986 -3.93906,-6.58356 -5.99232,-9.82581l0,-0.00001z" fill="#9c2327"/>
   <path id="svg_24" class="cls-1" d="m218.87101,312.54328c-0.57371,-2.91529 -3.06066,-6.48944 -5.76448,-8.17372c3.96377,-4.57977 8.08125,-9.13228 12.48696,-13.37767c23.45595,-22.60902 61.86111,-49.95384 96.62916,-28.97709c2.61323,29.18268 -32.1411,41.02467 -58.00714,45.99578c-14.80099,2.84346 -30.21411,4.25777 -45.3445,4.53518l0,-0.00248z" fill="#9c2327"/>
   <path id="svg_25" class="cls-1" d="m207.34205,327.1569c1.21329,2.76668 2.70107,5.43429 3.972,8.18116c11.52622,24.915 24.28768,66.60348 -6.84875,84.21166c-3.22536,1.82546 -6.77464,3.33141 -10.39528,4.38904c-38.89377,-16.52083 -23.26105,-57.78824 -7.73264,-84.1547c2.78067,-4.72095 5.95388,-9.24869 8.92671,-13.86561c3.6124,1.58521 8.17184,2.01619 12.07796,1.23844z" fill="#9c2327"/>
   <path id="svg_26" class="cls-1" d="m196.63659,302.63573c-2.2756,-6.89813 -4.72138,-13.76158 -6.45347,-20.80337c-6.60994,-26.84449 -8.23223,-63.53957 26.62641,-74.31402c1.02937,-0.31704 3.79357,-1.19882 4.70217,-1.22111c1.64151,-0.03963 8.20752,4.9934 9.6157,6.26405c22.34971,20.16433 5.75624,52.46046 -8.29811,72.46626c-4.22728,6.01635 -8.91024,11.80237 -13.84024,17.35802c-3.38183,-1.00562 -9.0118,-0.89415 -12.35246,0.24769l0,0.00248l0,0.00001z" fill="#9c2327"/>
   <path id="svg_27" class="cls-2" d="m208.98905,302.38804c0.41724,0.12385 3.66731,1.70162 4.11749,1.98151c2.70382,1.68428 5.19077,5.25843 5.76448,8.17372c0.40626,2.05334 0.2196,4.21318 -0.549,6.19222c-0.97447,2.50166 -4.3014,5.68693 -6.86248,6.93528c-0.96075,0.46813 -3.0936,1.28303 -4.11749,1.48613c-3.90612,0.77774 -8.46555,0.34677 -12.07796,-1.23844c-1.2874,-0.56473 -4.74335,-2.83356 -5.48998,-3.71533c-1.3972,-1.65456 -2.78342,-5.58042 -2.74499,-7.67835c0.01098,-0.54492 0.6588,-4.42124 0.8235,-4.70608c0.01098,-0.01734 0.37881,0.03963 0.44743,-0.08421c1.08427,-1.99142 2.47873,-3.80945 4.49355,-5.11725c0.69997,-0.45574 3.10733,-1.72887 3.84298,-1.98151c3.34065,-1.14185 8.97063,-1.2533 12.35246,-0.24769l-0.00001,0z" fill="#e8d7a5"/>
  </g>
  <g id="svg_29">
   <path id="svg_11" class="cls-1" d="m272.27088,494.16394c-0.01668,0.01213 -0.02882,0.26391 -0.14712,0.37767c-0.67494,0.64612 -2.09156,2.14616 -2.43131,2.95913c-7.76259,-2.15223 -15.53276,-4.8975 -22.80545,-8.36321c-13.65809,-6.51129 -32.23947,-18.86349 -24.78174,-36.64403c22.23516,-7.6276 37.73456,13.93565 45.89756,31.30365c1.58801,3.37926 2.99704,6.85862 4.26806,10.36832l0,-0.00151l0,0z" fill="#c86928"/>
   <path id="svg_12" class="cls-1" d="m269.23744,500.38251c-0.01213,1.49397 0.58394,3.51273 1.51672,4.70184c-6.10329,5.62704 -12.64644,10.87187 -19.72953,15.23093c-9.02754,5.55424 -20.87921,10.80817 -31.72075,9.14736c-5.02339,-0.76898 -9.75556,-3.11838 -13.4412,-6.58106c-0.15016,-0.43075 0.23509,-2.07639 0.3534,-2.63152c4.68971,-21.96064 39.81853,-21.84536 57.02879,-20.47273c1.99753,0.15926 3.98898,0.50355 5.99257,0.60517l0,0z" fill="#c86928"/>
   <path id="svg_13" class="cls-1" d="m282.73627,507.20776c1.3241,-0.70376 3.29584,-2.83172 3.79181,-4.24682c1.88832,0.25481 3.76147,0.70073 5.61339,1.13603c14.70008,3.45358 41.53395,11.87291 45.24385,28.77224c0.71134,3.24124 0.59001,6.91777 -0.50355,10.05739c-20.85949,9.28386 -38.17137,-9.52502 -48.29398,-25.41725c-2.12038,-3.32921 -4.04965,-6.79037 -5.85152,-10.30158l0,0z" fill="#c86928"/>
   <path id="svg_14" class="cls-1" d="m286.83143,499.3208c-0.18049,-1.6684 -1.85647,-4.17099 -3.18512,-5.15686l2.95458,-3.79484c12.00335,-13.92958 33.00086,-33.30421 52.96245,-24.59518c1.52734,0.66584 2.99401,1.52279 4.3712,2.45406c1.33168,17.85486 -17.61219,25.04413 -31.92399,28.13673c-8.27069,1.7867 -16.72794,2.55113 -25.17912,2.95609l0,0z" fill="#c86928"/>
   <path id="svg_15" class="cls-1" d="m281.37122,492.95056c-1.8868,-0.62944 -4.95665,-0.54602 -6.82525,0.15167c-1.83069,-5.60429 -3.47481,-11.28897 -4.50315,-17.11015c-2.73314,-15.48878 -2.1583,-34.63285 15.0823,-40.94091c0.64006,-0.23358 2.59815,-0.95857 3.14872,-0.95553c0.69011,0.00455 3.59008,2.29783 4.24834,2.88481c13.73848,12.23692 4.67757,32.26828 -3.35347,45.03758c-2.38429,3.79029 -5.03552,7.41526 -7.79899,10.93254l0.00151,0l0,0z" fill="#c86928"/>
   <path id="svg_16" class="cls-1" d="m280.46119,508.11779c7.83539,17.01915 17.86548,47.94817 -4.64724,58.22093c-0.87211,0.39738 -1.77912,0.73713 -2.68308,1.04957c-5.11742,-2.30693 -9.50227,-6.27468 -11.69849,-11.49828c-3.77209,-8.9699 -1.22551,-19.81599 2.08094,-28.54776c2.63758,-6.96328 6.26406,-13.49429 10.12413,-19.83116c1.48942,0.78263 5.18113,0.98435 6.82525,0.60669l-0.00151,0l0,0z" fill="#c86928"/>
   <path id="svg_17" class="cls-2" d="m281.37122,492.95056c0.12285,0.04095 2.13251,1.10721 2.27508,1.21338c1.32865,0.98587 3.00463,3.48846 3.18512,5.15686c0.09707,0.90093 -0.00455,2.79077 -0.30335,3.64013c-0.49597,1.4151 -2.46771,3.54307 -3.79181,4.24682c-0.40041,0.21234 -1.87467,0.81752 -2.27508,0.91004c-1.64413,0.37767 -5.33583,0.17594 -6.82525,-0.60669c-0.01365,-0.00758 0.03792,-0.22144 -0.10617,-0.30486c-0.8615,-0.49293 -2.17195,-1.3514 -2.7756,-2.1219c-0.93278,-1.18911 -1.52886,-3.20787 -1.51672,-4.70184c0.00607,-0.66584 0.20931,-2.2948 0.45502,-2.88177c0.33974,-0.81296 1.75636,-2.313 2.43131,-2.95913c0.1183,-0.11375 0.13044,-0.36553 0.14712,-0.37767c0.10162,-0.07432 2.04303,-0.97525 2.27508,-1.06171c1.8686,-0.69769 4.93845,-0.78111 6.82525,-0.15167z" fill="#e8d7a5"/>
  </g>
 </g>

</svg>