<svg width="1440" height="600" xmlns="http://www.w3.org/2000/svg" data-name="Layer 1">
 <g>
  <title>Layer 1</title>
  <g id="svg_1">
   <path class="cls-6" d="m1487,-3035.28273l-52.29,0c-38.5,0 -69.71,9.15 -69.71,43.5l0,3336.58c0,38.52 31.21,56.72 69.71,56.72l52.29,0" fill="none" stroke-miterlimit="10" stroke="#ae2012" stroke-width="24.35px" id="svg_2"/>
   <path class="cls-3" d="m1485,-3076.16273l-61.49,0c-56.06,0 -101.51,17.01 -101.51,64.04l0,3378.78c0,10.81 1.6,21.6 5.14,31.81c14.28,41.25 51.39,52.87 102.45,52.87l55.41,0" fill="none" stroke-miterlimit="10" stroke-width="24.48px" stroke="#ee9b00" id="svg_3"/>
   <path class="cls-2" d="m1513,-3121.51273l-88.62,0c-72.69,0 -125.63,10.4 -142.12,71c-2.85,10.47 -4.13,21.31 -4.13,32.17l0,3383.95c0,8.32 0.49,16.64 1.65,24.88c11.37,80.69 68.87,105.43 144.59,105.43l88.62,0" stroke="#005f73" fill="none" stroke-miterlimit="10" stroke-width="24.6px" id="svg_4"/>
  </g>
  <g id="svg_5">
   <path class="cls-4" d="m-84.88,-2904.19273l138.94,0c26.14,0 47.34,21.19 47.34,47.34l0,1035.23c0,15.85 -12.85,28.69 -28.69,28.69l0,0c-14.29,0 -25.88,11.58 -25.88,25.88l0,1057.71c0,10.77 8.73,19.51 19.51,19.51l0,0c7.41,0 13.42,6.01 13.42,13.42l0,997.02c0,17.89 -14.5,32.39 -32.39,32.39l-119.32,0" fill="none" stroke-miterlimit="10" stroke-width="25.04px" stroke="#ae2012" id="svg_6"/>
   <path class="cls-5" d="m-87.88,-2950.43273l155.69,0c42.06,0 76.15,34.09 76.15,76.15l0,1087.87c0,19.03 -15.43,34.47 -34.47,34.47l0,0c-11.1,0 -20.1,9 -20.1,20.1l0,974.11c0,12.18 9.86,22.06 22.04,22.1l0,0c9.47,0.02 17.12,7.74 17.06,17.21l-5.92,988.86c-0.14,23.61 -19.25,42.72 -42.86,42.86l-167.59,1.02" fill="none" stroke-miterlimit="10" stroke="#ee9b00" stroke-width="25.06px" id="svg_7"/>
   <path class="cls-1" d="m-92.88,-2994.77273l184.08,0c52.1,0 94.34,42.24 94.34,94.34l0,1151.97c0,19.66 -15.93,35.59 -35.59,35.59l0,0c-10.48,0 -18.98,8.5 -18.98,18.98l0,889.44c0,12.07 9.78,21.85 21.85,21.85l0,0c8.08,0 14.62,6.56 14.59,14.64l-3.36,992.4c-0.09,26.26 -21.31,47.54 -47.57,47.7l-209.37,1.28" stroke-width="25.07px" stroke="#005f73" fill="none" stroke-miterlimit="10" id="svg_8"/>
  </g>
  <g id="svg_9" transform="rotate(5.91772, 1243.43, 325.977)">
   <g id="svg_38">
    <title>Layer 1</title>
    <path id="svg_16" fill="#9c2327" d="m1238.96053,314.55452c-1.97764,1.42531 -3.34906,3.40295 -4.41063,5.5665c-0.06466,0.13202 -0.4284,0.07005 -0.43918,0.09161c-6.6631,-1.78635 -13.25615,-3.90679 -19.73603,-6.26434c-23.62935,-8.59764 -63.9232,-27.06733 -67.52553,-55.33634c-0.79752,-6.26434 0.42301,-12.53945 2.72398,-18.35923c43.03399,-14.43896 71.51046,30.90677 85.47252,64.34082c1.37411,3.28979 2.54346,6.67118 3.91487,9.96097l0,0.00001z" class="cls-1"/>
    <path id="svg_15" fill="#9c2327" d="m1233.30242,325.33187c-0.03772,2.28211 1.32292,6.55263 2.69434,8.35245c-7.58995,7.1373 -15.66219,13.8489 -24.16553,19.88692c-21.97234,15.60831 -55.18815,33.00835 -81.73009,18.5128c-1.56272,-0.85411 -9.03143,-5.72547 -9.38708,-7.07264c0.22094,-2.045 0.59275,-4.07115 1.11546,-6.05957c9.81548,-37.34624 70.61594,-37.10644 100.82487,-34.6977c3.54844,0.28291 7.08611,0.89452 10.64533,1.07504l0.00269,0.00269l0.00001,0.00001z" class="cls-1"/>
    <path id="svg_14" fill="#9c2327" d="m1257.28204,337.4564c2.51382,-1.35795 5.77936,-4.82287 6.73585,-7.54415c17.6129,3.45414 35.60839,8.29587 51.91453,15.8481c19.69023,9.12034 40.97282,23.57547 39.15144,48.13706c-0.08083,1.09929 -0.93494,6.2374 -1.48189,6.87057c-0.49037,0.56312 -5.35365,2.19589 -6.39097,2.50035c-37.51598,11.01985 -67.60367,-26.81137 -84.04722,-55.12349c-2.04231,-3.51342 -3.86638,-7.16155 -5.88174,-10.68844z" class="cls-1"/>
    <path id="svg_13" fill="#9c2327" d="m1264.55675,323.1764c-0.56312,-3.17124 -3.00419,-7.05917 -5.65811,-8.89132c3.89063,-4.98183 7.93213,-9.93403 12.25655,-14.55213c23.02313,-24.59393 60.71963,-54.33943 94.84613,-31.52107c2.56501,31.7447 -31.54802,44.62634 -56.93678,50.03388c-14.52788,3.0931 -29.65659,4.63157 -44.50779,4.93334l0,-0.00269l0,-0.00001z" class="cls-1"/>
    <path id="svg_12" fill="#9c2327" d="m1253.24053,339.073c1.1909,3.00958 2.65123,5.91138 3.89871,8.8994c11.31353,27.10236 23.83951,72.45078 -6.72238,91.60484c-3.16585,1.98573 -6.64963,3.62389 -10.20346,4.77437c-38.17609,-17.97124 -22.83183,-62.86163 -7.58995,-91.54287c2.72937,-5.13541 5.84402,-10.06066 8.76199,-15.08291c3.54575,1.72438 8.02105,2.19319 11.85509,1.34717z" class="cls-1"/>
    <path id="svg_11" fill="#9c2327" d="m1242.7326,312.39905c-2.23361,-7.50373 -4.63426,-14.96975 -6.33439,-22.62976c-6.48797,-29.20125 -8.08032,-69.11788 26.13509,-80.83826c1.01038,-0.34488 3.72358,-1.30406 4.6154,-1.32831c1.61121,-0.04311 8.05607,5.43179 9.43827,6.81398c21.93731,21.93462 5.65003,57.0661 -8.14499,78.82828c-4.14928,6.54455 -8.74583,12.83853 -13.58486,18.88193c-3.31943,-1.0939 -8.84552,-0.97266 -12.12453,0.26943l0,0.00269l0.00001,0.00002z" class="cls-1"/>
    <path id="svg_10" fill="#e8d7a5" d="m1254.85713,312.12961c0.40954,0.13472 3.59964,1.85101 4.04151,2.15547c2.65392,1.83215 5.095,5.72008 5.65811,8.89132c0.39876,2.23361 0.21555,4.58307 -0.53887,6.73585c-0.95649,2.72128 -4.22203,6.1862 -6.73585,7.54415c-0.94302,0.50923 -3.03652,1.39567 -4.04151,1.6166c-3.83404,0.84602 -8.30934,0.37721 -11.85509,-1.34717c-1.26365,-0.61431 -4.65582,-3.08232 -5.38868,-4.04151c-1.37142,-1.79982 -2.73206,-6.07035 -2.69434,-8.35245c0.01078,-0.59275 0.64664,-4.8094 0.8083,-5.11924c0.01078,-0.01886 0.37182,0.04311 0.43918,-0.09161c1.06426,-2.16625 2.43299,-4.14389 4.41063,-5.5665c0.68706,-0.49576 3.04999,-1.88065 3.77207,-2.15547c3.27901,-1.24209 8.8051,-1.36334 12.12453,-0.26943l0.00001,-0.00001z" class="cls-2"/>
   </g>
  </g>
  <g id="svg_39">
   <g id="svg_40">
    <title>Layer 1</title>
    <path id="svg_23" fill="#9c2327" d="m167.14378,358.28503c-1.19762,0.86314 -2.02813,2.06076 -2.671,3.37097c-0.03916,0.07995 -0.25943,0.04242 -0.26596,0.05548c-4.03505,-1.08178 -8.02768,-2.36588 -11.95177,-3.79357c-14.3095,-5.20657 -38.71069,-16.39147 -40.8922,-33.51065c-0.48297,-3.79357 0.25617,-7.59366 1.64959,-11.11801c26.06058,-8.74397 43.3054,18.71656 51.76056,38.9636c0.83214,1.99223 1.54027,4.03994 2.37078,6.03218z" class="cls-1"/>
    <path id="svg_22" fill="#9c2327" d="m163.71733,364.81159c-0.02284,1.382 0.80114,3.96815 1.63164,5.05809c-4.59633,4.32222 -9.48473,8.38664 -14.63419,12.04315c-13.30604,9.4521 -33.42091,19.98924 -49.49421,11.21101c-0.94635,-0.51723 -5.46926,-3.46724 -5.68464,-4.28306c0.13379,-1.23842 0.35896,-2.46541 0.6755,-3.66956c5.94407,-22.61618 42.76369,-22.47097 61.05766,-21.01228c2.14887,0.17132 4.29122,0.5417 6.44662,0.65102l0.00163,0.00163l-0.00001,0z" class="cls-1"/>
    <path id="svg_21" fill="#9c2327" d="m178.23894,372.15398c1.52232,-0.82235 3.49987,-2.92064 4.0791,-4.5686c10.66604,2.09176 21.56377,5.02382 31.43847,9.59732c11.92404,5.52311 24.81237,14.27686 23.70938,29.15091c-0.04895,0.66571 -0.56618,3.77725 -0.8974,4.16069c-0.29696,0.34101 -3.24207,1.32979 -3.87025,1.51416c-22.71898,6.67341 -40.93952,-16.23646 -50.89743,-33.38175c-1.23678,-2.12766 -2.34141,-4.3369 -3.56187,-6.47272l0,-0.00001z" class="cls-1"/>
    <path id="svg_20" fill="#9c2327" d="m182.64437,363.50628c-0.34101,-1.92044 -1.81928,-4.2749 -3.42645,-5.38442c2.35609,-3.01691 4.80355,-6.01586 7.42234,-8.8125c13.94238,-14.89362 36.77067,-32.90695 57.43704,-19.08857c1.55332,19.224 -19.10489,27.02488 -34.47985,30.29958c-8.79781,1.87312 -17.95948,2.80479 -26.95309,2.98754l0,-0.00163l0.00001,0z" class="cls-1"/>
    <path id="svg_19" fill="#9c2327" d="m175.79148,373.13297c0.72119,1.82254 1.60554,3.57982 2.36099,5.38931c6.85126,16.41268 14.43676,43.87484 -4.07095,55.47418c-1.91718,1.20252 -4.02689,2.19456 -6.17903,2.89127c-23.11873,-10.88305 -13.82653,-38.06783 -4.59633,-55.43665c1.65285,-3.10991 3.53903,-6.09255 5.3061,-9.13393c2.14724,1.04425 4.8574,1.32816 7.17922,0.81582z" class="cls-1"/>
    <path id="svg_18" fill="#9c2327" d="m169.42807,356.97972c-1.35263,-4.54412 -2.80642,-9.0654 -3.83599,-13.70416c-3.92899,-17.68373 -4.89329,-41.8565 15.82692,-48.95414c0.61187,-0.20885 2.25493,-0.78971 2.795,-0.8044c0.97572,-0.02611 4.87861,3.28939 5.71564,4.12642c13.28483,13.28319 3.42155,34.55817 -4.93245,47.73694c-2.51273,3.96326 -5.29631,7.77477 -8.22674,11.43454c-2.01018,-0.66245 -5.35668,-0.58902 -7.34239,0.16316l0,0.00163l0.00001,0.00001z" class="cls-1"/>
    <path id="svg_17" fill="#e8d7a5" d="m176.77046,356.81655c0.24801,0.08158 2.17987,1.12094 2.44746,1.30531c1.60717,1.10952 3.08543,3.46397 3.42645,5.38442c0.24148,1.35263 0.13053,2.77542 -0.32633,4.0791c-0.57923,1.64796 -2.55678,3.74625 -4.0791,4.5686c-0.57107,0.30838 -1.83886,0.84519 -2.44746,0.97898c-2.32183,0.51234 -5.03198,0.22843 -7.17922,-0.81582c-0.76524,-0.37201 -2.81948,-1.8666 -3.26328,-2.44746c-0.83051,-1.08994 -1.65448,-3.67609 -1.63164,-5.05809c0.00653,-0.35896 0.39159,-2.91248 0.48949,-3.10012c0.00653,-0.01142 0.22517,0.02611 0.26596,-0.05548c0.6445,-1.31184 1.47337,-2.50946 2.671,-3.37097c0.41607,-0.30022 1.84702,-1.13889 2.2843,-1.30531c1.98571,-0.75219 5.3322,-0.82561 7.34239,-0.16316l-0.00002,0z" class="cls-2"/>
   </g>
  </g>
  <g id="svg_41">
   <g id="svg_42">
    <title>Layer 1</title>
    <path id="svg_30" fill="#c86928" d="m141.14673,161.92376c-0.0273,0.01985 -0.04715,0.43183 -0.24073,0.61797c-1.1044,1.05724 -3.42239,3.51174 -3.97831,4.84198c-12.70182,-3.52166 -25.41604,-8.01371 -37.31624,-13.68461c-22.34855,-10.65434 -52.753,-30.86606 -40.55002,-59.96012c36.38309,-12.48094 61.74453,22.80272 75.10155,51.22173c2.59844,5.52944 4.90402,11.22267 6.98377,16.96554l0,-0.00248l-0.00002,-0.00001z" class="cls-1"/>
    <path id="svg_29" fill="#c86928" d="m136.18315,172.09911c-0.01985,2.44457 0.95549,5.74783 2.48179,7.69356c-9.98674,9.20745 -20.69319,17.78949 -32.28317,24.92217c-14.77163,9.08833 -34.16437,17.68526 -51.90422,14.9677c-8.2197,-1.25827 -15.96289,-5.10257 -21.99365,-10.7685c-0.2457,-0.70483 0.38468,-3.39757 0.57826,-4.30591c7.6737,-35.93388 65.15452,-35.74527 93.31543,-33.49925c3.26852,0.26059 6.52712,0.82396 9.80557,0.99024l-0.00001,-0.00001z" class="cls-1"/>
    <path id="svg_28" fill="#c86928" d="m158.27111,183.26718c2.16661,-1.15155 5.39294,-4.63351 6.20448,-6.94902c3.08983,0.41694 6.15485,1.14659 9.18512,1.85886c24.05354,5.65104 67.96143,19.42748 74.03189,47.07962c1.16396,5.30359 0.96542,11.31946 -0.82396,16.45677c-34.1321,15.19106 -62.45929,-15.58566 -79.02278,-41.58989c-3.46955,-5.44754 -6.62639,-11.11099 -9.57476,-16.85634l0.00001,0z" class="cls-1"/>
    <path id="svg_27" fill="#c86928" d="m164.97195,170.36186c-0.29533,-2.72997 -3.03771,-6.82493 -5.21177,-8.4381l4.83453,-6.20945c19.64091,-22.79279 53.99886,-54.49522 86.66174,-40.24476c2.49917,1.08951 4.89906,2.49172 7.15253,4.01554c2.17901,29.21567 -28.81858,40.97937 -52.23678,46.03975c-13.53322,2.92355 -27.3717,4.17438 -41.20025,4.83702z" class="cls-1"/>
    <path id="svg_26" fill="#c86928" d="m156.03749,159.93832c-3.08735,-1.02994 -8.1105,-0.89345 -11.16807,0.24818c-2.99552,-9.17023 -5.68579,-18.47199 -7.36844,-27.99711c-4.47219,-25.34407 -3.53159,-56.66927 24.67895,-66.99104c1.04732,-0.3822 4.25131,-1.56849 5.1522,-1.56353c1.12922,0.00745 5.8744,3.75992 6.9515,4.72037c22.48008,20.02311 7.65385,52.80015 -5.48724,73.69437c-3.90138,6.202 -8.23955,12.13349 -12.76138,17.88877l0.00248,0l0,-0.00001z" class="cls-1"/>
    <path id="svg_25" fill="#c86928" d="m154.54842,184.75626c12.82094,27.8482 29.23304,78.45693 -7.60421,95.26612c-1.42703,0.65023 -2.91114,1.20615 -4.39029,1.7174c-8.37357,-3.77481 -15.54843,-10.26718 -19.14207,-18.81447c-6.17222,-14.67733 -2.00529,-32.42463 3.40502,-46.71231c4.31584,-11.39391 10.24981,-22.08051 16.56597,-32.44945c2.43712,1.28061 8.47781,1.61068 11.16807,0.99272l-0.00248,0l-0.00001,-0.00001z" class="cls-1"/>
    <path id="svg_24" fill="#e8d7a5" d="m156.03749,159.93832c0.20103,0.06701 3.4894,1.81171 3.72269,1.98543c2.17405,1.61317 4.91643,5.70812 5.21177,8.4381c0.15883,1.47419 -0.00745,4.5665 -0.49636,5.9563c-0.81155,2.31551 -4.03788,5.79747 -6.20448,6.94902c-0.65519,0.34745 -3.0675,1.33769 -3.72269,1.48908c-2.69026,0.61797 -8.73095,0.28789 -11.16807,-0.99272c-0.02234,-0.01241 0.06204,-0.36234 -0.17373,-0.49884c-1.40966,-0.80658 -3.55393,-2.21128 -4.54168,-3.47203c-1.5263,-1.94573 -2.50165,-5.24899 -2.48179,-7.69356c0.00993,-1.08951 0.34249,-3.75495 0.74454,-4.71541c0.55592,-1.33024 2.87392,-3.78473 3.97831,-4.84198c0.19358,-0.18613 0.21343,-0.59811 0.24073,-0.61797c0.16628,-0.12161 3.34298,-1.59579 3.72269,-1.73726c3.05757,-1.14162 8.08072,-1.27812 11.16807,-0.24818l0,0.00002z" class="cls-2"/>
   </g>
  </g>
  <g id="svg_43">
   <g id="svg_44">
    <title>Layer 1</title>
    <path id="svg_37" fill="#94d1bc" d="m1246.17876,76.03464c-0.77903,0.5785 -2.6494,2.99899 -3.01673,3.90401c-11.16723,-3.37164 -22.35221,-7.30582 -32.59313,-12.92404c-14.3348,-7.86302 -30.96232,-21.38331 -23.14011,-39.83861c28.3076,-9.45302 46.93325,20.14822 56.17155,42.12068c0.92986,2.21286 1.79229,4.47009 2.57842,6.73796z" class="cls-3"/>
    <path id="svg_36" fill="#94d1bc" d="m1242.45221,83.31029c0.01242,1.35398 1.0949,4.24649 1.952,5.32365c-12.43249,11.22224 -27.33337,22.83666 -43.7923,27.27836c-10.54969,2.84638 -23.03364,2.27142 -31.35449,-5.63242c-0.669,-0.63529 -0.86066,-0.65303 -0.80387,-1.67517c0.17568,-3.12853 2.04428,-7.64475 3.76027,-10.26399c11.76348,-17.95843 47.39819,-17.39945 66.24389,-15.55924c1.32559,0.12954 2.65827,0.45606 3.99451,0.53059l0,-0.00177l-0.00001,-0.00001z" class="cls-3"/>
    <path id="svg_35" fill="#94d1bc" d="m1258.42314,91.11831c1.60597,-0.87663 3.82948,-3.23323 4.43637,-4.96874c8.21616,1.63613 16.37553,3.7159 24.2705,6.51792c14.20881,5.04149 35.21414,15.1085 35.71633,32.60378c0.07276,2.53051 -0.25199,5.24379 -1.0736,7.63588c-24.39827,11.05544 -44.88188,-11.30742 -56.68085,-29.91534c-2.42758,-3.82948 -4.67416,-7.80269 -6.66875,-11.87528l0,0.00177l0,0.00001z" class="cls-3"/>
    <path id="svg_34" fill="#94d1bc" d="m1256.82605,74.61501c-2.11881,-0.73821 -5.87198,-0.76483 -7.98547,0c-0.72224,-2.30869 -1.54031,-4.59431 -2.21819,-6.92074c-6.37595,-21.9139 -10.18768,-55.192 18.44643,-62.10742c1.11797,0.62109 2.18269,1.36108 3.19596,2.13656c18.68422,14.30109 6.92784,39.73569 -3.27227,55.45109c-2.55358,3.93417 -5.41947,7.6483 -8.16647,11.44229l0,-0.00177l0.00001,-0.00001z" class="cls-3"/>
    <path id="svg_33" fill="#94d1bc" d="m1255.76132,92.18303c0.8021,2.37435 1.97862,4.6085 2.92268,6.92606c5.95893,14.64357 12.28875,37.0295 3.18531,51.44061c-3.31486,5.24911 -8.855,9.09456 -14.71633,10.99865c-13.41381,-5.93054 -17.49172,-18.43756 -15.29128,-32.31275c2.13833,-13.48834 8.95969,-26.23137 15.91592,-37.76416c2.18447,1.04698 5.65371,1.2759 7.98547,0.70982l-0.00177,0.00177z" class="cls-3"/>
    <path id="svg_32" fill="#94d1bc" d="m1263.21442,81.89065c-0.26263,-2.06025 -2.20399,-4.86936 -3.90401,-6.03346c5.76018,-7.04851 11.8877,-13.8468 18.80666,-19.78976c14.11831,-12.12549 34.10682,-22.61839 51.73163,-10.55501c0.39927,2.35128 0.14019,4.94389 -0.35314,7.27742c-3.8348,18.15363 -28.85238,24.668 -44.57311,27.11865c-7.17627,1.11797 -14.44305,1.77277 -21.70805,1.98217l0.00002,-0.00001z" class="cls-3"/>
    <path id="svg_31" fill="#e8d7a6" d="m1256.82605,74.61501c0.51107,0.17745 2.04251,0.93874 2.48437,1.24218c1.70002,1.1641 3.64137,3.97321 3.90401,6.03346c0.12954,1.00794 -0.01952,3.29889 -0.35491,4.25892c-0.6069,1.73551 -2.8304,4.09211 -4.43637,4.96874c-0.72402,0.39572 -1.87037,0.87308 -2.66182,1.06473c-2.33176,0.56608 -5.801,0.33716 -7.98547,-0.70982c-0.57495,-0.27505 -2.94575,-2.30336 -3.37164,-2.83928c-0.85711,-1.07715 -1.93958,-3.96966 -1.952,-5.32365c-0.00532,-0.55366 0.48268,-2.81266 0.70982,-3.37164c0.36733,-0.90502 2.23771,-3.3255 3.01673,-3.90401c0.19343,-0.14374 2.43291,-1.33623 2.66182,-1.41964c2.11349,-0.76483 5.86666,-0.73821 7.98547,0l-0.00001,0.00001z" class="cls-1"/>
   </g>
  </g>
 </g>

</svg>