<svg width="1440" height="990" xmlns="http://www.w3.org/2000/svg" data-name="Layer 1">

 <g>
  <title>Layer 1</title>
  <g id="svg_1">
   <path id="svg_2" stroke-width="24.35px" stroke="#ae2012" stroke-miterlimit="10" fill="none" d="m1487,-2700.81962l-52.29,0c-38.5,0 -69.71,10.07745 -69.71,47.90921l0,3674.77921c0,42.42443 31.21,62.4692 69.71,62.4692l52.29,0" class="cls-6"/>
   <path id="svg_3" stroke="#ee9b00" stroke-width="24.48px" stroke-miterlimit="10" fill="none" d="m1485,-2745.84326l-61.49,0c-56.06,0 -101.51,18.73415 -101.51,70.53116l0,3721.25664c0,11.90571 1.6,23.7894 5.14,35.03429c14.28,45.43114 51.39,58.22896 102.45,58.22896l55.41,0" class="cls-3"/>
   <path id="svg_4" stroke-width="24.6px" stroke-miterlimit="10" fill="none" stroke="#005f73" d="m1513,-2795.78999l-88.62,0c-72.69,0 -125.63,11.45415 -142.12,78.19663c-2.85,11.53125 -4.13,23.47 -4.13,35.43078l0,3726.95068c0,9.16332 0.49,18.32665 1.65,27.40186c11.37,88.86882 68.87,116.11649 144.59,116.11649l88.62,0" class="cls-2"/>
  </g>
  <g id="svg_5">
   <path id="svg_6" stroke="#ae2012" stroke-width="25.04px" stroke-miterlimit="10" fill="none" d="m-84.88,-2631.46662l138.94,0c26.14,0 47.34,24.98775 47.34,55.82445l0,1220.76771c0,18.69069 -12.85,33.83193 -28.69,33.83193l0,0c-14.29,0 -25.88,13.65541 -25.88,30.51831l0,1247.27665c0,12.70024 8.73,23.00665 19.51,23.00665l0,0c7.41,0 13.42,7.08713 13.42,15.82518l0,1175.70957c0,21.09631 -14.5,38.19505 -32.39,38.19505l-119.32,0" class="cls-4"/>
   <path id="svg_7" stroke-width="25.06px" stroke="#ee9b00" stroke-miterlimit="10" fill="none" d="m-87.88,-2685.99392l155.69,0c42.06,0 76.15,40.19973 76.15,89.79788l0,1282.84204c0,22.44063 -15.43,40.64784 -34.47,40.64784l0,0c-11.1,0 -20.1,10.61301 -20.1,23.7024l0,1148.69356c0,14.36294 9.86,26.01367 22.04,26.06084l0,0c9.47,0.02358 17.12,9.12719 17.06,20.29444l-5.92,1166.08711c-0.14,27.84147 -19.25,50.37643 -42.86,50.54153l-167.59,1.20281" class="cls-5"/>
   <path id="svg_8" stroke-miterlimit="10" fill="none" stroke="#005f73" stroke-width="25.07px" d="m-92.88,-2738.2807l184.08,0c52.1,0 94.34,49.81041 94.34,111.24796l0,1358.43028c0,23.18354 -15.93,41.96857 -35.59,41.96857l0,0c-10.48,0 -18.98,10.0234 -18.98,22.38167l0,1048.84869c0,14.23323 9.78,25.76604 21.85,25.76604l0,0c8.08,0 14.62,7.73571 14.59,17.26383l-3.36,1170.26156c-0.09,30.96641 -21.31,56.06029 -47.57,56.24897l-209.37,1.50941" class="cls-1"/>
  </g>
 </g>
</svg>