<svg width="1200" height="1200" viewBox="0 0 1200 1200" fill="none" xmlns="http://www.w3.org/2000/svg">
<g clip-path="url(#clip0_2002_13)">
<path d="M309.807 835.677L401.739 904.224L256.321 1032.87L254.682 912.511L309.807 835.677Z" fill="#510E23"/>
<path d="M192.606 990.224L254.682 912.511L256.321 1032.87C236.062 1050.1 213.779 1069.65 195.139 1089.17L192.606 990.224Z" fill="#690010"/>
<path d="M167.923 1184.55C167.923 1184.55 149.256 1186.11 127.525 1185.63L125.274 1061.42C147.541 1040.9 173.011 1016.63 192.606 990.224L195.139 1089.17C159.437 1126.57 137.097 1163.86 167.923 1184.55Z" fill="#510E23"/>
<path d="M66.98 1173.21C45.4849 1156.08 46.0908 1082.97 46.0908 1082.97C76.5204 1101.75 91.303 1092.73 125.274 1061.42L127.525 1185.63C126.975 1185.61 126.423 1185.6 125.869 1185.58C103.439 1184.98 78.2032 1182.15 66.98 1173.21Z" fill="#690010"/>
<path fill-rule="evenodd" clip-rule="evenodd" d="M479.425 743.155L276.711 859.237L322.119 901.887L382.291 941.11L479.425 743.155Z" fill="#EE9C2A"/>
<path fill-rule="evenodd" clip-rule="evenodd" d="M276.711 859.237L479.425 743.155L1105.78 99.0697C1105.78 99.0697 962.576 151.915 938.535 176.39L938.456 176.329L276.711 859.237Z" fill="#E8C48D"/>
<path fill-rule="evenodd" clip-rule="evenodd" d="M479.425 743.155L382.291 941.11L1044.08 258.337C1064.56 237.02 1105.78 99.0697 1105.78 99.0697L479.425 743.155Z" fill="#C68A5C"/>
<path d="M104.301 821.361L143.562 755.211C143.562 755.211 217.105 832.103 280.239 859.099L305.574 918.84C235.03 867.652 104.301 821.361 104.301 821.361Z" fill="#C68A5C"/>
<path d="M280.239 859.099C305.234 869.787 346.961 880.505 346.961 880.505L305.574 918.84L280.239 859.099Z" fill="#9F9F44"/>
<path fill-rule="evenodd" clip-rule="evenodd" d="M305.574 918.84L346.961 880.505C346.961 880.505 365.923 918.45 382.456 940.457L305.574 918.84Z" fill="#515128"/>
<path d="M525.293 1051.66L462.73 1096.81C462.73 1096.81 383.769 975.58 305.574 918.84L382.456 940.457C423.665 995.31 525.293 1051.66 525.293 1051.66Z" fill="#B16A05"/>
<path d="M888.284 835.545L796.699 904.555L942.764 1032.46L943.796 912.1L888.284 835.545Z" fill="#510E23"/>
<path d="M1006.26 989.498L943.796 912.1L942.764 1032.46C963.111 1049.59 985.491 1069.03 1004.23 1088.46L1006.26 989.498Z" fill="#690010"/>
<path d="M1031.93 1183.7C1031.93 1183.7 1050.6 1185.16 1072.33 1184.57L1073.95 1060.36C1051.58 1039.95 1025.99 1015.81 1006.26 989.498L1004.23 1088.46C1040.12 1125.67 1062.65 1162.85 1031.93 1183.7Z" fill="#510E23"/>
<path d="M1132.81 1171.84C1154.22 1154.61 1153.24 1081.5 1153.24 1081.5C1122.91 1100.43 1108.08 1091.49 1073.95 1060.36L1072.33 1184.57C1072.88 1184.55 1073.43 1184.54 1073.99 1184.52C1096.41 1183.8 1121.63 1180.84 1132.81 1171.84Z" fill="#690010"/>
<path fill-rule="evenodd" clip-rule="evenodd" d="M718.201 743.881L921.499 858.938L876.307 901.817L816.333 941.343L718.201 743.881Z" fill="#EE9C2B"/>
<path fill-rule="evenodd" clip-rule="evenodd" d="M921.499 858.938L718.201 743.881L88.6045 102.965C88.6045 102.965 232.071 155.088 256.236 179.441L256.315 179.379L921.499 858.938Z" fill="#E8C48D"/>
<path fill-rule="evenodd" clip-rule="evenodd" d="M718.201 743.881L816.333 941.343L151.11 261.919C130.517 240.706 88.6045 102.965 88.6045 102.965L718.201 743.881Z" fill="#C68A5C"/>
<path d="M1093.72 820.192L1054.12 754.241C1054.12 754.241 980.967 831.503 917.97 858.817L892.937 918.686C963.221 867.143 1093.72 820.192 1093.72 820.192Z" fill="#C68A5C"/>
<path d="M917.97 858.817C893.029 869.631 851.356 880.56 851.356 880.56L892.937 918.686L917.97 858.817Z" fill="#9F9F44"/>
<path fill-rule="evenodd" clip-rule="evenodd" d="M892.937 918.686L851.356 880.56C851.356 880.56 832.586 918.6 816.164 940.691L892.937 918.686Z" fill="#515128"/>
<path d="M673.891 1052.61L736.681 1097.45C736.681 1097.45 815.029 975.82 892.937 918.686L816.164 940.691C775.232 995.751 673.891 1052.61 673.891 1052.61Z" fill="#B16A05"/>
<mask id="path-7-outside-1_2002_13" maskUnits="userSpaceOnUse" x="148.247" y="89" width="903" height="867" fill="black">
<rect fill="white" x="148.247" y="89" width="903" height="867"/>
<path d="M377.824 377.508L319.646 516.577V612.422L326.984 603.025L434.126 465.836L407.616 422.812L377.824 377.508Z"/>
<path d="M355.303 755.25L398.468 672.56L326.984 603.025L319.646 612.422L350.142 734.577L355.303 755.25Z"/>
<path d="M326.984 603.025L398.468 672.56L434.126 603.025L411.605 574.836L326.984 603.025Z"/>
<path d="M434.126 465.836L326.984 603.025L411.605 574.836L456.647 527.853L434.126 465.836Z"/>
<path d="M398.468 672.56L355.303 755.25L434.126 892.439L466.03 695.112L398.468 672.56Z"/>
<path d="M434.126 603.025L398.468 672.56L466.03 695.112L479.167 612.422L434.126 603.025Z"/>
<path d="M466.03 695.112L434.126 892.439L527.962 775.922L541.099 734.577L527.962 667.862L514.825 603.605L479.167 612.422L466.03 695.112Z"/>
<path d="M527.962 775.922L434.126 892.439L499.811 945.06L549.545 924.388L594.713 861.224L604.908 804.112L527.962 775.922Z"/>
<path d="M319.646 516.577L377.824 377.508L434.126 342.741L319.646 364.353L158.247 563.56L319.646 516.577Z"/>
<path d="M319.646 612.422V516.577L158.247 563.56L237.07 704.508L319.646 612.422Z"/>
<path d="M319.646 612.422L237.07 704.508L223.933 775.922L302.755 804.112L350.142 734.577L319.646 612.422Z"/>
<path d="M411.605 574.836L434.126 603.025L479.167 612.422L514.825 603.605L499.811 550.405L456.647 527.853L411.605 574.836Z"/>
<path fill-rule="evenodd" clip-rule="evenodd" d="M604.908 507.181V330.525L601.155 329.684V328.646L575.637 323.961L487.581 304.215L377.824 377.508L407.616 422.812L434.126 465.836L435.491 469.594H438.38L562.341 497.573L601.155 507.181V506.333L604.908 507.181Z"/>
<path d="M819.793 377.508L879.849 516.577V612.422L872.51 603.025L765.368 465.836L819.793 377.508Z"/>
<path d="M844.191 755.25L801.026 672.56L872.51 603.025L879.849 612.422L849.352 734.577L844.191 755.25Z"/>
<path d="M872.51 603.025L801.026 672.56L765.368 603.025L787.889 574.836L872.51 603.025Z"/>
<path d="M765.368 465.836L872.51 603.025L787.889 574.836L742.848 527.853L765.368 465.836Z"/>
<path d="M801.026 672.56L844.191 755.25L765.368 892.439L733.464 695.112L801.026 672.56Z"/>
<path d="M765.368 603.025L801.026 672.56L733.464 695.112L720.327 612.422L765.368 603.025Z"/>
<path d="M733.464 695.112L765.368 892.439L671.532 775.922L659.639 735.221L684.669 603.025L720.327 612.422L733.464 695.112Z"/>
<path d="M671.532 775.922L765.368 892.439L699.683 945.06L660.272 925.327L609.909 861.424L603.97 804.112L671.532 775.922Z"/>
<path d="M879.849 516.577L819.793 377.508L765.368 342.741L879.849 364.353L1041.25 563.56L879.849 516.577Z"/>
<path d="M879.849 612.422V516.577L1041.25 563.56L962.425 704.508L879.849 612.422Z"/>
<path d="M879.849 612.422L962.425 704.508L975.562 775.922L896.739 804.112L849.352 734.577L879.849 612.422Z"/>
<path d="M787.889 574.836L765.368 603.025L720.327 612.422L684.669 603.025L699.683 550.405L742.848 527.853L787.889 574.836Z"/>
<path d="M598.34 330.525V507.181L763.662 470.534L821.67 377.508L711.913 304.215L598.34 330.525Z"/>
<path d="M603.031 946L548.606 922.509L594.713 860.596L604.119 804.707L611.018 860.596L659.802 922.509L603.031 946Z"/>
<path d="M604.119 804.707L527.493 777.332L540.161 734.577H659.802L672.939 777.332L604.119 804.707Z"/>
<path d="M514.356 605.845L540.161 734.577H659.802L684.669 605.845L600.216 633.564L514.356 605.845Z"/>
<path d="M514.356 605.845L600.216 633.564L684.669 605.845L699.214 555.103L500.281 551.814L514.356 605.845Z"/>
<path d="M500.281 551.814L699.214 555.103L744.724 528.793L763.961 469.595L600.216 506.029L434.595 467.245L456.647 528.793L500.281 551.814Z"/>
<path d="M425.394 567.962L455.495 539.075L470.546 546.611C458.841 548.973 447.841 554.771 425.394 567.962Z"/>
<path d="M425.394 567.962L455.495 539.075L470.546 546.611C458.841 548.973 447.841 554.771 425.394 567.962Z"/>
<path d="M425.394 567.962L455.495 539.075L470.546 546.611C458.841 548.973 447.841 554.771 425.394 567.962Z"/>
<path d="M775.319 567.962L745.218 539.075L730.168 546.611C741.872 548.973 752.872 554.771 775.319 567.962Z"/>
<path d="M775.319 567.962L745.218 539.075L730.168 546.611C741.872 548.973 752.872 554.771 775.319 567.962Z"/>
<path d="M775.319 567.962L745.218 539.075L730.168 546.611C741.872 548.973 752.872 554.771 775.319 567.962Z"/>
<path d="M599.417 285.317L509.113 237.591V349.827L599.417 285.317Z"/>
<path d="M599.417 363.185L697.245 349.827L599.417 285.317L509.113 349.827L599.417 363.185Z"/>
<path d="M433.861 340.578L509.113 349.827V237.591L460.199 285.317L433.861 340.578Z"/>
<path d="M509.113 237.591L396.234 203.681L460.199 285.317L509.113 237.591Z"/>
<path d="M396.234 203.681L433.861 340.578L460.199 285.317L396.234 203.681Z"/>
<path d="M697.245 349.827L764.973 340.578L746.159 285.317L697.245 237.591V349.827Z"/>
<path d="M813.887 203.681L697.245 237.591L746.159 285.317L813.887 203.681Z"/>
<path d="M764.973 340.578L813.887 203.681L746.159 285.317L764.973 340.578Z"/>
<path fill-rule="evenodd" clip-rule="evenodd" d="M697.245 237.591L599.417 99L509.113 237.591L561.776 216.836L599.417 99L635.349 216.836L697.245 237.591Z"/>
<path fill-rule="evenodd" clip-rule="evenodd" d="M599.417 285.317L561.776 216.836L599.417 244.805L635.349 216.836L599.417 285.317Z"/>
<path d="M599.417 99L561.776 216.836L599.417 244.805L635.349 216.836L599.417 99Z"/>
<path d="M509.113 237.591L599.417 285.317L561.776 216.836L509.113 237.591Z"/>
<path d="M635.349 216.836L599.417 285.317L697.245 237.591L635.349 216.836Z"/>
<path d="M599.417 285.317L697.245 349.827V237.591L599.417 285.317Z"/>
<path d="M599.33 148.618L592.431 188.18L599.33 228.37L604.974 188.18L599.33 148.618Z"/>
</mask>
<path d="M377.824 377.508L319.646 516.577V612.422L326.984 603.025L434.126 465.836L407.616 422.812L377.824 377.508Z" fill="#703C47"/>
<path d="M355.303 755.25L398.468 672.56L326.984 603.025L319.646 612.422L350.142 734.577L355.303 755.25Z" fill="#633C3C"/>
<path d="M326.984 603.025L398.468 672.56L434.126 603.025L411.605 574.836L326.984 603.025Z" fill="#533234"/>
<path d="M434.126 465.836L326.984 603.025L411.605 574.836L456.647 527.853L434.126 465.836Z" fill="#865F51"/>
<path d="M398.468 672.56L355.303 755.25L434.126 892.439L466.03 695.112L398.468 672.56Z" fill="#865F51"/>
<path d="M434.126 603.025L398.468 672.56L466.03 695.112L479.167 612.422L434.126 603.025Z" fill="#4C292F"/>
<path d="M466.03 695.112L434.126 892.439L527.962 775.922L541.099 734.577L527.962 667.862L514.825 603.605L479.167 612.422L466.03 695.112Z" fill="#633C3C"/>
<path d="M527.962 775.922L434.126 892.439L499.811 945.06L549.545 924.388L594.713 861.224L604.908 804.112L527.962 775.922Z" fill="#533234"/>
<path d="M319.646 516.577L377.824 377.508L434.126 342.741L319.646 364.353L158.247 563.56L319.646 516.577Z" fill="#602F44"/>
<path d="M319.646 612.422V516.577L158.247 563.56L237.07 704.508L319.646 612.422Z" fill="#865F51"/>
<path d="M319.646 612.422L237.07 704.508L223.933 775.922L302.755 804.112L350.142 734.577L319.646 612.422Z" fill="#703C47"/>
<path d="M411.605 574.836L434.126 603.025L479.167 612.422L514.825 603.605L499.811 550.405L456.647 527.853L411.605 574.836Z" fill="#241119"/>
<path fill-rule="evenodd" clip-rule="evenodd" d="M604.908 507.181V330.525L601.155 329.684V328.646L575.637 323.961L487.581 304.215L377.824 377.508L407.616 422.812L434.126 465.836L435.491 469.594H438.38L562.341 497.573L601.155 507.181V506.333L604.908 507.181Z" fill="#865F51"/>
<path d="M819.793 377.508L879.849 516.577V612.422L872.51 603.025L765.368 465.836L819.793 377.508Z" fill="#703C47"/>
<path d="M844.191 755.25L801.026 672.56L872.51 603.025L879.849 612.422L849.352 734.577L844.191 755.25Z" fill="#633C3C"/>
<path d="M872.51 603.025L801.026 672.56L765.368 603.025L787.889 574.836L872.51 603.025Z" fill="#533234"/>
<path d="M765.368 465.836L872.51 603.025L787.889 574.836L742.848 527.853L765.368 465.836Z" fill="#865F51"/>
<path d="M801.026 672.56L844.191 755.25L765.368 892.439L733.464 695.112L801.026 672.56Z" fill="#865F51"/>
<path d="M765.368 603.025L801.026 672.56L733.464 695.112L720.327 612.422L765.368 603.025Z" fill="#4C292F"/>
<path d="M733.464 695.112L765.368 892.439L671.532 775.922L659.639 735.221L684.669 603.025L720.327 612.422L733.464 695.112Z" fill="#633C3C"/>
<path d="M671.532 775.922L765.368 892.439L699.683 945.06L660.272 925.327L609.909 861.424L603.97 804.112L671.532 775.922Z" fill="#865F51"/>
<path d="M879.849 516.577L819.793 377.508L765.368 342.741L879.849 364.353L1041.25 563.56L879.849 516.577Z" fill="#602F44"/>
<path d="M879.849 612.422V516.577L1041.25 563.56L962.425 704.508L879.849 612.422Z" fill="#865F51"/>
<path d="M879.849 612.422L962.425 704.508L975.562 775.922L896.739 804.112L849.352 734.577L879.849 612.422Z" fill="#703C47"/>
<path d="M787.889 574.836L765.368 603.025L720.327 612.422L684.669 603.025L699.683 550.405L742.848 527.853L787.889 574.836Z" fill="#241119"/>
<path d="M598.34 330.525V507.181L763.662 470.534L821.67 377.508L711.913 304.215L598.34 330.525Z" fill="#533234"/>
<path d="M603.031 946L548.606 922.509L594.713 860.596L604.119 804.707L611.018 860.596L659.802 922.509L603.031 946Z" fill="#4C292F"/>
<path d="M604.119 804.707L527.493 777.332L540.161 734.577H659.802L672.939 777.332L604.119 804.707Z" fill="#241119"/>
<path d="M514.356 605.845L540.161 734.577H659.802L684.669 605.845L600.216 633.564L514.356 605.845Z" fill="#4C292F"/>
<path d="M514.356 605.845L600.216 633.564L684.669 605.845L699.214 555.103L500.281 551.814L514.356 605.845Z" fill="#633C3C"/>
<path d="M500.281 551.814L699.214 555.103L744.724 528.793L763.961 469.595L600.216 506.029L434.595 467.245L456.647 528.793L500.281 551.814Z" fill="#633C3C"/>
<path d="M425.394 567.962L455.495 539.075L470.546 546.611C458.841 548.973 447.841 554.771 425.394 567.962Z" fill="#E8C48D"/>
<path d="M425.394 567.962L455.495 539.075L470.546 546.611C458.841 548.973 447.841 554.771 425.394 567.962Z" fill="#E8C48D"/>
<path d="M425.394 567.962L455.495 539.075L470.546 546.611C458.841 548.973 447.841 554.771 425.394 567.962Z" fill="#E8C48D"/>
<path d="M775.319 567.962L745.218 539.075L730.168 546.611C741.872 548.973 752.872 554.771 775.319 567.962Z" fill="#E8C48D"/>
<path d="M775.319 567.962L745.218 539.075L730.168 546.611C741.872 548.973 752.872 554.771 775.319 567.962Z" fill="#E8C48D"/>
<path d="M775.319 567.962L745.218 539.075L730.168 546.611C741.872 548.973 752.872 554.771 775.319 567.962Z" fill="#E8C48D"/>
<path d="M599.417 285.317L509.113 237.591V349.827L599.417 285.317Z" fill="#FFB246"/>
<path d="M599.417 363.185L697.245 349.827L599.417 285.317L509.113 349.827L599.417 363.185Z" fill="#DA8101"/>
<path d="M433.861 340.578L509.113 349.827V237.591L460.199 285.317L433.861 340.578Z" fill="#E8C48D"/>
<path d="M509.113 237.591L396.234 203.681L460.199 285.317L509.113 237.591Z" fill="#DA8101"/>
<path d="M396.234 203.681L433.861 340.578L460.199 285.317L396.234 203.681Z" fill="#BC7109"/>
<path d="M697.245 349.827L764.973 340.578L746.159 285.317L697.245 237.591V349.827Z" fill="#EE9C2A"/>
<path d="M813.887 203.681L697.245 237.591L746.159 285.317L813.887 203.681Z" fill="#DA8101"/>
<path d="M764.973 340.578L813.887 203.681L746.159 285.317L764.973 340.578Z" fill="#BC7109"/>
<path fill-rule="evenodd" clip-rule="evenodd" d="M697.245 237.591L599.417 99L509.113 237.591L561.776 216.836L599.417 99L635.349 216.836L697.245 237.591Z" fill="#EE9C29"/>
<path fill-rule="evenodd" clip-rule="evenodd" d="M599.417 285.317L561.776 216.836L599.417 244.805L635.349 216.836L599.417 285.317Z" fill="#515128"/>
<path d="M599.417 99L561.776 216.836L599.417 244.805L635.349 216.836L599.417 99Z" fill="#9F9F44"/>
<path d="M509.113 237.591L599.417 285.317L561.776 216.836L509.113 237.591Z" fill="#B16A05"/>
<path d="M635.349 216.836L599.417 285.317L697.245 237.591L635.349 216.836Z" fill="#BC7109"/>
<path d="M599.417 285.317L697.245 349.827V237.591L599.417 285.317Z" fill="#FFB246"/>
<path d="M599.33 148.618L592.431 188.18L599.33 228.37L604.974 188.18L599.33 148.618Z" fill="#E8C48D"/>
<path d="M377.824 377.508L382.002 374.761C380.986 373.216 379.202 372.358 377.361 372.53C375.521 372.701 373.925 373.873 373.211 375.578L377.824 377.508ZM434.126 465.836L438.067 468.913C439.353 467.266 439.479 464.992 438.383 463.213L434.126 465.836ZM434.126 892.439L429.19 891.641C428.828 893.881 430.019 896.083 432.091 897.007C434.163 897.93 436.597 897.342 438.02 895.576L434.126 892.439ZM466.03 695.112L470.966 695.91L470.968 695.896L466.03 695.112ZM601.155 329.684H606.155C606.155 327.344 604.532 325.317 602.249 324.805L601.155 329.684ZM407.616 422.812L411.873 420.189C411.847 420.148 411.821 420.106 411.794 420.065L407.616 422.812ZM435.491 469.594L431.196 472.154C431.902 473.339 433.066 474.18 434.414 474.477L435.491 469.594ZM562.341 497.573L563.442 492.696C563.434 492.694 563.426 492.692 563.418 492.69L562.341 497.573ZM601.155 506.333L600.054 511.211C601.536 511.545 603.09 511.188 604.277 510.239C605.464 509.29 606.155 507.853 606.155 506.333H601.155ZM765.368 465.836L769.309 462.758C768.095 461.204 766.081 460.508 764.167 460.982L765.368 465.836ZM872.51 603.025L876.451 599.948L872.51 603.025ZM765.368 892.439L761.474 895.576C762.897 897.342 765.331 897.93 767.403 897.007C769.475 896.083 770.666 893.881 770.304 891.641L765.368 892.439ZM733.464 695.112L728.526 695.896L728.528 695.91L733.464 695.112ZM710.943 307.974L713.635 303.76C712.545 303.064 711.229 302.817 709.961 303.071L710.943 307.974ZM600.216 633.564L598.68 638.323C599.687 638.648 600.77 638.645 601.776 638.315L600.216 633.564ZM425.394 567.962L421.932 564.355C420.102 566.111 419.877 568.958 421.408 570.98C422.939 573.002 425.741 573.558 427.927 572.273L425.394 567.962ZM455.495 539.075L457.734 534.605C455.842 533.658 453.559 534.003 452.033 535.468L455.495 539.075ZM470.546 546.611L471.535 551.512C473.626 551.09 475.22 549.387 475.502 547.272C475.784 545.157 474.692 543.096 472.784 542.14L470.546 546.611ZM775.319 567.962L772.786 572.273C774.972 573.558 777.775 573.002 779.306 570.98C780.836 568.958 780.611 566.11 778.781 564.354L775.319 567.962ZM745.218 539.075L748.68 535.468C747.154 534.003 744.871 533.657 742.98 534.605L745.218 539.075ZM730.168 546.611L727.929 542.14C726.021 543.096 724.929 545.157 725.211 547.272C725.493 549.387 727.087 551.09 729.179 551.512L730.168 546.611ZM697.245 237.591L700.737 234.013C700.198 233.487 699.548 233.09 698.835 232.851L697.245 237.591ZM599.417 99L604.199 97.5416C603.561 95.4492 601.637 94.0146 599.45 94.0001C597.262 93.9857 595.319 95.3948 594.654 97.4786L599.417 99ZM509.113 237.591L507.28 232.94C506.661 233.184 506.098 233.548 505.622 234.013L509.113 237.591ZM697.245 349.827L694.493 354.001C696.028 355.013 697.996 355.101 699.616 354.229C701.235 353.357 702.245 351.666 702.245 349.827H697.245ZM509.113 349.827H504.113C504.113 351.7 505.16 353.416 506.826 354.273C508.491 355.13 510.496 354.984 512.02 353.895L509.113 349.827ZM599.417 244.805L596.435 248.819C598.238 250.159 600.715 250.131 602.488 248.751L599.417 244.805ZM377.824 377.508L373.211 375.578L315.033 514.647L319.646 516.577L324.258 518.507L382.437 379.438L377.824 377.508ZM319.646 516.577H314.646V612.422H319.646H324.646V516.577H319.646ZM355.303 755.25L359.736 757.563L402.901 674.874L398.468 672.56L394.036 670.246L350.871 752.936L355.303 755.25ZM319.646 612.422L323.586 615.5L330.925 606.103L326.984 603.025L323.043 599.948L315.705 609.344L319.646 612.422ZM398.468 672.56L401.954 668.976L330.47 599.441L326.984 603.025L323.498 606.609L394.982 676.144L398.468 672.56ZM398.468 672.56L402.917 674.841L438.575 605.307L434.126 603.025L429.677 600.744L394.019 670.278L398.468 672.56ZM434.126 603.025L438.032 599.905L415.512 571.715L411.605 574.836L407.699 577.957L430.219 606.146L434.126 603.025ZM411.605 574.836L410.025 570.092L325.404 598.282L326.984 603.025L328.564 607.769L413.185 579.579L411.605 574.836ZM411.605 574.836L415.215 578.296L460.256 531.313L456.647 527.853L453.037 524.393L407.996 571.376L411.605 574.836ZM434.126 892.439L439.062 893.237L470.966 695.91L466.03 695.112L461.094 694.314L429.19 891.641L434.126 892.439ZM466.03 695.112L467.613 690.369L400.051 667.817L398.468 672.56L396.885 677.303L464.447 699.854L466.03 695.112ZM466.03 695.112L470.968 695.896L484.105 613.206L479.167 612.422L474.229 611.637L461.092 694.327L466.03 695.112ZM479.167 612.422L480.188 607.527L435.147 598.131L434.126 603.025L433.105 607.92L478.146 617.317L479.167 612.422ZM479.167 612.422L480.367 617.276L516.025 608.459L514.825 603.605L513.625 598.752L477.967 607.568L479.167 612.422ZM527.962 775.922L524.068 772.786L430.232 889.303L434.126 892.439L438.02 895.576L531.856 779.058L527.962 775.922ZM158.247 563.56L159.645 568.361L321.043 521.378L319.646 516.577L318.248 511.776L156.85 558.759L158.247 563.56ZM237.07 704.508L240.792 707.846L323.368 615.76L319.646 612.422L315.923 609.084L233.347 701.17L237.07 704.508ZM319.646 612.422L314.794 613.633L345.291 735.788L350.142 734.577L354.993 733.366L324.497 611.211L319.646 612.422ZM377.824 377.508L373.646 380.255L403.438 425.559L407.616 422.812L411.794 420.065L382.002 374.761L377.824 377.508ZM407.616 422.812L403.359 425.435L429.869 468.459L434.126 465.836L438.383 463.213L411.873 420.189L407.616 422.812ZM601.155 506.333H606.155V329.684H601.155H596.155V506.333H601.155ZM601.155 329.684L602.249 324.805L576.731 319.083L575.637 323.961L574.543 328.84L600.061 334.562L601.155 329.684ZM407.616 422.812L403.321 425.372L431.196 472.154L435.491 469.594L439.786 467.035L411.911 420.253L407.616 422.812ZM435.491 469.594L434.414 474.477L561.264 502.456L562.341 497.573L563.418 492.69L436.568 464.712L435.491 469.594ZM562.341 497.573L561.24 502.45L600.054 511.211L601.155 506.333L602.255 501.456L563.442 492.696L562.341 497.573ZM819.793 377.508L815.203 379.49L875.258 518.559L879.849 516.577L884.439 514.595L824.384 375.526L819.793 377.508ZM879.849 516.577H874.849V612.422H879.849H884.849V516.577H879.849ZM844.191 755.25L848.623 752.936L805.458 670.246L801.026 672.56L796.594 674.874L839.758 757.563L844.191 755.25ZM879.849 612.422L883.789 609.345L876.451 599.948L872.51 603.025L868.569 606.103L875.908 615.5L879.849 612.422ZM801.026 672.56L804.512 676.144L875.996 606.61L872.51 603.025L869.024 599.441L797.54 668.976L801.026 672.56ZM801.026 672.56L805.475 670.279L769.817 600.744L765.368 603.025L760.919 605.307L796.577 674.842L801.026 672.56ZM765.368 603.025L769.275 606.146L791.795 577.957L787.889 574.836L783.983 571.715L761.462 599.905L765.368 603.025ZM787.889 574.836L786.309 579.58L870.93 607.769L872.51 603.025L874.09 598.282L789.469 570.092L787.889 574.836ZM787.889 574.836L791.498 571.376L746.457 524.393L742.848 527.853L739.238 531.313L784.28 578.296L787.889 574.836ZM765.368 892.439L770.304 891.641L738.4 694.314L733.464 695.112L728.528 695.91L760.432 893.237L765.368 892.439ZM733.464 695.112L735.047 699.854L802.609 677.303L801.026 672.56L799.443 667.817L731.881 690.369L733.464 695.112ZM710.943 307.974L709.961 303.071L597.358 325.623L598.34 330.525L599.321 335.428L711.925 312.876L710.943 307.974ZM598.34 507.181L599.541 512.034L766.57 470.689L765.368 465.836L764.167 460.982L597.138 502.327L598.34 507.181ZM733.464 695.112L738.402 694.327L725.265 611.638L720.327 612.422L715.389 613.207L728.526 695.896L733.464 695.112ZM720.327 612.422L721.348 617.317L766.389 607.92L765.368 603.025L764.347 598.131L719.306 607.527L720.327 612.422ZM720.327 612.422L721.601 607.587L685.943 598.191L684.669 603.025L683.395 607.86L719.053 617.257L720.327 612.422ZM671.532 775.922L667.638 779.058L761.474 895.576L765.368 892.439L769.262 889.303L675.426 772.786L671.532 775.922ZM765.368 342.741L768.06 338.527L713.635 303.76L710.943 307.974L708.252 312.187L762.677 346.954L765.368 342.741ZM1041.25 563.56L1042.64 558.759L881.246 511.776L879.849 516.577L878.451 521.378L1039.85 568.361L1041.25 563.56ZM962.425 704.508L966.147 701.17L883.571 609.084L879.849 612.422L876.126 615.76L958.702 707.846L962.425 704.508ZM879.849 612.422L874.997 611.211L844.501 733.366L849.352 734.577L854.203 735.788L884.7 613.633L879.849 612.422ZM514.356 605.845L512.82 610.603L598.68 638.323L600.216 633.564L601.752 628.806L515.892 601.086L514.356 605.845ZM600.216 633.564L601.776 638.315L686.228 610.595L684.669 605.845L683.11 601.094L598.657 628.814L600.216 633.564ZM540.161 734.577V739.577H659.802V734.577V729.577H540.161V734.577ZM500.281 551.814L500.198 556.814L699.131 560.102L699.214 555.103L699.296 550.104L500.363 546.815L500.281 551.814ZM425.394 567.962L428.856 571.57L458.957 542.683L455.495 539.075L452.033 535.468L421.932 564.355L425.394 567.962ZM455.495 539.075L453.256 543.546L468.307 551.082L470.546 546.611L472.784 542.14L457.734 534.605L455.495 539.075ZM470.546 546.611L469.557 541.71C456.888 544.266 445.164 550.544 422.861 563.651L425.394 567.962L427.927 572.273C450.517 558.998 460.794 553.68 471.535 551.512L470.546 546.611ZM775.319 567.962L778.781 564.354L748.68 535.468L745.218 539.075L741.756 542.683L771.857 571.57L775.319 567.962ZM745.218 539.075L742.98 534.605L727.929 542.14L730.168 546.611L732.406 551.082L747.457 543.546L745.218 539.075ZM730.168 546.611L729.179 551.512C739.919 553.68 750.196 558.998 772.786 572.273L775.319 567.962L777.852 563.651C755.549 550.544 743.826 544.266 731.157 541.71L730.168 546.611ZM509.113 237.591L506.777 242.012L597.08 289.738L599.417 285.317L601.753 280.897L511.45 233.171L509.113 237.591ZM599.417 285.317L596.664 289.491L694.493 354.001L697.245 349.827L699.998 345.653L602.169 281.143L599.417 285.317ZM697.245 237.591H692.245V349.827H697.245H702.245V237.591H697.245ZM746.159 285.317L749.651 281.738L700.737 234.013L697.245 237.591L693.753 241.17L742.668 288.896L746.159 285.317ZM764.973 340.578L769.706 338.967L750.893 283.706L746.159 285.317L741.426 286.928L760.239 342.19L764.973 340.578ZM813.887 203.681L810.039 200.489L742.311 282.125L746.159 285.317L750.008 288.51L817.735 206.874L813.887 203.681ZM599.417 285.317L596.51 281.249L506.207 345.758L509.113 349.827L512.02 353.895L602.323 289.386L599.417 285.317ZM460.199 285.317L464.135 282.233L400.17 200.597L396.234 203.681L392.299 206.765L456.263 288.401L460.199 285.317ZM433.861 340.578L438.374 342.73L464.713 287.468L460.199 285.317L455.686 283.166L429.347 338.427L433.861 340.578ZM509.113 237.591L505.622 234.013L456.707 281.738L460.199 285.317L463.691 288.896L512.605 241.17L509.113 237.591ZM509.113 349.827H514.113V237.591H509.113H504.113V349.827H509.113ZM599.417 285.317L603.798 282.909L566.157 214.428L561.776 216.836L557.394 219.244L595.035 287.726L599.417 285.317ZM561.776 216.836L566.538 218.357L604.18 100.521L599.417 99L594.654 97.4786L557.013 215.315L561.776 216.836ZM599.417 99L594.634 100.458L630.567 218.294L635.349 216.836L640.132 215.378L604.199 97.5416L599.417 99ZM635.349 216.836L630.922 214.513L594.989 282.994L599.417 285.317L603.844 287.64L639.777 219.159L635.349 216.836ZM561.776 216.836L559.942 212.184L507.28 232.94L509.113 237.591L510.947 242.243L563.609 221.488L561.776 216.836ZM561.776 216.836L558.793 220.849L596.435 248.819L599.417 244.805L602.399 240.792L564.758 212.823L561.776 216.836ZM599.417 244.805L602.488 248.751L638.421 220.782L635.349 216.836L632.278 212.89L596.346 240.86L599.417 244.805ZM635.349 216.836L633.76 221.577L695.656 242.332L697.245 237.591L698.835 232.851L636.939 212.095L635.349 216.836ZM326.984 603.025L330.925 606.103L438.067 468.913L434.126 465.836L430.185 462.758L323.043 599.948L326.984 603.025ZM872.51 603.025L876.451 599.948L769.309 462.758L765.368 465.836L761.428 468.913L868.569 606.103L872.51 603.025ZM599.417 285.317L601.609 289.811L699.438 242.085L697.245 237.591L695.053 233.098L597.224 280.823L599.417 285.317ZM377.824 377.508L372.271 369.192C367.735 372.22 366.463 378.324 369.41 382.913C372.358 387.501 378.438 388.882 383.078 386.017L377.824 377.508ZM434.126 465.836L443.525 462.422C441.64 457.231 435.904 454.551 430.713 456.436C425.521 458.321 422.841 464.058 424.726 469.249L434.126 465.836ZM355.303 755.25L345.601 757.672C345.825 758.569 346.172 759.43 346.633 760.231L355.303 755.25ZM456.647 527.853L447.247 531.266C448.1 533.615 449.801 535.559 452.016 536.716L456.647 527.853ZM434.126 892.439L425.455 897.421C426.078 898.505 426.898 899.462 427.874 900.244L434.126 892.439ZM601.155 328.646H611.155C611.155 323.82 607.707 319.682 602.96 318.81L601.155 328.646ZM601.155 507.181L598.752 516.888C601.737 517.627 604.896 516.951 607.318 515.055C609.74 513.16 611.155 510.256 611.155 507.181H601.155ZM514.825 603.605L524.622 601.602C524.574 601.363 524.516 601.125 524.449 600.889L514.825 603.605ZM541.099 734.577L550.63 737.605C551.139 736.002 551.236 734.296 550.911 732.645L541.099 734.577ZM527.962 775.922L518.432 772.894C516.811 777.996 519.495 783.47 524.522 785.312L527.962 775.922ZM499.811 945.06L493.559 952.865C496.409 955.148 500.277 955.696 503.65 954.294L499.811 945.06ZM549.545 924.388L553.383 933.622C555.106 932.906 556.594 931.722 557.679 930.204L549.545 924.388ZM594.713 861.224L602.847 867.041C603.712 865.831 604.296 864.445 604.557 862.981L594.713 861.224ZM604.908 804.112L614.752 805.869C615.605 801.092 612.905 796.392 608.348 794.722L604.908 804.112ZM434.126 342.741L439.38 351.249C443.481 348.717 445.192 343.619 443.45 339.126C441.707 334.632 437.007 332.02 432.271 332.914L434.126 342.741ZM319.646 364.353L317.79 354.526C315.463 354.966 313.367 356.217 311.876 358.058L319.646 364.353ZM158.247 563.56L150.477 557.265C147.902 560.443 147.522 564.87 149.519 568.441L158.247 563.56ZM237.07 704.508L246.905 706.317C247.326 704.026 246.934 701.66 245.798 699.627L237.07 704.508ZM223.933 775.922L214.098 774.113C213.211 778.934 215.949 783.687 220.565 785.338L223.933 775.922ZM302.755 804.112L299.388 813.528C303.674 815.061 308.455 813.505 311.019 809.743L302.755 804.112ZM350.142 734.577L359.845 732.155C358.89 728.332 355.78 725.426 351.901 724.733C348.022 724.04 344.098 725.69 341.879 728.946L350.142 734.577ZM499.811 550.405L509.435 547.689C508.688 545.04 506.882 542.816 504.442 541.541L499.811 550.405ZM604.908 330.525H614.908C614.908 325.846 611.663 321.792 607.096 320.768L604.908 330.525ZM604.908 507.181L602.706 516.935C605.671 517.604 608.779 516.889 611.152 514.991C613.526 513.094 614.908 510.22 614.908 507.181H604.908ZM438.38 469.594L440.581 459.84C439.859 459.677 439.121 459.594 438.38 459.594V469.594ZM487.581 304.215L489.77 294.457C487.1 293.859 484.303 294.38 482.028 295.899L487.581 304.215ZM601.155 329.684H591.155C591.155 334.363 594.4 338.417 598.966 339.441L601.155 329.684ZM575.637 323.961L573.449 333.719C573.576 333.747 573.704 333.773 573.832 333.797L575.637 323.961ZM435.491 469.594L426.091 473.008C427.527 476.962 431.284 479.594 435.491 479.594V469.594ZM562.341 497.573L564.744 487.866C564.677 487.849 564.61 487.833 564.542 487.818L562.341 497.573ZM601.155 506.333L603.356 496.579C600.392 495.91 597.284 496.625 594.91 498.523C592.537 500.42 591.155 503.294 591.155 506.333H601.155ZM527.962 667.862L537.774 665.93C537.769 665.906 537.764 665.882 537.76 665.859L527.962 667.862ZM819.793 377.508L828.307 382.754C831.171 378.106 829.778 372.02 825.177 369.081L819.793 377.508ZM765.368 465.836L756.855 460.59C756.498 461.169 756.201 461.783 755.969 462.422L765.368 465.836ZM844.191 755.25L852.862 760.232C853.322 759.43 853.669 758.569 853.893 757.672L844.191 755.25ZM742.848 527.853L747.478 536.716C749.693 535.559 751.394 533.615 752.247 531.266L742.848 527.853ZM765.368 892.439L771.62 900.244C772.596 899.462 773.416 898.505 774.039 897.421L765.368 892.439ZM598.34 330.525L596.083 320.783C591.549 321.833 588.34 325.872 588.34 330.525H598.34ZM598.34 507.181H588.34C588.34 510.213 589.715 513.081 592.08 514.979C594.445 516.877 597.543 517.6 600.504 516.944L598.34 507.181ZM684.669 603.025L675.053 600.282C674.97 600.573 674.9 600.868 674.844 601.165L684.669 603.025ZM659.639 735.221L649.814 733.361C649.52 734.912 649.598 736.51 650.041 738.026L659.639 735.221ZM671.532 775.922L675.383 785.151C680.084 783.189 682.559 778.007 681.131 773.117L671.532 775.922ZM699.683 945.06L695.206 954.002C698.698 955.75 702.887 955.306 705.935 952.865L699.683 945.06ZM660.272 925.327L652.418 931.517C653.327 932.672 654.48 933.611 655.795 934.269L660.272 925.327ZM609.909 861.424L599.962 862.455C600.157 864.338 600.883 866.127 602.055 867.614L609.909 861.424ZM603.97 804.112L600.119 794.883C596.045 796.583 593.568 800.752 594.023 805.143L603.97 804.112ZM765.368 342.741L767.223 332.914C762.515 332.026 757.839 334.601 756.073 339.055C754.306 343.508 755.947 348.589 759.985 351.168L765.368 342.741ZM879.849 364.353L887.618 358.058C886.127 356.217 884.031 354.966 881.704 354.526L879.849 364.353ZM1041.25 563.56L1049.97 568.441C1051.97 564.87 1051.59 560.443 1049.02 557.265L1041.25 563.56ZM962.425 704.508L953.697 699.627C952.56 701.66 952.168 704.027 952.59 706.317L962.425 704.508ZM975.562 775.922L978.929 785.338C983.545 783.687 986.284 778.934 985.397 774.113L975.562 775.922ZM896.739 804.112L888.476 809.743C891.039 813.505 895.82 815.061 900.107 813.528L896.739 804.112ZM849.352 734.577L857.615 728.946C855.396 725.69 851.472 724.04 847.593 724.733C843.714 725.426 840.604 728.332 839.65 732.155L849.352 734.577ZM699.683 550.405L695.052 541.542C692.622 542.811 690.819 545.024 690.067 547.661L699.683 550.405ZM763.662 470.534L765.826 480.297C768.448 479.716 770.727 478.104 772.148 475.825L763.662 470.534ZM821.67 377.508L830.156 382.799C833.014 378.216 831.715 372.191 827.223 369.192L821.67 377.508ZM711.913 304.215L717.466 295.899C715.171 294.366 712.345 293.85 709.656 294.473L711.913 304.215ZM603.031 946L599.068 955.181C601.549 956.252 604.358 956.273 606.855 955.24L603.031 946ZM548.606 922.509L540.586 916.536C538.76 918.988 538.156 922.141 538.947 925.095C539.737 928.049 541.836 930.478 544.643 931.69L548.606 922.509ZM659.802 922.509L663.626 931.749C666.52 930.551 668.686 928.067 669.478 925.036C670.269 922.006 669.595 918.78 667.657 916.319L659.802 922.509ZM527.493 777.332L517.905 774.491C516.397 779.581 519.129 784.963 524.129 786.749L527.493 777.332ZM540.161 734.577L549.749 737.418C550.211 735.858 550.286 734.208 549.966 732.612L540.161 734.577ZM659.802 734.577L649.984 732.681C649.673 734.289 649.762 735.949 650.243 737.515L659.802 734.577ZM672.939 777.332L676.635 786.624C681.478 784.698 684.029 779.376 682.498 774.395L672.939 777.332ZM514.356 605.845L524.161 603.879C524.124 603.693 524.081 603.508 524.033 603.324L514.356 605.845ZM684.669 605.845L675.056 603.089C674.975 603.372 674.906 603.659 674.85 603.948L684.669 605.845ZM500.281 551.814L509.958 549.293C509.25 546.575 507.431 544.281 504.947 542.97L500.281 551.814ZM699.214 555.103L694.209 546.446C691.966 547.742 690.314 549.858 689.601 552.348L699.214 555.103ZM434.595 467.245L436.875 457.509C433.309 456.674 429.571 457.855 427.133 460.589C424.694 463.322 423.946 467.17 425.181 470.618L434.595 467.245ZM456.647 528.793L447.233 532.166C448.076 534.519 449.77 536.471 451.98 537.637L456.647 528.793ZM744.724 528.793L749.729 537.45C751.867 536.214 753.472 534.231 754.235 531.883L744.724 528.793ZM763.961 469.595L773.471 472.685C774.581 469.271 773.775 465.524 771.36 462.868C768.946 460.212 765.293 459.054 761.789 459.833L763.961 469.595ZM600.216 506.029L597.936 515.766C599.4 516.108 600.921 516.117 602.388 515.79L600.216 506.029ZM594.713 860.596L602.733 866.569C603.68 865.297 604.311 863.819 604.574 862.256L594.713 860.596ZM611.018 860.596L601.093 861.821C601.317 863.634 602.033 865.351 603.163 866.785L611.018 860.596ZM433.861 340.578L424.218 343.229C425.292 347.136 428.619 350.009 432.641 350.504L433.861 340.578ZM599.417 363.185L597.953 373.078C598.887 373.216 599.835 373.221 600.77 373.093L599.417 363.185ZM764.973 340.578L766.326 350.486C770.024 349.981 773.134 347.458 774.39 343.943L764.973 340.578ZM813.887 203.681L823.304 207.046C824.568 203.508 823.743 199.561 821.168 196.826C818.593 194.091 814.702 193.03 811.095 194.079L813.887 203.681ZM697.245 237.591L689.076 243.358C691.537 246.845 695.939 248.385 700.037 247.194L697.245 237.591ZM599.417 99L607.586 93.2332C605.675 90.525 602.545 88.9401 599.231 89.0017C595.916 89.0633 592.848 90.7634 591.038 93.5408L599.417 99ZM509.113 237.591L506.236 247.169C510.486 248.445 515.069 246.769 517.492 243.051L509.113 237.591ZM396.234 203.681L399.111 194.104C395.627 193.057 391.85 193.985 389.247 196.527C386.645 199.069 385.628 202.823 386.592 206.331L396.234 203.681ZM697.245 349.827L695.892 339.919L697.245 349.827ZM509.113 349.827L510.577 339.934C510.496 339.922 510.415 339.911 510.333 339.901L509.113 349.827ZM599.33 148.618L609.229 147.206C608.535 142.337 604.402 138.695 599.484 138.619C594.566 138.543 590.323 142.055 589.478 146.9L599.33 148.618ZM592.431 188.18L582.58 186.463C582.383 187.59 582.382 188.744 582.576 189.872L592.431 188.18ZM599.33 228.37L589.474 230.062C590.307 234.919 594.555 238.444 599.482 238.369C604.409 238.294 608.547 234.641 609.232 229.761L599.33 228.37ZM604.974 188.18L614.876 189.571C615.007 188.641 615.006 187.697 614.873 186.768L604.974 188.18ZM456.647 527.853L466.046 524.44L443.525 462.422L434.126 465.836L424.726 469.249L447.247 531.266L456.647 527.853ZM355.303 755.25L346.633 760.231L425.455 897.421L434.126 892.439L442.797 887.458L363.974 750.268L355.303 755.25ZM541.099 734.577L531.569 731.549L518.432 772.894L527.962 775.922L537.493 778.95L550.63 737.605L541.099 734.577ZM434.126 892.439L427.874 900.244L493.559 952.865L499.811 945.06L506.064 937.256L440.378 884.635L434.126 892.439ZM499.811 945.06L503.65 954.294L553.383 933.622L549.545 924.388L545.706 915.154L495.973 935.826L499.811 945.06ZM549.545 924.388L557.679 930.204L602.847 867.041L594.713 861.224L586.579 855.407L541.41 918.571L549.545 924.388ZM594.713 861.224L604.557 862.981L614.752 805.869L604.908 804.112L595.064 802.354L584.868 859.466L594.713 861.224ZM604.908 804.112L608.348 794.722L531.402 766.532L527.962 775.922L524.522 785.312L601.468 813.502L604.908 804.112ZM377.824 377.508L383.078 386.017L439.38 351.249L434.126 342.741L428.872 334.232L372.57 369L377.824 377.508ZM434.126 342.741L432.271 332.914L317.79 354.526L319.646 364.353L321.501 374.179L435.981 352.567L434.126 342.741ZM158.247 563.56L149.519 568.441L228.342 709.389L237.07 704.508L245.798 699.627L166.975 558.679L158.247 563.56ZM223.933 775.922L220.565 785.338L299.388 813.528L302.755 804.112L306.123 794.696L227.3 766.506L223.933 775.922ZM350.142 734.577L340.44 736.999L345.601 757.672L355.303 755.25L365.006 752.827L359.845 732.155L350.142 734.577ZM302.755 804.112L311.019 809.743L358.406 740.209L350.142 734.577L341.879 728.946L294.492 798.48L302.755 804.112ZM237.07 704.508L227.235 702.699L214.098 774.113L223.933 775.922L233.767 777.731L246.905 706.317L237.07 704.508ZM456.647 527.853L452.016 536.716L495.181 559.268L499.811 550.405L504.442 541.541L461.277 518.99L456.647 527.853ZM499.811 550.405L490.187 553.121L505.201 606.322L514.825 603.605L524.449 600.889L509.435 547.689L499.811 550.405ZM604.908 330.525H594.908V507.181H604.908H614.908V330.525H604.908ZM377.824 377.508L383.378 385.824L493.135 312.531L487.581 304.215L482.028 295.899L372.271 369.192L377.824 377.508ZM604.908 330.525L607.096 320.768L603.343 319.926L601.155 329.684L598.966 339.441L602.72 340.283L604.908 330.525ZM601.155 329.684H611.155V328.646H601.155H591.155V329.684H601.155ZM601.155 328.646L602.96 318.81L577.443 314.126L575.637 323.961L573.832 333.797L599.349 338.482L601.155 328.646ZM575.637 323.961L577.826 314.204L489.77 294.457L487.581 304.215L485.393 313.973L573.449 333.719L575.637 323.961ZM434.126 465.836L424.727 469.249L426.091 473.008L435.491 469.594L444.89 466.181L443.525 462.422L434.126 465.836ZM435.491 469.594V479.594H438.38V469.594V459.594H435.491V469.594ZM438.38 469.594L436.178 479.349L560.139 507.328L562.341 497.573L564.542 487.818L440.581 459.84L438.38 469.594ZM562.341 497.573L559.938 507.28L598.752 516.888L601.155 507.181L603.557 497.474L564.744 487.866L562.341 497.573ZM601.155 507.181H611.155V506.333H601.155H591.155V507.181H601.155ZM601.155 506.333L598.953 516.088L602.706 516.935L604.908 507.181L607.11 497.426L603.356 496.579L601.155 506.333ZM514.825 603.605L505.028 605.609L518.165 669.865L527.962 667.862L537.76 665.859L524.622 601.602L514.825 603.605ZM527.962 667.862L518.151 669.794L531.288 736.509L541.099 734.577L550.911 732.645L537.774 665.93L527.962 667.862ZM765.368 465.836L773.882 471.082L828.307 382.754L819.793 377.508L811.28 372.262L756.855 460.59L765.368 465.836ZM742.848 527.853L752.247 531.266L774.768 469.249L765.368 465.836L755.969 462.422L733.448 524.44L742.848 527.853ZM844.191 755.25L835.52 750.268L756.698 887.458L765.368 892.439L774.039 897.421L852.862 760.232L844.191 755.25ZM684.669 603.025L674.844 601.165L649.814 733.361L659.639 735.221L669.465 737.081L694.494 604.886L684.669 603.025ZM659.639 735.221L650.041 738.026L661.933 778.727L671.532 775.922L681.131 773.117L669.238 732.416L659.639 735.221ZM765.368 892.439L759.116 884.635L693.431 937.256L699.683 945.06L705.935 952.865L771.62 900.244L765.368 892.439ZM699.683 945.06L704.16 936.118L664.749 916.386L660.272 925.327L655.795 934.269L695.206 954.002L699.683 945.06ZM660.272 925.327L668.126 919.138L617.763 855.234L609.909 861.424L602.055 867.614L652.418 931.517L660.272 925.327ZM609.909 861.424L619.855 860.393L613.916 803.081L603.97 804.112L594.023 805.143L599.962 862.455L609.909 861.424ZM603.97 804.112L607.82 813.341L675.383 785.151L671.532 775.922L667.681 766.693L600.119 794.883L603.97 804.112ZM819.793 377.508L825.177 369.081L770.752 334.314L765.368 342.741L759.985 351.168L814.41 385.935L819.793 377.508ZM765.368 342.741L763.513 352.567L877.994 374.179L879.849 364.353L881.704 354.526L767.223 332.914L765.368 342.741ZM879.849 364.353L872.079 370.648L1033.48 569.855L1041.25 563.56L1049.02 557.265L887.618 358.058L879.849 364.353ZM1041.25 563.56L1032.52 558.679L953.697 699.627L962.425 704.508L971.152 709.389L1049.97 568.441L1041.25 563.56ZM975.562 775.922L972.194 766.506L893.372 794.696L896.739 804.112L900.107 813.528L978.929 785.338L975.562 775.922ZM849.352 734.577L839.65 732.155L834.489 752.828L844.191 755.25L853.893 757.672L859.054 736.999L849.352 734.577ZM896.739 804.112L905.003 798.48L857.615 728.946L849.352 734.577L841.088 740.209L888.476 809.743L896.739 804.112ZM962.425 704.508L952.59 706.317L965.727 777.731L975.562 775.922L985.397 774.113L972.26 702.699L962.425 704.508ZM742.848 527.853L738.217 518.99L695.052 541.542L699.683 550.405L704.314 559.268L747.478 536.716L742.848 527.853ZM699.683 550.405L690.067 547.661L675.053 600.282L684.669 603.025L694.285 605.769L709.299 553.148L699.683 550.405ZM598.34 330.525H588.34V507.181H598.34H608.34V330.525H598.34ZM598.34 507.181L600.504 516.944L765.826 480.297L763.662 470.534L761.498 460.771L596.175 497.418L598.34 507.181ZM763.662 470.534L772.148 475.825L830.156 382.799L821.67 377.508L813.185 372.217L755.177 465.243L763.662 470.534ZM821.67 377.508L827.223 369.192L717.466 295.899L711.913 304.215L706.359 312.531L816.117 385.824L821.67 377.508ZM711.913 304.215L709.656 294.473L596.083 320.783L598.34 330.525L600.596 340.267L714.17 313.957L711.913 304.215ZM603.031 946L606.994 936.819L552.569 913.327L548.606 922.509L544.643 931.69L599.068 955.181L603.031 946ZM659.802 922.509L655.979 913.268L599.208 936.76L603.031 946L606.855 955.24L663.626 931.749L659.802 922.509ZM604.119 804.707L607.484 795.29L530.857 767.915L527.493 777.332L524.129 786.749L600.755 814.124L604.119 804.707ZM527.493 777.332L537.081 780.173L549.749 737.418L540.161 734.577L530.573 731.737L517.905 774.491L527.493 777.332ZM659.802 734.577L650.243 737.515L663.38 780.269L672.939 777.332L682.498 774.395L669.361 731.64L659.802 734.577ZM672.939 777.332L669.243 768.04L600.423 795.415L604.119 804.707L607.815 813.999L676.635 786.624L672.939 777.332ZM540.161 734.577L549.966 732.612L524.161 603.879L514.356 605.845L504.551 607.81L530.356 736.543L540.161 734.577ZM684.669 605.845L674.85 603.948L649.984 732.681L659.802 734.577L669.621 736.474L694.487 607.741L684.669 605.845ZM514.356 605.845L524.033 603.324L509.958 549.293L500.281 551.814L490.604 554.335L504.679 608.366L514.356 605.845ZM699.214 555.103L689.601 552.348L675.056 603.089L684.669 605.845L694.282 608.6L708.826 557.859L699.214 555.103ZM434.595 467.245L425.181 470.618L447.233 532.166L456.647 528.793L466.061 525.42L444.009 463.872L434.595 467.245ZM456.647 528.793L451.98 537.637L495.614 560.659L500.281 551.814L504.947 542.97L461.313 519.948L456.647 528.793ZM699.214 555.103L704.219 563.761L749.729 537.45L744.724 528.793L739.719 520.135L694.209 546.446L699.214 555.103ZM744.724 528.793L754.235 531.883L773.471 472.685L763.961 469.595L754.45 466.504L735.214 525.702L744.724 528.793ZM763.961 469.595L761.789 459.833L598.044 496.268L600.216 506.029L602.388 515.79L766.133 479.356L763.961 469.595ZM600.216 506.029L602.496 496.292L436.875 457.509L434.595 467.245L432.315 476.982L597.936 515.766L600.216 506.029ZM548.606 922.509L556.627 928.481L602.733 866.569L594.713 860.596L586.692 854.623L540.586 916.536L548.606 922.509ZM594.713 860.596L604.574 862.256L613.981 806.366L604.119 804.707L594.258 803.047L584.851 858.936L594.713 860.596ZM604.119 804.707L594.195 805.932L601.093 861.821L611.018 860.596L620.942 859.371L614.044 803.482L604.119 804.707ZM611.018 860.596L603.163 866.785L651.948 928.698L659.802 922.509L667.657 916.319L618.872 854.407L611.018 860.596ZM764.973 340.578L774.39 343.943L823.304 207.046L813.887 203.681L804.47 200.316L755.556 337.214L764.973 340.578ZM813.887 203.681L811.095 194.079L694.454 227.989L697.245 237.591L700.037 247.194L816.679 213.283L813.887 203.681ZM697.245 237.591L705.415 231.825L607.586 93.2332L599.417 99L591.247 104.767L689.076 243.358L697.245 237.591ZM509.113 237.591L511.991 228.014L399.111 194.104L396.234 203.681L393.357 213.258L506.236 247.169L509.113 237.591ZM396.234 203.681L386.592 206.331L424.218 343.229L433.861 340.578L443.503 337.928L405.877 201.031L396.234 203.681ZM599.417 363.185L600.77 373.093L698.598 359.735L697.245 349.827L695.892 339.919L598.064 353.277L599.417 363.185ZM697.245 349.827L698.598 359.735L766.326 350.486L764.973 340.578L763.62 330.67L695.892 339.919L697.245 349.827ZM433.861 340.578L432.641 350.504L507.894 359.752L509.113 349.827L510.333 339.901L435.081 330.653L433.861 340.578ZM509.113 349.827L507.65 359.719L597.953 373.078L599.417 363.185L600.88 353.293L510.577 339.934L509.113 349.827ZM599.417 99L591.038 93.5408L500.735 232.132L509.113 237.591L517.492 243.051L607.795 104.459L599.417 99ZM599.33 148.618L589.478 146.9L582.58 186.463L592.431 188.18L602.283 189.898L609.181 150.336L599.33 148.618ZM592.431 188.18L582.576 189.872L589.474 230.062L599.33 228.37L609.185 226.679L602.287 186.489L592.431 188.18ZM599.33 228.37L609.232 229.761L614.876 189.571L604.974 188.18L595.071 186.79L589.427 226.98L599.33 228.37ZM604.974 188.18L614.873 186.768L609.229 147.206L599.33 148.618L589.43 150.03L595.074 189.593L604.974 188.18ZM319.646 364.353L311.876 358.058L150.477 557.265L158.247 563.56L166.017 569.855L327.415 370.648L319.646 364.353Z" fill="#E8C48D" mask="url(#path-7-outside-1_2002_13)"/>
<path d="M377.62 377.689L319.43 516.594V612.326L326.77 602.941L380.352 534.427L407.142 500.17L433.933 465.913L407.418 422.94L377.62 377.689Z" fill="#703C47"/>
<path d="M355.095 754.986L398.268 672.393L326.77 602.941L319.43 612.326L349.933 734.337L355.095 754.986Z" fill="#633C3C"/>
<path d="M326.77 602.941L398.268 672.393L433.933 602.941L411.408 574.784L326.77 602.941Z" fill="#533234"/>
<path d="M433.933 465.913L407.142 500.17L380.352 534.427L326.77 602.941L411.408 574.784L456.458 527.857L433.933 465.913Z" fill="#865F51"/>
<path d="M398.268 672.393L355.095 754.986L433.933 892.013L465.844 694.918L398.268 672.393Z" fill="#865F51"/>
<path d="M433.933 602.941L398.268 672.393L465.844 694.918L478.983 612.326L433.933 602.941Z" fill="#4C292F"/>
<path d="M465.844 694.918L433.933 892.013L527.788 775.634L540.928 734.337L527.788 667.701L514.648 603.52L478.983 612.326L465.844 694.918Z" fill="#633C3C"/>
<path d="M527.788 775.634L433.933 892.013L499.632 944.572L549.375 923.924L594.552 860.835L604.749 803.79L527.788 775.634Z" fill="#533234"/>
<path d="M319.43 516.594L377.62 377.689L433.933 342.963L319.43 364.549L238.715 464.036L158 563.522L319.43 516.594Z" fill="#602F44"/>
<path d="M319.43 612.326V516.594L158 563.522L236.838 704.304L319.43 612.326Z" fill="#865F51"/>
<path d="M319.43 612.326L236.838 704.304L223.698 775.634L302.536 803.79L349.933 734.337L319.43 612.326Z" fill="#703C47"/>
<path d="M411.408 574.784L433.933 602.941L478.983 612.326L514.648 603.52L499.632 550.382L456.458 527.857L411.408 574.784Z" fill="#241119"/>
<path fill-rule="evenodd" clip-rule="evenodd" d="M604.749 507.209V330.762L600.995 329.921V328.885L575.472 324.206L487.399 304.482L377.62 377.689L407.418 422.94L433.933 465.913L435.298 469.667H438.188L562.173 497.613L600.995 507.209V506.363L604.749 507.209Z" fill="#865F51"/>
<path d="M819.677 377.689L879.744 516.594V612.326L872.404 602.941L818.822 534.427L765.241 465.913L819.677 377.689Z" fill="#703C47"/>
<path d="M844.079 754.986L800.906 672.393L872.404 602.941L879.744 612.326L849.241 734.337L844.079 754.986Z" fill="#633C3C"/>
<path d="M872.404 602.941L800.906 672.393L765.241 602.941L787.766 574.784L872.404 602.941Z" fill="#533234"/>
<path d="M765.241 465.913L818.822 534.427L872.404 602.941L787.766 574.784L742.716 527.857L765.241 465.913Z" fill="#865F51"/>
<path d="M800.906 672.393L844.079 754.986L765.241 892.013L733.33 694.918L800.906 672.393Z" fill="#865F51"/>
<path d="M765.241 602.941L800.906 672.393L733.33 694.918L720.19 612.326L765.241 602.941Z" fill="#4C292F"/>
<path d="M733.33 694.918L765.241 892.013L671.386 775.634L659.491 734.98L684.526 602.941L720.19 612.326L733.33 694.918Z" fill="#633C3C"/>
<path d="M671.386 775.634L765.241 892.013L699.542 944.572L660.123 924.863L609.751 861.035L603.81 803.79L671.386 775.634Z" fill="#865F51"/>
<path d="M879.744 516.594L819.677 377.689L765.241 342.963L879.744 364.549L1041.17 563.522L879.744 516.594Z" fill="#602F44"/>
<path d="M879.744 612.326V516.594L1041.17 563.522L962.336 704.304L879.744 612.326Z" fill="#865F51"/>
<path d="M879.744 612.326L962.336 704.304L975.475 775.634L896.637 803.79L849.241 734.337L879.744 612.326Z" fill="#703C47"/>
<path d="M787.766 574.784L765.241 602.941L720.19 612.326L684.526 602.941L699.542 550.382L742.716 527.857L787.766 574.784Z" fill="#241119"/>
<path d="M598.179 330.762V507.209L763.534 470.605L821.554 377.689L711.775 304.482L598.179 330.762Z" fill="#533234"/>
<path d="M602.872 945.511L548.436 922.047L594.552 860.208L603.96 804.384L610.86 860.208L659.654 922.047L602.872 945.511Z" fill="#4C292F"/>
<path d="M603.96 804.384L527.319 777.042L539.989 734.338H659.654L672.794 777.042L603.96 804.384Z" fill="#241119"/>
<path d="M514.179 605.757L539.989 734.338H659.654L684.526 605.757L600.056 633.444L514.179 605.757Z" fill="#4C292F"/>
<path d="M514.179 605.757L600.056 633.444L684.526 605.757L699.073 555.075L500.101 551.79L514.179 605.757Z" fill="#633C3C"/>
<path d="M500.101 551.79L699.073 555.075L744.593 528.796L763.833 469.667L600.056 506.059L434.402 467.321L456.458 528.796L500.101 551.79Z" fill="#633C3C"/>
<path d="M425.199 567.919L455.306 539.066L470.36 546.593C458.653 548.952 447.651 554.743 425.199 567.919Z" fill="#E8C48D"/>
<path d="M425.199 567.919L455.306 539.066L470.36 546.593C458.653 548.952 447.651 554.743 425.199 567.919Z" fill="#E8C48D"/>
<path d="M425.199 567.919L455.306 539.066L470.36 546.593C458.653 548.952 447.651 554.743 425.199 567.919Z" fill="#E8C48D"/>
<path d="M775.194 567.919L745.087 539.066L730.033 546.593C741.74 548.952 752.742 554.743 775.194 567.919Z" fill="#E8C48D"/>
<path d="M775.194 567.919L745.087 539.066L730.033 546.593C741.74 548.952 752.742 554.743 775.194 567.919Z" fill="#E8C48D"/>
<path d="M775.194 567.919L745.087 539.066L730.033 546.593C741.74 548.952 752.742 554.743 775.194 567.919Z" fill="#E8C48D"/>
<path d="M599.256 285.607L508.935 237.938V350.041L599.256 285.607Z" fill="#FFB246"/>
<path d="M599.256 363.383L697.104 350.041L599.256 285.607L508.935 350.041L599.256 363.383Z" fill="#DA8101"/>
<path d="M433.668 340.803L508.935 350.041V237.938L460.012 285.607L433.668 340.803Z" fill="#EE9C2A"/>
<path d="M508.935 237.938L396.034 204.067L460.012 285.607L508.935 237.938Z" fill="#DA8101"/>
<path d="M396.034 204.067L433.668 340.803L460.012 285.607L396.034 204.067Z" fill="#BC7109"/>
<path d="M697.104 350.041L764.845 340.803L746.028 285.607L697.104 237.938V350.041Z" fill="#EE9C2A"/>
<path d="M813.769 204.067L697.104 237.938L746.028 285.607L813.769 204.067Z" fill="#DA8101"/>
<path d="M764.845 340.803L813.769 204.067L746.028 285.607L764.845 340.803Z" fill="#BC7109"/>
<path fill-rule="evenodd" clip-rule="evenodd" d="M697.104 237.938L599.256 99.5095L508.935 237.938L561.608 217.207L599.256 99.5095L635.196 217.207L697.104 237.938Z" fill="#EE9C29"/>
<path fill-rule="evenodd" clip-rule="evenodd" d="M599.256 285.607L561.608 217.207L599.256 245.143L635.196 217.207L599.256 285.607Z" fill="#515128"/>
<path d="M599.256 99.5095L561.608 217.207L599.256 245.143L635.196 217.207L599.256 99.5095Z" fill="#9F9F44"/>
<path d="M508.935 237.938L599.256 285.607L561.608 217.207L508.935 237.938Z" fill="#B16A05"/>
<path d="M635.196 217.207L599.256 285.607L648.18 261.772L697.104 237.938L635.196 217.207Z" fill="#BC7109"/>
<path d="M599.256 285.607L697.104 350.041V237.938L648.18 261.772L599.256 285.607Z" fill="#FFB246"/>
<path d="M599.169 149.069L592.27 188.585L599.169 228.727L604.814 188.585L599.169 149.069Z" fill="#E8C48D"/>
</g>
<defs>
<clipPath id="clip0_2002_13">
<rect width="1200" height="1200" fill="white"/>
</clipPath>
</defs>
</svg>
