<svg width="1440" height="960" xmlns="http://www.w3.org/2000/svg" version="1.1" data-name="Layer 1">

 <g>
  <title>Layer 1</title>
  <g id="g3">
   <path stroke-miterlimit="10" stroke-width="33.2px" stroke="#ae2012" fill="none" id="path1-2" d="m1504.3403,207.51397l-52.3,0c-38.5,0 -69.7,0 -69.7,116.4l0,3197.20003c0,123.5 16,123.5 69.7,123.5l52.3,0" class="cls-1"/>
   <path stroke-miterlimit="10" stroke-width="33.3px" stroke="#ee9b00" fill="none" id="path2-7" d="m1486.4,145.4l-61.5,0c-56.1,0 -101.5,0 -101.5,118.1c0,0 0.5293,3300.6692 0.5293,3343.2562c6.7,81.6 56.0707,99.4438 107.0707,99.4438l55.4,0" class="cls-5"/>
   <path stroke-width="33.5px" stroke="#005f73" stroke-miterlimit="10" fill="none" id="path7" d="m1501.4,82.7l-88.6,0c-72.7,0 -102.4,0 -130.5,57.9c-4.2,8.7 -15.8,36.1 -15.8,187c0,0 0.1084,3191.1749 0.1084,3265.013c2.2,127.1 52.2916,175.987 146.0916,175.987l88.6,0" class="cls-6"/>
  </g>
  <g id="g6">
   <path stroke-width="34.1px" stroke-miterlimit="10" fill="none" stroke="#ae2012" id="path4" d="m-56.5,374.4l124.9,0c23.5,0 42.8,25.6 42.6,125.6l0,923.3c0,15.4 -11.5,27.8 -25.8,27.8l0,0c-12.8,0 -23.3,11.2 -23.3,25.1l0,1024.8c0,10.4 7.9,18.9 17.5,18.9l0,0c6.7,0 12.1,5.8 12.1,13l0,966c0,17.3 -13,31.4 -29.1,31.4l-107.2,0" class="cls-2"/>
   <path stroke="#ee9b00" stroke-width="34.1px" stroke-miterlimit="10" fill="none" id="path5" d="m-45.26282,326.47906l140,0c37.8,0 68.5,50 68.5,126.6l0,997.40004c0,18.4 -31,33.3 -31,33.3l0,0c0,0 -18.1,8.7 -18.1,19.4l0,940.6c0,11.8 19.8,21.3 19.8,21.3l0,0c0,0 15.4,7.5 15.3,16.6l0.0896,955.2733c-0.1,22.8 -22.68957,40.9267 -43.88957,41.0267l-150.7,1" class="cls-3"/>
   <path stroke="#005f73" stroke-width="34.1px" stroke-miterlimit="10" fill="none" id="path6" d="m-29.8,270.2l165.5,0c56.7,0 84.8,74.5 84.8,207.7l0,998.4c0,19 -14.3,34.4 -32,34.4l0,0c-9.4,0 -17.1,8.2 -17.1,18.4l0,860.8c0,11.7 8.8,21.1 19.6,21.1l0,0c7.3,0 13.1,6.4 13.1,14.2l-0.15696,960.2815c0,25.4 -22.04304,46.1185 -45.64304,46.3185l-188.2,1.2" class="cls-4"/>
  </g>
  <g>
   <g>
    <title>Layer 1</title>
    <path class="cls-1" d="m205.88262,302.66725c-1.94561,1.40221 -3.29481,3.34782 -4.33918,5.47632c-0.06362,0.12988 -0.42146,0.06892 -0.43206,0.09012c-6.55515,-1.75741 -13.04139,-3.8435 -19.41629,-6.16285c-23.24654,-8.45835 -62.88759,-26.62882 -66.43156,-54.43984c-0.7846,-6.16285 0.41616,-12.3363 2.67985,-18.06179c42.3368,-14.20504 70.35193,30.40605 84.08779,63.29844c1.35185,3.23649 2.50225,6.5631 3.85145,9.7996z" fill="#9c2327" id="svg_8"/>
    <path class="cls-1" d="m200.31618,313.27001c-0.03711,2.24513 1.30149,6.44647 2.65069,8.21713c-7.46699,7.02167 -15.40845,13.62454 -23.77403,19.56473c-21.61637,15.35544 -54.29405,32.47359 -80.40599,18.21288c-1.5374,-0.84027 -8.88511,-5.63271 -9.235,-6.95806c0.21736,-2.01187 0.58315,-4.00519 1.09739,-5.9614c9.65646,-36.74119 69.4719,-36.50528 99.19142,-34.13557c3.49096,0.27832 6.97131,0.88003 10.47287,1.05762l0.00265,0.00265z" fill="#9c2327" id="svg_7"/>
    <path class="cls-1" d="m223.90731,325.19811c2.47309,-1.33595 5.68573,-4.74473 6.62672,-7.42193c17.32755,3.39818 35.0315,8.16147 51.07347,15.59135c19.37123,8.97258 40.30902,23.19353 38.51716,47.3572c-0.07952,1.08148 -0.91979,6.13634 -1.45788,6.75926c-0.48243,0.55399 -5.26692,2.16031 -6.28743,2.45984c-36.90819,10.84132 -66.50843,-26.377 -82.68558,-54.23044c-2.00922,-3.4565 -3.80374,-7.04553 -5.78645,-10.51528z" fill="#9c2327" id="svg_6"/>
    <path class="cls-1" d="m231.06416,311.14946c-0.55399,-3.11986 -2.95552,-6.9448 -5.56645,-8.74727c3.82759,-4.90112 7.80363,-9.77309 12.05798,-14.31637c22.65013,-24.19549 59.73592,-53.45909 93.30954,-31.01041c2.52346,31.23041 -31.03691,43.90336 -56.01435,49.22329c-14.29251,3.04299 -29.17613,4.55653 -43.78673,4.85341l0,-0.00265z" fill="#9c2327" id="svg_5"/>
    <path class="cls-1" d="m219.93127,326.78852c1.1716,2.96082 2.60828,5.81561 3.83555,8.75522c11.13024,26.66328 23.45329,71.27702 -6.61347,90.12076c-3.11456,1.95356 -6.5419,3.56518 -10.03816,4.69702c-37.55761,-17.68009 -22.46194,-61.84322 -7.46699,-90.0598c2.68515,-5.05221 5.74934,-9.89767 8.62004,-14.83855c3.48831,1.69644 7.8911,2.15766 11.66303,1.32534z" fill="#9c2327" id="svg_4"/>
    <path class="cls-1" d="m209.59359,300.5467c-2.19742,-7.38217 -4.55918,-14.72723 -6.23177,-22.26313c-6.38286,-28.72816 -7.94942,-67.99811 25.71168,-79.52861c0.99401,-0.33929 3.66325,-1.28293 4.54063,-1.30679c1.58511,-0.04241 7.92556,5.34379 9.28536,6.70359c21.58191,21.57926 5.55849,56.14158 -8.01303,77.5512c-4.08206,6.43852 -8.60414,12.63053 -13.36477,18.57603c-3.26565,-1.07618 -8.70221,-0.9569 -11.9281,0.26507l0,0.00265z" fill="#9c2327" id="svg_3"/>
    <path class="cls-2" d="m221.52169,300.28163c0.4029,0.13253 3.54132,1.82102 3.97603,2.12055c2.61093,1.80247 5.01245,5.62741 5.56645,8.74727c0.3923,2.19742 0.21206,4.50882 -0.53014,6.62672c-0.94099,2.6772 -4.15363,6.08598 -6.62672,7.42193c-0.92774,0.50098 -2.98733,1.37306 -3.97603,1.59041c-3.77193,0.83232 -8.17472,0.3711 -11.66303,-1.32534c-1.24317,-0.60436 -4.58039,-3.03239 -5.30138,-3.97603c-1.3492,-1.77066 -2.6878,-5.972 -2.65069,-8.21713c0.0106,-0.58315 0.63617,-4.73148 0.79521,-5.03631c0.0106,-0.01855 0.3658,0.04241 0.43206,-0.09012c1.04702,-2.13115 2.39357,-4.07676 4.33918,-5.47632c0.67593,-0.48773 3.00058,-1.85018 3.71096,-2.12055c3.22589,-1.22197 8.66245,-1.34125 11.9281,-0.26507z" fill="#e8d7a5" id="svg_2"/>
   </g>
  </g>
  <g>
   <g>
    <title>Layer 1</title>
    <path class="cls-1" d="m280.79621,493.65069c-0.0163,0.01173 -0.02816,0.25521 -0.14377,0.36521c-0.65956,0.62482 -2.04389,2.0754 -2.3759,2.86156c-7.58568,-2.08127 -15.17877,-4.73602 -22.28571,-8.08747c-13.34682,-6.29661 -31.50473,-18.24154 -24.21696,-35.43584c21.72842,-7.37611 36.87458,13.47618 44.85155,30.27153c1.55182,3.26784 2.92874,6.63249 4.17079,10.02646l0,-0.00147z" fill="#c86928" id="svg_15"/>
    <path class="cls-1" d="m277.83189,499.66422c-0.01186,1.44471 0.57063,3.39691 1.48216,4.54682c-5.9642,5.44151 -12.35823,10.51341 -19.2799,14.72875c-8.8218,5.37111 -20.40337,10.45181 -30.99783,8.84576c-4.9089,-0.74362 -9.53323,-3.01557 -13.13488,-6.36408c-0.14673,-0.41655 0.22973,-2.00793 0.34534,-2.54475c4.58283,-21.23657 38.91107,-21.1251 55.7291,-19.79772c1.952,0.15401 3.89807,0.48695 5.856,0.58522z" fill="#c86928" id="svg_14"/>
    <path class="cls-1" d="m291.02309,506.26444c1.29392,-0.68056 3.22073,-2.73836 3.70539,-4.1068c1.84529,0.24641 3.67575,0.67762 5.48546,1.09857c14.36507,3.33971 40.58739,11.48145 44.21274,27.82359c0.69513,3.13437 0.57656,6.68969 -0.49208,9.72579c-20.38411,8.97776 -37.30145,-9.21097 -47.19336,-24.57921c-2.07206,-3.21944 -3.95736,-6.56648 -5.71816,-9.96193z" fill="#c86928" id="svg_13"/>
    <path class="cls-1" d="m295.02492,498.63752c-0.17638,-1.61339 -1.81416,-4.03347 -3.11253,-4.98683l2.88724,-3.66972c11.72979,-13.47031 32.24877,-32.20613 51.75544,-23.78425c1.49253,0.64389 2.92578,1.47258 4.27158,2.37315c1.30133,17.26617 -17.21081,24.2184 -31.19644,27.20903c-8.0822,1.72779 -16.34671,2.46701 -24.60529,2.85863z" fill="#c86928" id="svg_12"/>
    <path class="cls-1" d="m289.68915,492.47732c-1.8438,-0.60869 -4.84369,-0.52802 -6.66971,0.14667c-1.78896,-5.41951 -3.39562,-10.91676 -4.40052,-16.54601c-2.67085,-14.97809 -2.10911,-33.49097 14.73857,-39.59104c0.62547,-0.22587 2.53893,-0.92696 3.07696,-0.92403c0.67438,0.0044 3.50827,2.22207 4.15152,2.78969c13.42538,11.83346 4.57097,31.20436 -3.27705,43.55264c-2.32995,3.66532 -4.92076,7.17077 -7.62125,10.57208l0.00148,0z" fill="#c86928" id="svg_11"/>
    <path class="cls-1" d="m288.79986,507.14447c7.65682,16.45801 17.45833,46.36727 -4.54133,56.30133c-0.85224,0.38428 -1.73857,0.71282 -2.62194,1.01497c-5.0008,-2.23087 -9.28571,-6.0678 -11.43188,-11.11917c-3.68612,-8.67415 -1.19758,-19.16263 2.03352,-27.60651c2.57747,-6.73369 6.12131,-13.04936 9.8934,-19.1773c1.45548,0.75683 5.06305,0.9519 6.66971,0.58669l-0.00148,0z" fill="#c86928" id="svg_10"/>
    <path class="cls-2" d="m289.68915,492.47732c0.12005,0.0396 2.08391,1.0707 2.22324,1.17337c1.29837,0.95336 2.93615,3.37344 3.11253,4.98683c0.09486,0.87123 -0.00445,2.69876 -0.29643,3.52012c-0.48467,1.36845 -2.41147,3.42625 -3.70539,4.1068c-0.39129,0.20534 -1.83195,0.79056 -2.22324,0.88003c-1.60666,0.36521 -5.21423,0.17014 -6.66971,-0.58669c-0.01334,-0.00733 0.03705,-0.21414 -0.10375,-0.29481c-0.84187,-0.47668 -2.12245,-1.30684 -2.71235,-2.05193c-0.91153,-1.1499 -1.49401,-3.1021 -1.48216,-4.54682c0.00593,-0.64389 0.20454,-2.21914 0.44465,-2.78676c0.332,-0.78616 1.71634,-2.23674 2.3759,-2.86156c0.11561,-0.11 0.12747,-0.35348 0.14377,-0.36521c0.0993,-0.07187 1.99647,-0.9431 2.22324,-1.0267c1.82602,-0.67469 4.8259,-0.75536 6.66971,-0.14667z" fill="#e8d7a5" id="svg_9"/>
   </g>
  </g>
 </g>
</svg>