<svg width="1440" height="1019.2" xmlns="http://www.w3.org/2000/svg" data-name="Layer 1">
 <g>
  <title>Layer 1</title>
  <g id="svg_1">
   <path class="cls-6" d="m1487,-1690.36l-52.29,0c-38.5,0 -69.71,9.15 -69.71,43.5l0,3336.58c0,38.52 31.21,56.72 69.71,56.72l52.29,0" fill="none" stroke-miterlimit="10" stroke="#ae2012" stroke-width="24.35px" id="svg_2"/>
   <path class="cls-3" d="m1485,-1731.24l-61.49,0c-56.06,0 -101.51,17.01 -101.51,64.04l0,3378.78c0,10.81 1.6,21.6 5.14,31.81c14.28,41.25 51.39,52.87 102.45,52.87l55.41,0" fill="none" stroke-miterlimit="10" stroke-width="24.48px" stroke="#ee9b00" id="svg_3"/>
   <path class="cls-2" d="m1513,-1776.59l-88.62,0c-72.69,0 -125.63,10.4 -142.12,71c-2.85,10.47 -4.13,21.31 -4.13,32.17l0,3383.95c0,8.32 0.49,16.64 1.65,24.88c11.37,80.69 68.87,105.43 144.59,105.43l88.62,0" stroke="#005f73" fill="none" stroke-miterlimit="10" stroke-width="24.6px" id="svg_4"/>
  </g>
  <g id="svg_5">
   <path class="cls-4" d="m-84.88,-2678.31811l138.94,0c26.14,0 47.34,25.08921 47.34,56.05111l0,1225.72437c0,18.76658 -12.85,33.96929 -28.69,33.96929l0,0c-14.29,0 -25.88,13.71085 -25.88,30.64222l0,1252.34095c0,12.75181 8.73,23.10007 19.51,23.10007l0,0c7.41,0 13.42,7.11591 13.42,15.88944l0,1180.48329c0,21.18197 -14.5,38.35014 -32.39,38.35014l-119.32,0" fill="none" stroke-miterlimit="10" stroke-width="25.04px" stroke="#ae2012" id="svg_6"/>
   <path class="cls-5" d="m-87.88,-2733.0668l155.69,0c42.06,0 76.15,40.36296 76.15,90.16249l0,1288.05074c0,22.53174 -15.43,40.81288 -34.47,40.81288l0,0c-11.1,0 -20.1,10.6561 -20.1,23.79863l0,1153.35758c0,14.42126 9.86,26.1193 22.04,26.16666l0,0c9.47,0.02368 17.12,9.16425 17.06,20.37684l-5.92,1170.82175c-0.14,27.95451 -19.25,50.58098 -42.86,50.74674l-167.59,1.20769" fill="none" stroke-miterlimit="10" stroke="#ee9b00" stroke-width="25.06px" id="svg_7"/>
   <path class="cls-1" d="m-92.88,-2785.56588l184.08,0c52.1,0 94.34,50.01265 94.34,111.69966l0,1363.95773c0,23.27767 -15.93,42.13897 -35.59,42.13897l0,0c-10.48,0 -18.98,10.0641 -18.98,22.47254l0,1053.09547c0,14.29102 9.78,25.87065 21.85,25.87065l0,0c8.08,0 14.62,7.76712 14.59,17.33393l-3.36,1175.01315c-0.09,31.09215 -21.31,56.28791 -47.57,56.47736l-209.37,1.51553" stroke-width="25.07px" stroke="#005f73" fill="none" stroke-miterlimit="10" id="svg_8"/>
  </g>
 </g>

</svg>