<svg width="1440" height="960" xmlns="http://www.w3.org/2000/svg" data-name="Layer 1">
 <g>
  <title>Layer 1</title>
  <g id="svg_5">
   <g id="svg_14">
    <path class="cls-1" d="m1504.67692,-2655.60828l-52.3,0c-38.5,0 -69.7,0 -69.7,193.99587l0,5328.55339c0,205.82896 16,205.82896 69.7,205.82896l52.3,0" id="svg_17" fill="none" stroke="#ae2012" stroke-width="33.2px" stroke-miterlimit="10"/>
    <path class="cls-5" d="m1486.73662,-2759.12936l-61.5,0c-56.1,0 -101.5,0 -101.5,196.82915c0,0 0.5293,5500.99834 0.5293,5571.97517c6.7,135.99711 56.0707,165.73614 107.0707,165.73614l55.4,0" id="svg_16" fill="none" stroke="#ee9b00" stroke-width="33.3px" stroke-miterlimit="10"/>
    <path class="cls-6" d="m1501.73662,-2863.62714l-88.6,0c-72.7,0 -102.4,0 -130.5,96.49795c-4.2,14.49969 -15.8,60.16539 -15.8,311.66004c0,0 0.1084,5318.51172 0.1084,5441.57261c2.2,211.82883 52.2916,293.30543 146.0916,293.30543l88.6,0" id="svg_15" fill="none" stroke-miterlimit="10" stroke="#005f73" stroke-width="33.5px"/>
   </g>
   <g id="svg_10">
    <path class="cls-2" d="m-56.16338,-2377.47081l124.9,0c23.5,0 42.8,42.66576 42.6,209.32888l0,1538.80061c0,25.66612 -11.5,46.33235 -25.8,46.33235l0,0c-12.8,0 -23.3,18.66627 -23.3,41.83244l0,1707.96368c0,17.33296 7.9,31.49933 17.5,31.49933l0,0c6.7,0 12.1,9.66646 12.1,21.66621l0,1609.96576c0,28.83272 -13,52.33222 -29.1,52.33222l-107.2,0" id="svg_13" stroke="#ae2012" fill="none" stroke-miterlimit="10" stroke-width="34.1px"/>
    <path class="cls-3" d="m-44.9262,-2457.33734l140,0c37.8,0 68.5,83.33156 68.5,210.99551l0,1662.29805c0,30.66601 -31,55.49882 -31,55.49882l0,0c0,0 -18.1,14.49969 -18.1,32.33265l0,1567.63333c0,19.66625 19.8,35.49925 19.8,35.49925l0,0c0,0 15.4,12.49973 15.3,27.66608l0.0896,1592.08831c-0.1,37.99919 -22.68957,68.20972 -43.88957,68.37638l-150.7,1.66663" id="svg_12" fill="none" stroke-miterlimit="10" stroke-width="34.1px" stroke="#ee9b00"/>
    <path class="cls-4" d="m-29.46338,-2551.13378l165.5,0c56.7,0 84.8,124.16403 84.8,346.1593l0,1663.96461c0,31.66599 -14.3,57.33211 -32,57.33211l0,0c-9.4,0 -17.1,13.66638 -17.1,30.66601l0,1434.63616c0,19.49959 8.8,35.16592 19.6,35.16592l0,0c7.3,0 13.1,10.66644 13.1,23.66616l-0.15696,1600.43513c0,42.33243 -22.04304,76.86253 -45.64304,77.19586l-188.2,1.99996" id="svg_11" fill="none" stroke-miterlimit="10" stroke-width="34.1px" stroke="#005f73"/>
   </g>
  </g>
  <g id="svg_1">
   <path class="cls-1" d="m1504.4,-752.5l-52.3,0c-38.5,0 -69.7,0 -69.7,116.4l0,3197.2c0,123.5 16,123.5 69.7,123.5l52.3,0" stroke-width="33.2px" stroke="#ae2012" fill="none" stroke-miterlimit="10" id="svg_2"/>
   <path class="cls-5" d="m1486.4,-814.6l-61.5,0c-56.1,0 -101.5,0 -101.5,118.1c0,0 3.8,3301.5 7.4,3344.5c6.7,81.6 49.2,98.2 100.2,98.2l55.4,0" fill="none" stroke-miterlimit="10" stroke="#ee9b00" stroke-width="33.3px" id="svg_3"/>
   <path class="cls-6" d="m1501.4,-877.3l-88.6,0c-72.7,0 -102.4,0 -130.5,57.9c-4.2,8.7 -15.8,36.1 -15.8,187c0,0 0.1,3191.2 1.4,3265.3c2.2,127.1 51,175.7 144.8,175.7l88.6,0" fill="none" stroke-miterlimit="10" stroke="#005f73" stroke-width="33.5px" id="svg_4"/>
  </g>
 </g>

</svg>