<svg width="1440" height="960.0000000000001" xmlns="http://www.w3.org/2000/svg" data-name="Layer 1">

 <g>
  <title>Layer 1</title>
  <g id="svg_1">
   <path id="svg_2" stroke-width="24.35px" stroke="#ae2012" stroke-miterlimit="10" fill="none" d="m1487,-88.8506l-52.29,0c-38.5,0 -69.71,9.15 -69.71,43.5l0,3336.58c0,38.52 31.21,56.72 69.71,56.72l52.29,0" class="cls-6"/>
   <path id="svg_3" stroke="#ee9b00" stroke-width="24.48px" stroke-miterlimit="10" fill="none" d="m1485,-129.7306l-61.49,0c-56.06,0 -101.51,17.01 -101.51,64.04l0,3378.78c0,10.81 1.6,21.6 5.14,31.81c14.28,41.25 51.39,52.87 102.45,52.87l55.41,0" class="cls-3"/>
   <path id="svg_4" stroke-width="24.6px" stroke-miterlimit="10" fill="none" stroke="#005f73" d="m1513,-175.0806l-88.62,0c-72.69,0 -125.63,10.4 -142.12,71c-2.85,10.47 -4.13,21.31 -4.13,32.17l0,3383.95c0,8.32 0.49,16.64 1.65,24.88c11.37,80.69 68.87,105.43 144.59,105.43l88.62,0" class="cls-2"/>
  </g>
  <g id="svg_5">
   <path id="svg_6" stroke="#ae2012" stroke-width="25.04px" stroke-miterlimit="10" fill="none" d="m-84.88,-72.65858l138.94,0c26.14,0 47.34,21.19 47.34,47.34l0,1035.23c0,15.85 -12.85,28.69 -28.69,28.69l0,0c-14.29,0 -25.88,11.58 -25.88,25.88l0,1057.71c0,10.77 8.73,19.51 19.51,19.51l0,0c7.41,0 13.42,6.01 13.42,13.42l0,997.02c0,17.89 -14.5,32.39 -32.39,32.39l-119.32,0" class="cls-4"/>
   <path id="svg_7" stroke-width="25.06px" stroke="#ee9b00" stroke-miterlimit="10" fill="none" d="m-87.88,-118.89858l155.69,0c42.06,0 76.15,34.09 76.15,76.15l0,1087.87c0,19.03 -15.43,34.47 -34.47,34.47l0,0c-11.1,0 -20.1,9 -20.1,20.1l0,974.11c0,12.18 9.86,22.06 22.04,22.1l0,0c9.47,0.02 17.12,7.74 17.06,17.21l-5.92,988.86c-0.14,23.61 -19.25,42.72 -42.86,42.86l-167.59,1.02" class="cls-5"/>
   <path id="svg_8" stroke-miterlimit="10" fill="none" stroke="#005f73" stroke-width="25.07px" d="m-92.88,-163.23858l184.08,0c52.1,0 94.34,42.24 94.34,94.34l0,1151.97c0,19.66 -15.93,35.59 -35.59,35.59l0,0c-10.48,0 -18.98,8.5 -18.98,18.98l0,889.43c0,12.07 9.78,21.85 21.85,21.85l0,0c8.08,0 14.62,6.56 14.59,14.64l-3.36,992.4c-0.09,26.26 -21.31,47.54 -47.57,47.7l-209.37,1.28" class="cls-1"/>
  </g>
 </g>
</svg>