<svg width="1440" height="959.9999999999999" xmlns="http://www.w3.org/2000/svg" data-name="Layer 1">

 <g>
  <title>Layer 1</title>
  <g id="svg_1">
   <path id="svg_2" stroke-width="24.35px" stroke="#ae2012" stroke-miterlimit="10" fill="none" d="m1487,-730.36l-52.29,0c-38.5,0 -69.71,9.15 -69.71,43.5l0,3336.58c0,38.52 31.21,56.72 69.71,56.72l52.29,0" class="cls-6"/>
   <path id="svg_3" stroke="#ee9b00" stroke-width="24.48px" stroke-miterlimit="10" fill="none" d="m1485,-771.24l-61.49,0c-56.06,0 -101.51,17.01 -101.51,64.04l0,3378.78c0,10.81 1.6,21.6 5.14,31.81c14.28,41.25 51.39,52.87 102.45,52.87l55.41,0" class="cls-3"/>
   <path id="svg_4" stroke-width="24.6px" stroke-miterlimit="10" fill="none" stroke="#005f73" d="m1513,-816.59l-88.62,0c-72.69,0 -125.63,10.4 -142.12,71c-2.85,10.47 -4.13,21.31 -4.13,32.17l0,3383.95c0,8.32 0.49,16.64 1.65,24.88c11.37,80.69 68.87,105.43 144.59,105.43l88.62,0" class="cls-2"/>
  </g>
  <g id="svg_5">
   <path id="svg_6" stroke="#ae2012" stroke-width="25.04px" stroke-miterlimit="10" fill="none" d="m-84.88,-1453.90084l138.94,0c26.14,0 47.34,24.98783 47.34,55.82463l0,1220.77179c0,18.69076 -12.85,33.83204 -28.69,33.83204l0,0c-14.29,0 -25.88,13.65546 -25.88,30.51841l0,1247.28083c0,12.70028 8.73,23.00673 19.51,23.00673l0,0c7.41,0 13.42,7.08716 13.42,15.82523l0,1175.7135c0,21.09638 -14.5,38.19518 -32.39,38.19518l-119.32,0" class="cls-4"/>
   <path id="svg_7" stroke-width="25.06px" stroke="#ee9b00" stroke-miterlimit="10" fill="none" d="m-87.88,-1508.42832l155.69,0c42.06,0 76.15,40.19987 76.15,89.79818l0,1282.84633c0,22.4407 -15.43,40.64798 -34.47,40.64798l0,0c-11.1,0 -20.1,10.61305 -20.1,23.70247l0,1148.6974c0,14.36299 9.86,26.01376 22.04,26.06093l0,0c9.47,0.02358 17.12,9.12722 17.06,20.29451l-5.92,1166.09101c-0.14,27.84156 -19.25,50.3766 -42.86,50.5417l-167.59,1.20281" class="cls-5"/>
   <path id="svg_8" stroke-miterlimit="10" fill="none" stroke="#005f73" stroke-width="25.07px" d="m-92.88,-1560.71527l184.08,0c52.1,0 94.34,49.81057 94.34,111.24833l0,1358.44661c0,23.18361 -15.93,41.96871 -35.59,41.96871l0,0c-10.48,0 -18.98,10.02343 -18.98,22.38174l0,1048.84041c0,14.23328 9.78,25.76612 21.85,25.76612l0,0c8.08,0 14.62,7.73573 14.59,17.26389l-3.36,1170.26547c-0.09,30.96652 -21.31,56.06048 -47.57,56.24916l-209.37,1.50941" class="cls-1"/>
  </g>
 </g>
</svg>