<svg width="1440" height="989.9999999999999" xmlns="http://www.w3.org/2000/svg" data-name="Layer 1">
 <g>
  <title>Layer 1</title>
  <g id="svg_2">
   <g id="svg_14">
    <path class="cls-1" d="m1504.12352,-3104.8096l-52.3,0c-38.5,0 -69.7,0 -69.7,116.4l0,3197.20003c0,123.5 16,123.5 69.7,123.5l52.3,0" id="svg_17" fill="none" stroke="#ae2012" stroke-width="33.2px" stroke-miterlimit="10"/>
    <path class="cls-5" d="m1486.18322,-3166.92357l-61.5,0c-56.1,0 -101.5,0 -101.5,118.1c0,0 0.5293,3300.6692 0.5293,3343.2562c6.7,81.6 56.0707,99.4438 107.0707,99.4438l55.4,0" id="svg_16" fill="none" stroke="#ee9b00" stroke-width="33.3px" stroke-miterlimit="10"/>
    <path class="cls-6" d="m1501.18322,-3229.62357l-88.6,0c-72.7,0 -102.4,0 -130.5,57.9c-4.2,8.7 -15.8,36.1 -15.8,187c0,0 0.1084,3191.1749 0.1084,3265.013c2.2,127.1 52.2916,175.987 146.0916,175.987l88.6,0" id="svg_15" fill="none" stroke-miterlimit="10" stroke="#005f73" stroke-width="33.5px"/>
   </g>
   <g id="svg_10">
    <path class="cls-2" d="m-56.71678,-2937.92357l124.9,0c23.5,0 42.8,25.6 42.6,125.6l0,923.3c0,15.4 -11.5,27.8 -25.8,27.8l0,0c-12.8,0 -23.3,11.2 -23.3,25.1l0,1024.8c0,10.4 7.9,18.9 17.5,18.9l0,0c6.7,0 12.1,5.8 12.1,13l0,966c0,17.3 -13,31.4 -29.1,31.4l-107.2,0" id="svg_13" stroke="#ae2012" fill="none" stroke-miterlimit="10" stroke-width="34.1px"/>
    <path class="cls-3" d="m-45.4796,-2985.84451l140,0c37.8,0 68.5,50 68.5,126.6l0,997.40004c0,18.4 -31,33.3 -31,33.3l0,0c0,0 -18.1,8.7 -18.1,19.4l0,940.6c0,11.8 19.8,21.3 19.8,21.3l0,0c0,0 15.4,7.5 15.3,16.6l0.0896,955.2733c-0.1,22.8 -22.68957,40.9267 -43.88957,41.0267l-150.7,1" id="svg_12" fill="none" stroke-miterlimit="10" stroke-width="34.1px" stroke="#ee9b00"/>
    <path class="cls-4" d="m-30.01678,-3042.12357l165.5,0c56.7,0 84.8,74.5 84.8,207.7l0,998.4c0,19 -14.3,34.4 -32,34.4l0,0c-9.4,0 -17.1,8.2 -17.1,18.4l0,860.8c0,11.7 8.8,21.1 19.6,21.1l0,0c7.3,0 13.1,6.4 13.1,14.2l-0.15696,960.2815c0,25.4 -22.04304,46.1185 -45.64304,46.3185l-188.2,1.2" id="svg_11" fill="none" stroke-miterlimit="10" stroke-width="34.1px" stroke="#005f73"/>
   </g>
  </g>
  <g id="svg_1" opacity="0"/>
  <g>
   <g>
    <title>Layer 1</title>
    <path class="cls-1" d="m227.4595,99.94329c-0.02819,0.0205 -0.0487,0.44597 -0.24862,0.6382c-1.14056,1.09187 -3.53447,3.62674 -4.1086,5.00054c-13.11777,-3.63699 -26.24836,-8.27614 -38.53827,-14.13275c-23.08041,-11.00324 -54.48054,-31.87686 -41.87794,-61.92368c37.57455,-12.88966 63.76653,23.54945 77.56095,52.89913c2.68353,5.71051 5.06462,11.59019 7.21247,17.52112l0,-0.00256z" fill="#c86928" id="svg_18"/>
    <path class="cls-1" d="m222.33337,110.45187c-0.0205,2.52462 0.98678,5.93606 2.56307,7.94551c-10.31378,9.50898 -21.37085,18.37206 -33.34037,25.73831c-15.25537,9.38595 -35.28317,18.26441 -53.60397,15.45785c-8.48888,-1.29947 -16.48564,-5.26966 -22.71389,-11.12115c-0.25374,-0.72791 0.39728,-3.50884 0.59719,-4.44692c7.925,-37.11064 67.28818,-36.91585 96.3713,-34.59627c3.37556,0.26912 6.74086,0.85094 10.12668,1.02266z" fill="#c86928" id="svg_9"/>
    <path class="cls-1" d="m245.14466,121.98566c2.23756,-1.18926 5.56954,-4.78524 6.40767,-7.17659c3.19102,0.4306 6.3564,1.18414 9.48591,1.91974c24.84124,5.8361 70.18701,20.06368 76.45627,48.62137c1.20208,5.47727 0.99703,11.69015 -0.85094,16.99569c-35.24985,15.68853 -64.50469,-16.09606 -81.6106,-42.95187c-3.58317,-5.62593 -6.84339,-11.47485 -9.88831,-17.40835z" fill="#c86928" id="svg_8"/>
    <path class="cls-1" d="m252.06494,108.65772c-0.305,-2.81937 -3.13719,-7.04843 -5.38244,-8.71443l4.99285,-6.41279c20.28411,-23.5392 55.7672,-56.27981 89.49972,-41.56268c2.58101,1.12519 5.05949,2.57332 7.38676,4.14704c2.25037,30.17242 -29.76233,42.32135 -53.94742,47.54744c-13.9764,3.01929 -28.26806,4.31108 -42.54947,4.99542z" fill="#c86928" id="svg_7"/>
    <path class="cls-1" d="m242.8379,97.89284c-3.18845,-1.06367 -8.3761,-0.9227 -11.5338,0.25631c-3.09362,-9.47053 -5.87199,-19.0769 -7.60974,-28.91395c-4.61865,-26.17403 -3.64724,-58.52506 25.48713,-69.18485c1.08161,-0.39471 4.39053,-1.61986 5.32093,-1.61473c1.1662,0.00769 6.06678,3.88305 7.17915,4.87495c23.21626,20.67882 7.9045,54.52924 -5.66694,76.10769c-4.02914,6.4051 -8.50938,12.53083 -13.17929,18.47458l0.00256,0z" fill="#c86928" id="svg_6"/>
    <path class="cls-1" d="m241.30006,123.5235c13.2408,28.76017 30.19036,81.02622 -7.85324,98.38587c-1.47376,0.67152 -3.00648,1.24565 -4.53406,1.77364c-8.64779,-3.89842 -16.05761,-10.60341 -19.76893,-19.43061c-6.37435,-15.15797 -2.07096,-33.48646 3.51653,-48.24204c4.45717,-11.76704 10.58546,-22.8036 17.10847,-33.51209c2.51693,1.32254 8.75543,1.66343 11.5338,1.02523l-0.00256,0z" fill="#c86928" id="svg_5"/>
    <path class="cls-2" d="m242.8379,97.89284c0.20761,0.0692 3.60367,1.87104 3.8446,2.05045c2.24525,1.66599 5.07743,5.89505 5.38244,8.71443c0.16404,1.52246 -0.00769,4.71604 -0.51261,6.15136c-0.83812,2.39134 -4.17011,5.98732 -6.40767,7.17659c-0.67665,0.35883 -3.16795,1.38149 -3.8446,1.53784c-2.77836,0.6382 -9.01687,0.29732 -11.5338,-1.02523c-0.02307,-0.01282 0.06408,-0.37421 -0.17941,-0.51518c-1.45582,-0.833 -3.67031,-2.28369 -4.69041,-3.58573c-1.57629,-2.00944 -2.58357,-5.42089 -2.56307,-7.94551c0.01025,-1.12519 0.3537,-3.87792 0.76892,-4.86983c0.57413,-1.3738 2.96803,-3.90868 4.1086,-5.00054c0.19992,-0.19223 0.22042,-0.6177 0.24862,-0.6382c0.17173,-0.12559 3.45245,-1.64805 3.8446,-1.79415c3.1577,-1.17901 8.34534,-1.31998 11.5338,-0.25631z" fill="#e8d7a5" id="svg_4"/>
   </g>
  </g>
  <g>
   <g>
    <title>Layer 1</title>
    <path class="cls-1" d="m1211.6308,351.45756c-1.94877,1.40449 -3.30016,3.35326 -4.34622,5.48522c-0.06372,0.13009 -0.42214,0.06903 -0.43276,0.09027c-6.5658,-1.76026 -13.06257,-3.84974 -19.44783,-6.17286c-23.2843,-8.47209 -62.98973,-26.67207 -66.53945,-54.52826c-0.78588,-6.17286 0.41683,-12.35634 2.6842,-18.09113c42.40556,-14.22811 70.46619,30.45543 84.22437,63.40125c1.35405,3.24175 2.50631,6.57376 3.85771,9.81551z" fill="#9c2327" id="svg_25"/>
    <path class="cls-1" d="m1206.05531,362.07754c-0.03717,2.24878 1.3036,6.45694 2.65499,8.23048c-7.47912,7.03308 -15.43348,13.64667 -23.81264,19.59651c-21.65147,15.38038 -54.38224,32.52633 -80.53658,18.24246c-1.5399,-0.84163 -8.89954,-5.64186 -9.25,-6.96936c0.21771,-2.01514 0.5841,-4.0117 1.09917,-5.97108c9.67214,-36.80087 69.58473,-36.56457 99.35252,-34.19101c3.49663,0.27877 6.98263,0.88146 10.48988,1.05934l0.00265,0.00265z" fill="#9c2327" id="svg_24"/>
    <path class="cls-1" d="m1229.68475,374.02501c2.47711,-1.33812 5.69496,-4.75244 6.63748,-7.43398c17.35569,3.4037 35.0884,8.17473 51.15642,15.61667c19.40269,8.98715 40.37449,23.2312 38.57971,47.43412c-0.07965,1.08324 -0.92128,6.14631 -1.46025,6.77023c-0.48321,0.55489 -5.27547,2.16382 -6.29765,2.46383c-36.96813,10.85892 -66.61645,-26.41984 -82.81987,-54.31852c-2.01249,-3.46211 -3.80992,-7.05697 -5.79585,-10.53236z" fill="#9c2327" id="svg_23"/>
    <path class="cls-1" d="m1236.85324,359.95354c-0.55489,-3.12493 -2.96032,-6.95608 -5.57549,-8.76148c3.83381,-4.90908 7.8163,-9.78896 12.07757,-14.33962c22.68692,-24.23478 59.83294,-53.54591 93.46109,-31.06077c2.52755,31.28114 -31.08732,43.97466 -56.10533,49.30323c-14.31573,3.04793 -29.22352,4.56393 -43.85784,4.86129l0,-0.00265z" fill="#9c2327" id="svg_22"/>
    <path class="cls-1" d="m1225.70226,375.618c1.17351,2.96563 2.61251,5.82506 3.84178,8.76944c11.14832,26.70658 23.49138,71.39278 -6.62421,90.26713c-3.11962,1.95673 -6.55252,3.57097 -10.05446,4.70465c-37.61861,-17.70881 -22.49842,-61.94366 -7.47912,-90.20607c2.68951,-5.06042 5.75868,-9.91375 8.63404,-14.86265c3.49397,1.6992 7.90392,2.16116 11.68197,1.3275z" fill="#9c2327" id="svg_21"/>
    <path class="cls-1" d="m1215.34779,349.33357c-2.20099,-7.39416 -4.56659,-14.75115 -6.24189,-22.29929c-6.39322,-28.77482 -7.96233,-68.10855 25.75344,-79.65778c0.99562,-0.33984 3.6692,-1.28502 4.548,-1.30891c1.58769,-0.04248 7.93843,5.35247 9.30044,6.71448c21.61696,21.6143 5.56752,56.23277 -8.02605,77.67715c-4.08869,6.44898 -8.61811,12.65105 -13.38648,18.6062c-3.27095,-1.07793 -8.71634,-0.95845 -11.94747,0.2655l0,0.00265z" fill="#9c2327" id="svg_20"/>
    <path class="cls-2" d="m1227.29526,349.06807c0.40356,0.13275 3.54707,1.82398 3.98249,2.12399c2.61517,1.8054 5.02059,5.63655 5.57549,8.76148c0.39294,2.20099 0.2124,4.51614 -0.531,6.63748c-0.94252,2.68154 -4.16038,6.09587 -6.63748,7.43398c-0.92925,0.50179 -2.99218,1.37529 -3.98249,1.593c-3.77806,0.83367 -8.188,0.3717 -11.68197,-1.3275c-1.24519,-0.60534 -4.58783,-3.03731 -5.30999,-3.98249c-1.35139,-1.77354 -2.69216,-5.9817 -2.65499,-8.23048c0.01062,-0.5841 0.6372,-4.73916 0.7965,-5.04449c0.01062,-0.01858 0.36639,0.04248 0.43276,-0.09027c1.04872,-2.13461 2.39746,-4.08338 4.34622,-5.48522c0.67702,-0.48852 3.00545,-1.85319 3.71699,-2.12399c3.23113,-1.22395 8.67652,-1.34343 11.94747,-0.2655z" fill="#e8d7a5" id="svg_19"/>
   </g>
  </g>
  <g>
   <g>
    <title>Layer 1</title>
    <path class="cls-3" d="m1211.41267,87.99179c-0.9028,0.67042 -3.07034,3.47547 -3.49604,4.52428c-12.94151,-3.90734 -25.90358,-8.46658 -37.7716,-14.97744c-16.61235,-9.11232 -35.88169,-24.78074 -26.81667,-46.16827c32.80517,-10.95494 54.39012,23.34942 65.09623,48.81292c1.0776,2.56445 2.07706,5.18031 2.98808,7.8085z" fill="#94d1bc" id="svg_32"/>
    <path class="cls-3" d="m1207.09403,96.42341c0.0144,1.5691 1.26886,4.92119 2.26214,6.16948c-14.40779,13.00526 -31.67616,26.46501 -50.75013,31.61241c-12.22585,3.29861 -26.69328,2.63231 -36.33617,-6.52731c-0.7753,-0.73622 -0.9974,-0.75679 -0.93159,-1.94133c0.20359,-3.6256 2.36908,-8.85937 4.35771,-11.89475c13.63249,-20.81171 54.92893,-20.16391 76.76888,-18.03133c1.5362,0.15012 3.08063,0.52852 4.62917,0.61489l0,-0.00206z" fill="#94d1bc" id="svg_31"/>
    <path class="cls-3" d="m1225.60247,105.47198c1.86113,-1.01591 4.43791,-3.74693 5.14123,-5.75818c9.52156,1.89609 18.97732,4.3063 28.12665,7.5535c16.46634,5.8425 40.80904,17.50898 41.39103,37.78394c0.08432,2.93256 -0.29202,6.07694 -1.24418,8.84909c-28.27472,12.81195 -52.01282,-13.10397 -65.68644,-34.66836c-2.81328,-4.43791 -5.4168,-9.0424 -7.7283,-13.76205l0,0.00206z" fill="#94d1bc" id="svg_30"/>
    <path class="cls-3" d="m1223.75163,86.34659c-2.45545,-0.8555 -6.80493,-0.88635 -9.25422,0c-0.83699,-2.6755 -1.78504,-5.32426 -2.57062,-8.02032c-7.38898,-25.39563 -11.80633,-63.96104 21.37724,-71.97519c1.29559,0.71977 2.52949,1.57733 3.70374,2.47602c21.65281,16.57328 8.02855,46.04899 -3.79217,64.26129c-2.95929,4.55924 -6.28053,8.86348 -9.46398,13.26027l0,-0.00206z" fill="#94d1bc" id="svg_29"/>
    <path class="cls-3" d="m1222.51773,106.70587c0.92953,2.75159 2.29299,5.34071 3.38704,8.02649c6.9057,16.97018 14.24121,42.91284 3.6914,59.61362c-3.84153,6.08311 -10.2619,10.53953 -17.0545,12.74614c-15.54503,-6.8728 -20.27085,-21.36696 -17.7208,-37.44668c2.47807,-15.6314 10.38323,-30.39908 18.44468,-43.76423c2.53154,1.21333 6.55199,1.47862 9.25422,0.8226l-0.00206,0.00206z" fill="#94d1bc" id="svg_28"/>
    <path class="cls-3" d="m1231.155,94.77821c-0.30436,-2.38759 -2.55416,-5.64302 -4.52428,-6.99208c6.67538,-8.16839 13.77645,-16.04681 21.79471,-22.93401c16.36146,-14.05202 39.52579,-26.21206 59.95088,-12.23202c0.46271,2.72485 0.16246,5.72939 -0.40924,8.43368c-4.44408,21.03792 -33.43652,28.58731 -51.65499,31.42732c-8.31646,1.29559 -16.7378,2.05444 -25.15708,2.2971z" fill="#94d1bc" id="svg_27"/>
    <path class="cls-1" d="m1223.75163,86.34659c0.59227,0.20565 2.36702,1.08788 2.87909,1.43955c1.97012,1.34906 4.21992,4.60449 4.52428,6.99208c0.15012,1.16809 -0.02262,3.82302 -0.4113,4.93558c-0.70332,2.01125 -3.28011,4.74227 -5.14123,5.75818c-0.83905,0.4586 -2.16754,1.01179 -3.08474,1.2339c-2.70223,0.65602 -6.72268,0.39073 -9.25422,-0.8226c-0.6663,-0.31876 -3.41378,-2.66933 -3.90734,-3.29039c-0.99329,-1.24829 -2.24775,-4.60037 -2.26214,-6.16948c-0.00617,-0.64163 0.55937,-3.25954 0.8226,-3.90734c0.42569,-1.04881 2.59324,-3.85387 3.49604,-4.52428c0.22416,-0.16658 2.81945,-1.54854 3.08474,-1.64519c2.44928,-0.88635 6.79877,-0.8555 9.25422,0z" fill="#e8d7a6" id="svg_26"/>
   </g>
  </g>
  <g id="svg_52">
   <g id="svg_51">
    <title id="svg_43">Layer 1</title>
    <path class="cls-1" d="m115.55003,250.58124c-1.19668,0.86246 -2.02653,2.05913 -2.66888,3.36831c-0.03913,0.07989 -0.25923,0.04239 -0.26575,0.05543c-4.03186,-1.08092 -8.02133,-2.36401 -11.94232,-3.79057c-14.29818,-5.20245 -38.68008,-16.37851 -40.85986,-33.48415c-0.48258,-3.79057 0.25597,-7.58765 1.64828,-11.10921c26.03997,-8.73705 43.27115,18.70176 51.71963,38.93278c0.83148,1.99066 1.53905,4.03675 2.3689,6.02741z" fill="#9c2327" id="svg_44"/>
    <path class="cls-1" d="m112.12629,257.10264c-0.02282,1.38091 0.8005,3.96501 1.63035,5.05409c-4.5927,4.3188 -9.47723,8.38 -14.62262,12.03362c-13.29551,9.44462 -33.39448,19.97343 -49.45507,11.20214c-0.9456,-0.51682 -5.46494,-3.4645 -5.68014,-4.27967c0.13369,-1.23744 0.35868,-2.46346 0.67497,-3.66666c5.93937,-22.5983 42.72987,-22.4532 61.00937,-20.99566c2.14717,0.17119 4.28782,0.54128 6.44152,0.65051l0.00163,0.00163z" fill="#9c2327" id="svg_45"/>
    <path class="cls-1" d="m126.63641,264.43922c1.52112,-0.8217 3.4971,-2.91833 4.07588,-4.56498c10.65761,2.09011 21.54672,5.01985 31.4136,9.58973c11.91461,5.51874 24.79275,14.26557 23.69063,29.12785c-0.04891,0.66518 -0.56573,3.77426 -0.89669,4.1574c-0.29672,0.34074 -3.23951,1.32874 -3.86719,1.51297c-22.70101,6.66814 -40.90714,-16.22362 -50.85717,-33.35535c-1.23581,-2.12598 -2.33955,-4.33347 -3.55906,-6.4676z" fill="#9c2327" id="svg_46"/>
    <path class="cls-1" d="m131.03836,255.79836c-0.34074,-1.91892 -1.81784,-4.27152 -3.42374,-5.38016c2.35423,-3.01452 4.79975,-6.0111 7.41647,-8.80553c13.93135,-14.88184 36.74159,-32.88092 57.39162,-19.07348c1.55209,19.2088 -19.08978,27.0035 -34.45258,30.27562c-8.79085,1.87164 -17.94527,2.80257 -26.93177,2.98517l0,-0.00163z" fill="#9c2327" id="svg_47"/>
    <path class="cls-1" d="m124.19089,265.41743c0.72062,1.8211 1.60427,3.57699 2.35912,5.38505c6.84584,16.3997 14.42535,43.84014 -4.06773,55.43031c-1.91566,1.20157 -4.02371,2.19282 -6.17414,2.88898c-23.10044,-10.87444 -13.8156,-38.03772 -4.5927,-55.39281c1.65155,-3.10745 3.53623,-6.08773 5.3019,-9.12671c2.14554,1.04342 4.85356,1.32711 7.17354,0.81518z" fill="#9c2327" id="svg_48"/>
    <path class="cls-1" d="m117.83252,249.27696c-1.35156,-4.54053 -2.8042,-9.05823 -3.83296,-13.69332c-3.92589,-17.66975 -4.88942,-41.8234 15.81441,-48.91542c0.61138,-0.20868 2.25315,-0.78909 2.79279,-0.80376c0.97495,-0.02609 4.87475,3.28679 5.71112,4.12316c13.27432,13.27269 3.41885,34.53084 -4.92855,47.69918c-2.51074,3.96012 -5.29212,7.76862 -8.22023,11.4255c-2.00859,-0.66192 -5.35244,-0.58856 -7.33658,0.16304l0,0.00163z" fill="#9c2327" id="svg_49"/>
    <path class="cls-2" d="m125.1691,249.11392c0.24781,0.08152 2.17815,1.12005 2.44553,1.30428c1.6059,1.10864 3.08299,3.46124 3.42374,5.38016c0.24129,1.35156 0.13043,2.77323 -0.32607,4.07588c-0.57877,1.64665 -2.55476,3.74329 -4.07588,4.56498c-0.57062,0.30814 -1.83741,0.84452 -2.44553,0.97821c-2.31999,0.51193 -5.028,0.22825 -7.17354,-0.81518c-0.76463,-0.37172 -2.81725,-1.86512 -3.2607,-2.44553c-0.82985,-1.08907 -1.65318,-3.67318 -1.63035,-5.05409c0.00652,-0.35868 0.39128,-2.91018 0.48911,-3.09767c0.00652,-0.01141 0.22499,0.02609 0.26575,-0.05543c0.64399,-1.3108 1.47221,-2.50748 2.66888,-3.36831c0.41574,-0.29998 1.84556,-1.13799 2.28249,-1.30428c1.98414,-0.75159 5.32799,-0.82496 7.33658,-0.16304z" fill="#e8d7a5" id="svg_50"/>
   </g>
  </g>
 </g>

</svg>