<svg width="1440" height="10000" xmlns="http://www.w3.org/2000/svg" data-name="Layer 1">
 <g>
  <title>Layer 1</title>
  <g id="svg_5">
   <g id="svg_14">
    <path stroke-miterlimit="10" stroke-width="33.2px" stroke="#ae2012" fill="none" id="svg_17" d="m1488.78118,361.94086l-52.3,0c-38.5,0 -69.7,0 -69.7,312.94657l0,8595.81455c0,332.03525 16,332.03525 69.7,332.03525l52.3,0" class="cls-1"/>
    <path stroke-miterlimit="10" stroke-width="33.3px" stroke="#ee9b00" fill="none" id="svg_16" d="m1470.84088,194.94469l-61.5,0c-56.1,0 -101.5,0 -101.5,317.51711c0,0 0.5293,8873.99602 0.5293,8988.49308c6.7,219.38523 56.0707,267.35908 107.0707,267.35908l55.4,0" class="cls-5"/>
    <path stroke-width="33.5px" stroke="#005f73" stroke-miterlimit="10" fill="none" id="svg_15" d="m1485.84088,26.37295l-88.6,0c-72.7,0 -102.4,0 -130.5,155.66673c-4.2,23.39033 -15.8,97.05646 -15.8,502.75782c0,0 0.1084,8579.61572 0.1084,8778.13275c2.2,341.71401 52.2916,473.14888 146.0916,473.14888l88.6,0" class="cls-6"/>
   </g>
   <g id="svg_10">
    <path stroke-width="34.1px" stroke-miterlimit="10" fill="none" stroke="#ae2012" id="svg_13" d="m-88.7258,783.73534l124.9,0c23.5,0 42.8,68.82674 42.6,337.68119l0,2482.33314c0,41.40358 -11.5,74.74154 -25.8,74.74154l0,0c-12.8,0 -23.3,30.1117 -23.3,67.48246l0,2755.22041c0,27.96086 7.9,50.81349 17.5,50.81349l0,0c6.7,0 12.1,15.59356 12.1,34.95109l0,2597.13399c0,46.51182 -13,84.4203 -29.1,84.4203l-107.2,0" class="cls-2"/>
    <path stroke="#ee9b00" stroke-width="34.1px" stroke-miterlimit="10" fill="none" id="svg_12" d="m-77.48862,654.89777l140,0c37.8,0 68.5,134.42722 68.5,340.36973l0,2681.5544c0,49.46921 -31,89.52853 -31,89.52853l0,0c0,0 -18.1,23.39033 -18.1,52.15777l0,2528.84496c0,31.72483 19.8,57.26601 19.8,57.26601l0,0c0,0 15.4,20.16408 15.3,44.62984l0.0896,2568.29478c-0.1,61.29881 -22.68957,110.03326 -43.88957,110.30211l-150.7,2.68854" class="cls-3"/>
    <path stroke="#005f73" stroke-width="34.1px" stroke-miterlimit="10" fill="none" id="svg_11" d="m-62.0258,503.58901l165.5,0c56.7,0 84.8,200.29657 84.8,558.41069l0,2684.24283c0,51.08234 -14.3,92.48592 -32,92.48592l0,0c-9.4,0 -17.1,22.04607 -17.1,49.46921l0,2314.29911c0,31.45598 8.8,56.72829 19.6,56.72829l0,0c7.3,0 13.1,17.20669 13.1,38.17733l-0.15696,2581.75955c0,68.28903 -22.04304,123.99164 -45.64304,124.52935l-188.2,3.22626" class="cls-4"/>
   </g>
  </g>
 </g>

</svg>