<svg xmlns="http://www.w3.org/2000/svg" xmlns:xlink="http://www.w3.org/1999/xlink" xmlns:serif="http://www.serif.com/" version="1.1" xml:space="preserve" style="fill-rule:evenodd;clip-rule:evenodd;stroke-linecap:round;stroke-linejoin:round;stroke-miterlimit:1.5;" viewBox="2153.07 2058.54 6647.65 5655.97">
    <g transform="matrix(1,0,0,1,-53.046001,-0)">
        <path d="M8832.366,3640.456L8832.366,7212.217C8832.366,7463.111 8628.672,7666.805 8377.779,7666.805L2682.105,7666.805C2431.212,7666.805 2227.518,7463.111 2227.518,7212.217L2227.518,3640.456C2227.518,3389.562 2431.212,3185.868 2682.105,3185.868L8377.779,3185.868C8628.672,3185.868 8832.366,3389.562 8832.366,3640.456Z" style="fill:rgb(107,0,38);stroke:rgb(59,0,46);stroke-width:42.8px;"/>
    </g>
    <g>
        <g transform="matrix(1,0,0,1,817.608022,0)">
            <path d="M4538.073,3185.868L6269.715,3185.868L5189.171,7666.805L3499.087,7666.805L4538.073,3185.868Z" style="fill:rgb(121,7,38);"/>
        </g>
        <g transform="matrix(1,0,0,1,12.970767,0)">
            <path d="M4538.073,3185.868L5108.362,3185.868L4025.507,7666.805L3499.087,7666.805L4538.073,3185.868Z" style="fill:rgb(121,7,38);"/>
        </g>
    </g>
    <g transform="matrix(1.016964,0,0,1.016964,-82.966215,-84.837353)">
        <g transform="matrix(1,0,0,1,1573.266296,-692.538765)">
            <path d="M1259.103,4462.912C1259.103,4462.912 1122.298,4493.241 1116.516,4524.021C1110.734,4554.801 1174.513,4649.648 1224.411,4647.593C1274.31,4645.537 1415.859,4572.191 1415.907,4511.689C1416.013,4378.066 1306.526,4293.988 1306.526,4293.988C1116.037,4254.492 1015.782,4318.664 988.251,4466.388L974.989,5102.939L949.739,6118.875L949.739,6425.39" style="fill:none;stroke:rgb(59,0,46);stroke-width:70.88px;"/>
        </g>
        <g transform="matrix(1,0,0,-1,1573.266296,11682.916713)">
            <path d="M1259.103,4462.912C1259.103,4462.912 1122.298,4493.241 1116.516,4524.021C1110.734,4554.801 1174.513,4649.648 1224.411,4647.593C1274.31,4645.537 1415.859,4572.191 1415.907,4511.689C1416.013,4378.066 1306.526,4293.988 1306.526,4293.988C1116.037,4254.492 1015.782,4318.664 988.251,4466.388L974.989,5102.939L949.739,6129.305" style="fill:none;stroke:rgb(59,0,46);stroke-width:70.88px;"/>
        </g>
        <g transform="matrix(-1,0,0,1,9415.906391,-692.538765)">
            <path d="M1259.103,4462.912C1259.103,4462.912 1122.298,4493.241 1116.516,4524.021C1110.734,4554.801 1174.513,4649.648 1224.411,4647.593C1274.31,4645.537 1415.859,4572.191 1415.907,4511.689C1416.013,4378.066 1306.526,4293.988 1306.526,4293.988C1116.037,4254.492 1015.782,4318.664 988.251,4466.388L974.989,5102.939L949.739,6118.875L949.739,6321.697" style="fill:none;stroke:rgb(59,0,46);stroke-width:70.88px;"/>
        </g>
        <g transform="matrix(-1,0,0,-1,9415.906391,11682.916713)">
            <path d="M1259.103,4462.912C1259.103,4462.912 1122.298,4493.241 1116.516,4524.021C1110.734,4554.801 1174.513,4649.648 1224.411,4647.593C1274.31,4645.537 1415.859,4572.191 1415.907,4511.689C1416.013,4378.066 1306.526,4293.988 1306.526,4293.988C1116.037,4254.492 1015.782,4318.664 988.251,4466.388L974.989,5102.939L949.739,6129.305" style="fill:none;stroke:rgb(59,0,46);stroke-width:70.88px;"/>
        </g>
        <g transform="matrix(-0.022532,0.999746,0.999746,0.022532,-1498.121835,2287.727475)">
            <path d="M1259.103,4462.912C1259.103,4462.912 1122.298,4493.241 1116.516,4524.021C1110.734,4554.801 1174.513,4649.648 1224.411,4647.593C1274.31,4645.537 1415.859,4572.191 1415.907,4511.689C1416.013,4378.066 1306.526,4293.988 1306.526,4293.988C1116.037,4254.492 1015.782,4318.664 988.251,4466.388L974.989,5102.939L949.739,6118.875L912.301,7426.075" style="fill:none;stroke:rgb(59,0,46);stroke-width:70.88px;"/>
        </g>
        <g transform="matrix(0.022532,0.999746,-0.999746,0.022532,12578.617632,2287.727475)">
            <path d="M1259.103,4462.912C1259.103,4462.912 1122.298,4493.241 1116.516,4524.021C1110.734,4554.801 1174.513,4649.648 1224.411,4647.593C1274.31,4645.537 1415.859,4572.191 1415.907,4511.689C1416.013,4378.066 1306.526,4293.988 1306.526,4293.988C1116.037,4254.492 1015.782,4318.664 988.251,4466.388L974.989,5102.939L949.739,6118.875L912.301,7426.075" style="fill:none;stroke:rgb(59,0,46);stroke-width:70.88px;"/>
        </g>
        <g transform="matrix(-0.021391,-0.999746,0.949121,-0.022532,-1173.23474,8547.652259)">
            <path d="M1259.103,4462.912C1259.103,4462.912 1122.298,4493.241 1116.516,4524.021C1110.734,4554.801 1174.513,4649.648 1224.411,4647.593C1274.31,4645.537 1415.859,4572.191 1415.907,4511.689C1416.013,4378.066 1306.526,4293.988 1306.526,4293.988C1116.037,4254.492 1015.782,4318.664 988.251,4466.388L974.989,5102.939L949.739,6118.875L912.301,7426.075" style="fill:none;stroke:rgb(59,0,46);stroke-width:72.61px;"/>
        </g>
        <g transform="matrix(0.021391,-0.999746,-0.949121,-0.022532,12190.681957,8547.652259)">
            <path d="M1259.103,4462.912C1259.103,4462.912 1122.298,4493.241 1116.516,4524.021C1110.734,4554.801 1174.513,4649.648 1224.411,4647.593C1274.31,4645.537 1415.859,4572.191 1415.907,4511.689C1416.013,4378.066 1306.526,4293.988 1306.526,4293.988C1116.037,4254.492 1015.782,4318.664 988.251,4466.388L974.989,5102.939L949.739,6118.875L912.301,7426.075" style="fill:none;stroke:rgb(59,0,46);stroke-width:72.61px;"/>
        </g>
    </g>
    <g>
        <g transform="matrix(1,0,0,1,1573.266296,-692.538765)">
            <path d="M1259.103,4462.912C1259.103,4462.912 1122.298,4493.241 1116.516,4524.021C1110.734,4554.801 1174.513,4649.648 1224.411,4647.593C1274.31,4645.537 1415.859,4572.191 1415.907,4511.689C1416.013,4378.066 1306.526,4293.988 1306.526,4293.988C1116.037,4254.492 1015.782,4318.664 988.251,4466.388L974.989,5102.939L949.739,6118.875L949.739,6425.39" style="fill:none;stroke:rgb(202,136,0);stroke-width:72.08px;"/>
        </g>
        <g transform="matrix(1,0,0,-1,1573.266296,11682.916713)">
            <path d="M1259.103,4462.912C1259.103,4462.912 1122.298,4493.241 1116.516,4524.021C1110.734,4554.801 1174.513,4649.648 1224.411,4647.593C1274.31,4645.537 1415.859,4572.191 1415.907,4511.689C1416.013,4378.066 1306.526,4293.988 1306.526,4293.988C1116.037,4254.492 1015.782,4318.664 988.251,4466.388L974.989,5102.939L949.739,6129.305" style="fill:none;stroke:rgb(202,136,0);stroke-width:72.08px;"/>
        </g>
        <g transform="matrix(-1,0,0,1,9415.906391,-692.538765)">
            <path d="M1259.103,4462.912C1259.103,4462.912 1122.298,4493.241 1116.516,4524.021C1110.734,4554.801 1174.513,4649.648 1224.411,4647.593C1274.31,4645.537 1415.859,4572.191 1415.907,4511.689C1416.013,4378.066 1306.526,4293.988 1306.526,4293.988C1116.037,4254.492 1015.782,4318.664 988.251,4466.388L974.989,5102.939L949.739,6118.875L949.739,6321.697" style="fill:none;stroke:rgb(202,136,0);stroke-width:72.08px;"/>
        </g>
        <g transform="matrix(-1,0,0,-1,9415.906391,11682.916713)">
            <path d="M1259.103,4462.912C1259.103,4462.912 1122.298,4493.241 1116.516,4524.021C1110.734,4554.801 1174.513,4649.648 1224.411,4647.593C1274.31,4645.537 1415.859,4572.191 1415.907,4511.689C1416.013,4378.066 1306.526,4293.988 1306.526,4293.988C1116.037,4254.492 1015.782,4318.664 988.251,4466.388L974.989,5102.939L949.739,6129.305" style="fill:none;stroke:rgb(202,136,0);stroke-width:72.08px;"/>
        </g>
        <g transform="matrix(-0.022532,0.999746,0.999746,0.022532,-1498.121835,2287.727475)">
            <path d="M1259.103,4462.912C1259.103,4462.912 1122.298,4493.241 1116.516,4524.021C1110.734,4554.801 1174.513,4649.648 1224.411,4647.593C1274.31,4645.537 1415.859,4572.191 1415.907,4511.689C1416.013,4378.066 1306.526,4293.988 1306.526,4293.988C1116.037,4254.492 1015.782,4318.664 988.251,4466.388L974.989,5102.939L949.739,6118.875L912.301,7426.075" style="fill:none;stroke:rgb(202,136,0);stroke-width:72.08px;"/>
        </g>
        <g transform="matrix(0.022532,0.999746,-0.999746,0.022532,12578.617632,2287.727475)">
            <path d="M1259.103,4462.912C1259.103,4462.912 1122.298,4493.241 1116.516,4524.021C1110.734,4554.801 1174.513,4649.648 1224.411,4647.593C1274.31,4645.537 1415.859,4572.191 1415.907,4511.689C1416.013,4378.066 1306.526,4293.988 1306.526,4293.988C1116.037,4254.492 1015.782,4318.664 988.251,4466.388L974.989,5102.939L949.739,6118.875L912.301,7426.075" style="fill:none;stroke:rgb(202,136,0);stroke-width:72.08px;"/>
        </g>
        <g transform="matrix(-0.021391,-0.999746,0.949121,-0.022532,-1173.23474,8547.652259)">
            <path d="M1259.103,4462.912C1259.103,4462.912 1122.298,4493.241 1116.516,4524.021C1110.734,4554.801 1174.513,4649.648 1224.411,4647.593C1274.31,4645.537 1415.859,4572.191 1415.907,4511.689C1416.013,4378.066 1306.526,4293.988 1306.526,4293.988C1116.037,4254.492 1015.782,4318.664 988.251,4466.388L974.989,5102.939L949.739,6118.875L912.301,7426.075" style="fill:none;stroke:rgb(202,136,0);stroke-width:73.84px;"/>
        </g>
        <g transform="matrix(0.021391,-0.999746,-0.949121,-0.022532,12190.681957,8547.652259)">
            <path d="M1259.103,4462.912C1259.103,4462.912 1122.298,4493.241 1116.516,4524.021C1110.734,4554.801 1174.513,4649.648 1224.411,4647.593C1274.31,4645.537 1415.859,4572.191 1415.907,4511.689C1416.013,4378.066 1306.526,4293.988 1306.526,4293.988C1116.037,4254.492 1015.782,4318.664 988.251,4466.388L974.989,5102.939L949.739,6118.875L912.301,7426.075" style="fill:none;stroke:rgb(202,136,0);stroke-width:73.84px;"/>
        </g>
    </g>
    <g transform="matrix(0.492935,-0.449374,0.381435,0.41841,435.873624,3241.306855)">
        <path d="M2167.703,2563.735L2368.048,2909.158L1967.357,2909.158L2167.703,2563.735Z" style="fill:rgb(202,136,0);stroke:rgb(59,0,46);stroke-width:40.21px;"/>
    </g>
    <g transform="matrix(-0.296565,-0.59747,-0.507141,0.251728,10587.161143,4049.644809)">
        <path d="M2167.703,2563.735L2368.048,2909.158L1967.357,2909.158L2167.703,2563.735Z" style="fill:rgb(202,136,0);stroke:rgb(59,0,46);stroke-width:40.21px;"/>
    </g>
    <g transform="matrix(0.492935,0.449374,0.381435,-0.41841,435.873624,7672.962664)">
        <path d="M2167.703,2563.735L2368.048,2909.158L1967.357,2909.158L2167.703,2563.735Z" style="fill:rgb(202,136,0);stroke:rgb(59,0,46);stroke-width:40.21px;"/>
    </g>
    <g transform="matrix(-0.409942,0.526183,-0.446632,-0.347965,10667.348826,7282.499278)">
        <path d="M2167.703,2563.735L2368.048,2909.158L1967.357,2909.158L2167.703,2563.735Z" style="fill:rgb(202,136,0);stroke:rgb(59,0,46);stroke-width:40.21px;"/>
    </g>
    <g transform="matrix(1,0,0,1,4508.176171,6292.378478)">
        <path d="M220.567,-134.144C220.567,-98.547 210.022,-66.785 188.933,-38.858C167.844,-10.93 143.144,3.033 114.833,3.033C110.211,3.033 103.278,-0.056 94.033,-6.236C84.789,-12.42 77.133,-17.13 71.067,-20.367L71.067,101.833L21.667,101.833L21.667,-39C21.667,-62.111 21.522,-79.661 21.233,-91.65C20.944,-103.639 20.367,-114.4 19.5,-123.933C19.5,-148.778 17.189,-167.7 12.567,-180.7C7.367,-188.5 2.167,-196.444 -3.033,-204.533C-3.033,-208.289 3.972,-213.2 17.983,-219.267C31.994,-225.333 47.667,-233.567 65,-243.967L71.067,-243.967L71.067,-202.367C81.756,-204.1 93.022,-211.467 104.867,-224.467C116.711,-237.467 126.1,-243.967 133.033,-243.967C151.522,-243.967 170.733,-234.126 190.667,-214.446C210.6,-194.77 220.567,-168.002 220.567,-134.144ZM181.133,-100.703C181.133,-124.468 172.828,-144.248 156.217,-160.042C139.606,-175.836 123.644,-183.733 108.333,-183.733C105.156,-183.733 100.822,-183.081 95.333,-181.777C89.844,-180.472 82.622,-177.791 73.667,-173.733L73.667,-106.79C73.667,-84.473 80.167,-68.968 93.167,-60.274C106.167,-51.58 118.156,-47.233 129.133,-47.233C147.911,-47.233 161.272,-53.101 169.217,-64.838C177.161,-76.578 181.133,-88.533 181.133,-100.703Z" style="fill:rgb(201,135,0);fill-rule:nonzero;"/>
        <clipPath id="_clip1">
            <path d="M220.567,-134.144C220.567,-98.547 210.022,-66.785 188.933,-38.858C167.844,-10.93 143.144,3.033 114.833,3.033C110.211,3.033 103.278,-0.056 94.033,-6.236C84.789,-12.42 77.133,-17.13 71.067,-20.367L71.067,101.833L21.667,101.833L21.667,-39C21.667,-62.111 21.522,-79.661 21.233,-91.65C20.944,-103.639 20.367,-114.4 19.5,-123.933C19.5,-148.778 17.189,-167.7 12.567,-180.7C7.367,-188.5 2.167,-196.444 -3.033,-204.533C-3.033,-208.289 3.972,-213.2 17.983,-219.267C31.994,-225.333 47.667,-233.567 65,-243.967L71.067,-243.967L71.067,-202.367C81.756,-204.1 93.022,-211.467 104.867,-224.467C116.711,-237.467 126.1,-243.967 133.033,-243.967C151.522,-243.967 170.733,-234.126 190.667,-214.446C210.6,-194.77 220.567,-168.002 220.567,-134.144ZM181.133,-100.703C181.133,-124.468 172.828,-144.248 156.217,-160.042C139.606,-175.836 123.644,-183.733 108.333,-183.733C105.156,-183.733 100.822,-183.081 95.333,-181.777C89.844,-180.472 82.622,-177.791 73.667,-173.733L73.667,-106.79C73.667,-84.473 80.167,-68.968 93.167,-60.274C106.167,-51.58 118.156,-47.233 129.133,-47.233C147.911,-47.233 161.272,-53.101 169.217,-64.838C177.161,-76.578 181.133,-88.533 181.133,-100.703Z" clip-rule="nonzero"/>
        </clipPath>
        <g clip-path="url(#_clip1)">
            <g transform="matrix(0.819735,0,0,1,-3755.180588,-6244.678478)">
                <path d="M4859.836,3185.868L5405.376,3185.868L4309.882,7666.805L3726.587,7666.805L4859.836,3185.868Z" style="fill:rgb(231,190,106);"/>
            </g>
            <g transform="matrix(0.753613,0,0,1.245803,-2649.240084,-8129.205289)">
                <path d="M5104.367,3185.868L5953.515,3165.077L4673.627,7666.805L3499.087,7666.805L5104.367,3185.868Z" style="fill:rgb(231,190,106);"/>
            </g>
        </g>
        <path d="M389.133,-83.633L389.133,-167.267C381.911,-174.778 373.606,-180.989 364.217,-185.9C354.828,-190.811 346.233,-195.144 338.433,-198.9C328.033,-198.9 318.428,-189.656 309.617,-171.167C300.806,-152.678 296.4,-138.811 296.4,-129.567C296.4,-110.5 302.756,-94.178 315.467,-80.6C328.178,-67.022 340.022,-60.233 351,-60.233C363.711,-60.233 373.244,-62.978 379.6,-68.467C385.956,-73.956 389.133,-79.011 389.133,-83.633ZM447.2,-61.967C447.2,-57.922 451.317,-51.928 459.55,-43.983C467.783,-36.039 471.9,-31.633 471.9,-30.767C471.9,-29.9 465.039,-23.906 451.317,-12.783C437.594,-1.661 430.011,3.9 428.567,3.9C420.767,-1.011 412.967,-7.078 405.167,-14.3C397.367,-21.522 393.467,-30.767 393.467,-42.033L384.8,-45.5C380.467,-41.456 369.561,-32.789 352.083,-19.5C334.606,-6.211 325.144,0.433 323.7,0.433C306.944,0.433 289.106,-10.472 270.183,-32.283C251.261,-54.094 241.8,-77.567 241.8,-102.7C241.8,-121.189 245.267,-137.222 252.2,-150.8C259.133,-164.378 266.717,-175.356 274.95,-183.733C283.183,-192.111 299.289,-205.906 323.267,-225.117C347.244,-244.328 360.822,-253.933 364,-253.933L416.433,-224.467C427.411,-218.689 438.389,-212.911 449.367,-207.133C459.478,-200.778 464.533,-196.011 464.533,-192.833C464.533,-189.656 461.356,-185.178 455,-179.4C448.644,-173.622 445.467,-167.556 445.467,-161.2L445.467,-94.033C444.6,-88.544 443.806,-82.911 443.083,-77.133C442.361,-71.356 442,-67.167 442,-64.567C442,-60.522 442.578,-58.5 443.733,-58.5C444.311,-58.5 444.961,-58.933 445.683,-59.8C446.406,-60.667 446.911,-61.389 447.2,-61.967Z" style="fill:rgb(201,135,0);fill-rule:nonzero;"/>
        <clipPath id="_clip2">
            <path d="M389.133,-83.633L389.133,-167.267C381.911,-174.778 373.606,-180.989 364.217,-185.9C354.828,-190.811 346.233,-195.144 338.433,-198.9C328.033,-198.9 318.428,-189.656 309.617,-171.167C300.806,-152.678 296.4,-138.811 296.4,-129.567C296.4,-110.5 302.756,-94.178 315.467,-80.6C328.178,-67.022 340.022,-60.233 351,-60.233C363.711,-60.233 373.244,-62.978 379.6,-68.467C385.956,-73.956 389.133,-79.011 389.133,-83.633ZM447.2,-61.967C447.2,-57.922 451.317,-51.928 459.55,-43.983C467.783,-36.039 471.9,-31.633 471.9,-30.767C471.9,-29.9 465.039,-23.906 451.317,-12.783C437.594,-1.661 430.011,3.9 428.567,3.9C420.767,-1.011 412.967,-7.078 405.167,-14.3C397.367,-21.522 393.467,-30.767 393.467,-42.033L384.8,-45.5C380.467,-41.456 369.561,-32.789 352.083,-19.5C334.606,-6.211 325.144,0.433 323.7,0.433C306.944,0.433 289.106,-10.472 270.183,-32.283C251.261,-54.094 241.8,-77.567 241.8,-102.7C241.8,-121.189 245.267,-137.222 252.2,-150.8C259.133,-164.378 266.717,-175.356 274.95,-183.733C283.183,-192.111 299.289,-205.906 323.267,-225.117C347.244,-244.328 360.822,-253.933 364,-253.933L416.433,-224.467C427.411,-218.689 438.389,-212.911 449.367,-207.133C459.478,-200.778 464.533,-196.011 464.533,-192.833C464.533,-189.656 461.356,-185.178 455,-179.4C448.644,-173.622 445.467,-167.556 445.467,-161.2L445.467,-94.033C444.6,-88.544 443.806,-82.911 443.083,-77.133C442.361,-71.356 442,-67.167 442,-64.567C442,-60.522 442.578,-58.5 443.733,-58.5C444.311,-58.5 444.961,-58.933 445.683,-59.8C446.406,-60.667 446.911,-61.389 447.2,-61.967Z" clip-rule="nonzero"/>
        </clipPath>
        <g clip-path="url(#_clip2)">
            <g transform="matrix(0.819735,0,0,1,-3755.180588,-6244.678478)">
                <path d="M4859.836,3185.868L5405.376,3185.868L4309.882,7666.805L3726.587,7666.805L4859.836,3185.868Z" style="fill:rgb(231,190,106);"/>
            </g>
            <g transform="matrix(0.753613,0,0,1.245803,-2649.240084,-8129.205289)">
                <path d="M5104.367,3185.868L5953.515,3165.077L4673.627,7666.805L3499.087,7666.805L5104.367,3185.868Z" style="fill:rgb(231,190,106);"/>
            </g>
        </g>
        <path d="M657.8,-182.102C657.8,-176.333 651.372,-167.104 638.517,-154.416C625.661,-141.727 613.889,-133.51 603.2,-129.763C602.622,-132.647 602.044,-138.703 601.467,-147.929C600.889,-157.156 600.6,-165.229 600.6,-172.148C600.6,-177.628 600.889,-181.522 601.467,-183.828L592.8,-183.828C588.467,-183.828 584.711,-182.386 581.533,-179.502C578.356,-176.622 576.767,-173.306 576.767,-169.555L576.767,3.033L524.767,3.033L524.767,-110.94C524.767,-117.72 524.911,-124.281 525.2,-130.623C525.2,-150.809 522.672,-166.093 517.617,-176.475C512.561,-186.857 501.656,-194.21 484.9,-198.534L484.9,-202.861C487.211,-205.456 495.228,-211.945 508.95,-222.327C522.672,-232.709 530.544,-237.9 532.567,-237.9C541.233,-237.9 549.467,-232.772 557.267,-222.517C565.067,-212.261 571.567,-203.667 576.767,-196.733C588.322,-205.978 599.733,-215.15 611,-224.25C622.267,-233.35 628.767,-237.9 630.5,-237.9C634.256,-237.9 639.744,-232.492 646.967,-221.677C654.189,-210.866 657.8,-197.674 657.8,-182.102Z" style="fill:rgb(201,135,0);fill-rule:nonzero;"/>
        <clipPath id="_clip3">
            <path d="M657.8,-182.102C657.8,-176.333 651.372,-167.104 638.517,-154.416C625.661,-141.727 613.889,-133.51 603.2,-129.763C602.622,-132.647 602.044,-138.703 601.467,-147.929C600.889,-157.156 600.6,-165.229 600.6,-172.148C600.6,-177.628 600.889,-181.522 601.467,-183.828L592.8,-183.828C588.467,-183.828 584.711,-182.386 581.533,-179.502C578.356,-176.622 576.767,-173.306 576.767,-169.555L576.767,3.033L524.767,3.033L524.767,-110.94C524.767,-117.72 524.911,-124.281 525.2,-130.623C525.2,-150.809 522.672,-166.093 517.617,-176.475C512.561,-186.857 501.656,-194.21 484.9,-198.534L484.9,-202.861C487.211,-205.456 495.228,-211.945 508.95,-222.327C522.672,-232.709 530.544,-237.9 532.567,-237.9C541.233,-237.9 549.467,-232.772 557.267,-222.517C565.067,-212.261 571.567,-203.667 576.767,-196.733C588.322,-205.978 599.733,-215.15 611,-224.25C622.267,-233.35 628.767,-237.9 630.5,-237.9C634.256,-237.9 639.744,-232.492 646.967,-221.677C654.189,-210.866 657.8,-197.674 657.8,-182.102Z" clip-rule="nonzero"/>
        </clipPath>
        <g clip-path="url(#_clip3)">
            <g transform="matrix(0.819735,0,0,1,-3755.180588,-6244.678478)">
                <path d="M4859.836,3185.868L5405.376,3185.868L4309.882,7666.805L3726.587,7666.805L4859.836,3185.868Z" style="fill:rgb(231,190,106);"/>
            </g>
            <g transform="matrix(0.753613,0,0,1.245803,-2649.240084,-8129.205289)">
                <path d="M5104.367,3185.868L5953.515,3165.077L4673.627,7666.805L3499.087,7666.805L5104.367,3185.868Z" style="fill:rgb(231,190,106);"/>
            </g>
        </g>
        <path d="M817.7,-204.1L765.267,-204.1L765.267,-76.7C765.267,-63.989 769.889,-54.528 779.133,-48.317C788.378,-42.106 799.789,-39 813.367,-39L813.367,-31.119C798.922,-19.735 787.583,-11.197 779.35,-5.505C771.117,0.187 765.844,3.033 763.533,3.033C755.156,3.033 744.394,-2.659 731.25,-14.043C718.106,-25.431 711.533,-38.479 711.533,-53.185L711.533,-198.48C708.644,-200.498 705.683,-201.938 702.65,-202.8C699.617,-203.667 696.8,-204.1 694.2,-204.1L673.4,-204.1L673.4,-226.633L749.233,-293.367L763.533,-293.367C763.533,-286.722 763.678,-280.656 763.967,-275.167C764.256,-269.678 764.544,-264.189 764.833,-258.7C764.833,-252.922 764.4,-246.567 763.533,-239.633L817.7,-239.633L817.7,-204.1Z" style="fill:rgb(201,135,0);fill-rule:nonzero;"/>
        <clipPath id="_clip4">
            <path d="M817.7,-204.1L765.267,-204.1L765.267,-76.7C765.267,-63.989 769.889,-54.528 779.133,-48.317C788.378,-42.106 799.789,-39 813.367,-39L813.367,-31.119C798.922,-19.735 787.583,-11.197 779.35,-5.505C771.117,0.187 765.844,3.033 763.533,3.033C755.156,3.033 744.394,-2.659 731.25,-14.043C718.106,-25.431 711.533,-38.479 711.533,-53.185L711.533,-198.48C708.644,-200.498 705.683,-201.938 702.65,-202.8C699.617,-203.667 696.8,-204.1 694.2,-204.1L673.4,-204.1L673.4,-226.633L749.233,-293.367L763.533,-293.367C763.533,-286.722 763.678,-280.656 763.967,-275.167C764.256,-269.678 764.544,-264.189 764.833,-258.7C764.833,-252.922 764.4,-246.567 763.533,-239.633L817.7,-239.633L817.7,-204.1Z" clip-rule="nonzero"/>
        </clipPath>
        <g clip-path="url(#_clip4)">
            <g transform="matrix(0.819735,0,0,1,-3755.180588,-6244.678478)">
                <path d="M4859.836,3185.868L5405.376,3185.868L4309.882,7666.805L3726.587,7666.805L4859.836,3185.868Z" style="fill:rgb(231,190,106);"/>
            </g>
            <g transform="matrix(0.753613,0,0,1.245803,-2649.240084,-8129.205289)">
                <path d="M5104.367,3185.868L5953.515,3165.077L4673.627,7666.805L3499.087,7666.805L5104.367,3185.868Z" style="fill:rgb(231,190,106);"/>
            </g>
        </g>
        <path d="M935.567,-338L935.567,-328.9C935.567,-326.011 935.711,-323.411 936,-321.1C936,-314.167 932.533,-309.4 925.6,-306.8C907.4,-301.6 887.756,-295.822 866.667,-289.467C866.089,-291.778 865.8,-293.511 865.8,-294.667C866.378,-298.422 866.667,-301.6 866.667,-304.2C866.667,-314.022 872.517,-322.111 884.217,-328.467C895.917,-334.822 910.867,-342.911 929.067,-352.733L935.567,-352.733C936.433,-349.267 936.867,-346.378 936.867,-344.067C936.867,-341.467 936.722,-339.878 936.433,-339.3C936.144,-338.722 935.856,-338.289 935.567,-338ZM967.2,-23.833C964.889,-21.811 956.15,-16.394 940.983,-7.583C925.817,1.228 917.078,5.633 914.767,5.633C906.1,-1.3 897.361,-8.739 888.55,-16.683C879.739,-24.628 875.333,-31.2 875.333,-36.4L875.333,-165.967C875.333,-176.367 869.7,-184.744 858.433,-191.1C847.167,-197.456 841.533,-201.789 841.533,-204.1C849.622,-211.9 857.928,-219.7 866.45,-227.5C874.972,-235.3 880.533,-239.2 883.133,-239.2C893.533,-232.267 903.789,-224.106 913.9,-214.717C924.011,-205.328 929.067,-194.711 929.067,-182.867L929.067,-105.3C929.067,-79.3 931.017,-60.956 934.917,-50.267C938.817,-39.578 949.578,-33.511 967.2,-32.067L967.2,-23.833Z" style="fill:rgb(201,135,0);fill-rule:nonzero;"/>
        <clipPath id="_clip5">
            <path d="M935.567,-338L935.567,-328.9C935.567,-326.011 935.711,-323.411 936,-321.1C936,-314.167 932.533,-309.4 925.6,-306.8C907.4,-301.6 887.756,-295.822 866.667,-289.467C866.089,-291.778 865.8,-293.511 865.8,-294.667C866.378,-298.422 866.667,-301.6 866.667,-304.2C866.667,-314.022 872.517,-322.111 884.217,-328.467C895.917,-334.822 910.867,-342.911 929.067,-352.733L935.567,-352.733C936.433,-349.267 936.867,-346.378 936.867,-344.067C936.867,-341.467 936.722,-339.878 936.433,-339.3C936.144,-338.722 935.856,-338.289 935.567,-338ZM967.2,-23.833C964.889,-21.811 956.15,-16.394 940.983,-7.583C925.817,1.228 917.078,5.633 914.767,5.633C906.1,-1.3 897.361,-8.739 888.55,-16.683C879.739,-24.628 875.333,-31.2 875.333,-36.4L875.333,-165.967C875.333,-176.367 869.7,-184.744 858.433,-191.1C847.167,-197.456 841.533,-201.789 841.533,-204.1C849.622,-211.9 857.928,-219.7 866.45,-227.5C874.972,-235.3 880.533,-239.2 883.133,-239.2C893.533,-232.267 903.789,-224.106 913.9,-214.717C924.011,-205.328 929.067,-194.711 929.067,-182.867L929.067,-105.3C929.067,-79.3 931.017,-60.956 934.917,-50.267C938.817,-39.578 949.578,-33.511 967.2,-32.067L967.2,-23.833Z" clip-rule="nonzero"/>
        </clipPath>
        <g clip-path="url(#_clip5)">
            <g transform="matrix(0.819735,0,0,1,-3755.180588,-6244.678478)">
                <path d="M4859.836,3185.868L5405.376,3185.868L4309.882,7666.805L3726.587,7666.805L4859.836,3185.868Z" style="fill:rgb(231,190,106);"/>
            </g>
            <g transform="matrix(0.753613,0,0,1.245803,-2649.240084,-8129.205289)">
                <path d="M5104.367,3185.868L5953.515,3165.077L4673.627,7666.805L3499.087,7666.805L5104.367,3185.868Z" style="fill:rgb(231,190,106);"/>
            </g>
        </g>
        <path d="M1136.2,-61.967C1125.222,-40.3 1115.544,-23.906 1107.167,-12.783C1098.789,-1.661 1082.467,3.9 1058.2,3.9C1036.533,3.9 1017.683,-4.552 1001.65,-21.457C985.617,-38.366 977.6,-55.491 977.6,-72.834L977.6,-169.508C977.6,-175.001 982.511,-180.637 992.333,-186.415C1002.156,-192.197 1017.683,-202.24 1038.917,-216.545C1060.15,-230.854 1071.922,-238.008 1074.233,-238.008C1085.5,-230.479 1097.272,-222.731 1109.55,-214.764C1121.828,-206.802 1129.989,-200.794 1134.033,-196.74C1132.878,-193.558 1127.894,-186.189 1119.083,-174.633C1110.272,-163.078 1105,-157.3 1103.267,-157.3C1101.244,-157.3 1092.289,-163.439 1076.4,-175.717C1060.511,-187.994 1048.811,-194.133 1041.3,-194.133C1038.7,-194.133 1035.956,-192.544 1033.067,-189.367C1030.178,-186.189 1028.733,-183.011 1028.733,-179.833L1028.733,-88.833C1028.733,-78.722 1033.067,-69.333 1041.733,-60.667C1050.4,-52 1061.233,-47.667 1074.233,-47.667C1083.478,-47.667 1093.517,-50.194 1104.35,-55.25C1115.183,-60.306 1123.778,-66.156 1130.133,-72.8L1136.2,-72.8L1136.2,-61.967Z" style="fill:rgb(201,135,0);fill-rule:nonzero;"/>
        <clipPath id="_clip6">
            <path d="M1136.2,-61.967C1125.222,-40.3 1115.544,-23.906 1107.167,-12.783C1098.789,-1.661 1082.467,3.9 1058.2,3.9C1036.533,3.9 1017.683,-4.552 1001.65,-21.457C985.617,-38.366 977.6,-55.491 977.6,-72.834L977.6,-169.508C977.6,-175.001 982.511,-180.637 992.333,-186.415C1002.156,-192.197 1017.683,-202.24 1038.917,-216.545C1060.15,-230.854 1071.922,-238.008 1074.233,-238.008C1085.5,-230.479 1097.272,-222.731 1109.55,-214.764C1121.828,-206.802 1129.989,-200.794 1134.033,-196.74C1132.878,-193.558 1127.894,-186.189 1119.083,-174.633C1110.272,-163.078 1105,-157.3 1103.267,-157.3C1101.244,-157.3 1092.289,-163.439 1076.4,-175.717C1060.511,-187.994 1048.811,-194.133 1041.3,-194.133C1038.7,-194.133 1035.956,-192.544 1033.067,-189.367C1030.178,-186.189 1028.733,-183.011 1028.733,-179.833L1028.733,-88.833C1028.733,-78.722 1033.067,-69.333 1041.733,-60.667C1050.4,-52 1061.233,-47.667 1074.233,-47.667C1083.478,-47.667 1093.517,-50.194 1104.35,-55.25C1115.183,-60.306 1123.778,-66.156 1130.133,-72.8L1136.2,-72.8L1136.2,-61.967Z" clip-rule="nonzero"/>
        </clipPath>
        <g clip-path="url(#_clip6)">
            <g transform="matrix(0.819735,0,0,1,-3755.180588,-6244.678478)">
                <path d="M4859.836,3185.868L5405.376,3185.868L4309.882,7666.805L3726.587,7666.805L4859.836,3185.868Z" style="fill:rgb(231,190,106);"/>
            </g>
            <g transform="matrix(0.753613,0,0,1.245803,-2649.240084,-8129.205289)">
                <path d="M5104.367,3185.868L5953.515,3165.077L4673.627,7666.805L3499.087,7666.805L5104.367,3185.868Z" style="fill:rgb(231,190,106);"/>
            </g>
        </g>
        <path d="M1255.367,-338L1255.367,-328.9C1255.367,-326.011 1255.511,-323.411 1255.8,-321.1C1255.8,-314.167 1252.333,-309.4 1245.4,-306.8C1227.2,-301.6 1207.556,-295.822 1186.467,-289.467C1185.889,-291.778 1185.6,-293.511 1185.6,-294.667C1186.178,-298.422 1186.467,-301.6 1186.467,-304.2C1186.467,-314.022 1192.317,-322.111 1204.017,-328.467C1215.717,-334.822 1230.667,-342.911 1248.867,-352.733L1255.367,-352.733C1256.233,-349.267 1256.667,-346.378 1256.667,-344.067C1256.667,-341.467 1256.522,-339.878 1256.233,-339.3C1255.944,-338.722 1255.656,-338.289 1255.367,-338ZM1287,-23.833C1284.689,-21.811 1275.95,-16.394 1260.783,-7.583C1245.617,1.228 1236.878,5.633 1234.567,5.633C1225.9,-1.3 1217.161,-8.739 1208.35,-16.683C1199.539,-24.628 1195.133,-31.2 1195.133,-36.4L1195.133,-165.967C1195.133,-176.367 1189.5,-184.744 1178.233,-191.1C1166.967,-197.456 1161.333,-201.789 1161.333,-204.1C1169.422,-211.9 1177.728,-219.7 1186.25,-227.5C1194.772,-235.3 1200.333,-239.2 1202.933,-239.2C1213.333,-232.267 1223.589,-224.106 1233.7,-214.717C1243.811,-205.328 1248.867,-194.711 1248.867,-182.867L1248.867,-105.3C1248.867,-79.3 1250.817,-60.956 1254.717,-50.267C1258.617,-39.578 1269.378,-33.511 1287,-32.067L1287,-23.833Z" style="fill:rgb(201,135,0);fill-rule:nonzero;"/>
        <clipPath id="_clip7">
            <path d="M1255.367,-338L1255.367,-328.9C1255.367,-326.011 1255.511,-323.411 1255.8,-321.1C1255.8,-314.167 1252.333,-309.4 1245.4,-306.8C1227.2,-301.6 1207.556,-295.822 1186.467,-289.467C1185.889,-291.778 1185.6,-293.511 1185.6,-294.667C1186.178,-298.422 1186.467,-301.6 1186.467,-304.2C1186.467,-314.022 1192.317,-322.111 1204.017,-328.467C1215.717,-334.822 1230.667,-342.911 1248.867,-352.733L1255.367,-352.733C1256.233,-349.267 1256.667,-346.378 1256.667,-344.067C1256.667,-341.467 1256.522,-339.878 1256.233,-339.3C1255.944,-338.722 1255.656,-338.289 1255.367,-338ZM1287,-23.833C1284.689,-21.811 1275.95,-16.394 1260.783,-7.583C1245.617,1.228 1236.878,5.633 1234.567,5.633C1225.9,-1.3 1217.161,-8.739 1208.35,-16.683C1199.539,-24.628 1195.133,-31.2 1195.133,-36.4L1195.133,-165.967C1195.133,-176.367 1189.5,-184.744 1178.233,-191.1C1166.967,-197.456 1161.333,-201.789 1161.333,-204.1C1169.422,-211.9 1177.728,-219.7 1186.25,-227.5C1194.772,-235.3 1200.333,-239.2 1202.933,-239.2C1213.333,-232.267 1223.589,-224.106 1233.7,-214.717C1243.811,-205.328 1248.867,-194.711 1248.867,-182.867L1248.867,-105.3C1248.867,-79.3 1250.817,-60.956 1254.717,-50.267C1258.617,-39.578 1269.378,-33.511 1287,-32.067L1287,-23.833Z" clip-rule="nonzero"/>
        </clipPath>
        <g clip-path="url(#_clip7)">
            <g transform="matrix(0.819735,0,0,1,-3755.180588,-6244.678478)">
                <path d="M4859.836,3185.868L5405.376,3185.868L4309.882,7666.805L3726.587,7666.805L4859.836,3185.868Z" style="fill:rgb(231,190,106);"/>
            </g>
            <g transform="matrix(0.753613,0,0,1.245803,-2649.240084,-8129.205289)">
                <path d="M5104.367,3185.868L5953.515,3165.077L4673.627,7666.805L3499.087,7666.805L5104.367,3185.868Z" style="fill:rgb(231,190,106);"/>
            </g>
        </g>
        <path d="M1517.533,-134.144C1517.533,-98.547 1506.989,-66.785 1485.9,-38.858C1464.811,-10.93 1440.111,3.033 1411.8,3.033C1407.178,3.033 1400.244,-0.056 1391,-6.236C1381.756,-12.42 1374.1,-17.13 1368.033,-20.367L1368.033,101.833L1318.633,101.833L1318.633,-39C1318.633,-62.111 1318.489,-79.661 1318.2,-91.65C1317.911,-103.639 1317.333,-114.4 1316.467,-123.933C1316.467,-148.778 1314.156,-167.7 1309.533,-180.7C1304.333,-188.5 1299.133,-196.444 1293.933,-204.533C1293.933,-208.289 1300.939,-213.2 1314.95,-219.267C1328.961,-225.333 1344.633,-233.567 1361.967,-243.967L1368.033,-243.967L1368.033,-202.367C1378.722,-204.1 1389.989,-211.467 1401.833,-224.467C1413.678,-237.467 1423.067,-243.967 1430,-243.967C1448.489,-243.967 1467.7,-234.126 1487.633,-214.446C1507.567,-194.77 1517.533,-168.002 1517.533,-134.144ZM1478.1,-100.703C1478.1,-124.468 1469.794,-144.248 1453.183,-160.042C1436.572,-175.836 1420.611,-183.733 1405.3,-183.733C1402.122,-183.733 1397.789,-183.081 1392.3,-181.777C1386.811,-180.472 1379.589,-177.791 1370.633,-173.733L1370.633,-106.79C1370.633,-84.473 1377.133,-68.968 1390.133,-60.274C1403.133,-51.58 1415.122,-47.233 1426.1,-47.233C1444.878,-47.233 1458.239,-53.101 1466.183,-64.838C1474.128,-76.578 1478.1,-88.533 1478.1,-100.703Z" style="fill:rgb(201,135,0);fill-rule:nonzero;"/>
        <clipPath id="_clip8">
            <path d="M1517.533,-134.144C1517.533,-98.547 1506.989,-66.785 1485.9,-38.858C1464.811,-10.93 1440.111,3.033 1411.8,3.033C1407.178,3.033 1400.244,-0.056 1391,-6.236C1381.756,-12.42 1374.1,-17.13 1368.033,-20.367L1368.033,101.833L1318.633,101.833L1318.633,-39C1318.633,-62.111 1318.489,-79.661 1318.2,-91.65C1317.911,-103.639 1317.333,-114.4 1316.467,-123.933C1316.467,-148.778 1314.156,-167.7 1309.533,-180.7C1304.333,-188.5 1299.133,-196.444 1293.933,-204.533C1293.933,-208.289 1300.939,-213.2 1314.95,-219.267C1328.961,-225.333 1344.633,-233.567 1361.967,-243.967L1368.033,-243.967L1368.033,-202.367C1378.722,-204.1 1389.989,-211.467 1401.833,-224.467C1413.678,-237.467 1423.067,-243.967 1430,-243.967C1448.489,-243.967 1467.7,-234.126 1487.633,-214.446C1507.567,-194.77 1517.533,-168.002 1517.533,-134.144ZM1478.1,-100.703C1478.1,-124.468 1469.794,-144.248 1453.183,-160.042C1436.572,-175.836 1420.611,-183.733 1405.3,-183.733C1402.122,-183.733 1397.789,-183.081 1392.3,-181.777C1386.811,-180.472 1379.589,-177.791 1370.633,-173.733L1370.633,-106.79C1370.633,-84.473 1377.133,-68.968 1390.133,-60.274C1403.133,-51.58 1415.122,-47.233 1426.1,-47.233C1444.878,-47.233 1458.239,-53.101 1466.183,-64.838C1474.128,-76.578 1478.1,-88.533 1478.1,-100.703Z" clip-rule="nonzero"/>
        </clipPath>
        <g clip-path="url(#_clip8)">
            <g transform="matrix(0.819735,0,0,1,-3755.180588,-6244.678478)">
                <path d="M4859.836,3185.868L5405.376,3185.868L4309.882,7666.805L3726.587,7666.805L4859.836,3185.868Z" style="fill:rgb(231,190,106);"/>
            </g>
            <g transform="matrix(0.753613,0,0,1.245803,-2649.240084,-8129.205289)">
                <path d="M5104.367,3185.868L5953.515,3165.077L4673.627,7666.805L3499.087,7666.805L5104.367,3185.868Z" style="fill:rgb(231,190,106);"/>
            </g>
        </g>
        <path d="M1686.1,-83.633L1686.1,-167.267C1678.878,-174.778 1670.572,-180.989 1661.183,-185.9C1651.794,-190.811 1643.2,-195.144 1635.4,-198.9C1625,-198.9 1615.394,-189.656 1606.583,-171.167C1597.772,-152.678 1593.367,-138.811 1593.367,-129.567C1593.367,-110.5 1599.722,-94.178 1612.433,-80.6C1625.144,-67.022 1636.989,-60.233 1647.967,-60.233C1660.678,-60.233 1670.211,-62.978 1676.567,-68.467C1682.922,-73.956 1686.1,-79.011 1686.1,-83.633ZM1744.167,-61.967C1744.167,-57.922 1748.283,-51.928 1756.517,-43.983C1764.75,-36.039 1768.867,-31.633 1768.867,-30.767C1768.867,-29.9 1762.006,-23.906 1748.283,-12.783C1734.561,-1.661 1726.978,3.9 1725.533,3.9C1717.733,-1.011 1709.933,-7.078 1702.133,-14.3C1694.333,-21.522 1690.433,-30.767 1690.433,-42.033L1681.767,-45.5C1677.433,-41.456 1666.528,-32.789 1649.05,-19.5C1631.572,-6.211 1622.111,0.433 1620.667,0.433C1603.911,0.433 1586.072,-10.472 1567.15,-32.283C1548.228,-54.094 1538.767,-77.567 1538.767,-102.7C1538.767,-121.189 1542.233,-137.222 1549.167,-150.8C1556.1,-164.378 1563.683,-175.356 1571.917,-183.733C1580.15,-192.111 1596.256,-205.906 1620.233,-225.117C1644.211,-244.328 1657.789,-253.933 1660.967,-253.933L1713.4,-224.467C1724.378,-218.689 1735.356,-212.911 1746.333,-207.133C1756.444,-200.778 1761.5,-196.011 1761.5,-192.833C1761.5,-189.656 1758.322,-185.178 1751.967,-179.4C1745.611,-173.622 1742.433,-167.556 1742.433,-161.2L1742.433,-94.033C1741.567,-88.544 1740.772,-82.911 1740.05,-77.133C1739.328,-71.356 1738.967,-67.167 1738.967,-64.567C1738.967,-60.522 1739.544,-58.5 1740.7,-58.5C1741.278,-58.5 1741.928,-58.933 1742.65,-59.8C1743.372,-60.667 1743.878,-61.389 1744.167,-61.967Z" style="fill:rgb(201,135,0);fill-rule:nonzero;"/>
        <clipPath id="_clip9">
            <path d="M1686.1,-83.633L1686.1,-167.267C1678.878,-174.778 1670.572,-180.989 1661.183,-185.9C1651.794,-190.811 1643.2,-195.144 1635.4,-198.9C1625,-198.9 1615.394,-189.656 1606.583,-171.167C1597.772,-152.678 1593.367,-138.811 1593.367,-129.567C1593.367,-110.5 1599.722,-94.178 1612.433,-80.6C1625.144,-67.022 1636.989,-60.233 1647.967,-60.233C1660.678,-60.233 1670.211,-62.978 1676.567,-68.467C1682.922,-73.956 1686.1,-79.011 1686.1,-83.633ZM1744.167,-61.967C1744.167,-57.922 1748.283,-51.928 1756.517,-43.983C1764.75,-36.039 1768.867,-31.633 1768.867,-30.767C1768.867,-29.9 1762.006,-23.906 1748.283,-12.783C1734.561,-1.661 1726.978,3.9 1725.533,3.9C1717.733,-1.011 1709.933,-7.078 1702.133,-14.3C1694.333,-21.522 1690.433,-30.767 1690.433,-42.033L1681.767,-45.5C1677.433,-41.456 1666.528,-32.789 1649.05,-19.5C1631.572,-6.211 1622.111,0.433 1620.667,0.433C1603.911,0.433 1586.072,-10.472 1567.15,-32.283C1548.228,-54.094 1538.767,-77.567 1538.767,-102.7C1538.767,-121.189 1542.233,-137.222 1549.167,-150.8C1556.1,-164.378 1563.683,-175.356 1571.917,-183.733C1580.15,-192.111 1596.256,-205.906 1620.233,-225.117C1644.211,-244.328 1657.789,-253.933 1660.967,-253.933L1713.4,-224.467C1724.378,-218.689 1735.356,-212.911 1746.333,-207.133C1756.444,-200.778 1761.5,-196.011 1761.5,-192.833C1761.5,-189.656 1758.322,-185.178 1751.967,-179.4C1745.611,-173.622 1742.433,-167.556 1742.433,-161.2L1742.433,-94.033C1741.567,-88.544 1740.772,-82.911 1740.05,-77.133C1739.328,-71.356 1738.967,-67.167 1738.967,-64.567C1738.967,-60.522 1739.544,-58.5 1740.7,-58.5C1741.278,-58.5 1741.928,-58.933 1742.65,-59.8C1743.372,-60.667 1743.878,-61.389 1744.167,-61.967Z" clip-rule="nonzero"/>
        </clipPath>
        <g clip-path="url(#_clip9)">
            <g transform="matrix(0.819735,0,0,1,-3755.180588,-6244.678478)">
                <path d="M4859.836,3185.868L5405.376,3185.868L4309.882,7666.805L3726.587,7666.805L4859.836,3185.868Z" style="fill:rgb(231,190,106);"/>
            </g>
            <g transform="matrix(0.753613,0,0,1.245803,-2649.240084,-8129.205289)">
                <path d="M5104.367,3185.868L5953.515,3165.077L4673.627,7666.805L3499.087,7666.805L5104.367,3185.868Z" style="fill:rgb(231,190,106);"/>
            </g>
        </g>
        <path d="M2010.667,-3.033C2007.489,-1.589 2003.011,-0.867 1997.233,-0.867C1994.922,-0.867 1988.35,-1.228 1977.517,-1.95C1966.683,-2.672 1958.956,-3.033 1954.333,-3.033L1954.333,-142.215C1954.333,-159.268 1951.733,-171.119 1946.533,-177.768C1941.333,-184.417 1931.656,-187.742 1917.5,-187.742C1908.256,-187.742 1898.722,-185.862 1888.9,-182.102C1879.078,-178.346 1874.167,-174.01 1874.167,-169.095L1874.167,0.867L1821.733,0.867L1821.733,-171.167C1821.733,-177.522 1818.411,-182.867 1811.767,-187.2C1805.122,-191.533 1795.3,-196.011 1782.3,-200.633L1782.3,-206.7L1829.967,-241.8C1845.567,-234.867 1856.833,-227.789 1863.767,-220.567C1868.389,-213.922 1873.156,-207.278 1878.067,-200.633L1942.2,-244.075C1967.911,-237.137 1985.75,-229.188 1995.717,-220.228C2005.683,-211.273 2010.667,-195.81 2010.667,-173.841L2010.667,-3.033Z" style="fill:rgb(201,135,0);fill-rule:nonzero;"/>
        <clipPath id="_clip10">
            <path d="M2010.667,-3.033C2007.489,-1.589 2003.011,-0.867 1997.233,-0.867C1994.922,-0.867 1988.35,-1.228 1977.517,-1.95C1966.683,-2.672 1958.956,-3.033 1954.333,-3.033L1954.333,-142.215C1954.333,-159.268 1951.733,-171.119 1946.533,-177.768C1941.333,-184.417 1931.656,-187.742 1917.5,-187.742C1908.256,-187.742 1898.722,-185.862 1888.9,-182.102C1879.078,-178.346 1874.167,-174.01 1874.167,-169.095L1874.167,0.867L1821.733,0.867L1821.733,-171.167C1821.733,-177.522 1818.411,-182.867 1811.767,-187.2C1805.122,-191.533 1795.3,-196.011 1782.3,-200.633L1782.3,-206.7L1829.967,-241.8C1845.567,-234.867 1856.833,-227.789 1863.767,-220.567C1868.389,-213.922 1873.156,-207.278 1878.067,-200.633L1942.2,-244.075C1967.911,-237.137 1985.75,-229.188 1995.717,-220.228C2005.683,-211.273 2010.667,-195.81 2010.667,-173.841L2010.667,-3.033Z" clip-rule="nonzero"/>
        </clipPath>
        <g clip-path="url(#_clip10)">
            <g transform="matrix(0.819735,0,0,1,-3755.180588,-6244.678478)">
                <path d="M4859.836,3185.868L5405.376,3185.868L4309.882,7666.805L3726.587,7666.805L4859.836,3185.868Z" style="fill:rgb(231,190,106);"/>
            </g>
            <g transform="matrix(0.753613,0,0,1.245803,-2649.240084,-8129.205289)">
                <path d="M5104.367,3185.868L5953.515,3165.077L4673.627,7666.805L3499.087,7666.805L5104.367,3185.868Z" style="fill:rgb(231,190,106);"/>
            </g>
        </g>
        <path d="M2183.133,-204.1L2130.7,-204.1L2130.7,-76.7C2130.7,-63.989 2135.322,-54.528 2144.567,-48.317C2153.811,-42.106 2165.222,-39 2178.8,-39L2178.8,-31.119C2164.356,-19.735 2153.017,-11.197 2144.783,-5.505C2136.55,0.187 2131.278,3.033 2128.967,3.033C2120.589,3.033 2109.828,-2.659 2096.683,-14.043C2083.539,-25.431 2076.967,-38.479 2076.967,-53.185L2076.967,-198.48C2074.078,-200.498 2071.117,-201.938 2068.083,-202.8C2065.05,-203.667 2062.233,-204.1 2059.633,-204.1L2038.833,-204.1L2038.833,-226.633L2114.667,-293.367L2128.967,-293.367C2128.967,-286.722 2129.111,-280.656 2129.4,-275.167C2129.689,-269.678 2129.978,-264.189 2130.267,-258.7C2130.267,-252.922 2129.833,-246.567 2128.967,-239.633L2183.133,-239.633L2183.133,-204.1Z" style="fill:rgb(201,135,0);fill-rule:nonzero;"/>
        <clipPath id="_clip11">
            <path d="M2183.133,-204.1L2130.7,-204.1L2130.7,-76.7C2130.7,-63.989 2135.322,-54.528 2144.567,-48.317C2153.811,-42.106 2165.222,-39 2178.8,-39L2178.8,-31.119C2164.356,-19.735 2153.017,-11.197 2144.783,-5.505C2136.55,0.187 2131.278,3.033 2128.967,3.033C2120.589,3.033 2109.828,-2.659 2096.683,-14.043C2083.539,-25.431 2076.967,-38.479 2076.967,-53.185L2076.967,-198.48C2074.078,-200.498 2071.117,-201.938 2068.083,-202.8C2065.05,-203.667 2062.233,-204.1 2059.633,-204.1L2038.833,-204.1L2038.833,-226.633L2114.667,-293.367L2128.967,-293.367C2128.967,-286.722 2129.111,-280.656 2129.4,-275.167C2129.689,-269.678 2129.978,-264.189 2130.267,-258.7C2130.267,-252.922 2129.833,-246.567 2128.967,-239.633L2183.133,-239.633L2183.133,-204.1Z" clip-rule="nonzero"/>
        </clipPath>
        <g clip-path="url(#_clip11)">
            <g transform="matrix(0.819735,0,0,1,-3755.180588,-6244.678478)">
                <path d="M4859.836,3185.868L5405.376,3185.868L4309.882,7666.805L3726.587,7666.805L4859.836,3185.868Z" style="fill:rgb(231,190,106);"/>
            </g>
            <g transform="matrix(0.753613,0,0,1.245803,-2649.240084,-8129.205289)">
                <path d="M5104.367,3185.868L5953.515,3165.077L4673.627,7666.805L3499.087,7666.805L5104.367,3185.868Z" style="fill:rgb(231,190,106);"/>
            </g>
        </g>
        <path d="M2390.7,-87.533C2390.7,-62.4 2381.744,-40.878 2363.833,-22.967C2345.922,-5.056 2323.678,3.9 2297.1,3.9C2277.744,3.9 2256.294,-3.756 2232.75,-19.067C2209.206,-34.378 2197.433,-48.967 2197.433,-62.833C2197.433,-65.433 2203.717,-69.983 2216.283,-76.483C2228.85,-82.983 2239.756,-87.967 2249,-91.433L2249,-70.633C2249,-56.767 2253.55,-45.428 2262.65,-36.617C2271.75,-27.806 2283.233,-23.4 2297.1,-23.4C2310.389,-23.4 2321.656,-27.733 2330.9,-36.4C2340.144,-45.067 2344.767,-55.9 2344.767,-68.9C2344.767,-80.744 2340.65,-91.939 2332.417,-102.483C2324.183,-113.028 2314.433,-118.3 2303.167,-118.3C2293.056,-118.3 2279.189,-114.544 2261.567,-107.033C2243.944,-99.522 2233.544,-95.767 2230.367,-95.767C2224.3,-103.567 2218.306,-112.883 2212.383,-123.717C2206.461,-134.55 2203.5,-148.2 2203.5,-164.667C2203.5,-187.489 2212.961,-206.7 2231.883,-222.3C2250.806,-237.9 2271.244,-245.7 2293.2,-245.7C2308.511,-245.7 2325.844,-240.356 2345.2,-229.667C2364.556,-218.978 2376.978,-206.267 2382.467,-191.533L2330.033,-162.5C2325.7,-180.411 2321.222,-194.278 2316.6,-204.1C2311.978,-213.922 2301.289,-218.833 2284.533,-218.833C2274.711,-218.833 2266.333,-215.078 2259.4,-207.567C2252.467,-200.056 2249,-191.244 2249,-181.133C2249,-169.578 2252.9,-159.467 2260.7,-150.8C2268.5,-142.133 2277.167,-137.8 2286.7,-137.8C2297.678,-137.8 2312.7,-142.278 2331.767,-151.233C2350.833,-160.189 2360.8,-164.667 2361.667,-164.667C2368.022,-157.444 2374.45,-148.128 2380.95,-136.717C2387.45,-125.306 2390.7,-108.911 2390.7,-87.533Z" style="fill:rgb(201,135,0);fill-rule:nonzero;"/>
        <clipPath id="_clip12">
            <path d="M2390.7,-87.533C2390.7,-62.4 2381.744,-40.878 2363.833,-22.967C2345.922,-5.056 2323.678,3.9 2297.1,3.9C2277.744,3.9 2256.294,-3.756 2232.75,-19.067C2209.206,-34.378 2197.433,-48.967 2197.433,-62.833C2197.433,-65.433 2203.717,-69.983 2216.283,-76.483C2228.85,-82.983 2239.756,-87.967 2249,-91.433L2249,-70.633C2249,-56.767 2253.55,-45.428 2262.65,-36.617C2271.75,-27.806 2283.233,-23.4 2297.1,-23.4C2310.389,-23.4 2321.656,-27.733 2330.9,-36.4C2340.144,-45.067 2344.767,-55.9 2344.767,-68.9C2344.767,-80.744 2340.65,-91.939 2332.417,-102.483C2324.183,-113.028 2314.433,-118.3 2303.167,-118.3C2293.056,-118.3 2279.189,-114.544 2261.567,-107.033C2243.944,-99.522 2233.544,-95.767 2230.367,-95.767C2224.3,-103.567 2218.306,-112.883 2212.383,-123.717C2206.461,-134.55 2203.5,-148.2 2203.5,-164.667C2203.5,-187.489 2212.961,-206.7 2231.883,-222.3C2250.806,-237.9 2271.244,-245.7 2293.2,-245.7C2308.511,-245.7 2325.844,-240.356 2345.2,-229.667C2364.556,-218.978 2376.978,-206.267 2382.467,-191.533L2330.033,-162.5C2325.7,-180.411 2321.222,-194.278 2316.6,-204.1C2311.978,-213.922 2301.289,-218.833 2284.533,-218.833C2274.711,-218.833 2266.333,-215.078 2259.4,-207.567C2252.467,-200.056 2249,-191.244 2249,-181.133C2249,-169.578 2252.9,-159.467 2260.7,-150.8C2268.5,-142.133 2277.167,-137.8 2286.7,-137.8C2297.678,-137.8 2312.7,-142.278 2331.767,-151.233C2350.833,-160.189 2360.8,-164.667 2361.667,-164.667C2368.022,-157.444 2374.45,-148.128 2380.95,-136.717C2387.45,-125.306 2390.7,-108.911 2390.7,-87.533Z" clip-rule="nonzero"/>
        </clipPath>
        <g clip-path="url(#_clip12)">
            <g transform="matrix(0.819735,0,0,1,-3755.180588,-6244.678478)">
                <path d="M4859.836,3185.868L5405.376,3185.868L4309.882,7666.805L3726.587,7666.805L4859.836,3185.868Z" style="fill:rgb(231,190,106);"/>
            </g>
            <g transform="matrix(0.753613,0,0,1.245803,-2649.240084,-8129.205289)">
                <path d="M5104.367,3185.868L5953.515,3165.077L4673.627,7666.805L3499.087,7666.805L5104.367,3185.868Z" style="fill:rgb(231,190,106);"/>
            </g>
        </g>
    </g>
    <g transform="matrix(1,0,0,1,-493.105152,-3045.988745)">
        <path d="M5311.868,7355.767L5311.868,7379.067C5286.268,7496.312 5260.668,7572.945 5235.068,7608.967C5209.468,7644.967 5179.601,7662.967 5145.468,7662.967L4533.201,7662.967C4518.979,7680.034 4502.268,7708.478 4483.068,7748.301C4463.868,7788.123 4454.268,7820.123 4454.268,7844.301C4454.268,7851.412 4469.557,7858.167 4500.134,7864.567C4530.712,7870.967 4569.468,7874.167 4616.401,7874.167C4775.69,7874.167 4928.223,7921.101 5074.001,8014.967C5219.779,8108.834 5292.668,8223.323 5292.668,8358.434C5292.668,8449.456 5244.668,8540.834 5148.668,8632.567C5052.668,8724.301 4946.001,8806.078 4828.668,8877.901C4711.334,8949.723 4646.979,8985.634 4635.601,8985.634L4108.668,8622.967C4120.046,8607.323 4157.023,8574.612 4219.601,8524.834C4282.179,8475.056 4326.979,8444.478 4354.001,8433.101L4819.068,8736.034C4881.646,8714.701 4928.579,8676.301 4959.868,8620.834C4991.157,8565.367 5006.801,8517.723 5006.801,8477.901C5006.801,8401.101 4942.09,8326.789 4812.668,8254.967C4683.246,8183.145 4493.379,8147.234 4243.068,8147.234L4243.068,8106.701C4254.446,8082.523 4278.623,8014.967 4315.601,7904.034C4352.579,7793.101 4379.601,7710.256 4396.668,7655.501C4413.734,7600.745 4432.934,7541.012 4454.268,7476.301C4475.601,7411.589 4499.068,7379.234 4524.668,7379.234L4566.268,7379.234C4576.934,7379.234 4585.112,7377.689 4590.801,7374.601C4590.801,7373.067 4576.934,7369.612 4549.201,7364.234C4521.468,7358.834 4506.179,7354.589 4503.334,7351.501C4548.846,7354.745 4626.357,7358.401 4735.868,7362.467C4845.379,7366.534 4957.734,7368.567 5072.934,7368.567L5113.468,7368.567C5217.29,7368.567 5283.423,7364.301 5311.868,7355.767Z" style="fill:rgb(202,136,0);fill-rule:nonzero;"/>
        <clipPath id="_clip13">
            <path d="M5311.868,7355.767L5311.868,7379.067C5286.268,7496.312 5260.668,7572.945 5235.068,7608.967C5209.468,7644.967 5179.601,7662.967 5145.468,7662.967L4533.201,7662.967C4518.979,7680.034 4502.268,7708.478 4483.068,7748.301C4463.868,7788.123 4454.268,7820.123 4454.268,7844.301C4454.268,7851.412 4469.557,7858.167 4500.134,7864.567C4530.712,7870.967 4569.468,7874.167 4616.401,7874.167C4775.69,7874.167 4928.223,7921.101 5074.001,8014.967C5219.779,8108.834 5292.668,8223.323 5292.668,8358.434C5292.668,8449.456 5244.668,8540.834 5148.668,8632.567C5052.668,8724.301 4946.001,8806.078 4828.668,8877.901C4711.334,8949.723 4646.979,8985.634 4635.601,8985.634L4108.668,8622.967C4120.046,8607.323 4157.023,8574.612 4219.601,8524.834C4282.179,8475.056 4326.979,8444.478 4354.001,8433.101L4819.068,8736.034C4881.646,8714.701 4928.579,8676.301 4959.868,8620.834C4991.157,8565.367 5006.801,8517.723 5006.801,8477.901C5006.801,8401.101 4942.09,8326.789 4812.668,8254.967C4683.246,8183.145 4493.379,8147.234 4243.068,8147.234L4243.068,8106.701C4254.446,8082.523 4278.623,8014.967 4315.601,7904.034C4352.579,7793.101 4379.601,7710.256 4396.668,7655.501C4413.734,7600.745 4432.934,7541.012 4454.268,7476.301C4475.601,7411.589 4499.068,7379.234 4524.668,7379.234L4566.268,7379.234C4576.934,7379.234 4585.112,7377.689 4590.801,7374.601C4590.801,7373.067 4576.934,7369.612 4549.201,7364.234C4521.468,7358.834 4506.179,7354.589 4503.334,7351.501C4548.846,7354.745 4626.357,7358.401 4735.868,7362.467C4845.379,7366.534 4957.734,7368.567 5072.934,7368.567L5113.468,7368.567C5217.29,7368.567 5283.423,7364.301 5311.868,7355.767Z" clip-rule="nonzero"/>
        </clipPath>
        <g clip-path="url(#_clip13)">
            <g transform="matrix(0.819735,0,0,1,1066.903877,3045.988745)">
                <path d="M4859.836,3185.868L5405.376,3185.868L4309.882,7666.805L3726.587,7666.805L4859.836,3185.868Z" style="fill:rgb(231,190,106);"/>
            </g>
            <g transform="matrix(0.753613,0,0,1.245803,2172.844381,1161.461934)">
                <path d="M5104.367,3185.868L5953.515,3165.077L4673.627,7666.805L3499.087,7666.805L5104.367,3185.868Z" style="fill:rgb(231,190,106);"/>
            </g>
        </g>
        <path d="M6568.401,8484.301C6568.401,8522.701 6550.268,8563.589 6514.001,8606.967C6477.734,8650.345 6424.046,8698.345 6352.934,8750.967C6281.823,8803.589 6211.423,8855.145 6141.734,8905.634C6072.046,8956.123 6019.423,8981.367 5983.868,8981.367C5951.157,8981.367 5869.379,8934.789 5738.534,8841.634C5607.69,8748.478 5520.223,8682.345 5476.134,8643.234C5432.046,8604.123 5410.001,8558.256 5410.001,8505.634C5410.001,8448.745 5449.112,8390.078 5527.334,8329.634C5605.557,8269.189 5683.068,8209.812 5759.868,8151.501C5732.846,8121.634 5673.112,8071.501 5580.668,8001.101C5488.223,7930.701 5442.001,7869.189 5442.001,7816.567C5442.001,7773.901 5463.69,7733.723 5507.068,7696.034C5550.446,7658.345 5602.001,7614.967 5661.734,7565.901C5721.468,7516.834 5781.912,7468.834 5843.068,7421.901C5904.223,7374.967 5951.157,7351.501 5983.868,7351.501C6015.157,7351.501 6063.868,7375.678 6130.001,7424.034C6196.134,7472.389 6254.801,7516.478 6306.001,7556.301C6357.201,7596.123 6409.112,7637.367 6461.734,7680.034C6507.246,7729.812 6530.001,7775.323 6530.001,7816.567C6530.001,7854.967 6501.557,7901.189 6444.668,7955.234C6380.668,8010.701 6316.668,8066.167 6252.668,8121.634C6333.734,8184.212 6406.623,8245.723 6471.334,8306.167C6536.046,8366.612 6568.401,8425.989 6568.401,8484.301ZM6252.668,7904.034C6252.668,7882.701 6228.134,7849.634 6179.068,7804.834C6130.001,7760.034 6091.957,7729.101 6064.934,7712.034C6037.912,7694.967 6003.068,7666.878 5960.401,7627.767C5917.734,7588.656 5887.868,7569.101 5870.801,7569.101C5853.734,7569.101 5827.068,7591.856 5790.801,7637.367C5754.534,7682.878 5736.401,7711.323 5736.401,7722.701C5736.401,7734.078 5792.934,7783.856 5906.001,7872.034C6019.068,7960.212 6096.934,8018.523 6139.601,8046.967C6170.89,8018.523 6197.557,7989.012 6219.601,7958.434C6241.646,7927.856 6252.668,7909.723 6252.668,7904.034ZM6271.868,8590.967C6271.868,8563.945 6249.823,8531.589 6205.734,8493.901C6161.646,8456.212 6124.668,8427.056 6094.801,8406.434C6064.934,8385.812 6021.201,8352.389 5963.601,8306.167C5906.001,8259.945 5875.068,8236.834 5870.801,8236.834C5852.312,8236.834 5820.668,8261.012 5775.868,8309.367C5731.068,8357.723 5708.668,8390.434 5708.668,8407.501C5708.668,8427.412 5727.512,8455.501 5765.201,8491.767C5802.89,8528.034 5845.201,8561.101 5892.134,8590.967L6118.268,8742.434C6128.223,8742.434 6156.312,8722.878 6202.534,8683.767C6248.757,8644.656 6271.868,8613.723 6271.868,8590.967Z" style="fill:rgb(202,136,0);fill-rule:nonzero;"/>
        <clipPath id="_clip14">
            <path d="M6568.401,8484.301C6568.401,8522.701 6550.268,8563.589 6514.001,8606.967C6477.734,8650.345 6424.046,8698.345 6352.934,8750.967C6281.823,8803.589 6211.423,8855.145 6141.734,8905.634C6072.046,8956.123 6019.423,8981.367 5983.868,8981.367C5951.157,8981.367 5869.379,8934.789 5738.534,8841.634C5607.69,8748.478 5520.223,8682.345 5476.134,8643.234C5432.046,8604.123 5410.001,8558.256 5410.001,8505.634C5410.001,8448.745 5449.112,8390.078 5527.334,8329.634C5605.557,8269.189 5683.068,8209.812 5759.868,8151.501C5732.846,8121.634 5673.112,8071.501 5580.668,8001.101C5488.223,7930.701 5442.001,7869.189 5442.001,7816.567C5442.001,7773.901 5463.69,7733.723 5507.068,7696.034C5550.446,7658.345 5602.001,7614.967 5661.734,7565.901C5721.468,7516.834 5781.912,7468.834 5843.068,7421.901C5904.223,7374.967 5951.157,7351.501 5983.868,7351.501C6015.157,7351.501 6063.868,7375.678 6130.001,7424.034C6196.134,7472.389 6254.801,7516.478 6306.001,7556.301C6357.201,7596.123 6409.112,7637.367 6461.734,7680.034C6507.246,7729.812 6530.001,7775.323 6530.001,7816.567C6530.001,7854.967 6501.557,7901.189 6444.668,7955.234C6380.668,8010.701 6316.668,8066.167 6252.668,8121.634C6333.734,8184.212 6406.623,8245.723 6471.334,8306.167C6536.046,8366.612 6568.401,8425.989 6568.401,8484.301ZM6252.668,7904.034C6252.668,7882.701 6228.134,7849.634 6179.068,7804.834C6130.001,7760.034 6091.957,7729.101 6064.934,7712.034C6037.912,7694.967 6003.068,7666.878 5960.401,7627.767C5917.734,7588.656 5887.868,7569.101 5870.801,7569.101C5853.734,7569.101 5827.068,7591.856 5790.801,7637.367C5754.534,7682.878 5736.401,7711.323 5736.401,7722.701C5736.401,7734.078 5792.934,7783.856 5906.001,7872.034C6019.068,7960.212 6096.934,8018.523 6139.601,8046.967C6170.89,8018.523 6197.557,7989.012 6219.601,7958.434C6241.646,7927.856 6252.668,7909.723 6252.668,7904.034ZM6271.868,8590.967C6271.868,8563.945 6249.823,8531.589 6205.734,8493.901C6161.646,8456.212 6124.668,8427.056 6094.801,8406.434C6064.934,8385.812 6021.201,8352.389 5963.601,8306.167C5906.001,8259.945 5875.068,8236.834 5870.801,8236.834C5852.312,8236.834 5820.668,8261.012 5775.868,8309.367C5731.068,8357.723 5708.668,8390.434 5708.668,8407.501C5708.668,8427.412 5727.512,8455.501 5765.201,8491.767C5802.89,8528.034 5845.201,8561.101 5892.134,8590.967L6118.268,8742.434C6128.223,8742.434 6156.312,8722.878 6202.534,8683.767C6248.757,8644.656 6271.868,8613.723 6271.868,8590.967Z" clip-rule="nonzero"/>
        </clipPath>
        <g clip-path="url(#_clip14)">
            <g transform="matrix(0.819735,0,0,1,1066.903877,3045.988745)">
                <path d="M4859.836,3185.868L5405.376,3185.868L4309.882,7666.805L3726.587,7666.805L4859.836,3185.868Z" style="fill:rgb(231,190,106);"/>
            </g>
            <g transform="matrix(0.753613,0,0,1.245803,2172.844381,1161.461934)">
                <path d="M5104.367,3185.868L5953.515,3165.077L4673.627,7666.805L3499.087,7666.805L5104.367,3185.868Z" style="fill:rgb(231,190,106);"/>
            </g>
        </g>
        <path d="M7831.334,8484.301C7831.334,8522.701 7813.201,8563.589 7776.934,8606.967C7740.668,8650.345 7686.979,8698.345 7615.868,8750.967C7544.757,8803.589 7474.357,8855.145 7404.668,8905.634C7334.979,8956.123 7282.357,8981.367 7246.801,8981.367C7214.09,8981.367 7132.312,8934.789 7001.468,8841.634C6870.623,8748.478 6783.157,8682.345 6739.068,8643.234C6694.979,8604.123 6672.934,8558.256 6672.934,8505.634C6672.934,8448.745 6712.046,8390.078 6790.268,8329.634C6868.49,8269.189 6946.001,8209.812 7022.801,8151.501C6995.779,8121.634 6936.046,8071.501 6843.601,8001.101C6751.157,7930.701 6704.934,7869.189 6704.934,7816.567C6704.934,7773.901 6726.623,7733.723 6770.001,7696.034C6813.379,7658.345 6864.934,7614.967 6924.668,7565.901C6984.401,7516.834 7044.846,7468.834 7106.001,7421.901C7167.157,7374.967 7214.09,7351.501 7246.801,7351.501C7278.09,7351.501 7326.801,7375.678 7392.934,7424.034C7459.068,7472.389 7517.734,7516.478 7568.934,7556.301C7620.134,7596.123 7672.046,7637.367 7724.668,7680.034C7770.179,7729.812 7792.934,7775.323 7792.934,7816.567C7792.934,7854.967 7764.49,7901.189 7707.601,7955.234C7643.601,8010.701 7579.601,8066.167 7515.601,8121.634C7596.668,8184.212 7669.557,8245.723 7734.268,8306.167C7798.979,8366.612 7831.334,8425.989 7831.334,8484.301ZM7515.601,7904.034C7515.601,7882.701 7491.068,7849.634 7442.001,7804.834C7392.934,7760.034 7354.89,7729.101 7327.868,7712.034C7300.846,7694.967 7266.001,7666.878 7223.334,7627.767C7180.668,7588.656 7150.801,7569.101 7133.734,7569.101C7116.668,7569.101 7090.001,7591.856 7053.734,7637.367C7017.468,7682.878 6999.334,7711.323 6999.334,7722.701C6999.334,7734.078 7055.868,7783.856 7168.934,7872.034C7282.001,7960.212 7359.868,8018.523 7402.534,8046.967C7433.823,8018.523 7460.49,7989.012 7482.534,7958.434C7504.579,7927.856 7515.601,7909.723 7515.601,7904.034ZM7534.801,8590.967C7534.801,8563.945 7512.757,8531.589 7468.668,8493.901C7424.579,8456.212 7387.601,8427.056 7357.734,8406.434C7327.868,8385.812 7284.134,8352.389 7226.534,8306.167C7168.934,8259.945 7138.001,8236.834 7133.734,8236.834C7115.246,8236.834 7083.601,8261.012 7038.801,8309.367C6994.001,8357.723 6971.601,8390.434 6971.601,8407.501C6971.601,8427.412 6990.446,8455.501 7028.134,8491.767C7065.823,8528.034 7108.134,8561.101 7155.068,8590.967L7381.201,8742.434C7391.157,8742.434 7419.246,8722.878 7465.468,8683.767C7511.69,8644.656 7534.801,8613.723 7534.801,8590.967Z" style="fill:rgb(202,136,0);fill-rule:nonzero;"/>
        <clipPath id="_clip15">
            <path d="M7831.334,8484.301C7831.334,8522.701 7813.201,8563.589 7776.934,8606.967C7740.668,8650.345 7686.979,8698.345 7615.868,8750.967C7544.757,8803.589 7474.357,8855.145 7404.668,8905.634C7334.979,8956.123 7282.357,8981.367 7246.801,8981.367C7214.09,8981.367 7132.312,8934.789 7001.468,8841.634C6870.623,8748.478 6783.157,8682.345 6739.068,8643.234C6694.979,8604.123 6672.934,8558.256 6672.934,8505.634C6672.934,8448.745 6712.046,8390.078 6790.268,8329.634C6868.49,8269.189 6946.001,8209.812 7022.801,8151.501C6995.779,8121.634 6936.046,8071.501 6843.601,8001.101C6751.157,7930.701 6704.934,7869.189 6704.934,7816.567C6704.934,7773.901 6726.623,7733.723 6770.001,7696.034C6813.379,7658.345 6864.934,7614.967 6924.668,7565.901C6984.401,7516.834 7044.846,7468.834 7106.001,7421.901C7167.157,7374.967 7214.09,7351.501 7246.801,7351.501C7278.09,7351.501 7326.801,7375.678 7392.934,7424.034C7459.068,7472.389 7517.734,7516.478 7568.934,7556.301C7620.134,7596.123 7672.046,7637.367 7724.668,7680.034C7770.179,7729.812 7792.934,7775.323 7792.934,7816.567C7792.934,7854.967 7764.49,7901.189 7707.601,7955.234C7643.601,8010.701 7579.601,8066.167 7515.601,8121.634C7596.668,8184.212 7669.557,8245.723 7734.268,8306.167C7798.979,8366.612 7831.334,8425.989 7831.334,8484.301ZM7515.601,7904.034C7515.601,7882.701 7491.068,7849.634 7442.001,7804.834C7392.934,7760.034 7354.89,7729.101 7327.868,7712.034C7300.846,7694.967 7266.001,7666.878 7223.334,7627.767C7180.668,7588.656 7150.801,7569.101 7133.734,7569.101C7116.668,7569.101 7090.001,7591.856 7053.734,7637.367C7017.468,7682.878 6999.334,7711.323 6999.334,7722.701C6999.334,7734.078 7055.868,7783.856 7168.934,7872.034C7282.001,7960.212 7359.868,8018.523 7402.534,8046.967C7433.823,8018.523 7460.49,7989.012 7482.534,7958.434C7504.579,7927.856 7515.601,7909.723 7515.601,7904.034ZM7534.801,8590.967C7534.801,8563.945 7512.757,8531.589 7468.668,8493.901C7424.579,8456.212 7387.601,8427.056 7357.734,8406.434C7327.868,8385.812 7284.134,8352.389 7226.534,8306.167C7168.934,8259.945 7138.001,8236.834 7133.734,8236.834C7115.246,8236.834 7083.601,8261.012 7038.801,8309.367C6994.001,8357.723 6971.601,8390.434 6971.601,8407.501C6971.601,8427.412 6990.446,8455.501 7028.134,8491.767C7065.823,8528.034 7108.134,8561.101 7155.068,8590.967L7381.201,8742.434C7391.157,8742.434 7419.246,8722.878 7465.468,8683.767C7511.69,8644.656 7534.801,8613.723 7534.801,8590.967Z" clip-rule="nonzero"/>
        </clipPath>
        <g clip-path="url(#_clip15)">
            <g transform="matrix(0.819735,0,0,1,1066.903877,3045.988745)">
                <path d="M4859.836,3185.868L5405.376,3185.868L4309.882,7666.805L3726.587,7666.805L4859.836,3185.868Z" style="fill:rgb(231,190,106);"/>
            </g>
            <g transform="matrix(0.753613,0,0,1.245803,2172.844381,1161.461934)">
                <path d="M5104.367,3185.868L5953.515,3165.077L4673.627,7666.805L3499.087,7666.805L5104.367,3185.868Z" style="fill:rgb(231,190,106);"/>
            </g>
        </g>
    </g>
</svg>