<svg xmlns="http://www.w3.org/2000/svg" xmlns:xlink="http://www.w3.org/1999/xlink" xmlns:serif="http://www.serif.com/" version="1.1" xml:space="preserve" style="fill-rule:evenodd;clip-rule:evenodd;stroke-linecap:round;stroke-linejoin:round;stroke-miterlimit:1.5;" viewBox="2153.07 2058.54 6647.65 5629.67">
    <g transform="matrix(1,0,0,1,-53.046001,-0)">
        <path d="M8832.366,3640.456L8832.366,7212.217C8832.366,7463.111 8628.672,7666.805 8377.779,7666.805L2682.105,7666.805C2431.212,7666.805 2227.518,7463.111 2227.518,7212.217L2227.518,3640.456C2227.518,3389.562 2431.212,3185.868 2682.105,3185.868L8377.779,3185.868C8628.672,3185.868 8832.366,3389.562 8832.366,3640.456Z" style="fill:rgb(107,0,38);stroke:rgb(59,0,46);stroke-width:42.8px;"/>
    </g>
    <g>
        <g transform="matrix(1,0,0,1,817.608022,0)">
            <path d="M4538.073,3185.868L6269.715,3185.868L5189.171,7666.805L3499.087,7666.805L4538.073,3185.868Z" style="fill:rgb(121,7,38);"/>
        </g>
        <g transform="matrix(1,0,0,1,12.970767,0)">
            <path d="M4538.073,3185.868L5108.362,3185.868L4025.507,7666.805L3499.087,7666.805L4538.073,3185.868Z" style="fill:rgb(121,7,38);"/>
        </g>
    </g>
    <g transform="matrix(1.016964,0,0,1.016964,-82.966215,-84.837353)">
        <g transform="matrix(1,0,0,1,1573.266296,-692.538765)">
            <path d="M1259.103,4462.912C1259.103,4462.912 1122.298,4493.241 1116.516,4524.021C1110.734,4554.801 1174.513,4649.648 1224.411,4647.593C1274.31,4645.537 1415.859,4572.191 1415.907,4511.689C1416.013,4378.066 1306.526,4293.988 1306.526,4293.988C1116.037,4254.492 1015.782,4318.664 988.251,4466.388L974.989,5102.939L949.739,6118.875L949.739,6425.39" style="fill:none;stroke:rgb(59,0,46);stroke-width:70.88px;"/>
        </g>
        <g transform="matrix(1,0,0,-1,1573.266296,11682.916713)">
            <path d="M1259.103,4462.912C1259.103,4462.912 1122.298,4493.241 1116.516,4524.021C1110.734,4554.801 1174.513,4649.648 1224.411,4647.593C1274.31,4645.537 1415.859,4572.191 1415.907,4511.689C1416.013,4378.066 1306.526,4293.988 1306.526,4293.988C1116.037,4254.492 1015.782,4318.664 988.251,4466.388L974.989,5102.939L949.739,6129.305" style="fill:none;stroke:rgb(59,0,46);stroke-width:70.88px;"/>
        </g>
        <g transform="matrix(-1,0,0,1,9415.906391,-692.538765)">
            <path d="M1259.103,4462.912C1259.103,4462.912 1122.298,4493.241 1116.516,4524.021C1110.734,4554.801 1174.513,4649.648 1224.411,4647.593C1274.31,4645.537 1415.859,4572.191 1415.907,4511.689C1416.013,4378.066 1306.526,4293.988 1306.526,4293.988C1116.037,4254.492 1015.782,4318.664 988.251,4466.388L974.989,5102.939L949.739,6118.875L949.739,6321.697" style="fill:none;stroke:rgb(59,0,46);stroke-width:70.88px;"/>
        </g>
        <g transform="matrix(-1,0,0,-1,9415.906391,11682.916713)">
            <path d="M1259.103,4462.912C1259.103,4462.912 1122.298,4493.241 1116.516,4524.021C1110.734,4554.801 1174.513,4649.648 1224.411,4647.593C1274.31,4645.537 1415.859,4572.191 1415.907,4511.689C1416.013,4378.066 1306.526,4293.988 1306.526,4293.988C1116.037,4254.492 1015.782,4318.664 988.251,4466.388L974.989,5102.939L949.739,6129.305" style="fill:none;stroke:rgb(59,0,46);stroke-width:70.88px;"/>
        </g>
        <g transform="matrix(-0.022532,0.999746,0.999746,0.022532,-1498.121835,2287.727475)">
            <path d="M1259.103,4462.912C1259.103,4462.912 1122.298,4493.241 1116.516,4524.021C1110.734,4554.801 1174.513,4649.648 1224.411,4647.593C1274.31,4645.537 1415.859,4572.191 1415.907,4511.689C1416.013,4378.066 1306.526,4293.988 1306.526,4293.988C1116.037,4254.492 1015.782,4318.664 988.251,4466.388L974.989,5102.939L949.739,6118.875L912.301,7426.075" style="fill:none;stroke:rgb(59,0,46);stroke-width:70.88px;"/>
        </g>
        <g transform="matrix(0.022532,0.999746,-0.999746,0.022532,12578.617632,2287.727475)">
            <path d="M1259.103,4462.912C1259.103,4462.912 1122.298,4493.241 1116.516,4524.021C1110.734,4554.801 1174.513,4649.648 1224.411,4647.593C1274.31,4645.537 1415.859,4572.191 1415.907,4511.689C1416.013,4378.066 1306.526,4293.988 1306.526,4293.988C1116.037,4254.492 1015.782,4318.664 988.251,4466.388L974.989,5102.939L949.739,6118.875L912.301,7426.075" style="fill:none;stroke:rgb(59,0,46);stroke-width:70.88px;"/>
        </g>
        <g transform="matrix(-0.021391,-0.999746,0.949121,-0.022532,-1173.23474,8547.652259)">
            <path d="M1259.103,4462.912C1259.103,4462.912 1122.298,4493.241 1116.516,4524.021C1110.734,4554.801 1174.513,4649.648 1224.411,4647.593C1274.31,4645.537 1415.859,4572.191 1415.907,4511.689C1416.013,4378.066 1306.526,4293.988 1306.526,4293.988C1116.037,4254.492 1015.782,4318.664 988.251,4466.388L974.989,5102.939L949.739,6118.875L912.301,7426.075" style="fill:none;stroke:rgb(59,0,46);stroke-width:72.61px;"/>
        </g>
        <g transform="matrix(0.021391,-0.999746,-0.949121,-0.022532,12190.681957,8547.652259)">
            <path d="M1259.103,4462.912C1259.103,4462.912 1122.298,4493.241 1116.516,4524.021C1110.734,4554.801 1174.513,4649.648 1224.411,4647.593C1274.31,4645.537 1415.859,4572.191 1415.907,4511.689C1416.013,4378.066 1306.526,4293.988 1306.526,4293.988C1116.037,4254.492 1015.782,4318.664 988.251,4466.388L974.989,5102.939L949.739,6118.875L912.301,7426.075" style="fill:none;stroke:rgb(59,0,46);stroke-width:72.61px;"/>
        </g>
    </g>
    <g>
        <g transform="matrix(1,0,0,1,1573.266296,-692.538765)">
            <path d="M1259.103,4462.912C1259.103,4462.912 1122.298,4493.241 1116.516,4524.021C1110.734,4554.801 1174.513,4649.648 1224.411,4647.593C1274.31,4645.537 1415.859,4572.191 1415.907,4511.689C1416.013,4378.066 1306.526,4293.988 1306.526,4293.988C1116.037,4254.492 1015.782,4318.664 988.251,4466.388L974.989,5102.939L949.739,6118.875L949.739,6425.39" style="fill:none;stroke:rgb(202,136,0);stroke-width:72.08px;"/>
        </g>
        <g transform="matrix(1,0,0,-1,1573.266296,11682.916713)">
            <path d="M1259.103,4462.912C1259.103,4462.912 1122.298,4493.241 1116.516,4524.021C1110.734,4554.801 1174.513,4649.648 1224.411,4647.593C1274.31,4645.537 1415.859,4572.191 1415.907,4511.689C1416.013,4378.066 1306.526,4293.988 1306.526,4293.988C1116.037,4254.492 1015.782,4318.664 988.251,4466.388L974.989,5102.939L949.739,6129.305" style="fill:none;stroke:rgb(202,136,0);stroke-width:72.08px;"/>
        </g>
        <g transform="matrix(-1,0,0,1,9415.906391,-692.538765)">
            <path d="M1259.103,4462.912C1259.103,4462.912 1122.298,4493.241 1116.516,4524.021C1110.734,4554.801 1174.513,4649.648 1224.411,4647.593C1274.31,4645.537 1415.859,4572.191 1415.907,4511.689C1416.013,4378.066 1306.526,4293.988 1306.526,4293.988C1116.037,4254.492 1015.782,4318.664 988.251,4466.388L974.989,5102.939L949.739,6118.875L949.739,6321.697" style="fill:none;stroke:rgb(202,136,0);stroke-width:72.08px;"/>
        </g>
        <g transform="matrix(-1,0,0,-1,9415.906391,11682.916713)">
            <path d="M1259.103,4462.912C1259.103,4462.912 1122.298,4493.241 1116.516,4524.021C1110.734,4554.801 1174.513,4649.648 1224.411,4647.593C1274.31,4645.537 1415.859,4572.191 1415.907,4511.689C1416.013,4378.066 1306.526,4293.988 1306.526,4293.988C1116.037,4254.492 1015.782,4318.664 988.251,4466.388L974.989,5102.939L949.739,6129.305" style="fill:none;stroke:rgb(202,136,0);stroke-width:72.08px;"/>
        </g>
        <g transform="matrix(-0.022532,0.999746,0.999746,0.022532,-1498.121835,2287.727475)">
            <path d="M1259.103,4462.912C1259.103,4462.912 1122.298,4493.241 1116.516,4524.021C1110.734,4554.801 1174.513,4649.648 1224.411,4647.593C1274.31,4645.537 1415.859,4572.191 1415.907,4511.689C1416.013,4378.066 1306.526,4293.988 1306.526,4293.988C1116.037,4254.492 1015.782,4318.664 988.251,4466.388L974.989,5102.939L949.739,6118.875L912.301,7426.075" style="fill:none;stroke:rgb(202,136,0);stroke-width:72.08px;"/>
        </g>
        <g transform="matrix(0.022532,0.999746,-0.999746,0.022532,12578.617632,2287.727475)">
            <path d="M1259.103,4462.912C1259.103,4462.912 1122.298,4493.241 1116.516,4524.021C1110.734,4554.801 1174.513,4649.648 1224.411,4647.593C1274.31,4645.537 1415.859,4572.191 1415.907,4511.689C1416.013,4378.066 1306.526,4293.988 1306.526,4293.988C1116.037,4254.492 1015.782,4318.664 988.251,4466.388L974.989,5102.939L949.739,6118.875L912.301,7426.075" style="fill:none;stroke:rgb(202,136,0);stroke-width:72.08px;"/>
        </g>
        <g transform="matrix(-0.021391,-0.999746,0.949121,-0.022532,-1173.23474,8547.652259)">
            <path d="M1259.103,4462.912C1259.103,4462.912 1122.298,4493.241 1116.516,4524.021C1110.734,4554.801 1174.513,4649.648 1224.411,4647.593C1274.31,4645.537 1415.859,4572.191 1415.907,4511.689C1416.013,4378.066 1306.526,4293.988 1306.526,4293.988C1116.037,4254.492 1015.782,4318.664 988.251,4466.388L974.989,5102.939L949.739,6118.875L912.301,7426.075" style="fill:none;stroke:rgb(202,136,0);stroke-width:73.84px;"/>
        </g>
        <g transform="matrix(0.021391,-0.999746,-0.949121,-0.022532,12190.681957,8547.652259)">
            <path d="M1259.103,4462.912C1259.103,4462.912 1122.298,4493.241 1116.516,4524.021C1110.734,4554.801 1174.513,4649.648 1224.411,4647.593C1274.31,4645.537 1415.859,4572.191 1415.907,4511.689C1416.013,4378.066 1306.526,4293.988 1306.526,4293.988C1116.037,4254.492 1015.782,4318.664 988.251,4466.388L974.989,5102.939L949.739,6118.875L912.301,7426.075" style="fill:none;stroke:rgb(202,136,0);stroke-width:73.84px;"/>
        </g>
    </g>
    <g transform="matrix(0.492935,-0.449374,0.381435,0.41841,435.873624,3241.306855)">
        <path d="M2167.703,2563.735L2368.048,2909.158L1967.357,2909.158L2167.703,2563.735Z" style="fill:rgb(202,136,0);stroke:rgb(59,0,46);stroke-width:40.21px;"/>
    </g>
    <g transform="matrix(-0.296565,-0.59747,-0.507141,0.251728,10587.161143,4049.644809)">
        <path d="M2167.703,2563.735L2368.048,2909.158L1967.357,2909.158L2167.703,2563.735Z" style="fill:rgb(202,136,0);stroke:rgb(59,0,46);stroke-width:40.21px;"/>
    </g>
    <g transform="matrix(0.492935,0.449374,0.381435,-0.41841,435.873624,7672.962664)">
        <path d="M2167.703,2563.735L2368.048,2909.158L1967.357,2909.158L2167.703,2563.735Z" style="fill:rgb(202,136,0);stroke:rgb(59,0,46);stroke-width:40.21px;"/>
    </g>
    <g transform="matrix(-0.409942,0.526183,-0.446632,-0.347965,10667.348826,7282.499278)">
        <path d="M2167.703,2563.735L2368.048,2909.158L1967.357,2909.158L2167.703,2563.735Z" style="fill:rgb(202,136,0);stroke:rgb(59,0,46);stroke-width:40.21px;"/>
    </g>
    <g transform="matrix(1,0,0,1,3731.687647,6368.638645)">
        <path d="M212.083,-128.984C212.083,-94.757 201.944,-64.217 181.667,-37.363C161.389,-10.51 137.639,2.917 110.417,2.917C105.972,2.917 99.306,-0.054 90.417,-5.996C81.528,-11.942 74.167,-16.471 68.333,-19.583L68.333,97.917L20.833,97.917L20.833,-37.5C20.833,-59.722 20.694,-76.597 20.417,-88.125C20.139,-99.653 19.583,-110 18.75,-119.167C18.75,-143.056 16.528,-161.25 12.083,-173.75C7.083,-181.25 2.083,-188.889 -2.917,-196.667C-2.917,-200.278 3.819,-205 17.292,-210.833C30.764,-216.667 45.833,-224.583 62.5,-234.583L68.333,-234.583L68.333,-194.583C78.611,-196.25 89.444,-203.333 100.833,-215.833C112.222,-228.333 121.25,-234.583 127.917,-234.583C145.694,-234.583 164.167,-225.122 183.333,-206.198C202.5,-187.279 212.083,-161.541 212.083,-128.984ZM174.167,-96.829C174.167,-119.681 166.181,-138.7 150.208,-153.887C134.236,-169.073 118.889,-176.667 104.167,-176.667C101.111,-176.667 96.944,-176.039 91.667,-174.785C86.389,-173.531 79.444,-170.953 70.833,-167.051L70.833,-102.682C70.833,-81.224 77.083,-66.315 89.583,-57.956C102.083,-49.596 113.611,-45.417 124.167,-45.417C142.222,-45.417 155.069,-51.059 162.708,-62.344C170.347,-73.633 174.167,-85.128 174.167,-96.829Z" style="fill:rgb(201,135,0);fill-rule:nonzero;"/>
        <clipPath id="_clip1">
            <path d="M212.083,-128.984C212.083,-94.757 201.944,-64.217 181.667,-37.363C161.389,-10.51 137.639,2.917 110.417,2.917C105.972,2.917 99.306,-0.054 90.417,-5.996C81.528,-11.942 74.167,-16.471 68.333,-19.583L68.333,97.917L20.833,97.917L20.833,-37.5C20.833,-59.722 20.694,-76.597 20.417,-88.125C20.139,-99.653 19.583,-110 18.75,-119.167C18.75,-143.056 16.528,-161.25 12.083,-173.75C7.083,-181.25 2.083,-188.889 -2.917,-196.667C-2.917,-200.278 3.819,-205 17.292,-210.833C30.764,-216.667 45.833,-224.583 62.5,-234.583L68.333,-234.583L68.333,-194.583C78.611,-196.25 89.444,-203.333 100.833,-215.833C112.222,-228.333 121.25,-234.583 127.917,-234.583C145.694,-234.583 164.167,-225.122 183.333,-206.198C202.5,-187.279 212.083,-161.541 212.083,-128.984ZM174.167,-96.829C174.167,-119.681 166.181,-138.7 150.208,-153.887C134.236,-169.073 118.889,-176.667 104.167,-176.667C101.111,-176.667 96.944,-176.039 91.667,-174.785C86.389,-173.531 79.444,-170.953 70.833,-167.051L70.833,-102.682C70.833,-81.224 77.083,-66.315 89.583,-57.956C102.083,-49.596 113.611,-45.417 124.167,-45.417C142.222,-45.417 155.069,-51.059 162.708,-62.344C170.347,-73.633 174.167,-85.128 174.167,-96.829Z" clip-rule="nonzero"/>
        </clipPath>
        <g clip-path="url(#_clip1)">
            <g transform="matrix(0.819735,0,0,1,-3157.888921,-6368.638645)">
                <path d="M4859.836,3185.868L5405.376,3185.868L4309.882,7666.805L3726.587,7666.805L4859.836,3185.868Z" style="fill:rgb(231,190,106);"/>
            </g>
            <g transform="matrix(0.753613,0,0,1.245803,-2051.948418,-8253.165456)">
                <path d="M5104.367,3185.868L5953.515,3165.077L4673.627,7666.805L3499.087,7666.805L5104.367,3185.868Z" style="fill:rgb(231,190,106);"/>
            </g>
        </g>
        <path d="M393.75,-175.098C393.75,-169.551 387.569,-160.677 375.208,-148.477C362.847,-136.276 351.528,-128.375 341.25,-124.772C340.694,-127.546 340.139,-133.368 339.583,-142.24C339.028,-151.111 338.75,-158.874 338.75,-165.527C338.75,-170.796 339.028,-174.54 339.583,-176.758L331.25,-176.758C327.083,-176.758 323.472,-175.371 320.417,-172.598C317.361,-169.829 315.833,-166.641 315.833,-163.034L315.833,2.917L265.833,2.917L265.833,-106.673C265.833,-113.192 265.972,-119.501 266.25,-125.599C266.25,-145.009 263.819,-159.705 258.958,-169.688C254.097,-179.67 243.611,-186.74 227.5,-190.898L227.5,-195.059C229.722,-197.554 237.431,-203.793 250.625,-213.776C263.819,-223.759 271.389,-228.75 273.333,-228.75C281.667,-228.75 289.583,-223.819 297.083,-213.958C304.583,-204.097 310.833,-195.833 315.833,-189.167C326.944,-198.056 337.917,-206.875 348.75,-215.625C359.583,-224.375 365.833,-228.75 367.5,-228.75C371.111,-228.75 376.389,-223.55 383.333,-213.151C390.278,-202.756 393.75,-190.072 393.75,-175.098Z" style="fill:rgb(201,135,0);fill-rule:nonzero;"/>
        <clipPath id="_clip2">
            <path d="M393.75,-175.098C393.75,-169.551 387.569,-160.677 375.208,-148.477C362.847,-136.276 351.528,-128.375 341.25,-124.772C340.694,-127.546 340.139,-133.368 339.583,-142.24C339.028,-151.111 338.75,-158.874 338.75,-165.527C338.75,-170.796 339.028,-174.54 339.583,-176.758L331.25,-176.758C327.083,-176.758 323.472,-175.371 320.417,-172.598C317.361,-169.829 315.833,-166.641 315.833,-163.034L315.833,2.917L265.833,2.917L265.833,-106.673C265.833,-113.192 265.972,-119.501 266.25,-125.599C266.25,-145.009 263.819,-159.705 258.958,-169.688C254.097,-179.67 243.611,-186.74 227.5,-190.898L227.5,-195.059C229.722,-197.554 237.431,-203.793 250.625,-213.776C263.819,-223.759 271.389,-228.75 273.333,-228.75C281.667,-228.75 289.583,-223.819 297.083,-213.958C304.583,-204.097 310.833,-195.833 315.833,-189.167C326.944,-198.056 337.917,-206.875 348.75,-215.625C359.583,-224.375 365.833,-228.75 367.5,-228.75C371.111,-228.75 376.389,-223.55 383.333,-213.151C390.278,-202.756 393.75,-190.072 393.75,-175.098Z" clip-rule="nonzero"/>
        </clipPath>
        <g clip-path="url(#_clip2)">
            <g transform="matrix(0.819735,0,0,1,-3157.888921,-6368.638645)">
                <path d="M4859.836,3185.868L5405.376,3185.868L4309.882,7666.805L3726.587,7666.805L4859.836,3185.868Z" style="fill:rgb(231,190,106);"/>
            </g>
            <g transform="matrix(0.753613,0,0,1.245803,-2051.948418,-8253.165456)">
                <path d="M5104.367,3185.868L5953.515,3165.077L4673.627,7666.805L3499.087,7666.805L5104.367,3185.868Z" style="fill:rgb(231,190,106);"/>
            </g>
        </g>
        <path d="M604.583,-102.083C604.583,-80.417 597.014,-61.667 581.875,-45.833C566.736,-30 550.139,-17.5 532.083,-8.333C514.028,0.833 503.75,5.417 501.25,5.417C480.694,5.417 460.278,-8.681 440,-36.875C419.722,-65.069 409.583,-93.472 409.583,-122.083C409.583,-145.139 417.431,-164.861 433.125,-181.25C448.819,-197.639 465.972,-210.417 484.583,-219.583C503.194,-228.75 513.889,-233.333 516.667,-233.333C535.278,-233.333 554.583,-220.139 574.583,-193.75C594.583,-167.361 604.583,-136.806 604.583,-102.083ZM574.583,-90C574.583,-107.222 565.833,-125.764 548.333,-145.625C530.833,-165.486 509.722,-175.417 485,-175.417C473.611,-175.417 463.125,-171.736 453.542,-164.375C443.958,-157.014 439.167,-148.056 439.167,-137.5C439.167,-121.667 448.264,-103.819 466.458,-83.958C484.653,-64.097 504.861,-54.167 527.083,-54.167C541.806,-54.167 553.403,-56.806 561.875,-62.083C570.347,-67.361 574.583,-76.667 574.583,-90Z" style="fill:rgb(201,135,0);fill-rule:nonzero;"/>
        <clipPath id="_clip3">
            <path d="M604.583,-102.083C604.583,-80.417 597.014,-61.667 581.875,-45.833C566.736,-30 550.139,-17.5 532.083,-8.333C514.028,0.833 503.75,5.417 501.25,5.417C480.694,5.417 460.278,-8.681 440,-36.875C419.722,-65.069 409.583,-93.472 409.583,-122.083C409.583,-145.139 417.431,-164.861 433.125,-181.25C448.819,-197.639 465.972,-210.417 484.583,-219.583C503.194,-228.75 513.889,-233.333 516.667,-233.333C535.278,-233.333 554.583,-220.139 574.583,-193.75C594.583,-167.361 604.583,-136.806 604.583,-102.083ZM574.583,-90C574.583,-107.222 565.833,-125.764 548.333,-145.625C530.833,-165.486 509.722,-175.417 485,-175.417C473.611,-175.417 463.125,-171.736 453.542,-164.375C443.958,-157.014 439.167,-148.056 439.167,-137.5C439.167,-121.667 448.264,-103.819 466.458,-83.958C484.653,-64.097 504.861,-54.167 527.083,-54.167C541.806,-54.167 553.403,-56.806 561.875,-62.083C570.347,-67.361 574.583,-76.667 574.583,-90Z" clip-rule="nonzero"/>
        </clipPath>
        <g clip-path="url(#_clip3)">
            <g transform="matrix(0.819735,0,0,1,-3157.888921,-6368.638645)">
                <path d="M4859.836,3185.868L5405.376,3185.868L4309.882,7666.805L3726.587,7666.805L4859.836,3185.868Z" style="fill:rgb(231,190,106);"/>
            </g>
            <g transform="matrix(0.753613,0,0,1.245803,-2051.948418,-8253.165456)">
                <path d="M5104.367,3185.868L5953.515,3165.077L4673.627,7666.805L3499.087,7666.805L5104.367,3185.868Z" style="fill:rgb(231,190,106);"/>
            </g>
        </g>
        <path d="M710.417,-294.583L642.5,-272.5L642.5,-304.583C644.444,-307.361 653.681,-312.639 670.208,-320.417C686.736,-328.194 697.5,-333.75 702.5,-337.083L710.417,-337.083L710.417,-294.583ZM700.833,21.667C697.222,41.389 685.694,59.931 666.25,77.292C646.806,94.653 630.139,103.333 616.25,103.333C614.306,103.333 612.847,102.222 611.875,100C610.903,97.778 610.417,95.694 610.417,93.75C620.694,84.583 629.931,73.819 638.125,61.458C646.319,49.097 650.417,35.833 650.417,21.667L650.417,-132.083C650.417,-145.694 649.167,-155.833 646.667,-162.5C644.167,-169.167 637.5,-177.222 626.667,-186.667C629.167,-191.389 640.278,-198.611 660,-208.333C679.722,-218.056 691.944,-225 696.667,-229.167L700.833,-229.167L700.833,-32.5C701.389,-29.167 701.875,-24.653 702.292,-18.958C702.708,-13.264 702.917,-8.056 702.917,-3.333C702.917,0.556 702.778,4.653 702.5,8.958C702.222,13.264 701.667,17.5 700.833,21.667Z" style="fill:rgb(201,135,0);fill-rule:nonzero;"/>
        <clipPath id="_clip4">
            <path d="M710.417,-294.583L642.5,-272.5L642.5,-304.583C644.444,-307.361 653.681,-312.639 670.208,-320.417C686.736,-328.194 697.5,-333.75 702.5,-337.083L710.417,-337.083L710.417,-294.583ZM700.833,21.667C697.222,41.389 685.694,59.931 666.25,77.292C646.806,94.653 630.139,103.333 616.25,103.333C614.306,103.333 612.847,102.222 611.875,100C610.903,97.778 610.417,95.694 610.417,93.75C620.694,84.583 629.931,73.819 638.125,61.458C646.319,49.097 650.417,35.833 650.417,21.667L650.417,-132.083C650.417,-145.694 649.167,-155.833 646.667,-162.5C644.167,-169.167 637.5,-177.222 626.667,-186.667C629.167,-191.389 640.278,-198.611 660,-208.333C679.722,-218.056 691.944,-225 696.667,-229.167L700.833,-229.167L700.833,-32.5C701.389,-29.167 701.875,-24.653 702.292,-18.958C702.708,-13.264 702.917,-8.056 702.917,-3.333C702.917,0.556 702.778,4.653 702.5,8.958C702.222,13.264 701.667,17.5 700.833,21.667Z" clip-rule="nonzero"/>
        </clipPath>
        <g clip-path="url(#_clip4)">
            <g transform="matrix(0.819735,0,0,1,-3157.888921,-6368.638645)">
                <path d="M4859.836,3185.868L5405.376,3185.868L4309.882,7666.805L3726.587,7666.805L4859.836,3185.868Z" style="fill:rgb(231,190,106);"/>
            </g>
            <g transform="matrix(0.753613,0,0,1.245803,-2051.948418,-8253.165456)">
                <path d="M5104.367,3185.868L5953.515,3165.077L4673.627,7666.805L3499.087,7666.805L5104.367,3185.868Z" style="fill:rgb(231,190,106);"/>
            </g>
        </g>
        <path d="M870.833,-57.917C863.889,-44.119 856.667,-30.321 849.167,-16.523C841.667,-2.73 835.556,4.167 830.833,4.167C823.333,4.167 811.597,1.944 795.625,-2.5C779.653,-6.949 763.75,-17.578 747.917,-34.388C732.083,-51.202 724.167,-76.007 724.167,-108.802C724.167,-131.866 726.944,-148.331 732.5,-158.197C738.056,-168.062 748.681,-180.844 764.375,-196.543C780.069,-212.246 790.208,-222.32 794.792,-226.764C799.375,-231.213 803.194,-233.438 806.25,-233.438C819.306,-224.253 832.5,-214.581 845.833,-204.421C859.167,-194.264 866.806,-186.402 868.75,-180.833L774.583,-88.757C782.083,-74.03 790.417,-64.653 799.583,-60.625C808.75,-56.597 821.111,-54.583 836.667,-54.583C850.278,-54.583 860.278,-55.694 866.667,-57.917L870.833,-57.917ZM772.083,-108.867L816.667,-152.572C813.056,-159.238 808.403,-164.377 802.708,-167.988C797.014,-171.599 791.528,-174.655 786.25,-177.155C780.417,-177.155 774.792,-172.224 769.375,-162.363C763.958,-152.507 761.25,-142.305 761.25,-131.758C761.25,-120.382 764.861,-112.752 772.083,-108.867Z" style="fill:rgb(201,135,0);fill-rule:nonzero;"/>
        <clipPath id="_clip5">
            <path d="M870.833,-57.917C863.889,-44.119 856.667,-30.321 849.167,-16.523C841.667,-2.73 835.556,4.167 830.833,4.167C823.333,4.167 811.597,1.944 795.625,-2.5C779.653,-6.949 763.75,-17.578 747.917,-34.388C732.083,-51.202 724.167,-76.007 724.167,-108.802C724.167,-131.866 726.944,-148.331 732.5,-158.197C738.056,-168.062 748.681,-180.844 764.375,-196.543C780.069,-212.246 790.208,-222.32 794.792,-226.764C799.375,-231.213 803.194,-233.438 806.25,-233.438C819.306,-224.253 832.5,-214.581 845.833,-204.421C859.167,-194.264 866.806,-186.402 868.75,-180.833L774.583,-88.757C782.083,-74.03 790.417,-64.653 799.583,-60.625C808.75,-56.597 821.111,-54.583 836.667,-54.583C850.278,-54.583 860.278,-55.694 866.667,-57.917L870.833,-57.917ZM772.083,-108.867L816.667,-152.572C813.056,-159.238 808.403,-164.377 802.708,-167.988C797.014,-171.599 791.528,-174.655 786.25,-177.155C780.417,-177.155 774.792,-172.224 769.375,-162.363C763.958,-152.507 761.25,-142.305 761.25,-131.758C761.25,-120.382 764.861,-112.752 772.083,-108.867Z" clip-rule="nonzero"/>
        </clipPath>
        <g clip-path="url(#_clip5)">
            <g transform="matrix(0.819735,0,0,1,-3157.888921,-6368.638645)">
                <path d="M4859.836,3185.868L5405.376,3185.868L4309.882,7666.805L3726.587,7666.805L4859.836,3185.868Z" style="fill:rgb(231,190,106);"/>
            </g>
            <g transform="matrix(0.753613,0,0,1.245803,-2051.948418,-8253.165456)">
                <path d="M5104.367,3185.868L5953.515,3165.077L4673.627,7666.805L3499.087,7666.805L5104.367,3185.868Z" style="fill:rgb(231,190,106);"/>
            </g>
        </g>
        <path d="M1037.917,-59.583C1027.361,-38.75 1018.056,-22.986 1010,-12.292C1001.944,-1.597 986.25,3.75 962.917,3.75C942.083,3.75 923.958,-4.377 908.542,-20.632C893.125,-36.89 885.417,-53.357 885.417,-70.033L885.417,-162.988C885.417,-168.27 890.139,-173.689 899.583,-179.245C909.028,-184.805 923.958,-194.462 944.375,-208.216C964.792,-221.975 976.111,-228.854 978.333,-228.854C989.167,-221.615 1000.486,-214.164 1012.292,-206.504C1024.097,-198.848 1031.944,-193.071 1035.833,-189.173C1034.722,-186.113 1029.931,-179.028 1021.458,-167.917C1012.986,-156.806 1007.917,-151.25 1006.25,-151.25C1004.306,-151.25 995.694,-157.153 980.417,-168.958C965.139,-180.764 953.889,-186.667 946.667,-186.667C944.167,-186.667 941.528,-185.139 938.75,-182.083C935.972,-179.028 934.583,-175.972 934.583,-172.917L934.583,-85.417C934.583,-75.694 938.75,-66.667 947.083,-58.333C955.417,-50 965.833,-45.833 978.333,-45.833C987.222,-45.833 996.875,-48.264 1007.292,-53.125C1017.708,-57.986 1025.972,-63.611 1032.083,-70L1037.917,-70L1037.917,-59.583Z" style="fill:rgb(201,135,0);fill-rule:nonzero;"/>
        <clipPath id="_clip6">
            <path d="M1037.917,-59.583C1027.361,-38.75 1018.056,-22.986 1010,-12.292C1001.944,-1.597 986.25,3.75 962.917,3.75C942.083,3.75 923.958,-4.377 908.542,-20.632C893.125,-36.89 885.417,-53.357 885.417,-70.033L885.417,-162.988C885.417,-168.27 890.139,-173.689 899.583,-179.245C909.028,-184.805 923.958,-194.462 944.375,-208.216C964.792,-221.975 976.111,-228.854 978.333,-228.854C989.167,-221.615 1000.486,-214.164 1012.292,-206.504C1024.097,-198.848 1031.944,-193.071 1035.833,-189.173C1034.722,-186.113 1029.931,-179.028 1021.458,-167.917C1012.986,-156.806 1007.917,-151.25 1006.25,-151.25C1004.306,-151.25 995.694,-157.153 980.417,-168.958C965.139,-180.764 953.889,-186.667 946.667,-186.667C944.167,-186.667 941.528,-185.139 938.75,-182.083C935.972,-179.028 934.583,-175.972 934.583,-172.917L934.583,-85.417C934.583,-75.694 938.75,-66.667 947.083,-58.333C955.417,-50 965.833,-45.833 978.333,-45.833C987.222,-45.833 996.875,-48.264 1007.292,-53.125C1017.708,-57.986 1025.972,-63.611 1032.083,-70L1037.917,-70L1037.917,-59.583Z" clip-rule="nonzero"/>
        </clipPath>
        <g clip-path="url(#_clip6)">
            <g transform="matrix(0.819735,0,0,1,-3157.888921,-6368.638645)">
                <path d="M4859.836,3185.868L5405.376,3185.868L4309.882,7666.805L3726.587,7666.805L4859.836,3185.868Z" style="fill:rgb(231,190,106);"/>
            </g>
            <g transform="matrix(0.753613,0,0,1.245803,-2051.948418,-8253.165456)">
                <path d="M5104.367,3185.868L5953.515,3165.077L4673.627,7666.805L3499.087,7666.805L5104.367,3185.868Z" style="fill:rgb(231,190,106);"/>
            </g>
        </g>
        <path d="M1195.833,-196.25L1145.417,-196.25L1145.417,-73.75C1145.417,-61.528 1149.861,-52.431 1158.75,-46.458C1167.639,-40.486 1178.611,-37.5 1191.667,-37.5L1191.667,-29.922C1177.778,-18.976 1166.875,-10.766 1158.958,-5.293C1151.042,0.18 1145.972,2.917 1143.75,2.917C1135.694,2.917 1125.347,-2.556 1112.708,-13.503C1100.069,-24.453 1093.75,-36.999 1093.75,-51.139L1093.75,-190.846C1090.972,-192.786 1088.125,-194.171 1085.208,-195C1082.292,-195.833 1079.583,-196.25 1077.083,-196.25L1057.083,-196.25L1057.083,-217.917L1130,-282.083L1143.75,-282.083C1143.75,-275.694 1143.889,-269.861 1144.167,-264.583C1144.444,-259.306 1144.722,-254.028 1145,-248.75C1145,-243.194 1144.583,-237.083 1143.75,-230.417L1195.833,-230.417L1195.833,-196.25Z" style="fill:rgb(201,135,0);fill-rule:nonzero;"/>
        <clipPath id="_clip7">
            <path d="M1195.833,-196.25L1145.417,-196.25L1145.417,-73.75C1145.417,-61.528 1149.861,-52.431 1158.75,-46.458C1167.639,-40.486 1178.611,-37.5 1191.667,-37.5L1191.667,-29.922C1177.778,-18.976 1166.875,-10.766 1158.958,-5.293C1151.042,0.18 1145.972,2.917 1143.75,2.917C1135.694,2.917 1125.347,-2.556 1112.708,-13.503C1100.069,-24.453 1093.75,-36.999 1093.75,-51.139L1093.75,-190.846C1090.972,-192.786 1088.125,-194.171 1085.208,-195C1082.292,-195.833 1079.583,-196.25 1077.083,-196.25L1057.083,-196.25L1057.083,-217.917L1130,-282.083L1143.75,-282.083C1143.75,-275.694 1143.889,-269.861 1144.167,-264.583C1144.444,-259.306 1144.722,-254.028 1145,-248.75C1145,-243.194 1144.583,-237.083 1143.75,-230.417L1195.833,-230.417L1195.833,-196.25Z" clip-rule="nonzero"/>
        </clipPath>
        <g clip-path="url(#_clip7)">
            <g transform="matrix(0.819735,0,0,1,-3157.888921,-6368.638645)">
                <path d="M4859.836,3185.868L5405.376,3185.868L4309.882,7666.805L3726.587,7666.805L4859.836,3185.868Z" style="fill:rgb(231,190,106);"/>
            </g>
            <g transform="matrix(0.753613,0,0,1.245803,-2051.948418,-8253.165456)">
                <path d="M5104.367,3185.868L5953.515,3165.077L4673.627,7666.805L3499.087,7666.805L5104.367,3185.868Z" style="fill:rgb(231,190,106);"/>
            </g>
        </g>
        <path d="M1395.417,-84.167C1395.417,-60 1386.806,-39.306 1369.583,-22.083C1352.361,-4.861 1330.972,3.75 1305.417,3.75C1286.806,3.75 1266.181,-3.611 1243.542,-18.333C1220.903,-33.056 1209.583,-47.083 1209.583,-60.417C1209.583,-62.917 1215.625,-67.292 1227.708,-73.542C1239.792,-79.792 1250.278,-84.583 1259.167,-87.917L1259.167,-67.917C1259.167,-54.583 1263.542,-43.681 1272.292,-35.208C1281.042,-26.736 1292.083,-22.5 1305.417,-22.5C1318.194,-22.5 1329.028,-26.667 1337.917,-35C1346.806,-43.333 1351.25,-53.75 1351.25,-66.25C1351.25,-77.639 1347.292,-88.403 1339.375,-98.542C1331.458,-108.681 1322.083,-113.75 1311.25,-113.75C1301.528,-113.75 1288.194,-110.139 1271.25,-102.917C1254.306,-95.694 1244.306,-92.083 1241.25,-92.083C1235.417,-99.583 1229.653,-108.542 1223.958,-118.958C1218.264,-129.375 1215.417,-142.5 1215.417,-158.333C1215.417,-180.278 1224.514,-198.75 1242.708,-213.75C1260.903,-228.75 1280.556,-236.25 1301.667,-236.25C1316.389,-236.25 1333.056,-231.111 1351.667,-220.833C1370.278,-210.556 1382.222,-198.333 1387.5,-184.167L1337.083,-156.25C1332.917,-173.472 1328.611,-186.806 1324.167,-196.25C1319.722,-205.694 1309.444,-210.417 1293.333,-210.417C1283.889,-210.417 1275.833,-206.806 1269.167,-199.583C1262.5,-192.361 1259.167,-183.889 1259.167,-174.167C1259.167,-163.056 1262.917,-153.333 1270.417,-145C1277.917,-136.667 1286.25,-132.5 1295.417,-132.5C1305.972,-132.5 1320.417,-136.806 1338.75,-145.417C1357.083,-154.028 1366.667,-158.333 1367.5,-158.333C1373.611,-151.389 1379.792,-142.431 1386.042,-131.458C1392.292,-120.486 1395.417,-104.722 1395.417,-84.167Z" style="fill:rgb(201,135,0);fill-rule:nonzero;"/>
        <clipPath id="_clip8">
            <path d="M1395.417,-84.167C1395.417,-60 1386.806,-39.306 1369.583,-22.083C1352.361,-4.861 1330.972,3.75 1305.417,3.75C1286.806,3.75 1266.181,-3.611 1243.542,-18.333C1220.903,-33.056 1209.583,-47.083 1209.583,-60.417C1209.583,-62.917 1215.625,-67.292 1227.708,-73.542C1239.792,-79.792 1250.278,-84.583 1259.167,-87.917L1259.167,-67.917C1259.167,-54.583 1263.542,-43.681 1272.292,-35.208C1281.042,-26.736 1292.083,-22.5 1305.417,-22.5C1318.194,-22.5 1329.028,-26.667 1337.917,-35C1346.806,-43.333 1351.25,-53.75 1351.25,-66.25C1351.25,-77.639 1347.292,-88.403 1339.375,-98.542C1331.458,-108.681 1322.083,-113.75 1311.25,-113.75C1301.528,-113.75 1288.194,-110.139 1271.25,-102.917C1254.306,-95.694 1244.306,-92.083 1241.25,-92.083C1235.417,-99.583 1229.653,-108.542 1223.958,-118.958C1218.264,-129.375 1215.417,-142.5 1215.417,-158.333C1215.417,-180.278 1224.514,-198.75 1242.708,-213.75C1260.903,-228.75 1280.556,-236.25 1301.667,-236.25C1316.389,-236.25 1333.056,-231.111 1351.667,-220.833C1370.278,-210.556 1382.222,-198.333 1387.5,-184.167L1337.083,-156.25C1332.917,-173.472 1328.611,-186.806 1324.167,-196.25C1319.722,-205.694 1309.444,-210.417 1293.333,-210.417C1283.889,-210.417 1275.833,-206.806 1269.167,-199.583C1262.5,-192.361 1259.167,-183.889 1259.167,-174.167C1259.167,-163.056 1262.917,-153.333 1270.417,-145C1277.917,-136.667 1286.25,-132.5 1295.417,-132.5C1305.972,-132.5 1320.417,-136.806 1338.75,-145.417C1357.083,-154.028 1366.667,-158.333 1367.5,-158.333C1373.611,-151.389 1379.792,-142.431 1386.042,-131.458C1392.292,-120.486 1395.417,-104.722 1395.417,-84.167Z" clip-rule="nonzero"/>
        </clipPath>
        <g clip-path="url(#_clip8)">
            <g transform="matrix(0.819735,0,0,1,-3157.888921,-6368.638645)">
                <path d="M4859.836,3185.868L5405.376,3185.868L4309.882,7666.805L3726.587,7666.805L4859.836,3185.868Z" style="fill:rgb(231,190,106);"/>
            </g>
            <g transform="matrix(0.753613,0,0,1.245803,-2051.948418,-8253.165456)">
                <path d="M5104.367,3185.868L5953.515,3165.077L4673.627,7666.805L3499.087,7666.805L5104.367,3185.868Z" style="fill:rgb(231,190,106);"/>
            </g>
        </g>
        <path d="M1803.75,-84.167C1803.75,-60 1795.139,-39.306 1777.917,-22.083C1760.694,-4.861 1739.306,3.75 1713.75,3.75C1695.139,3.75 1674.514,-3.611 1651.875,-18.333C1629.236,-33.056 1617.917,-47.083 1617.917,-60.417C1617.917,-62.917 1623.958,-67.292 1636.042,-73.542C1648.125,-79.792 1658.611,-84.583 1667.5,-87.917L1667.5,-67.917C1667.5,-54.583 1671.875,-43.681 1680.625,-35.208C1689.375,-26.736 1700.417,-22.5 1713.75,-22.5C1726.528,-22.5 1737.361,-26.667 1746.25,-35C1755.139,-43.333 1759.583,-53.75 1759.583,-66.25C1759.583,-77.639 1755.625,-88.403 1747.708,-98.542C1739.792,-108.681 1730.417,-113.75 1719.583,-113.75C1709.861,-113.75 1696.528,-110.139 1679.583,-102.917C1662.639,-95.694 1652.639,-92.083 1649.583,-92.083C1643.75,-99.583 1637.986,-108.542 1632.292,-118.958C1626.597,-129.375 1623.75,-142.5 1623.75,-158.333C1623.75,-180.278 1632.847,-198.75 1651.042,-213.75C1669.236,-228.75 1688.889,-236.25 1710,-236.25C1724.722,-236.25 1741.389,-231.111 1760,-220.833C1778.611,-210.556 1790.556,-198.333 1795.833,-184.167L1745.417,-156.25C1741.25,-173.472 1736.944,-186.806 1732.5,-196.25C1728.056,-205.694 1717.778,-210.417 1701.667,-210.417C1692.222,-210.417 1684.167,-206.806 1677.5,-199.583C1670.833,-192.361 1667.5,-183.889 1667.5,-174.167C1667.5,-163.056 1671.25,-153.333 1678.75,-145C1686.25,-136.667 1694.583,-132.5 1703.75,-132.5C1714.306,-132.5 1728.75,-136.806 1747.083,-145.417C1765.417,-154.028 1775,-158.333 1775.833,-158.333C1781.944,-151.389 1788.125,-142.431 1794.375,-131.458C1800.625,-120.486 1803.75,-104.722 1803.75,-84.167Z" style="fill:rgb(201,135,0);fill-rule:nonzero;"/>
        <clipPath id="_clip9">
            <path d="M1803.75,-84.167C1803.75,-60 1795.139,-39.306 1777.917,-22.083C1760.694,-4.861 1739.306,3.75 1713.75,3.75C1695.139,3.75 1674.514,-3.611 1651.875,-18.333C1629.236,-33.056 1617.917,-47.083 1617.917,-60.417C1617.917,-62.917 1623.958,-67.292 1636.042,-73.542C1648.125,-79.792 1658.611,-84.583 1667.5,-87.917L1667.5,-67.917C1667.5,-54.583 1671.875,-43.681 1680.625,-35.208C1689.375,-26.736 1700.417,-22.5 1713.75,-22.5C1726.528,-22.5 1737.361,-26.667 1746.25,-35C1755.139,-43.333 1759.583,-53.75 1759.583,-66.25C1759.583,-77.639 1755.625,-88.403 1747.708,-98.542C1739.792,-108.681 1730.417,-113.75 1719.583,-113.75C1709.861,-113.75 1696.528,-110.139 1679.583,-102.917C1662.639,-95.694 1652.639,-92.083 1649.583,-92.083C1643.75,-99.583 1637.986,-108.542 1632.292,-118.958C1626.597,-129.375 1623.75,-142.5 1623.75,-158.333C1623.75,-180.278 1632.847,-198.75 1651.042,-213.75C1669.236,-228.75 1688.889,-236.25 1710,-236.25C1724.722,-236.25 1741.389,-231.111 1760,-220.833C1778.611,-210.556 1790.556,-198.333 1795.833,-184.167L1745.417,-156.25C1741.25,-173.472 1736.944,-186.806 1732.5,-196.25C1728.056,-205.694 1717.778,-210.417 1701.667,-210.417C1692.222,-210.417 1684.167,-206.806 1677.5,-199.583C1670.833,-192.361 1667.5,-183.889 1667.5,-174.167C1667.5,-163.056 1671.25,-153.333 1678.75,-145C1686.25,-136.667 1694.583,-132.5 1703.75,-132.5C1714.306,-132.5 1728.75,-136.806 1747.083,-145.417C1765.417,-154.028 1775,-158.333 1775.833,-158.333C1781.944,-151.389 1788.125,-142.431 1794.375,-131.458C1800.625,-120.486 1803.75,-104.722 1803.75,-84.167Z" clip-rule="nonzero"/>
        </clipPath>
        <g clip-path="url(#_clip9)">
            <g transform="matrix(0.819735,0,0,1,-3157.888921,-6368.638645)">
                <path d="M4859.836,3185.868L5405.376,3185.868L4309.882,7666.805L3726.587,7666.805L4859.836,3185.868Z" style="fill:rgb(231,190,106);"/>
            </g>
            <g transform="matrix(0.753613,0,0,1.245803,-2051.948418,-8253.165456)">
                <path d="M5104.367,3185.868L5953.515,3165.077L4673.627,7666.805L3499.087,7666.805L5104.367,3185.868Z" style="fill:rgb(231,190,106);"/>
            </g>
        </g>
        <path d="M2023.333,-64.167C2023.333,-55 2027.292,-48.125 2035.208,-43.542C2043.125,-38.958 2047.083,-34.583 2047.083,-30.417C2047.083,-27.639 2041.111,-21.25 2029.167,-11.25C2017.222,-1.25 2010.556,3.75 2009.167,3.75C1999.444,3.75 1990.417,-3.194 1982.083,-17.083C1975.417,-31.806 1971.806,-39.583 1971.25,-40.417C1964.306,-37.361 1952.5,-29.236 1935.833,-16.042C1919.167,-2.847 1908.889,3.75 1905,3.75C1900.278,3.75 1888.472,-2.431 1869.583,-14.792C1850.694,-27.153 1841.25,-39.583 1841.25,-52.083L1841.25,-134.583C1840.694,-136.25 1840.278,-138.681 1840,-141.875C1839.722,-145.069 1839.583,-147.778 1839.583,-150L1839.583,-167.917C1838.472,-172.917 1834.514,-178.958 1827.708,-186.042C1820.903,-193.125 1817.5,-197.778 1817.5,-200C1824.722,-207.778 1832.083,-215.417 1839.583,-222.917C1847.083,-230.417 1852.361,-234.167 1855.417,-234.167C1857.639,-234.167 1859.653,-233.194 1861.458,-231.25C1863.264,-229.306 1865.139,-227.5 1867.083,-225.833C1878.472,-218.056 1885.694,-210.556 1888.75,-203.333C1891.806,-196.111 1893.333,-185.139 1893.333,-170.417L1893.333,-82.5C1893.333,-74.167 1897.917,-66.389 1907.083,-59.167C1916.25,-51.944 1925,-48.333 1933.333,-48.333C1938.889,-48.333 1945.347,-50 1952.708,-53.333C1960.069,-56.667 1966.944,-60.972 1973.333,-66.25L1973.333,-225.833C1980.833,-227.5 1988.472,-229.097 1996.25,-230.625C2004.028,-232.153 2009.028,-233.333 2011.25,-234.167L2025.417,-234.167L2025.417,-130C2025.417,-121.389 2025.139,-110.764 2024.583,-98.125C2024.028,-85.486 2023.611,-74.167 2023.333,-64.167Z" style="fill:rgb(201,135,0);fill-rule:nonzero;"/>
        <clipPath id="_clip10">
            <path d="M2023.333,-64.167C2023.333,-55 2027.292,-48.125 2035.208,-43.542C2043.125,-38.958 2047.083,-34.583 2047.083,-30.417C2047.083,-27.639 2041.111,-21.25 2029.167,-11.25C2017.222,-1.25 2010.556,3.75 2009.167,3.75C1999.444,3.75 1990.417,-3.194 1982.083,-17.083C1975.417,-31.806 1971.806,-39.583 1971.25,-40.417C1964.306,-37.361 1952.5,-29.236 1935.833,-16.042C1919.167,-2.847 1908.889,3.75 1905,3.75C1900.278,3.75 1888.472,-2.431 1869.583,-14.792C1850.694,-27.153 1841.25,-39.583 1841.25,-52.083L1841.25,-134.583C1840.694,-136.25 1840.278,-138.681 1840,-141.875C1839.722,-145.069 1839.583,-147.778 1839.583,-150L1839.583,-167.917C1838.472,-172.917 1834.514,-178.958 1827.708,-186.042C1820.903,-193.125 1817.5,-197.778 1817.5,-200C1824.722,-207.778 1832.083,-215.417 1839.583,-222.917C1847.083,-230.417 1852.361,-234.167 1855.417,-234.167C1857.639,-234.167 1859.653,-233.194 1861.458,-231.25C1863.264,-229.306 1865.139,-227.5 1867.083,-225.833C1878.472,-218.056 1885.694,-210.556 1888.75,-203.333C1891.806,-196.111 1893.333,-185.139 1893.333,-170.417L1893.333,-82.5C1893.333,-74.167 1897.917,-66.389 1907.083,-59.167C1916.25,-51.944 1925,-48.333 1933.333,-48.333C1938.889,-48.333 1945.347,-50 1952.708,-53.333C1960.069,-56.667 1966.944,-60.972 1973.333,-66.25L1973.333,-225.833C1980.833,-227.5 1988.472,-229.097 1996.25,-230.625C2004.028,-232.153 2009.028,-233.333 2011.25,-234.167L2025.417,-234.167L2025.417,-130C2025.417,-121.389 2025.139,-110.764 2024.583,-98.125C2024.028,-85.486 2023.611,-74.167 2023.333,-64.167Z" clip-rule="nonzero"/>
        </clipPath>
        <g clip-path="url(#_clip10)">
            <g transform="matrix(0.819735,0,0,1,-3157.888921,-6368.638645)">
                <path d="M4859.836,3185.868L5405.376,3185.868L4309.882,7666.805L3726.587,7666.805L4859.836,3185.868Z" style="fill:rgb(231,190,106);"/>
            </g>
            <g transform="matrix(0.753613,0,0,1.245803,-2051.948418,-8253.165456)">
                <path d="M5104.367,3185.868L5953.515,3165.077L4673.627,7666.805L3499.087,7666.805L5104.367,3185.868Z" style="fill:rgb(231,190,106);"/>
            </g>
        </g>
        <path d="M2273.333,-121.204C2273.333,-108.197 2269.167,-93.804 2260.833,-78.027C2252.5,-62.25 2242.5,-49.863 2230.833,-40.866C2219.167,-31.868 2204.653,-21.35 2187.292,-9.31C2169.931,2.73 2159.861,8.75 2157.083,8.75L2083.333,-49.512C2083.056,-50.901 2082.639,-60.612 2082.083,-78.646C2081.528,-96.68 2081.25,-116.931 2081.25,-139.401L2081.25,-259.674C2076.528,-271.328 2072.708,-279.928 2069.792,-285.475C2066.875,-291.026 2064.028,-296.298 2061.25,-301.289C2061.25,-303.234 2067.917,-307.396 2081.25,-313.776C2094.583,-320.156 2107.222,-327.37 2119.167,-335.417L2129.167,-335.417L2129.167,-187.5L2137.5,-187.5C2138.056,-187.773 2146.111,-194.368 2161.667,-207.285C2177.222,-220.206 2186.528,-226.667 2189.583,-226.667C2209.028,-226.667 2227.847,-215.595 2246.042,-193.451C2264.236,-171.306 2273.333,-147.224 2273.333,-121.204ZM2233.333,-102.982C2233.333,-124.501 2226.111,-141.536 2211.667,-154.089C2197.222,-166.641 2183.75,-172.917 2171.25,-172.917C2158.194,-172.917 2148.611,-170.02 2142.5,-164.225C2136.389,-158.431 2133.333,-148.086 2133.333,-133.19C2133.333,-108.359 2136.458,-88.494 2142.708,-73.594C2148.958,-58.698 2163.056,-51.25 2185,-51.25C2200.278,-51.25 2212.153,-56.836 2220.625,-68.008C2229.097,-79.184 2233.333,-90.842 2233.333,-102.982Z" style="fill:rgb(201,135,0);fill-rule:nonzero;"/>
        <clipPath id="_clip11">
            <path d="M2273.333,-121.204C2273.333,-108.197 2269.167,-93.804 2260.833,-78.027C2252.5,-62.25 2242.5,-49.863 2230.833,-40.866C2219.167,-31.868 2204.653,-21.35 2187.292,-9.31C2169.931,2.73 2159.861,8.75 2157.083,8.75L2083.333,-49.512C2083.056,-50.901 2082.639,-60.612 2082.083,-78.646C2081.528,-96.68 2081.25,-116.931 2081.25,-139.401L2081.25,-259.674C2076.528,-271.328 2072.708,-279.928 2069.792,-285.475C2066.875,-291.026 2064.028,-296.298 2061.25,-301.289C2061.25,-303.234 2067.917,-307.396 2081.25,-313.776C2094.583,-320.156 2107.222,-327.37 2119.167,-335.417L2129.167,-335.417L2129.167,-187.5L2137.5,-187.5C2138.056,-187.773 2146.111,-194.368 2161.667,-207.285C2177.222,-220.206 2186.528,-226.667 2189.583,-226.667C2209.028,-226.667 2227.847,-215.595 2246.042,-193.451C2264.236,-171.306 2273.333,-147.224 2273.333,-121.204ZM2233.333,-102.982C2233.333,-124.501 2226.111,-141.536 2211.667,-154.089C2197.222,-166.641 2183.75,-172.917 2171.25,-172.917C2158.194,-172.917 2148.611,-170.02 2142.5,-164.225C2136.389,-158.431 2133.333,-148.086 2133.333,-133.19C2133.333,-108.359 2136.458,-88.494 2142.708,-73.594C2148.958,-58.698 2163.056,-51.25 2185,-51.25C2200.278,-51.25 2212.153,-56.836 2220.625,-68.008C2229.097,-79.184 2233.333,-90.842 2233.333,-102.982Z" clip-rule="nonzero"/>
        </clipPath>
        <g clip-path="url(#_clip11)">
            <g transform="matrix(0.819735,0,0,1,-3157.888921,-6368.638645)">
                <path d="M4859.836,3185.868L5405.376,3185.868L4309.882,7666.805L3726.587,7666.805L4859.836,3185.868Z" style="fill:rgb(231,190,106);"/>
            </g>
            <g transform="matrix(0.753613,0,0,1.245803,-2051.948418,-8253.165456)">
                <path d="M5104.367,3185.868L5953.515,3165.077L4673.627,7666.805L3499.087,7666.805L5104.367,3185.868Z" style="fill:rgb(231,190,106);"/>
            </g>
        </g>
        <path d="M2630.417,2.083L2580.417,2.083L2580.417,-103.125C2580.417,-108.819 2580.556,-114.306 2580.833,-119.583C2580.833,-140.139 2578.264,-154.861 2573.125,-163.75C2567.986,-172.639 2556.528,-177.083 2538.75,-177.083C2522.639,-177.083 2511.875,-174.861 2506.458,-170.417C2501.042,-165.972 2498.333,-158.611 2498.333,-148.333C2498.333,-142.5 2498.75,-134.236 2499.583,-123.542C2500.417,-112.847 2500.833,-106.111 2500.833,-103.333L2500.833,2.083L2449.167,2.083L2449.167,-147.5C2449.167,-156.944 2445.069,-164.583 2436.875,-170.417C2428.681,-176.25 2419.306,-179.167 2408.75,-179.167C2407.361,-179.167 2400.972,-177.847 2389.583,-175.208C2378.194,-172.569 2371.389,-170.556 2369.167,-169.167L2369.167,2.083L2319.583,2.083L2319.583,-139.167C2319.583,-158.611 2317.292,-171.806 2312.708,-178.75C2308.125,-185.694 2298.333,-189.167 2283.333,-189.167L2283.333,-193.346C2284.444,-197.522 2289.653,-203.229 2298.958,-210.469C2308.264,-217.708 2317.639,-224.67 2327.083,-231.354C2337.917,-231.354 2348.194,-224.392 2357.917,-210.469C2362.083,-202.674 2366.389,-194.878 2370.833,-187.083L2375.417,-187.083C2378.75,-190.703 2389.583,-198.987 2407.917,-211.934C2426.25,-224.881 2436.667,-231.354 2439.167,-231.354C2445,-231.354 2453.958,-228.778 2466.042,-223.626C2478.125,-218.474 2485.417,-214.227 2487.917,-210.885C2490.417,-207.548 2492.778,-202.745 2495,-196.478C2497.222,-190.215 2500,-187.083 2503.333,-187.083C2504.167,-187.083 2515,-194.462 2535.833,-209.219C2556.667,-223.976 2568.889,-231.354 2572.5,-231.354C2585.556,-231.354 2598.472,-226.005 2611.25,-215.306C2624.028,-204.607 2630.417,-186.751 2630.417,-161.738L2630.417,2.083Z" style="fill:rgb(201,135,0);fill-rule:nonzero;"/>
        <clipPath id="_clip12">
            <path d="M2630.417,2.083L2580.417,2.083L2580.417,-103.125C2580.417,-108.819 2580.556,-114.306 2580.833,-119.583C2580.833,-140.139 2578.264,-154.861 2573.125,-163.75C2567.986,-172.639 2556.528,-177.083 2538.75,-177.083C2522.639,-177.083 2511.875,-174.861 2506.458,-170.417C2501.042,-165.972 2498.333,-158.611 2498.333,-148.333C2498.333,-142.5 2498.75,-134.236 2499.583,-123.542C2500.417,-112.847 2500.833,-106.111 2500.833,-103.333L2500.833,2.083L2449.167,2.083L2449.167,-147.5C2449.167,-156.944 2445.069,-164.583 2436.875,-170.417C2428.681,-176.25 2419.306,-179.167 2408.75,-179.167C2407.361,-179.167 2400.972,-177.847 2389.583,-175.208C2378.194,-172.569 2371.389,-170.556 2369.167,-169.167L2369.167,2.083L2319.583,2.083L2319.583,-139.167C2319.583,-158.611 2317.292,-171.806 2312.708,-178.75C2308.125,-185.694 2298.333,-189.167 2283.333,-189.167L2283.333,-193.346C2284.444,-197.522 2289.653,-203.229 2298.958,-210.469C2308.264,-217.708 2317.639,-224.67 2327.083,-231.354C2337.917,-231.354 2348.194,-224.392 2357.917,-210.469C2362.083,-202.674 2366.389,-194.878 2370.833,-187.083L2375.417,-187.083C2378.75,-190.703 2389.583,-198.987 2407.917,-211.934C2426.25,-224.881 2436.667,-231.354 2439.167,-231.354C2445,-231.354 2453.958,-228.778 2466.042,-223.626C2478.125,-218.474 2485.417,-214.227 2487.917,-210.885C2490.417,-207.548 2492.778,-202.745 2495,-196.478C2497.222,-190.215 2500,-187.083 2503.333,-187.083C2504.167,-187.083 2515,-194.462 2535.833,-209.219C2556.667,-223.976 2568.889,-231.354 2572.5,-231.354C2585.556,-231.354 2598.472,-226.005 2611.25,-215.306C2624.028,-204.607 2630.417,-186.751 2630.417,-161.738L2630.417,2.083Z" clip-rule="nonzero"/>
        </clipPath>
        <g clip-path="url(#_clip12)">
            <g transform="matrix(0.819735,0,0,1,-3157.888921,-6368.638645)">
                <path d="M4859.836,3185.868L5405.376,3185.868L4309.882,7666.805L3726.587,7666.805L4859.836,3185.868Z" style="fill:rgb(231,190,106);"/>
            </g>
            <g transform="matrix(0.753613,0,0,1.245803,-2051.948418,-8253.165456)">
                <path d="M5104.367,3185.868L5953.515,3165.077L4673.627,7666.805L3499.087,7666.805L5104.367,3185.868Z" style="fill:rgb(231,190,106);"/>
            </g>
        </g>
        <path d="M2754.167,-325L2754.167,-316.25C2754.167,-313.472 2754.306,-310.972 2754.583,-308.75C2754.583,-302.083 2751.25,-297.5 2744.583,-295C2727.083,-290 2708.194,-284.444 2687.917,-278.333C2687.361,-280.556 2687.083,-282.222 2687.083,-283.333C2687.639,-286.944 2687.917,-290 2687.917,-292.5C2687.917,-301.944 2693.542,-309.722 2704.792,-315.833C2716.042,-321.944 2730.417,-329.722 2747.917,-339.167L2754.167,-339.167C2755,-335.833 2755.417,-333.056 2755.417,-330.833C2755.417,-328.333 2755.278,-326.806 2755,-326.25C2754.722,-325.694 2754.444,-325.278 2754.167,-325ZM2784.583,-22.917C2782.361,-20.972 2773.958,-15.764 2759.375,-7.292C2744.792,1.181 2736.389,5.417 2734.167,5.417C2725.833,-1.25 2717.431,-8.403 2708.958,-16.042C2700.486,-23.681 2696.25,-30 2696.25,-35L2696.25,-159.583C2696.25,-169.583 2690.833,-177.639 2680,-183.75C2669.167,-189.861 2663.75,-194.028 2663.75,-196.25C2671.528,-203.75 2679.514,-211.25 2687.708,-218.75C2695.903,-226.25 2701.25,-230 2703.75,-230C2713.75,-223.333 2723.611,-215.486 2733.333,-206.458C2743.056,-197.431 2747.917,-187.222 2747.917,-175.833L2747.917,-101.25C2747.917,-76.25 2749.792,-58.611 2753.542,-48.333C2757.292,-38.056 2767.639,-32.222 2784.583,-30.833L2784.583,-22.917Z" style="fill:rgb(201,135,0);fill-rule:nonzero;"/>
        <clipPath id="_clip13">
            <path d="M2754.167,-325L2754.167,-316.25C2754.167,-313.472 2754.306,-310.972 2754.583,-308.75C2754.583,-302.083 2751.25,-297.5 2744.583,-295C2727.083,-290 2708.194,-284.444 2687.917,-278.333C2687.361,-280.556 2687.083,-282.222 2687.083,-283.333C2687.639,-286.944 2687.917,-290 2687.917,-292.5C2687.917,-301.944 2693.542,-309.722 2704.792,-315.833C2716.042,-321.944 2730.417,-329.722 2747.917,-339.167L2754.167,-339.167C2755,-335.833 2755.417,-333.056 2755.417,-330.833C2755.417,-328.333 2755.278,-326.806 2755,-326.25C2754.722,-325.694 2754.444,-325.278 2754.167,-325ZM2784.583,-22.917C2782.361,-20.972 2773.958,-15.764 2759.375,-7.292C2744.792,1.181 2736.389,5.417 2734.167,5.417C2725.833,-1.25 2717.431,-8.403 2708.958,-16.042C2700.486,-23.681 2696.25,-30 2696.25,-35L2696.25,-159.583C2696.25,-169.583 2690.833,-177.639 2680,-183.75C2669.167,-189.861 2663.75,-194.028 2663.75,-196.25C2671.528,-203.75 2679.514,-211.25 2687.708,-218.75C2695.903,-226.25 2701.25,-230 2703.75,-230C2713.75,-223.333 2723.611,-215.486 2733.333,-206.458C2743.056,-197.431 2747.917,-187.222 2747.917,-175.833L2747.917,-101.25C2747.917,-76.25 2749.792,-58.611 2753.542,-48.333C2757.292,-38.056 2767.639,-32.222 2784.583,-30.833L2784.583,-22.917Z" clip-rule="nonzero"/>
        </clipPath>
        <g clip-path="url(#_clip13)">
            <g transform="matrix(0.819735,0,0,1,-3157.888921,-6368.638645)">
                <path d="M4859.836,3185.868L5405.376,3185.868L4309.882,7666.805L3726.587,7666.805L4859.836,3185.868Z" style="fill:rgb(231,190,106);"/>
            </g>
            <g transform="matrix(0.753613,0,0,1.245803,-2051.948418,-8253.165456)">
                <path d="M5104.367,3185.868L5953.515,3165.077L4673.627,7666.805L3499.087,7666.805L5104.367,3185.868Z" style="fill:rgb(231,190,106);"/>
            </g>
        </g>
        <path d="M2935,-196.25L2884.583,-196.25L2884.583,-73.75C2884.583,-61.528 2889.028,-52.431 2897.917,-46.458C2906.806,-40.486 2917.778,-37.5 2930.833,-37.5L2930.833,-29.922C2916.944,-18.976 2906.042,-10.766 2898.125,-5.293C2890.208,0.18 2885.139,2.917 2882.917,2.917C2874.861,2.917 2864.514,-2.556 2851.875,-13.503C2839.236,-24.453 2832.917,-36.999 2832.917,-51.139L2832.917,-190.846C2830.139,-192.786 2827.292,-194.171 2824.375,-195C2821.458,-195.833 2818.75,-196.25 2816.25,-196.25L2796.25,-196.25L2796.25,-217.917L2869.167,-282.083L2882.917,-282.083C2882.917,-275.694 2883.056,-269.861 2883.333,-264.583C2883.611,-259.306 2883.889,-254.028 2884.167,-248.75C2884.167,-243.194 2883.75,-237.083 2882.917,-230.417L2935,-230.417L2935,-196.25Z" style="fill:rgb(201,135,0);fill-rule:nonzero;"/>
        <clipPath id="_clip14">
            <path d="M2935,-196.25L2884.583,-196.25L2884.583,-73.75C2884.583,-61.528 2889.028,-52.431 2897.917,-46.458C2906.806,-40.486 2917.778,-37.5 2930.833,-37.5L2930.833,-29.922C2916.944,-18.976 2906.042,-10.766 2898.125,-5.293C2890.208,0.18 2885.139,2.917 2882.917,2.917C2874.861,2.917 2864.514,-2.556 2851.875,-13.503C2839.236,-24.453 2832.917,-36.999 2832.917,-51.139L2832.917,-190.846C2830.139,-192.786 2827.292,-194.171 2824.375,-195C2821.458,-195.833 2818.75,-196.25 2816.25,-196.25L2796.25,-196.25L2796.25,-217.917L2869.167,-282.083L2882.917,-282.083C2882.917,-275.694 2883.056,-269.861 2883.333,-264.583C2883.611,-259.306 2883.889,-254.028 2884.167,-248.75C2884.167,-243.194 2883.75,-237.083 2882.917,-230.417L2935,-230.417L2935,-196.25Z" clip-rule="nonzero"/>
        </clipPath>
        <g clip-path="url(#_clip14)">
            <g transform="matrix(0.819735,0,0,1,-3157.888921,-6368.638645)">
                <path d="M4859.836,3185.868L5405.376,3185.868L4309.882,7666.805L3726.587,7666.805L4859.836,3185.868Z" style="fill:rgb(231,190,106);"/>
            </g>
            <g transform="matrix(0.753613,0,0,1.245803,-2051.948418,-8253.165456)">
                <path d="M5104.367,3185.868L5953.515,3165.077L4673.627,7666.805L3499.087,7666.805L5104.367,3185.868Z" style="fill:rgb(231,190,106);"/>
            </g>
        </g>
        <path d="M3091.667,-196.25L3041.25,-196.25L3041.25,-73.75C3041.25,-61.528 3045.694,-52.431 3054.583,-46.458C3063.472,-40.486 3074.444,-37.5 3087.5,-37.5L3087.5,-29.922C3073.611,-18.976 3062.708,-10.766 3054.792,-5.293C3046.875,0.18 3041.806,2.917 3039.583,2.917C3031.528,2.917 3021.181,-2.556 3008.542,-13.503C2995.903,-24.453 2989.583,-36.999 2989.583,-51.139L2989.583,-190.846C2986.806,-192.786 2983.958,-194.171 2981.042,-195C2978.125,-195.833 2975.417,-196.25 2972.917,-196.25L2952.917,-196.25L2952.917,-217.917L3025.833,-282.083L3039.583,-282.083C3039.583,-275.694 3039.722,-269.861 3040,-264.583C3040.278,-259.306 3040.556,-254.028 3040.833,-248.75C3040.833,-243.194 3040.417,-237.083 3039.583,-230.417L3091.667,-230.417L3091.667,-196.25Z" style="fill:rgb(201,135,0);fill-rule:nonzero;"/>
        <clipPath id="_clip15">
            <path d="M3091.667,-196.25L3041.25,-196.25L3041.25,-73.75C3041.25,-61.528 3045.694,-52.431 3054.583,-46.458C3063.472,-40.486 3074.444,-37.5 3087.5,-37.5L3087.5,-29.922C3073.611,-18.976 3062.708,-10.766 3054.792,-5.293C3046.875,0.18 3041.806,2.917 3039.583,2.917C3031.528,2.917 3021.181,-2.556 3008.542,-13.503C2995.903,-24.453 2989.583,-36.999 2989.583,-51.139L2989.583,-190.846C2986.806,-192.786 2983.958,-194.171 2981.042,-195C2978.125,-195.833 2975.417,-196.25 2972.917,-196.25L2952.917,-196.25L2952.917,-217.917L3025.833,-282.083L3039.583,-282.083C3039.583,-275.694 3039.722,-269.861 3040,-264.583C3040.278,-259.306 3040.556,-254.028 3040.833,-248.75C3040.833,-243.194 3040.417,-237.083 3039.583,-230.417L3091.667,-230.417L3091.667,-196.25Z" clip-rule="nonzero"/>
        </clipPath>
        <g clip-path="url(#_clip15)">
            <g transform="matrix(0.819735,0,0,1,-3157.888921,-6368.638645)">
                <path d="M4859.836,3185.868L5405.376,3185.868L4309.882,7666.805L3726.587,7666.805L4859.836,3185.868Z" style="fill:rgb(231,190,106);"/>
            </g>
            <g transform="matrix(0.753613,0,0,1.245803,-2051.948418,-8253.165456)">
                <path d="M5104.367,3185.868L5953.515,3165.077L4673.627,7666.805L3499.087,7666.805L5104.367,3185.868Z" style="fill:rgb(231,190,106);"/>
            </g>
        </g>
        <path d="M3258.333,-57.917C3251.389,-44.119 3244.167,-30.321 3236.667,-16.523C3229.167,-2.73 3223.056,4.167 3218.333,4.167C3210.833,4.167 3199.097,1.944 3183.125,-2.5C3167.153,-6.949 3151.25,-17.578 3135.417,-34.388C3119.583,-51.202 3111.667,-76.007 3111.667,-108.802C3111.667,-131.866 3114.444,-148.331 3120,-158.197C3125.556,-168.062 3136.181,-180.844 3151.875,-196.543C3167.569,-212.246 3177.708,-222.32 3182.292,-226.764C3186.875,-231.213 3190.694,-233.438 3193.75,-233.438C3206.806,-224.253 3220,-214.581 3233.333,-204.421C3246.667,-194.264 3254.306,-186.402 3256.25,-180.833L3162.083,-88.757C3169.583,-74.03 3177.917,-64.653 3187.083,-60.625C3196.25,-56.597 3208.611,-54.583 3224.167,-54.583C3237.778,-54.583 3247.778,-55.694 3254.167,-57.917L3258.333,-57.917ZM3159.583,-108.867L3204.167,-152.572C3200.556,-159.238 3195.903,-164.377 3190.208,-167.988C3184.514,-171.599 3179.028,-174.655 3173.75,-177.155C3167.917,-177.155 3162.292,-172.224 3156.875,-162.363C3151.458,-152.507 3148.75,-142.305 3148.75,-131.758C3148.75,-120.382 3152.361,-112.752 3159.583,-108.867Z" style="fill:rgb(201,135,0);fill-rule:nonzero;"/>
        <clipPath id="_clip16">
            <path d="M3258.333,-57.917C3251.389,-44.119 3244.167,-30.321 3236.667,-16.523C3229.167,-2.73 3223.056,4.167 3218.333,4.167C3210.833,4.167 3199.097,1.944 3183.125,-2.5C3167.153,-6.949 3151.25,-17.578 3135.417,-34.388C3119.583,-51.202 3111.667,-76.007 3111.667,-108.802C3111.667,-131.866 3114.444,-148.331 3120,-158.197C3125.556,-168.062 3136.181,-180.844 3151.875,-196.543C3167.569,-212.246 3177.708,-222.32 3182.292,-226.764C3186.875,-231.213 3190.694,-233.438 3193.75,-233.438C3206.806,-224.253 3220,-214.581 3233.333,-204.421C3246.667,-194.264 3254.306,-186.402 3256.25,-180.833L3162.083,-88.757C3169.583,-74.03 3177.917,-64.653 3187.083,-60.625C3196.25,-56.597 3208.611,-54.583 3224.167,-54.583C3237.778,-54.583 3247.778,-55.694 3254.167,-57.917L3258.333,-57.917ZM3159.583,-108.867L3204.167,-152.572C3200.556,-159.238 3195.903,-164.377 3190.208,-167.988C3184.514,-171.599 3179.028,-174.655 3173.75,-177.155C3167.917,-177.155 3162.292,-172.224 3156.875,-162.363C3151.458,-152.507 3148.75,-142.305 3148.75,-131.758C3148.75,-120.382 3152.361,-112.752 3159.583,-108.867Z" clip-rule="nonzero"/>
        </clipPath>
        <g clip-path="url(#_clip16)">
            <g transform="matrix(0.819735,0,0,1,-3157.888921,-6368.638645)">
                <path d="M4859.836,3185.868L5405.376,3185.868L4309.882,7666.805L3726.587,7666.805L4859.836,3185.868Z" style="fill:rgb(231,190,106);"/>
            </g>
            <g transform="matrix(0.753613,0,0,1.245803,-2051.948418,-8253.165456)">
                <path d="M5104.367,3185.868L5953.515,3165.077L4673.627,7666.805L3499.087,7666.805L5104.367,3185.868Z" style="fill:rgb(231,190,106);"/>
            </g>
        </g>
        <path d="M3493.333,-27.5C3483.611,-21.111 3474.444,-14.167 3465.833,-6.667C3457.222,0.833 3451.806,4.583 3449.583,4.583C3441.806,4.583 3432.222,-1.389 3420.833,-13.333C3410.556,-25.833 3405.139,-32.5 3404.583,-33.333C3401.25,-30.556 3391.667,-23.542 3375.833,-12.292C3360,-1.042 3350.833,4.583 3348.333,4.583C3336.944,4.583 3321.111,-5.556 3300.833,-25.833C3280.556,-46.111 3270.417,-73.194 3270.417,-107.083C3270.417,-129.306 3276.736,-149.653 3289.375,-168.125C3302.014,-186.597 3315.764,-201.597 3330.625,-213.125C3345.486,-224.653 3354.583,-230.417 3357.917,-230.417C3363.75,-228.75 3369.653,-226.319 3375.625,-223.125C3381.597,-219.931 3389.583,-214.444 3399.583,-206.667L3404.167,-206.667L3404.167,-248.333C3404.167,-265.833 3402.778,-279.028 3400,-287.917C3396.667,-294.028 3393.333,-300.139 3390,-306.25C3390,-307.917 3395.903,-312.153 3407.708,-318.958C3419.514,-325.764 3433.472,-332.778 3449.583,-340L3453.75,-340L3453.75,-67.083C3458.472,-59.583 3463.333,-52.083 3468.333,-44.583C3473.056,-39.583 3481.389,-37.083 3493.333,-37.083L3493.333,-27.5ZM3404.167,-80.833L3404.167,-134.583C3404.167,-145.417 3398.264,-156.181 3386.458,-166.875C3374.653,-177.569 3363.889,-182.917 3354.167,-182.917C3344.444,-182.917 3334.375,-177.222 3323.958,-165.833C3313.542,-154.444 3308.333,-141.528 3308.333,-127.083C3308.333,-117.083 3313.819,-102.292 3324.792,-82.708C3335.764,-63.125 3349.583,-53.333 3366.25,-53.333C3378.194,-53.333 3387.5,-56.389 3394.167,-62.5C3400.833,-68.611 3404.167,-74.722 3404.167,-80.833Z" style="fill:rgb(201,135,0);fill-rule:nonzero;"/>
        <clipPath id="_clip17">
            <path d="M3493.333,-27.5C3483.611,-21.111 3474.444,-14.167 3465.833,-6.667C3457.222,0.833 3451.806,4.583 3449.583,4.583C3441.806,4.583 3432.222,-1.389 3420.833,-13.333C3410.556,-25.833 3405.139,-32.5 3404.583,-33.333C3401.25,-30.556 3391.667,-23.542 3375.833,-12.292C3360,-1.042 3350.833,4.583 3348.333,4.583C3336.944,4.583 3321.111,-5.556 3300.833,-25.833C3280.556,-46.111 3270.417,-73.194 3270.417,-107.083C3270.417,-129.306 3276.736,-149.653 3289.375,-168.125C3302.014,-186.597 3315.764,-201.597 3330.625,-213.125C3345.486,-224.653 3354.583,-230.417 3357.917,-230.417C3363.75,-228.75 3369.653,-226.319 3375.625,-223.125C3381.597,-219.931 3389.583,-214.444 3399.583,-206.667L3404.167,-206.667L3404.167,-248.333C3404.167,-265.833 3402.778,-279.028 3400,-287.917C3396.667,-294.028 3393.333,-300.139 3390,-306.25C3390,-307.917 3395.903,-312.153 3407.708,-318.958C3419.514,-325.764 3433.472,-332.778 3449.583,-340L3453.75,-340L3453.75,-67.083C3458.472,-59.583 3463.333,-52.083 3468.333,-44.583C3473.056,-39.583 3481.389,-37.083 3493.333,-37.083L3493.333,-27.5ZM3404.167,-80.833L3404.167,-134.583C3404.167,-145.417 3398.264,-156.181 3386.458,-166.875C3374.653,-177.569 3363.889,-182.917 3354.167,-182.917C3344.444,-182.917 3334.375,-177.222 3323.958,-165.833C3313.542,-154.444 3308.333,-141.528 3308.333,-127.083C3308.333,-117.083 3313.819,-102.292 3324.792,-82.708C3335.764,-63.125 3349.583,-53.333 3366.25,-53.333C3378.194,-53.333 3387.5,-56.389 3394.167,-62.5C3400.833,-68.611 3404.167,-74.722 3404.167,-80.833Z" clip-rule="nonzero"/>
        </clipPath>
        <g clip-path="url(#_clip17)">
            <g transform="matrix(0.819735,0,0,1,-3157.888921,-6368.638645)">
                <path d="M4859.836,3185.868L5405.376,3185.868L4309.882,7666.805L3726.587,7666.805L4859.836,3185.868Z" style="fill:rgb(231,190,106);"/>
            </g>
            <g transform="matrix(0.753613,0,0,1.245803,-2051.948418,-8253.165456)">
                <path d="M5104.367,3185.868L5953.515,3165.077L4673.627,7666.805L3499.087,7666.805L5104.367,3185.868Z" style="fill:rgb(231,190,106);"/>
            </g>
        </g>
    </g>
    <g transform="matrix(1,0,0,1,-150.705152,-2956.995245)">
        <path d="M4546.001,8966.434L4119.334,8966.434C4156.312,8837.012 4179.779,8732.123 4189.734,8651.767C4199.69,8571.412 4204.668,8456.567 4204.668,8307.234C4204.668,8058.345 4189.734,7891.234 4159.868,7805.901C4117.201,7739.056 4083.068,7681.456 4057.468,7633.101L4499.068,7355.767L4511.868,7355.767L4511.868,8580.301L4546.001,8966.434Z" style="fill:url(#_Linear18);fill-rule:nonzero;"/>
        <clipPath id="_clip19">
            <path d="M4546.001,8966.434L4119.334,8966.434C4156.312,8837.012 4179.779,8732.123 4189.734,8651.767C4199.69,8571.412 4204.668,8456.567 4204.668,8307.234C4204.668,8058.345 4189.734,7891.234 4159.868,7805.901C4117.201,7739.056 4083.068,7681.456 4057.468,7633.101L4499.068,7355.767L4511.868,7355.767L4511.868,8580.301L4546.001,8966.434Z" clip-rule="nonzero"/>
        </clipPath>
        <g clip-path="url(#_clip19)">
            <g transform="matrix(0.753613,0,0,1.245803,1830.444381,1072.468434)">
                <path d="M5104.367,3185.868L5953.515,3165.077L4673.627,7666.805L3499.087,7666.805L5104.367,3185.868Z" style="fill:rgb(231,190,106);"/>
            </g>
            <g transform="matrix(0.819735,0,0,1,724.503877,2956.995245)">
                <path d="M4859.836,3185.868L5405.376,3185.868L4309.882,7666.805L3726.587,7666.805L4859.836,3185.868Z" style="fill:rgb(231,190,106);"/>
            </g>
        </g>
        <path d="M5742.801,8386.167C5742.801,8544.034 5744.934,8664.567 5749.201,8747.767C5753.468,8830.967 5758.446,8898.878 5764.134,8951.501L5456.934,8951.501L5452.668,8401.101L4671.868,8465.067L5683.068,7385.634L5742.801,7385.634L5742.801,8183.501L5885.734,8183.501L5875.068,8349.901L5742.801,8386.167ZM5452.668,8221.301L5478.268,7813.401L5017.468,8259.001L5452.668,8221.301Z" style="fill:url(#_Linear20);fill-rule:nonzero;"/>
        <clipPath id="_clip21">
            <path d="M5742.801,8386.167C5742.801,8544.034 5744.934,8664.567 5749.201,8747.767C5753.468,8830.967 5758.446,8898.878 5764.134,8951.501L5456.934,8951.501L5452.668,8401.101L4671.868,8465.067L5683.068,7385.634L5742.801,7385.634L5742.801,8183.501L5885.734,8183.501L5875.068,8349.901L5742.801,8386.167ZM5452.668,8221.301L5478.268,7813.401L5017.468,8259.001L5452.668,8221.301Z" clip-rule="nonzero"/>
        </clipPath>
        <g clip-path="url(#_clip21)">
            <g transform="matrix(0.753613,0,0,1.245803,1830.444381,1072.468434)">
                <path d="M5104.367,3185.868L5953.515,3165.077L4673.627,7666.805L3499.087,7666.805L5104.367,3185.868Z" style="fill:rgb(231,190,106);"/>
            </g>
            <g transform="matrix(0.819735,0,0,1,724.503877,2956.995245)">
                <path d="M4859.836,3185.868L5405.376,3185.868L4309.882,7666.805L3726.587,7666.805L4859.836,3185.868Z" style="fill:rgb(231,190,106);"/>
            </g>
        </g>
        <path d="M7197.734,7355.767L7197.734,7379.067C7172.134,7496.312 7146.534,7572.945 7120.934,7608.967C7095.334,7644.967 7065.468,7662.967 7031.334,7662.967L6419.068,7662.967C6404.846,7680.034 6388.134,7708.478 6368.934,7748.301C6349.734,7788.123 6340.134,7820.123 6340.134,7844.301C6340.134,7851.412 6355.423,7858.167 6386.001,7864.567C6416.579,7870.967 6455.334,7874.167 6502.268,7874.167C6661.557,7874.167 6814.09,7921.101 6959.868,8014.967C7105.646,8108.834 7178.534,8223.323 7178.534,8358.434C7178.534,8449.456 7130.534,8540.834 7034.534,8632.567C6938.534,8724.301 6831.868,8806.078 6714.534,8877.901C6597.201,8949.723 6532.846,8985.634 6521.468,8985.634L5994.534,8622.967C6005.912,8607.323 6042.89,8574.612 6105.468,8524.834C6168.046,8475.056 6212.846,8444.478 6239.868,8433.101L6704.934,8736.034C6767.512,8714.701 6814.446,8676.301 6845.734,8620.834C6877.023,8565.367 6892.668,8517.723 6892.668,8477.901C6892.668,8401.101 6827.957,8326.789 6698.534,8254.967C6569.112,8183.145 6379.246,8147.234 6128.934,8147.234L6128.934,8106.701C6140.312,8082.523 6164.49,8014.967 6201.468,7904.034C6238.446,7793.101 6265.468,7710.256 6282.534,7655.501C6299.601,7600.745 6318.801,7541.012 6340.134,7476.301C6361.468,7411.589 6384.934,7379.234 6410.534,7379.234L6452.134,7379.234C6462.801,7379.234 6470.979,7377.689 6476.668,7374.601C6476.668,7373.067 6462.801,7369.612 6435.068,7364.234C6407.334,7358.834 6392.046,7354.589 6389.201,7351.501C6434.712,7354.745 6512.223,7358.401 6621.734,7362.467C6731.246,7366.534 6843.601,7368.567 6958.801,7368.567L6999.334,7368.567C7103.157,7368.567 7169.29,7364.301 7197.734,7355.767Z" style="fill:url(#_Linear22);fill-rule:nonzero;"/>
        <clipPath id="_clip23">
            <path d="M7197.734,7355.767L7197.734,7379.067C7172.134,7496.312 7146.534,7572.945 7120.934,7608.967C7095.334,7644.967 7065.468,7662.967 7031.334,7662.967L6419.068,7662.967C6404.846,7680.034 6388.134,7708.478 6368.934,7748.301C6349.734,7788.123 6340.134,7820.123 6340.134,7844.301C6340.134,7851.412 6355.423,7858.167 6386.001,7864.567C6416.579,7870.967 6455.334,7874.167 6502.268,7874.167C6661.557,7874.167 6814.09,7921.101 6959.868,8014.967C7105.646,8108.834 7178.534,8223.323 7178.534,8358.434C7178.534,8449.456 7130.534,8540.834 7034.534,8632.567C6938.534,8724.301 6831.868,8806.078 6714.534,8877.901C6597.201,8949.723 6532.846,8985.634 6521.468,8985.634L5994.534,8622.967C6005.912,8607.323 6042.89,8574.612 6105.468,8524.834C6168.046,8475.056 6212.846,8444.478 6239.868,8433.101L6704.934,8736.034C6767.512,8714.701 6814.446,8676.301 6845.734,8620.834C6877.023,8565.367 6892.668,8517.723 6892.668,8477.901C6892.668,8401.101 6827.957,8326.789 6698.534,8254.967C6569.112,8183.145 6379.246,8147.234 6128.934,8147.234L6128.934,8106.701C6140.312,8082.523 6164.49,8014.967 6201.468,7904.034C6238.446,7793.101 6265.468,7710.256 6282.534,7655.501C6299.601,7600.745 6318.801,7541.012 6340.134,7476.301C6361.468,7411.589 6384.934,7379.234 6410.534,7379.234L6452.134,7379.234C6462.801,7379.234 6470.979,7377.689 6476.668,7374.601C6476.668,7373.067 6462.801,7369.612 6435.068,7364.234C6407.334,7358.834 6392.046,7354.589 6389.201,7351.501C6434.712,7354.745 6512.223,7358.401 6621.734,7362.467C6731.246,7366.534 6843.601,7368.567 6958.801,7368.567L6999.334,7368.567C7103.157,7368.567 7169.29,7364.301 7197.734,7355.767Z" clip-rule="nonzero"/>
        </clipPath>
        <g clip-path="url(#_clip23)">
            <g transform="matrix(0.753613,0,0,1.245803,1830.444381,1072.468434)">
                <path d="M5104.367,3185.868L5953.515,3165.077L4673.627,7666.805L3499.087,7666.805L5104.367,3185.868Z" style="fill:rgb(231,190,106);"/>
            </g>
            <g transform="matrix(0.819735,0,0,1,724.503877,2956.995245)">
                <path d="M4859.836,3185.868L5405.376,3185.868L4309.882,7666.805L3726.587,7666.805L4859.836,3185.868Z" style="fill:rgb(231,190,106);"/>
            </g>
        </g>
    </g>
    <defs>
        <linearGradient id="_Linear18" x1="0" y1="0" x2="1" y2="0" gradientUnits="userSpaceOnUse" gradientTransform="matrix(3140.266667,0,0,1634.133333,4057.467799,8168.567223)"><stop offset="0" style="stop-color:rgb(203,133,1);stop-opacity:1"/><stop offset="0.55" style="stop-color:rgb(202,135,0);stop-opacity:1"/><stop offset="1" style="stop-color:rgb(202,136,0);stop-opacity:1"/></linearGradient>
        <linearGradient id="_Linear20" x1="0" y1="0" x2="1" y2="0" gradientUnits="userSpaceOnUse" gradientTransform="matrix(3140.266667,0,0,1634.133333,4057.467799,8168.567223)"><stop offset="0" style="stop-color:rgb(203,133,1);stop-opacity:1"/><stop offset="0.55" style="stop-color:rgb(202,135,0);stop-opacity:1"/><stop offset="1" style="stop-color:rgb(202,136,0);stop-opacity:1"/></linearGradient>
        <linearGradient id="_Linear22" x1="0" y1="0" x2="1" y2="0" gradientUnits="userSpaceOnUse" gradientTransform="matrix(3140.266667,0,0,1634.133333,4057.467799,8168.567223)"><stop offset="0" style="stop-color:rgb(203,133,1);stop-opacity:1"/><stop offset="0.55" style="stop-color:rgb(202,135,0);stop-opacity:1"/><stop offset="1" style="stop-color:rgb(202,136,0);stop-opacity:1"/></linearGradient>
    </defs>
</svg>