<svg xmlns="http://www.w3.org/2000/svg" xmlns:xlink="http://www.w3.org/1999/xlink" xmlns:serif="http://www.serif.com/" version="1.1" xml:space="preserve" style="fill-rule:evenodd;clip-rule:evenodd;stroke-linecap:round;stroke-linejoin:round;stroke-miterlimit:1.5;" viewBox="2153.07 2058.54 6647.65 5629.67">
    <g transform="matrix(1,0,0,1,-53.046001,-0)">
        <path d="M8832.366,3640.456L8832.366,7212.217C8832.366,7463.111 8628.672,7666.805 8377.779,7666.805L2682.105,7666.805C2431.212,7666.805 2227.518,7463.111 2227.518,7212.217L2227.518,3640.456C2227.518,3389.562 2431.212,3185.868 2682.105,3185.868L8377.779,3185.868C8628.672,3185.868 8832.366,3389.562 8832.366,3640.456Z" style="fill:rgb(107,0,38);stroke:rgb(59,0,46);stroke-width:42.8px;"/>
    </g>
    <g>
        <g transform="matrix(1,0,0,1,817.608022,0)">
            <path d="M4538.073,3185.868L6269.715,3185.868L5189.171,7666.805L3499.087,7666.805L4538.073,3185.868Z" style="fill:rgb(121,7,38);"/>
        </g>
        <g transform="matrix(1,0,0,1,12.970767,0)">
            <path d="M4538.073,3185.868L5108.362,3185.868L4025.507,7666.805L3499.087,7666.805L4538.073,3185.868Z" style="fill:rgb(121,7,38);"/>
        </g>
    </g>
    <g transform="matrix(1.016964,0,0,1.016964,-82.966215,-84.837353)">
        <g transform="matrix(1,0,0,1,1573.266296,-692.538765)">
            <path d="M1259.103,4462.912C1259.103,4462.912 1122.298,4493.241 1116.516,4524.021C1110.734,4554.801 1174.513,4649.648 1224.411,4647.593C1274.31,4645.537 1415.859,4572.191 1415.907,4511.689C1416.013,4378.066 1306.526,4293.988 1306.526,4293.988C1116.037,4254.492 1015.782,4318.664 988.251,4466.388L974.989,5102.939L949.739,6118.875L949.739,6425.39" style="fill:none;stroke:rgb(59,0,46);stroke-width:70.88px;"/>
        </g>
        <g transform="matrix(1,0,0,-1,1573.266296,11682.916713)">
            <path d="M1259.103,4462.912C1259.103,4462.912 1122.298,4493.241 1116.516,4524.021C1110.734,4554.801 1174.513,4649.648 1224.411,4647.593C1274.31,4645.537 1415.859,4572.191 1415.907,4511.689C1416.013,4378.066 1306.526,4293.988 1306.526,4293.988C1116.037,4254.492 1015.782,4318.664 988.251,4466.388L974.989,5102.939L949.739,6129.305" style="fill:none;stroke:rgb(59,0,46);stroke-width:70.88px;"/>
        </g>
        <g transform="matrix(-1,0,0,1,9415.906391,-692.538765)">
            <path d="M1259.103,4462.912C1259.103,4462.912 1122.298,4493.241 1116.516,4524.021C1110.734,4554.801 1174.513,4649.648 1224.411,4647.593C1274.31,4645.537 1415.859,4572.191 1415.907,4511.689C1416.013,4378.066 1306.526,4293.988 1306.526,4293.988C1116.037,4254.492 1015.782,4318.664 988.251,4466.388L974.989,5102.939L949.739,6118.875L949.739,6321.697" style="fill:none;stroke:rgb(59,0,46);stroke-width:70.88px;"/>
        </g>
        <g transform="matrix(-1,0,0,-1,9415.906391,11682.916713)">
            <path d="M1259.103,4462.912C1259.103,4462.912 1122.298,4493.241 1116.516,4524.021C1110.734,4554.801 1174.513,4649.648 1224.411,4647.593C1274.31,4645.537 1415.859,4572.191 1415.907,4511.689C1416.013,4378.066 1306.526,4293.988 1306.526,4293.988C1116.037,4254.492 1015.782,4318.664 988.251,4466.388L974.989,5102.939L949.739,6129.305" style="fill:none;stroke:rgb(59,0,46);stroke-width:70.88px;"/>
        </g>
        <g transform="matrix(-0.022532,0.999746,0.999746,0.022532,-1498.121835,2287.727475)">
            <path d="M1259.103,4462.912C1259.103,4462.912 1122.298,4493.241 1116.516,4524.021C1110.734,4554.801 1174.513,4649.648 1224.411,4647.593C1274.31,4645.537 1415.859,4572.191 1415.907,4511.689C1416.013,4378.066 1306.526,4293.988 1306.526,4293.988C1116.037,4254.492 1015.782,4318.664 988.251,4466.388L974.989,5102.939L949.739,6118.875L912.301,7426.075" style="fill:none;stroke:rgb(59,0,46);stroke-width:70.88px;"/>
        </g>
        <g transform="matrix(0.022532,0.999746,-0.999746,0.022532,12578.617632,2287.727475)">
            <path d="M1259.103,4462.912C1259.103,4462.912 1122.298,4493.241 1116.516,4524.021C1110.734,4554.801 1174.513,4649.648 1224.411,4647.593C1274.31,4645.537 1415.859,4572.191 1415.907,4511.689C1416.013,4378.066 1306.526,4293.988 1306.526,4293.988C1116.037,4254.492 1015.782,4318.664 988.251,4466.388L974.989,5102.939L949.739,6118.875L912.301,7426.075" style="fill:none;stroke:rgb(59,0,46);stroke-width:70.88px;"/>
        </g>
        <g transform="matrix(-0.021391,-0.999746,0.949121,-0.022532,-1173.23474,8547.652259)">
            <path d="M1259.103,4462.912C1259.103,4462.912 1122.298,4493.241 1116.516,4524.021C1110.734,4554.801 1174.513,4649.648 1224.411,4647.593C1274.31,4645.537 1415.859,4572.191 1415.907,4511.689C1416.013,4378.066 1306.526,4293.988 1306.526,4293.988C1116.037,4254.492 1015.782,4318.664 988.251,4466.388L974.989,5102.939L949.739,6118.875L912.301,7426.075" style="fill:none;stroke:rgb(59,0,46);stroke-width:72.61px;"/>
        </g>
        <g transform="matrix(0.021391,-0.999746,-0.949121,-0.022532,12190.681957,8547.652259)">
            <path d="M1259.103,4462.912C1259.103,4462.912 1122.298,4493.241 1116.516,4524.021C1110.734,4554.801 1174.513,4649.648 1224.411,4647.593C1274.31,4645.537 1415.859,4572.191 1415.907,4511.689C1416.013,4378.066 1306.526,4293.988 1306.526,4293.988C1116.037,4254.492 1015.782,4318.664 988.251,4466.388L974.989,5102.939L949.739,6118.875L912.301,7426.075" style="fill:none;stroke:rgb(59,0,46);stroke-width:72.61px;"/>
        </g>
    </g>
    <g>
        <g transform="matrix(1,0,0,1,1573.266296,-692.538765)">
            <path d="M1259.103,4462.912C1259.103,4462.912 1122.298,4493.241 1116.516,4524.021C1110.734,4554.801 1174.513,4649.648 1224.411,4647.593C1274.31,4645.537 1415.859,4572.191 1415.907,4511.689C1416.013,4378.066 1306.526,4293.988 1306.526,4293.988C1116.037,4254.492 1015.782,4318.664 988.251,4466.388L974.989,5102.939L949.739,6118.875L949.739,6425.39" style="fill:none;stroke:rgb(202,136,0);stroke-width:72.08px;"/>
        </g>
        <g transform="matrix(1,0,0,-1,1573.266296,11682.916713)">
            <path d="M1259.103,4462.912C1259.103,4462.912 1122.298,4493.241 1116.516,4524.021C1110.734,4554.801 1174.513,4649.648 1224.411,4647.593C1274.31,4645.537 1415.859,4572.191 1415.907,4511.689C1416.013,4378.066 1306.526,4293.988 1306.526,4293.988C1116.037,4254.492 1015.782,4318.664 988.251,4466.388L974.989,5102.939L949.739,6129.305" style="fill:none;stroke:rgb(202,136,0);stroke-width:72.08px;"/>
        </g>
        <g transform="matrix(-1,0,0,1,9415.906391,-692.538765)">
            <path d="M1259.103,4462.912C1259.103,4462.912 1122.298,4493.241 1116.516,4524.021C1110.734,4554.801 1174.513,4649.648 1224.411,4647.593C1274.31,4645.537 1415.859,4572.191 1415.907,4511.689C1416.013,4378.066 1306.526,4293.988 1306.526,4293.988C1116.037,4254.492 1015.782,4318.664 988.251,4466.388L974.989,5102.939L949.739,6118.875L949.739,6321.697" style="fill:none;stroke:rgb(202,136,0);stroke-width:72.08px;"/>
        </g>
        <g transform="matrix(-1,0,0,-1,9415.906391,11682.916713)">
            <path d="M1259.103,4462.912C1259.103,4462.912 1122.298,4493.241 1116.516,4524.021C1110.734,4554.801 1174.513,4649.648 1224.411,4647.593C1274.31,4645.537 1415.859,4572.191 1415.907,4511.689C1416.013,4378.066 1306.526,4293.988 1306.526,4293.988C1116.037,4254.492 1015.782,4318.664 988.251,4466.388L974.989,5102.939L949.739,6129.305" style="fill:none;stroke:rgb(202,136,0);stroke-width:72.08px;"/>
        </g>
        <g transform="matrix(-0.022532,0.999746,0.999746,0.022532,-1498.121835,2287.727475)">
            <path d="M1259.103,4462.912C1259.103,4462.912 1122.298,4493.241 1116.516,4524.021C1110.734,4554.801 1174.513,4649.648 1224.411,4647.593C1274.31,4645.537 1415.859,4572.191 1415.907,4511.689C1416.013,4378.066 1306.526,4293.988 1306.526,4293.988C1116.037,4254.492 1015.782,4318.664 988.251,4466.388L974.989,5102.939L949.739,6118.875L912.301,7426.075" style="fill:none;stroke:rgb(202,136,0);stroke-width:72.08px;"/>
        </g>
        <g transform="matrix(0.022532,0.999746,-0.999746,0.022532,12578.617632,2287.727475)">
            <path d="M1259.103,4462.912C1259.103,4462.912 1122.298,4493.241 1116.516,4524.021C1110.734,4554.801 1174.513,4649.648 1224.411,4647.593C1274.31,4645.537 1415.859,4572.191 1415.907,4511.689C1416.013,4378.066 1306.526,4293.988 1306.526,4293.988C1116.037,4254.492 1015.782,4318.664 988.251,4466.388L974.989,5102.939L949.739,6118.875L912.301,7426.075" style="fill:none;stroke:rgb(202,136,0);stroke-width:72.08px;"/>
        </g>
        <g transform="matrix(-0.021391,-0.999746,0.949121,-0.022532,-1173.23474,8547.652259)">
            <path d="M1259.103,4462.912C1259.103,4462.912 1122.298,4493.241 1116.516,4524.021C1110.734,4554.801 1174.513,4649.648 1224.411,4647.593C1274.31,4645.537 1415.859,4572.191 1415.907,4511.689C1416.013,4378.066 1306.526,4293.988 1306.526,4293.988C1116.037,4254.492 1015.782,4318.664 988.251,4466.388L974.989,5102.939L949.739,6118.875L912.301,7426.075" style="fill:none;stroke:rgb(202,136,0);stroke-width:73.84px;"/>
        </g>
        <g transform="matrix(0.021391,-0.999746,-0.949121,-0.022532,12190.681957,8547.652259)">
            <path d="M1259.103,4462.912C1259.103,4462.912 1122.298,4493.241 1116.516,4524.021C1110.734,4554.801 1174.513,4649.648 1224.411,4647.593C1274.31,4645.537 1415.859,4572.191 1415.907,4511.689C1416.013,4378.066 1306.526,4293.988 1306.526,4293.988C1116.037,4254.492 1015.782,4318.664 988.251,4466.388L974.989,5102.939L949.739,6118.875L912.301,7426.075" style="fill:none;stroke:rgb(202,136,0);stroke-width:73.84px;"/>
        </g>
    </g>
    <g transform="matrix(0.492935,-0.449374,0.381435,0.41841,435.873624,3241.306855)">
        <path d="M2167.703,2563.735L2368.048,2909.158L1967.357,2909.158L2167.703,2563.735Z" style="fill:rgb(202,136,0);stroke:rgb(59,0,46);stroke-width:40.21px;"/>
    </g>
    <g transform="matrix(-0.296565,-0.59747,-0.507141,0.251728,10587.161143,4049.644809)">
        <path d="M2167.703,2563.735L2368.048,2909.158L1967.357,2909.158L2167.703,2563.735Z" style="fill:rgb(202,136,0);stroke:rgb(59,0,46);stroke-width:40.21px;"/>
    </g>
    <g transform="matrix(0.492935,0.449374,0.381435,-0.41841,435.873624,7672.962664)">
        <path d="M2167.703,2563.735L2368.048,2909.158L1967.357,2909.158L2167.703,2563.735Z" style="fill:rgb(202,136,0);stroke:rgb(59,0,46);stroke-width:40.21px;"/>
    </g>
    <g transform="matrix(-0.409942,0.526183,-0.446632,-0.347965,10667.348826,7282.499278)">
        <path d="M2167.703,2563.735L2368.048,2909.158L1967.357,2909.158L2167.703,2563.735Z" style="fill:rgb(202,136,0);stroke:rgb(59,0,46);stroke-width:40.21px;"/>
    </g>
    <g transform="matrix(1,0,0,1,4190.720144,6369.068011)">
        <path d="M618.542,-256.25C618.542,-273.472 612.361,-287.083 600,-297.083C587.639,-307.083 574.931,-312.083 561.875,-312.083C546.319,-312.083 531.806,-305.903 518.333,-293.542C504.861,-281.181 498.125,-270 498.125,-260L498.125,-144.167C529.514,-159.167 557.431,-176.875 581.875,-197.292C606.319,-217.708 618.542,-237.361 618.542,-256.25ZM744.375,-75C745.486,-75.833 747.292,-77.5 749.792,-80C752.292,-82.5 755.486,-84.306 759.375,-85.417C763.264,-86.528 765.486,-87.083 766.042,-87.083C767.986,-87.083 770.069,-86.181 772.292,-84.375C774.514,-82.569 775.625,-79.722 775.625,-75.833C775.625,-72.5 774.861,-69.514 773.333,-66.875C771.806,-64.236 769.653,-62.778 766.875,-62.5L738.542,-23.75C724.653,-9.861 715.625,-1.736 711.458,0.625C707.292,2.986 698.819,4.167 686.042,4.167C666.319,4.167 647.708,-6.806 630.208,-28.75C615.764,-49.306 601.319,-70 586.875,-90.833C569.097,-113.056 550.208,-124.167 530.208,-124.167C514.931,-124.167 505,-121.597 500.417,-116.458C495.833,-111.319 493.542,-103.194 493.542,-92.083L493.542,-84.167C493.542,-81.389 493.681,-78.611 493.958,-75.833C493.958,-54.444 498.403,-36.319 507.292,-21.458C516.181,-6.597 521.042,1.944 521.875,4.167L409.792,4.167C410.625,1.667 414.792,-4.931 422.292,-15.625C429.792,-26.319 433.542,-34.306 433.542,-39.583L433.542,-232.083C433.542,-243.75 431.597,-252.361 427.708,-257.917C423.819,-263.472 416.597,-269.583 406.042,-276.25L406.042,-288.333C421.875,-289.722 439.583,-294.653 459.167,-303.125C478.75,-311.597 497.708,-319.861 516.042,-327.917C538.264,-336.25 558.958,-340.417 578.125,-340.417C606.458,-340.417 631.528,-333.194 653.333,-318.75C675.139,-304.306 686.042,-284.722 686.042,-260C686.042,-234.167 674.792,-213.889 652.292,-199.167C629.792,-184.444 611.875,-172.778 598.542,-164.167C616.042,-150.833 631.319,-135.417 644.375,-117.917C657.431,-100.417 669.375,-84.444 680.208,-70C690.486,-57.778 700.625,-51.667 710.625,-51.667C718.403,-56.389 724.583,-60.417 729.167,-63.75C733.75,-67.083 738.819,-70.833 744.375,-75Z" style="fill:rgb(201,135,0);fill-rule:nonzero;"/>
        <clipPath id="_clip1">
            <path d="M618.542,-256.25C618.542,-273.472 612.361,-287.083 600,-297.083C587.639,-307.083 574.931,-312.083 561.875,-312.083C546.319,-312.083 531.806,-305.903 518.333,-293.542C504.861,-281.181 498.125,-270 498.125,-260L498.125,-144.167C529.514,-159.167 557.431,-176.875 581.875,-197.292C606.319,-217.708 618.542,-237.361 618.542,-256.25ZM744.375,-75C745.486,-75.833 747.292,-77.5 749.792,-80C752.292,-82.5 755.486,-84.306 759.375,-85.417C763.264,-86.528 765.486,-87.083 766.042,-87.083C767.986,-87.083 770.069,-86.181 772.292,-84.375C774.514,-82.569 775.625,-79.722 775.625,-75.833C775.625,-72.5 774.861,-69.514 773.333,-66.875C771.806,-64.236 769.653,-62.778 766.875,-62.5L738.542,-23.75C724.653,-9.861 715.625,-1.736 711.458,0.625C707.292,2.986 698.819,4.167 686.042,4.167C666.319,4.167 647.708,-6.806 630.208,-28.75C615.764,-49.306 601.319,-70 586.875,-90.833C569.097,-113.056 550.208,-124.167 530.208,-124.167C514.931,-124.167 505,-121.597 500.417,-116.458C495.833,-111.319 493.542,-103.194 493.542,-92.083L493.542,-84.167C493.542,-81.389 493.681,-78.611 493.958,-75.833C493.958,-54.444 498.403,-36.319 507.292,-21.458C516.181,-6.597 521.042,1.944 521.875,4.167L409.792,4.167C410.625,1.667 414.792,-4.931 422.292,-15.625C429.792,-26.319 433.542,-34.306 433.542,-39.583L433.542,-232.083C433.542,-243.75 431.597,-252.361 427.708,-257.917C423.819,-263.472 416.597,-269.583 406.042,-276.25L406.042,-288.333C421.875,-289.722 439.583,-294.653 459.167,-303.125C478.75,-311.597 497.708,-319.861 516.042,-327.917C538.264,-336.25 558.958,-340.417 578.125,-340.417C606.458,-340.417 631.528,-333.194 653.333,-318.75C675.139,-304.306 686.042,-284.722 686.042,-260C686.042,-234.167 674.792,-213.889 652.292,-199.167C629.792,-184.444 611.875,-172.778 598.542,-164.167C616.042,-150.833 631.319,-135.417 644.375,-117.917C657.431,-100.417 669.375,-84.444 680.208,-70C690.486,-57.778 700.625,-51.667 710.625,-51.667C718.403,-56.389 724.583,-60.417 729.167,-63.75C733.75,-67.083 738.819,-70.833 744.375,-75Z" clip-rule="nonzero"/>
        </clipPath>
        <g clip-path="url(#_clip1)">
            <g transform="matrix(0.819735,0,0,1,-2812.410623,-6369.068011)">
                <path d="M4859.836,3185.868L5405.376,3185.868L4309.882,7666.805L3726.587,7666.805L4859.836,3185.868Z" style="fill:rgb(231,190,106);"/>
            </g>
            <g transform="matrix(0.753613,0,0,1.245803,-1706.470119,-8253.594822)">
                <path d="M5104.367,3185.868L5953.515,3165.077L4673.627,7666.805L3499.087,7666.805L5104.367,3185.868Z" style="fill:rgb(231,190,106);"/>
            </g>
        </g>
        <path d="M938.542,-57.917C931.597,-44.119 924.375,-30.321 916.875,-16.523C909.375,-2.73 903.264,4.167 898.542,4.167C891.042,4.167 879.306,1.944 863.333,-2.5C847.361,-6.949 831.458,-17.578 815.625,-34.388C799.792,-51.202 791.875,-76.007 791.875,-108.802C791.875,-131.866 794.653,-148.331 800.208,-158.197C805.764,-168.062 816.389,-180.844 832.083,-196.543C847.778,-212.246 857.917,-222.32 862.5,-226.764C867.083,-231.213 870.903,-233.438 873.958,-233.438C887.014,-224.253 900.208,-214.581 913.542,-204.421C926.875,-194.264 934.514,-186.402 936.458,-180.833L842.292,-88.757C849.792,-74.03 858.125,-64.653 867.292,-60.625C876.458,-56.597 888.819,-54.583 904.375,-54.583C917.986,-54.583 927.986,-55.694 934.375,-57.917L938.542,-57.917ZM839.792,-108.867L884.375,-152.572C880.764,-159.238 876.111,-164.377 870.417,-167.988C864.722,-171.599 859.236,-174.655 853.958,-177.155C848.125,-177.155 842.5,-172.224 837.083,-162.363C831.667,-152.507 828.958,-142.305 828.958,-131.758C828.958,-120.382 832.569,-112.752 839.792,-108.867Z" style="fill:rgb(201,135,0);fill-rule:nonzero;"/>
        <clipPath id="_clip2">
            <path d="M938.542,-57.917C931.597,-44.119 924.375,-30.321 916.875,-16.523C909.375,-2.73 903.264,4.167 898.542,4.167C891.042,4.167 879.306,1.944 863.333,-2.5C847.361,-6.949 831.458,-17.578 815.625,-34.388C799.792,-51.202 791.875,-76.007 791.875,-108.802C791.875,-131.866 794.653,-148.331 800.208,-158.197C805.764,-168.062 816.389,-180.844 832.083,-196.543C847.778,-212.246 857.917,-222.32 862.5,-226.764C867.083,-231.213 870.903,-233.438 873.958,-233.438C887.014,-224.253 900.208,-214.581 913.542,-204.421C926.875,-194.264 934.514,-186.402 936.458,-180.833L842.292,-88.757C849.792,-74.03 858.125,-64.653 867.292,-60.625C876.458,-56.597 888.819,-54.583 904.375,-54.583C917.986,-54.583 927.986,-55.694 934.375,-57.917L938.542,-57.917ZM839.792,-108.867L884.375,-152.572C880.764,-159.238 876.111,-164.377 870.417,-167.988C864.722,-171.599 859.236,-174.655 853.958,-177.155C848.125,-177.155 842.5,-172.224 837.083,-162.363C831.667,-152.507 828.958,-142.305 828.958,-131.758C828.958,-120.382 832.569,-112.752 839.792,-108.867Z" clip-rule="nonzero"/>
        </clipPath>
        <g clip-path="url(#_clip2)">
            <g transform="matrix(0.819735,0,0,1,-2812.410623,-6369.068011)">
                <path d="M4859.836,3185.868L5405.376,3185.868L4309.882,7666.805L3726.587,7666.805L4859.836,3185.868Z" style="fill:rgb(231,190,106);"/>
            </g>
            <g transform="matrix(0.753613,0,0,1.245803,-1706.470119,-8253.594822)">
                <path d="M5104.367,3185.868L5953.515,3165.077L4673.627,7666.805L3499.087,7666.805L5104.367,3185.868Z" style="fill:rgb(231,190,106);"/>
            </g>
        </g>
        <path d="M1170.625,-179.167C1170.625,-176.111 1167.569,-171.806 1161.458,-166.25C1155.347,-160.694 1152.292,-154.861 1152.292,-148.75L1152.292,-84.167C1151.736,-81.389 1151.319,-77.153 1151.042,-71.458C1150.764,-65.764 1150.625,-62.778 1150.625,-62.5C1150.625,-48.889 1153.333,-32.361 1158.75,-12.917C1164.167,6.528 1166.875,19.861 1166.875,27.083C1166.875,44.306 1157.153,62.083 1137.708,80.417C1118.264,98.75 1092.847,107.917 1061.458,107.917C1038.125,107.917 1016.806,101.695 997.5,89.251C978.194,76.808 964.514,59.527 956.458,37.409L1005.208,17.5L1011.042,17.5C1014.097,34.605 1020,48.88 1028.75,60.326C1037.5,71.775 1049.097,77.5 1063.542,77.5C1078.264,77.5 1090.347,73.542 1099.792,65.625C1109.236,57.708 1113.958,46.944 1113.958,33.333C1113.958,31.111 1111.597,22.361 1106.875,7.083C1102.153,-8.194 1099.792,-23.056 1099.792,-37.5L1093.958,-37.5C1089.792,-33.576 1079.306,-25.165 1062.5,-12.266C1045.694,0.634 1036.597,7.083 1035.208,7.083C1019.097,7.083 1001.944,-3.42 983.75,-24.427C965.556,-45.434 956.458,-68.043 956.458,-92.253C956.458,-110.061 959.792,-125.503 966.458,-138.581C973.125,-151.658 980.417,-162.231 988.333,-170.299C996.25,-178.368 1011.736,-191.654 1034.792,-210.156C1057.847,-228.663 1070.903,-237.917 1073.958,-237.917L1124.375,-209.583C1134.931,-204.028 1145.486,-198.472 1156.042,-192.917C1165.764,-186.806 1170.625,-182.222 1170.625,-179.167ZM1098.125,-74.167L1098.125,-154.583C1091.181,-161.806 1083.194,-167.778 1074.167,-172.5C1065.139,-177.222 1056.875,-181.389 1049.375,-185C1039.375,-185 1030.139,-176.111 1021.667,-158.333C1013.194,-140.556 1008.958,-127.222 1008.958,-118.333C1008.958,-100 1015.069,-84.306 1027.292,-71.25C1039.514,-58.194 1050.903,-51.667 1061.458,-51.667C1073.681,-51.667 1082.847,-54.306 1088.958,-59.583C1095.069,-64.861 1098.125,-69.722 1098.125,-74.167Z" style="fill:rgb(201,135,0);fill-rule:nonzero;"/>
        <clipPath id="_clip3">
            <path d="M1170.625,-179.167C1170.625,-176.111 1167.569,-171.806 1161.458,-166.25C1155.347,-160.694 1152.292,-154.861 1152.292,-148.75L1152.292,-84.167C1151.736,-81.389 1151.319,-77.153 1151.042,-71.458C1150.764,-65.764 1150.625,-62.778 1150.625,-62.5C1150.625,-48.889 1153.333,-32.361 1158.75,-12.917C1164.167,6.528 1166.875,19.861 1166.875,27.083C1166.875,44.306 1157.153,62.083 1137.708,80.417C1118.264,98.75 1092.847,107.917 1061.458,107.917C1038.125,107.917 1016.806,101.695 997.5,89.251C978.194,76.808 964.514,59.527 956.458,37.409L1005.208,17.5L1011.042,17.5C1014.097,34.605 1020,48.88 1028.75,60.326C1037.5,71.775 1049.097,77.5 1063.542,77.5C1078.264,77.5 1090.347,73.542 1099.792,65.625C1109.236,57.708 1113.958,46.944 1113.958,33.333C1113.958,31.111 1111.597,22.361 1106.875,7.083C1102.153,-8.194 1099.792,-23.056 1099.792,-37.5L1093.958,-37.5C1089.792,-33.576 1079.306,-25.165 1062.5,-12.266C1045.694,0.634 1036.597,7.083 1035.208,7.083C1019.097,7.083 1001.944,-3.42 983.75,-24.427C965.556,-45.434 956.458,-68.043 956.458,-92.253C956.458,-110.061 959.792,-125.503 966.458,-138.581C973.125,-151.658 980.417,-162.231 988.333,-170.299C996.25,-178.368 1011.736,-191.654 1034.792,-210.156C1057.847,-228.663 1070.903,-237.917 1073.958,-237.917L1124.375,-209.583C1134.931,-204.028 1145.486,-198.472 1156.042,-192.917C1165.764,-186.806 1170.625,-182.222 1170.625,-179.167ZM1098.125,-74.167L1098.125,-154.583C1091.181,-161.806 1083.194,-167.778 1074.167,-172.5C1065.139,-177.222 1056.875,-181.389 1049.375,-185C1039.375,-185 1030.139,-176.111 1021.667,-158.333C1013.194,-140.556 1008.958,-127.222 1008.958,-118.333C1008.958,-100 1015.069,-84.306 1027.292,-71.25C1039.514,-58.194 1050.903,-51.667 1061.458,-51.667C1073.681,-51.667 1082.847,-54.306 1088.958,-59.583C1095.069,-64.861 1098.125,-69.722 1098.125,-74.167Z" clip-rule="nonzero"/>
        </clipPath>
        <g clip-path="url(#_clip3)">
            <g transform="matrix(0.819735,0,0,1,-2812.410623,-6369.068011)">
                <path d="M4859.836,3185.868L5405.376,3185.868L4309.882,7666.805L3726.587,7666.805L4859.836,3185.868Z" style="fill:rgb(231,190,106);"/>
            </g>
            <g transform="matrix(0.753613,0,0,1.245803,-1706.470119,-8253.594822)">
                <path d="M5104.367,3185.868L5953.515,3165.077L4673.627,7666.805L3499.087,7666.805L5104.367,3185.868Z" style="fill:rgb(231,190,106);"/>
            </g>
        </g>
        <path d="M1277.708,-325L1277.708,-316.25C1277.708,-313.472 1277.847,-310.972 1278.125,-308.75C1278.125,-302.083 1274.792,-297.5 1268.125,-295C1250.625,-290 1231.736,-284.444 1211.458,-278.333C1210.903,-280.556 1210.625,-282.222 1210.625,-283.333C1211.181,-286.944 1211.458,-290 1211.458,-292.5C1211.458,-301.944 1217.083,-309.722 1228.333,-315.833C1239.583,-321.944 1253.958,-329.722 1271.458,-339.167L1277.708,-339.167C1278.542,-335.833 1278.958,-333.056 1278.958,-330.833C1278.958,-328.333 1278.819,-326.806 1278.542,-326.25C1278.264,-325.694 1277.986,-325.278 1277.708,-325ZM1308.125,-22.917C1305.903,-20.972 1297.5,-15.764 1282.917,-7.292C1268.333,1.181 1259.931,5.417 1257.708,5.417C1249.375,-1.25 1240.972,-8.403 1232.5,-16.042C1224.028,-23.681 1219.792,-30 1219.792,-35L1219.792,-159.583C1219.792,-169.583 1214.375,-177.639 1203.542,-183.75C1192.708,-189.861 1187.292,-194.028 1187.292,-196.25C1195.069,-203.75 1203.056,-211.25 1211.25,-218.75C1219.444,-226.25 1224.792,-230 1227.292,-230C1237.292,-223.333 1247.153,-215.486 1256.875,-206.458C1266.597,-197.431 1271.458,-187.222 1271.458,-175.833L1271.458,-101.25C1271.458,-76.25 1273.333,-58.611 1277.083,-48.333C1280.833,-38.056 1291.181,-32.222 1308.125,-30.833L1308.125,-22.917Z" style="fill:rgb(201,135,0);fill-rule:nonzero;"/>
        <clipPath id="_clip4">
            <path d="M1277.708,-325L1277.708,-316.25C1277.708,-313.472 1277.847,-310.972 1278.125,-308.75C1278.125,-302.083 1274.792,-297.5 1268.125,-295C1250.625,-290 1231.736,-284.444 1211.458,-278.333C1210.903,-280.556 1210.625,-282.222 1210.625,-283.333C1211.181,-286.944 1211.458,-290 1211.458,-292.5C1211.458,-301.944 1217.083,-309.722 1228.333,-315.833C1239.583,-321.944 1253.958,-329.722 1271.458,-339.167L1277.708,-339.167C1278.542,-335.833 1278.958,-333.056 1278.958,-330.833C1278.958,-328.333 1278.819,-326.806 1278.542,-326.25C1278.264,-325.694 1277.986,-325.278 1277.708,-325ZM1308.125,-22.917C1305.903,-20.972 1297.5,-15.764 1282.917,-7.292C1268.333,1.181 1259.931,5.417 1257.708,5.417C1249.375,-1.25 1240.972,-8.403 1232.5,-16.042C1224.028,-23.681 1219.792,-30 1219.792,-35L1219.792,-159.583C1219.792,-169.583 1214.375,-177.639 1203.542,-183.75C1192.708,-189.861 1187.292,-194.028 1187.292,-196.25C1195.069,-203.75 1203.056,-211.25 1211.25,-218.75C1219.444,-226.25 1224.792,-230 1227.292,-230C1237.292,-223.333 1247.153,-215.486 1256.875,-206.458C1266.597,-197.431 1271.458,-187.222 1271.458,-175.833L1271.458,-101.25C1271.458,-76.25 1273.333,-58.611 1277.083,-48.333C1280.833,-38.056 1291.181,-32.222 1308.125,-30.833L1308.125,-22.917Z" clip-rule="nonzero"/>
        </clipPath>
        <g clip-path="url(#_clip4)">
            <g transform="matrix(0.819735,0,0,1,-2812.410623,-6369.068011)">
                <path d="M4859.836,3185.868L5405.376,3185.868L4309.882,7666.805L3726.587,7666.805L4859.836,3185.868Z" style="fill:rgb(231,190,106);"/>
            </g>
            <g transform="matrix(0.753613,0,0,1.245803,-1706.470119,-8253.594822)">
                <path d="M5104.367,3185.868L5953.515,3165.077L4673.627,7666.805L3499.087,7666.805L5104.367,3185.868Z" style="fill:rgb(231,190,106);"/>
            </g>
        </g>
        <path d="M1501.458,-84.167C1501.458,-60 1492.847,-39.306 1475.625,-22.083C1458.403,-4.861 1437.014,3.75 1411.458,3.75C1392.847,3.75 1372.222,-3.611 1349.583,-18.333C1326.944,-33.056 1315.625,-47.083 1315.625,-60.417C1315.625,-62.917 1321.667,-67.292 1333.75,-73.542C1345.833,-79.792 1356.319,-84.583 1365.208,-87.917L1365.208,-67.917C1365.208,-54.583 1369.583,-43.681 1378.333,-35.208C1387.083,-26.736 1398.125,-22.5 1411.458,-22.5C1424.236,-22.5 1435.069,-26.667 1443.958,-35C1452.847,-43.333 1457.292,-53.75 1457.292,-66.25C1457.292,-77.639 1453.333,-88.403 1445.417,-98.542C1437.5,-108.681 1428.125,-113.75 1417.292,-113.75C1407.569,-113.75 1394.236,-110.139 1377.292,-102.917C1360.347,-95.694 1350.347,-92.083 1347.292,-92.083C1341.458,-99.583 1335.694,-108.542 1330,-118.958C1324.306,-129.375 1321.458,-142.5 1321.458,-158.333C1321.458,-180.278 1330.556,-198.75 1348.75,-213.75C1366.944,-228.75 1386.597,-236.25 1407.708,-236.25C1422.431,-236.25 1439.097,-231.111 1457.708,-220.833C1476.319,-210.556 1488.264,-198.333 1493.542,-184.167L1443.125,-156.25C1438.958,-173.472 1434.653,-186.806 1430.208,-196.25C1425.764,-205.694 1415.486,-210.417 1399.375,-210.417C1389.931,-210.417 1381.875,-206.806 1375.208,-199.583C1368.542,-192.361 1365.208,-183.889 1365.208,-174.167C1365.208,-163.056 1368.958,-153.333 1376.458,-145C1383.958,-136.667 1392.292,-132.5 1401.458,-132.5C1412.014,-132.5 1426.458,-136.806 1444.792,-145.417C1463.125,-154.028 1472.708,-158.333 1473.542,-158.333C1479.653,-151.389 1485.833,-142.431 1492.083,-131.458C1498.333,-120.486 1501.458,-104.722 1501.458,-84.167Z" style="fill:rgb(201,135,0);fill-rule:nonzero;"/>
        <clipPath id="_clip5">
            <path d="M1501.458,-84.167C1501.458,-60 1492.847,-39.306 1475.625,-22.083C1458.403,-4.861 1437.014,3.75 1411.458,3.75C1392.847,3.75 1372.222,-3.611 1349.583,-18.333C1326.944,-33.056 1315.625,-47.083 1315.625,-60.417C1315.625,-62.917 1321.667,-67.292 1333.75,-73.542C1345.833,-79.792 1356.319,-84.583 1365.208,-87.917L1365.208,-67.917C1365.208,-54.583 1369.583,-43.681 1378.333,-35.208C1387.083,-26.736 1398.125,-22.5 1411.458,-22.5C1424.236,-22.5 1435.069,-26.667 1443.958,-35C1452.847,-43.333 1457.292,-53.75 1457.292,-66.25C1457.292,-77.639 1453.333,-88.403 1445.417,-98.542C1437.5,-108.681 1428.125,-113.75 1417.292,-113.75C1407.569,-113.75 1394.236,-110.139 1377.292,-102.917C1360.347,-95.694 1350.347,-92.083 1347.292,-92.083C1341.458,-99.583 1335.694,-108.542 1330,-118.958C1324.306,-129.375 1321.458,-142.5 1321.458,-158.333C1321.458,-180.278 1330.556,-198.75 1348.75,-213.75C1366.944,-228.75 1386.597,-236.25 1407.708,-236.25C1422.431,-236.25 1439.097,-231.111 1457.708,-220.833C1476.319,-210.556 1488.264,-198.333 1493.542,-184.167L1443.125,-156.25C1438.958,-173.472 1434.653,-186.806 1430.208,-196.25C1425.764,-205.694 1415.486,-210.417 1399.375,-210.417C1389.931,-210.417 1381.875,-206.806 1375.208,-199.583C1368.542,-192.361 1365.208,-183.889 1365.208,-174.167C1365.208,-163.056 1368.958,-153.333 1376.458,-145C1383.958,-136.667 1392.292,-132.5 1401.458,-132.5C1412.014,-132.5 1426.458,-136.806 1444.792,-145.417C1463.125,-154.028 1472.708,-158.333 1473.542,-158.333C1479.653,-151.389 1485.833,-142.431 1492.083,-131.458C1498.333,-120.486 1501.458,-104.722 1501.458,-84.167Z" clip-rule="nonzero"/>
        </clipPath>
        <g clip-path="url(#_clip5)">
            <g transform="matrix(0.819735,0,0,1,-2812.410623,-6369.068011)">
                <path d="M4859.836,3185.868L5405.376,3185.868L4309.882,7666.805L3726.587,7666.805L4859.836,3185.868Z" style="fill:rgb(231,190,106);"/>
            </g>
            <g transform="matrix(0.753613,0,0,1.245803,-1706.470119,-8253.594822)">
                <path d="M5104.367,3185.868L5953.515,3165.077L4673.627,7666.805L3499.087,7666.805L5104.367,3185.868Z" style="fill:rgb(231,190,106);"/>
            </g>
        </g>
        <path d="M1658.542,-196.25L1608.125,-196.25L1608.125,-73.75C1608.125,-61.528 1612.569,-52.431 1621.458,-46.458C1630.347,-40.486 1641.319,-37.5 1654.375,-37.5L1654.375,-29.922C1640.486,-18.976 1629.583,-10.766 1621.667,-5.293C1613.75,0.18 1608.681,2.917 1606.458,2.917C1598.403,2.917 1588.056,-2.556 1575.417,-13.503C1562.778,-24.453 1556.458,-36.999 1556.458,-51.139L1556.458,-190.846C1553.681,-192.786 1550.833,-194.171 1547.917,-195C1545,-195.833 1542.292,-196.25 1539.792,-196.25L1519.792,-196.25L1519.792,-217.917L1592.708,-282.083L1606.458,-282.083C1606.458,-275.694 1606.597,-269.861 1606.875,-264.583C1607.153,-259.306 1607.431,-254.028 1607.708,-248.75C1607.708,-243.194 1607.292,-237.083 1606.458,-230.417L1658.542,-230.417L1658.542,-196.25Z" style="fill:rgb(201,135,0);fill-rule:nonzero;"/>
        <clipPath id="_clip6">
            <path d="M1658.542,-196.25L1608.125,-196.25L1608.125,-73.75C1608.125,-61.528 1612.569,-52.431 1621.458,-46.458C1630.347,-40.486 1641.319,-37.5 1654.375,-37.5L1654.375,-29.922C1640.486,-18.976 1629.583,-10.766 1621.667,-5.293C1613.75,0.18 1608.681,2.917 1606.458,2.917C1598.403,2.917 1588.056,-2.556 1575.417,-13.503C1562.778,-24.453 1556.458,-36.999 1556.458,-51.139L1556.458,-190.846C1553.681,-192.786 1550.833,-194.171 1547.917,-195C1545,-195.833 1542.292,-196.25 1539.792,-196.25L1519.792,-196.25L1519.792,-217.917L1592.708,-282.083L1606.458,-282.083C1606.458,-275.694 1606.597,-269.861 1606.875,-264.583C1607.153,-259.306 1607.431,-254.028 1607.708,-248.75C1607.708,-243.194 1607.292,-237.083 1606.458,-230.417L1658.542,-230.417L1658.542,-196.25Z" clip-rule="nonzero"/>
        </clipPath>
        <g clip-path="url(#_clip6)">
            <g transform="matrix(0.819735,0,0,1,-2812.410623,-6369.068011)">
                <path d="M4859.836,3185.868L5405.376,3185.868L4309.882,7666.805L3726.587,7666.805L4859.836,3185.868Z" style="fill:rgb(231,190,106);"/>
            </g>
            <g transform="matrix(0.753613,0,0,1.245803,-1706.470119,-8253.594822)">
                <path d="M5104.367,3185.868L5953.515,3165.077L4673.627,7666.805L3499.087,7666.805L5104.367,3185.868Z" style="fill:rgb(231,190,106);"/>
            </g>
        </g>
        <path d="M1838.125,-175.098C1838.125,-169.551 1831.944,-160.677 1819.583,-148.477C1807.222,-136.276 1795.903,-128.375 1785.625,-124.772C1785.069,-127.546 1784.514,-133.368 1783.958,-142.24C1783.403,-151.111 1783.125,-158.874 1783.125,-165.527C1783.125,-170.796 1783.403,-174.54 1783.958,-176.758L1775.625,-176.758C1771.458,-176.758 1767.847,-175.371 1764.792,-172.598C1761.736,-169.829 1760.208,-166.641 1760.208,-163.034L1760.208,2.917L1710.208,2.917L1710.208,-106.673C1710.208,-113.192 1710.347,-119.501 1710.625,-125.599C1710.625,-145.009 1708.194,-159.705 1703.333,-169.688C1698.472,-179.67 1687.986,-186.74 1671.875,-190.898L1671.875,-195.059C1674.097,-197.554 1681.806,-203.793 1695,-213.776C1708.194,-223.759 1715.764,-228.75 1717.708,-228.75C1726.042,-228.75 1733.958,-223.819 1741.458,-213.958C1748.958,-204.097 1755.208,-195.833 1760.208,-189.167C1771.319,-198.056 1782.292,-206.875 1793.125,-215.625C1803.958,-224.375 1810.208,-228.75 1811.875,-228.75C1815.486,-228.75 1820.764,-223.55 1827.708,-213.151C1834.653,-202.756 1838.125,-190.072 1838.125,-175.098Z" style="fill:rgb(201,135,0);fill-rule:nonzero;"/>
        <clipPath id="_clip7">
            <path d="M1838.125,-175.098C1838.125,-169.551 1831.944,-160.677 1819.583,-148.477C1807.222,-136.276 1795.903,-128.375 1785.625,-124.772C1785.069,-127.546 1784.514,-133.368 1783.958,-142.24C1783.403,-151.111 1783.125,-158.874 1783.125,-165.527C1783.125,-170.796 1783.403,-174.54 1783.958,-176.758L1775.625,-176.758C1771.458,-176.758 1767.847,-175.371 1764.792,-172.598C1761.736,-169.829 1760.208,-166.641 1760.208,-163.034L1760.208,2.917L1710.208,2.917L1710.208,-106.673C1710.208,-113.192 1710.347,-119.501 1710.625,-125.599C1710.625,-145.009 1708.194,-159.705 1703.333,-169.688C1698.472,-179.67 1687.986,-186.74 1671.875,-190.898L1671.875,-195.059C1674.097,-197.554 1681.806,-203.793 1695,-213.776C1708.194,-223.759 1715.764,-228.75 1717.708,-228.75C1726.042,-228.75 1733.958,-223.819 1741.458,-213.958C1748.958,-204.097 1755.208,-195.833 1760.208,-189.167C1771.319,-198.056 1782.292,-206.875 1793.125,-215.625C1803.958,-224.375 1810.208,-228.75 1811.875,-228.75C1815.486,-228.75 1820.764,-223.55 1827.708,-213.151C1834.653,-202.756 1838.125,-190.072 1838.125,-175.098Z" clip-rule="nonzero"/>
        </clipPath>
        <g clip-path="url(#_clip7)">
            <g transform="matrix(0.819735,0,0,1,-2812.410623,-6369.068011)">
                <path d="M4859.836,3185.868L5405.376,3185.868L4309.882,7666.805L3726.587,7666.805L4859.836,3185.868Z" style="fill:rgb(231,190,106);"/>
            </g>
            <g transform="matrix(0.753613,0,0,1.245803,-1706.470119,-8253.594822)">
                <path d="M5104.367,3185.868L5953.515,3165.077L4673.627,7666.805L3499.087,7666.805L5104.367,3185.868Z" style="fill:rgb(231,190,106);"/>
            </g>
        </g>
        <path d="M1995.208,-80.417L1995.208,-160.833C1988.264,-168.056 1980.278,-174.028 1971.25,-178.75C1962.222,-183.472 1953.958,-187.639 1946.458,-191.25C1936.458,-191.25 1927.222,-182.361 1918.75,-164.583C1910.278,-146.806 1906.042,-133.472 1906.042,-124.583C1906.042,-106.25 1912.153,-90.556 1924.375,-77.5C1936.597,-64.444 1947.986,-57.917 1958.542,-57.917C1970.764,-57.917 1979.931,-60.556 1986.042,-65.833C1992.153,-71.111 1995.208,-75.972 1995.208,-80.417ZM2051.042,-59.583C2051.042,-55.694 2055,-49.931 2062.917,-42.292C2070.833,-34.653 2074.792,-30.417 2074.792,-29.583C2074.792,-28.75 2068.194,-22.986 2055,-12.292C2041.806,-1.597 2034.514,3.75 2033.125,3.75C2025.625,-0.972 2018.125,-6.806 2010.625,-13.75C2003.125,-20.694 1999.375,-29.583 1999.375,-40.417L1991.042,-43.75C1986.875,-39.861 1976.389,-31.528 1959.583,-18.75C1942.778,-5.972 1933.681,0.417 1932.292,0.417C1916.181,0.417 1899.028,-10.069 1880.833,-31.042C1862.639,-52.014 1853.542,-74.583 1853.542,-98.75C1853.542,-116.528 1856.875,-131.944 1863.542,-145C1870.208,-158.056 1877.5,-168.611 1885.417,-176.667C1893.333,-184.722 1908.819,-197.986 1931.875,-216.458C1954.931,-234.931 1967.986,-244.167 1971.042,-244.167L2021.458,-215.833C2032.014,-210.278 2042.569,-204.722 2053.125,-199.167C2062.847,-193.056 2067.708,-188.472 2067.708,-185.417C2067.708,-182.361 2064.653,-178.056 2058.542,-172.5C2052.431,-166.944 2049.375,-161.111 2049.375,-155L2049.375,-90.417C2048.542,-85.139 2047.778,-79.722 2047.083,-74.167C2046.389,-68.611 2046.042,-64.583 2046.042,-62.083C2046.042,-58.194 2046.597,-56.25 2047.708,-56.25C2048.264,-56.25 2048.889,-56.667 2049.583,-57.5C2050.278,-58.333 2050.764,-59.028 2051.042,-59.583Z" style="fill:rgb(201,135,0);fill-rule:nonzero;"/>
        <clipPath id="_clip8">
            <path d="M1995.208,-80.417L1995.208,-160.833C1988.264,-168.056 1980.278,-174.028 1971.25,-178.75C1962.222,-183.472 1953.958,-187.639 1946.458,-191.25C1936.458,-191.25 1927.222,-182.361 1918.75,-164.583C1910.278,-146.806 1906.042,-133.472 1906.042,-124.583C1906.042,-106.25 1912.153,-90.556 1924.375,-77.5C1936.597,-64.444 1947.986,-57.917 1958.542,-57.917C1970.764,-57.917 1979.931,-60.556 1986.042,-65.833C1992.153,-71.111 1995.208,-75.972 1995.208,-80.417ZM2051.042,-59.583C2051.042,-55.694 2055,-49.931 2062.917,-42.292C2070.833,-34.653 2074.792,-30.417 2074.792,-29.583C2074.792,-28.75 2068.194,-22.986 2055,-12.292C2041.806,-1.597 2034.514,3.75 2033.125,3.75C2025.625,-0.972 2018.125,-6.806 2010.625,-13.75C2003.125,-20.694 1999.375,-29.583 1999.375,-40.417L1991.042,-43.75C1986.875,-39.861 1976.389,-31.528 1959.583,-18.75C1942.778,-5.972 1933.681,0.417 1932.292,0.417C1916.181,0.417 1899.028,-10.069 1880.833,-31.042C1862.639,-52.014 1853.542,-74.583 1853.542,-98.75C1853.542,-116.528 1856.875,-131.944 1863.542,-145C1870.208,-158.056 1877.5,-168.611 1885.417,-176.667C1893.333,-184.722 1908.819,-197.986 1931.875,-216.458C1954.931,-234.931 1967.986,-244.167 1971.042,-244.167L2021.458,-215.833C2032.014,-210.278 2042.569,-204.722 2053.125,-199.167C2062.847,-193.056 2067.708,-188.472 2067.708,-185.417C2067.708,-182.361 2064.653,-178.056 2058.542,-172.5C2052.431,-166.944 2049.375,-161.111 2049.375,-155L2049.375,-90.417C2048.542,-85.139 2047.778,-79.722 2047.083,-74.167C2046.389,-68.611 2046.042,-64.583 2046.042,-62.083C2046.042,-58.194 2046.597,-56.25 2047.708,-56.25C2048.264,-56.25 2048.889,-56.667 2049.583,-57.5C2050.278,-58.333 2050.764,-59.028 2051.042,-59.583Z" clip-rule="nonzero"/>
        </clipPath>
        <g clip-path="url(#_clip8)">
            <g transform="matrix(0.819735,0,0,1,-2812.410623,-6369.068011)">
                <path d="M4859.836,3185.868L5405.376,3185.868L4309.882,7666.805L3726.587,7666.805L4859.836,3185.868Z" style="fill:rgb(231,190,106);"/>
            </g>
            <g transform="matrix(0.753613,0,0,1.245803,-1706.470119,-8253.594822)">
                <path d="M5104.367,3185.868L5953.515,3165.077L4673.627,7666.805L3499.087,7666.805L5104.367,3185.868Z" style="fill:rgb(231,190,106);"/>
            </g>
        </g>
        <path d="M2230.625,-196.25L2180.208,-196.25L2180.208,-73.75C2180.208,-61.528 2184.653,-52.431 2193.542,-46.458C2202.431,-40.486 2213.403,-37.5 2226.458,-37.5L2226.458,-29.922C2212.569,-18.976 2201.667,-10.766 2193.75,-5.293C2185.833,0.18 2180.764,2.917 2178.542,2.917C2170.486,2.917 2160.139,-2.556 2147.5,-13.503C2134.861,-24.453 2128.542,-36.999 2128.542,-51.139L2128.542,-190.846C2125.764,-192.786 2122.917,-194.171 2120,-195C2117.083,-195.833 2114.375,-196.25 2111.875,-196.25L2091.875,-196.25L2091.875,-217.917L2164.792,-282.083L2178.542,-282.083C2178.542,-275.694 2178.681,-269.861 2178.958,-264.583C2179.236,-259.306 2179.514,-254.028 2179.792,-248.75C2179.792,-243.194 2179.375,-237.083 2178.542,-230.417L2230.625,-230.417L2230.625,-196.25Z" style="fill:rgb(201,135,0);fill-rule:nonzero;"/>
        <clipPath id="_clip9">
            <path d="M2230.625,-196.25L2180.208,-196.25L2180.208,-73.75C2180.208,-61.528 2184.653,-52.431 2193.542,-46.458C2202.431,-40.486 2213.403,-37.5 2226.458,-37.5L2226.458,-29.922C2212.569,-18.976 2201.667,-10.766 2193.75,-5.293C2185.833,0.18 2180.764,2.917 2178.542,2.917C2170.486,2.917 2160.139,-2.556 2147.5,-13.503C2134.861,-24.453 2128.542,-36.999 2128.542,-51.139L2128.542,-190.846C2125.764,-192.786 2122.917,-194.171 2120,-195C2117.083,-195.833 2114.375,-196.25 2111.875,-196.25L2091.875,-196.25L2091.875,-217.917L2164.792,-282.083L2178.542,-282.083C2178.542,-275.694 2178.681,-269.861 2178.958,-264.583C2179.236,-259.306 2179.514,-254.028 2179.792,-248.75C2179.792,-243.194 2179.375,-237.083 2178.542,-230.417L2230.625,-230.417L2230.625,-196.25Z" clip-rule="nonzero"/>
        </clipPath>
        <g clip-path="url(#_clip9)">
            <g transform="matrix(0.819735,0,0,1,-2812.410623,-6369.068011)">
                <path d="M4859.836,3185.868L5405.376,3185.868L4309.882,7666.805L3726.587,7666.805L4859.836,3185.868Z" style="fill:rgb(231,190,106);"/>
            </g>
            <g transform="matrix(0.753613,0,0,1.245803,-1706.470119,-8253.594822)">
                <path d="M5104.367,3185.868L5953.515,3165.077L4673.627,7666.805L3499.087,7666.805L5104.367,3185.868Z" style="fill:rgb(231,190,106);"/>
            </g>
        </g>
        <path d="M2343.958,-325L2343.958,-316.25C2343.958,-313.472 2344.097,-310.972 2344.375,-308.75C2344.375,-302.083 2341.042,-297.5 2334.375,-295C2316.875,-290 2297.986,-284.444 2277.708,-278.333C2277.153,-280.556 2276.875,-282.222 2276.875,-283.333C2277.431,-286.944 2277.708,-290 2277.708,-292.5C2277.708,-301.944 2283.333,-309.722 2294.583,-315.833C2305.833,-321.944 2320.208,-329.722 2337.708,-339.167L2343.958,-339.167C2344.792,-335.833 2345.208,-333.056 2345.208,-330.833C2345.208,-328.333 2345.069,-326.806 2344.792,-326.25C2344.514,-325.694 2344.236,-325.278 2343.958,-325ZM2374.375,-22.917C2372.153,-20.972 2363.75,-15.764 2349.167,-7.292C2334.583,1.181 2326.181,5.417 2323.958,5.417C2315.625,-1.25 2307.222,-8.403 2298.75,-16.042C2290.278,-23.681 2286.042,-30 2286.042,-35L2286.042,-159.583C2286.042,-169.583 2280.625,-177.639 2269.792,-183.75C2258.958,-189.861 2253.542,-194.028 2253.542,-196.25C2261.319,-203.75 2269.306,-211.25 2277.5,-218.75C2285.694,-226.25 2291.042,-230 2293.542,-230C2303.542,-223.333 2313.403,-215.486 2323.125,-206.458C2332.847,-197.431 2337.708,-187.222 2337.708,-175.833L2337.708,-101.25C2337.708,-76.25 2339.583,-58.611 2343.333,-48.333C2347.083,-38.056 2357.431,-32.222 2374.375,-30.833L2374.375,-22.917Z" style="fill:rgb(201,135,0);fill-rule:nonzero;"/>
        <clipPath id="_clip10">
            <path d="M2343.958,-325L2343.958,-316.25C2343.958,-313.472 2344.097,-310.972 2344.375,-308.75C2344.375,-302.083 2341.042,-297.5 2334.375,-295C2316.875,-290 2297.986,-284.444 2277.708,-278.333C2277.153,-280.556 2276.875,-282.222 2276.875,-283.333C2277.431,-286.944 2277.708,-290 2277.708,-292.5C2277.708,-301.944 2283.333,-309.722 2294.583,-315.833C2305.833,-321.944 2320.208,-329.722 2337.708,-339.167L2343.958,-339.167C2344.792,-335.833 2345.208,-333.056 2345.208,-330.833C2345.208,-328.333 2345.069,-326.806 2344.792,-326.25C2344.514,-325.694 2344.236,-325.278 2343.958,-325ZM2374.375,-22.917C2372.153,-20.972 2363.75,-15.764 2349.167,-7.292C2334.583,1.181 2326.181,5.417 2323.958,5.417C2315.625,-1.25 2307.222,-8.403 2298.75,-16.042C2290.278,-23.681 2286.042,-30 2286.042,-35L2286.042,-159.583C2286.042,-169.583 2280.625,-177.639 2269.792,-183.75C2258.958,-189.861 2253.542,-194.028 2253.542,-196.25C2261.319,-203.75 2269.306,-211.25 2277.5,-218.75C2285.694,-226.25 2291.042,-230 2293.542,-230C2303.542,-223.333 2313.403,-215.486 2323.125,-206.458C2332.847,-197.431 2337.708,-187.222 2337.708,-175.833L2337.708,-101.25C2337.708,-76.25 2339.583,-58.611 2343.333,-48.333C2347.083,-38.056 2357.431,-32.222 2374.375,-30.833L2374.375,-22.917Z" clip-rule="nonzero"/>
        </clipPath>
        <g clip-path="url(#_clip10)">
            <g transform="matrix(0.819735,0,0,1,-2812.410623,-6369.068011)">
                <path d="M4859.836,3185.868L5405.376,3185.868L4309.882,7666.805L3726.587,7666.805L4859.836,3185.868Z" style="fill:rgb(231,190,106);"/>
            </g>
            <g transform="matrix(0.753613,0,0,1.245803,-1706.470119,-8253.594822)">
                <path d="M5104.367,3185.868L5953.515,3165.077L4673.627,7666.805L3499.087,7666.805L5104.367,3185.868Z" style="fill:rgb(231,190,106);"/>
            </g>
        </g>
        <path d="M2581.875,-102.083C2581.875,-80.417 2574.306,-61.667 2559.167,-45.833C2544.028,-30 2527.431,-17.5 2509.375,-8.333C2491.319,0.833 2481.042,5.417 2478.542,5.417C2457.986,5.417 2437.569,-8.681 2417.292,-36.875C2397.014,-65.069 2386.875,-93.472 2386.875,-122.083C2386.875,-145.139 2394.722,-164.861 2410.417,-181.25C2426.111,-197.639 2443.264,-210.417 2461.875,-219.583C2480.486,-228.75 2491.181,-233.333 2493.958,-233.333C2512.569,-233.333 2531.875,-220.139 2551.875,-193.75C2571.875,-167.361 2581.875,-136.806 2581.875,-102.083ZM2551.875,-90C2551.875,-107.222 2543.125,-125.764 2525.625,-145.625C2508.125,-165.486 2487.014,-175.417 2462.292,-175.417C2450.903,-175.417 2440.417,-171.736 2430.833,-164.375C2421.25,-157.014 2416.458,-148.056 2416.458,-137.5C2416.458,-121.667 2425.556,-103.819 2443.75,-83.958C2461.944,-64.097 2482.153,-54.167 2504.375,-54.167C2519.097,-54.167 2530.694,-56.806 2539.167,-62.083C2547.639,-67.361 2551.875,-76.667 2551.875,-90Z" style="fill:rgb(201,135,0);fill-rule:nonzero;"/>
        <clipPath id="_clip11">
            <path d="M2581.875,-102.083C2581.875,-80.417 2574.306,-61.667 2559.167,-45.833C2544.028,-30 2527.431,-17.5 2509.375,-8.333C2491.319,0.833 2481.042,5.417 2478.542,5.417C2457.986,5.417 2437.569,-8.681 2417.292,-36.875C2397.014,-65.069 2386.875,-93.472 2386.875,-122.083C2386.875,-145.139 2394.722,-164.861 2410.417,-181.25C2426.111,-197.639 2443.264,-210.417 2461.875,-219.583C2480.486,-228.75 2491.181,-233.333 2493.958,-233.333C2512.569,-233.333 2531.875,-220.139 2551.875,-193.75C2571.875,-167.361 2581.875,-136.806 2581.875,-102.083ZM2551.875,-90C2551.875,-107.222 2543.125,-125.764 2525.625,-145.625C2508.125,-165.486 2487.014,-175.417 2462.292,-175.417C2450.903,-175.417 2440.417,-171.736 2430.833,-164.375C2421.25,-157.014 2416.458,-148.056 2416.458,-137.5C2416.458,-121.667 2425.556,-103.819 2443.75,-83.958C2461.944,-64.097 2482.153,-54.167 2504.375,-54.167C2519.097,-54.167 2530.694,-56.806 2539.167,-62.083C2547.639,-67.361 2551.875,-76.667 2551.875,-90Z" clip-rule="nonzero"/>
        </clipPath>
        <g clip-path="url(#_clip11)">
            <g transform="matrix(0.819735,0,0,1,-2812.410623,-6369.068011)">
                <path d="M4859.836,3185.868L5405.376,3185.868L4309.882,7666.805L3726.587,7666.805L4859.836,3185.868Z" style="fill:rgb(231,190,106);"/>
            </g>
            <g transform="matrix(0.753613,0,0,1.245803,-1706.470119,-8253.594822)">
                <path d="M5104.367,3185.868L5953.515,3165.077L4673.627,7666.805L3499.087,7666.805L5104.367,3185.868Z" style="fill:rgb(231,190,106);"/>
            </g>
        </g>
        <path d="M2814.792,-2.917C2811.736,-1.528 2807.431,-0.833 2801.875,-0.833C2799.653,-0.833 2793.333,-1.181 2782.917,-1.875C2772.5,-2.569 2765.069,-2.917 2760.625,-2.917L2760.625,-136.745C2760.625,-153.142 2758.125,-164.538 2753.125,-170.931C2748.125,-177.324 2738.819,-180.521 2725.208,-180.521C2716.319,-180.521 2707.153,-178.713 2697.708,-175.098C2688.264,-171.487 2683.542,-167.318 2683.542,-162.591L2683.542,0.833L2633.125,0.833L2633.125,-164.583C2633.125,-170.694 2629.931,-175.833 2623.542,-180C2617.153,-184.167 2607.708,-188.472 2595.208,-192.917L2595.208,-198.75L2641.042,-232.5C2656.042,-225.833 2666.875,-219.028 2673.542,-212.083C2677.986,-205.694 2682.569,-199.306 2687.292,-192.917L2748.958,-234.688C2773.681,-228.016 2790.833,-220.373 2800.417,-211.758C2810,-203.147 2814.792,-188.279 2814.792,-167.155L2814.792,-2.917Z" style="fill:rgb(201,135,0);fill-rule:nonzero;"/>
        <clipPath id="_clip12">
            <path d="M2814.792,-2.917C2811.736,-1.528 2807.431,-0.833 2801.875,-0.833C2799.653,-0.833 2793.333,-1.181 2782.917,-1.875C2772.5,-2.569 2765.069,-2.917 2760.625,-2.917L2760.625,-136.745C2760.625,-153.142 2758.125,-164.538 2753.125,-170.931C2748.125,-177.324 2738.819,-180.521 2725.208,-180.521C2716.319,-180.521 2707.153,-178.713 2697.708,-175.098C2688.264,-171.487 2683.542,-167.318 2683.542,-162.591L2683.542,0.833L2633.125,0.833L2633.125,-164.583C2633.125,-170.694 2629.931,-175.833 2623.542,-180C2617.153,-184.167 2607.708,-188.472 2595.208,-192.917L2595.208,-198.75L2641.042,-232.5C2656.042,-225.833 2666.875,-219.028 2673.542,-212.083C2677.986,-205.694 2682.569,-199.306 2687.292,-192.917L2748.958,-234.688C2773.681,-228.016 2790.833,-220.373 2800.417,-211.758C2810,-203.147 2814.792,-188.279 2814.792,-167.155L2814.792,-2.917Z" clip-rule="nonzero"/>
        </clipPath>
        <g clip-path="url(#_clip12)">
            <g transform="matrix(0.819735,0,0,1,-2812.410623,-6369.068011)">
                <path d="M4859.836,3185.868L5405.376,3185.868L4309.882,7666.805L3726.587,7666.805L4859.836,3185.868Z" style="fill:rgb(231,190,106);"/>
            </g>
            <g transform="matrix(0.753613,0,0,1.245803,-1706.470119,-8253.594822)">
                <path d="M5104.367,3185.868L5953.515,3165.077L4673.627,7666.805L3499.087,7666.805L5104.367,3185.868Z" style="fill:rgb(231,190,106);"/>
            </g>
        </g>
        <path d="M3023.542,-84.167C3023.542,-60 3014.931,-39.306 2997.708,-22.083C2980.486,-4.861 2959.097,3.75 2933.542,3.75C2914.931,3.75 2894.306,-3.611 2871.667,-18.333C2849.028,-33.056 2837.708,-47.083 2837.708,-60.417C2837.708,-62.917 2843.75,-67.292 2855.833,-73.542C2867.917,-79.792 2878.403,-84.583 2887.292,-87.917L2887.292,-67.917C2887.292,-54.583 2891.667,-43.681 2900.417,-35.208C2909.167,-26.736 2920.208,-22.5 2933.542,-22.5C2946.319,-22.5 2957.153,-26.667 2966.042,-35C2974.931,-43.333 2979.375,-53.75 2979.375,-66.25C2979.375,-77.639 2975.417,-88.403 2967.5,-98.542C2959.583,-108.681 2950.208,-113.75 2939.375,-113.75C2929.653,-113.75 2916.319,-110.139 2899.375,-102.917C2882.431,-95.694 2872.431,-92.083 2869.375,-92.083C2863.542,-99.583 2857.778,-108.542 2852.083,-118.958C2846.389,-129.375 2843.542,-142.5 2843.542,-158.333C2843.542,-180.278 2852.639,-198.75 2870.833,-213.75C2889.028,-228.75 2908.681,-236.25 2929.792,-236.25C2944.514,-236.25 2961.181,-231.111 2979.792,-220.833C2998.403,-210.556 3010.347,-198.333 3015.625,-184.167L2965.208,-156.25C2961.042,-173.472 2956.736,-186.806 2952.292,-196.25C2947.847,-205.694 2937.569,-210.417 2921.458,-210.417C2912.014,-210.417 2903.958,-206.806 2897.292,-199.583C2890.625,-192.361 2887.292,-183.889 2887.292,-174.167C2887.292,-163.056 2891.042,-153.333 2898.542,-145C2906.042,-136.667 2914.375,-132.5 2923.542,-132.5C2934.097,-132.5 2948.542,-136.806 2966.875,-145.417C2985.208,-154.028 2994.792,-158.333 2995.625,-158.333C3001.736,-151.389 3007.917,-142.431 3014.167,-131.458C3020.417,-120.486 3023.542,-104.722 3023.542,-84.167Z" style="fill:rgb(201,135,0);fill-rule:nonzero;"/>
        <clipPath id="_clip13">
            <path d="M3023.542,-84.167C3023.542,-60 3014.931,-39.306 2997.708,-22.083C2980.486,-4.861 2959.097,3.75 2933.542,3.75C2914.931,3.75 2894.306,-3.611 2871.667,-18.333C2849.028,-33.056 2837.708,-47.083 2837.708,-60.417C2837.708,-62.917 2843.75,-67.292 2855.833,-73.542C2867.917,-79.792 2878.403,-84.583 2887.292,-87.917L2887.292,-67.917C2887.292,-54.583 2891.667,-43.681 2900.417,-35.208C2909.167,-26.736 2920.208,-22.5 2933.542,-22.5C2946.319,-22.5 2957.153,-26.667 2966.042,-35C2974.931,-43.333 2979.375,-53.75 2979.375,-66.25C2979.375,-77.639 2975.417,-88.403 2967.5,-98.542C2959.583,-108.681 2950.208,-113.75 2939.375,-113.75C2929.653,-113.75 2916.319,-110.139 2899.375,-102.917C2882.431,-95.694 2872.431,-92.083 2869.375,-92.083C2863.542,-99.583 2857.778,-108.542 2852.083,-118.958C2846.389,-129.375 2843.542,-142.5 2843.542,-158.333C2843.542,-180.278 2852.639,-198.75 2870.833,-213.75C2889.028,-228.75 2908.681,-236.25 2929.792,-236.25C2944.514,-236.25 2961.181,-231.111 2979.792,-220.833C2998.403,-210.556 3010.347,-198.333 3015.625,-184.167L2965.208,-156.25C2961.042,-173.472 2956.736,-186.806 2952.292,-196.25C2947.847,-205.694 2937.569,-210.417 2921.458,-210.417C2912.014,-210.417 2903.958,-206.806 2897.292,-199.583C2890.625,-192.361 2887.292,-183.889 2887.292,-174.167C2887.292,-163.056 2891.042,-153.333 2898.542,-145C2906.042,-136.667 2914.375,-132.5 2923.542,-132.5C2934.097,-132.5 2948.542,-136.806 2966.875,-145.417C2985.208,-154.028 2994.792,-158.333 2995.625,-158.333C3001.736,-151.389 3007.917,-142.431 3014.167,-131.458C3020.417,-120.486 3023.542,-104.722 3023.542,-84.167Z" clip-rule="nonzero"/>
        </clipPath>
        <g clip-path="url(#_clip13)">
            <g transform="matrix(0.819735,0,0,1,-2812.410623,-6369.068011)">
                <path d="M4859.836,3185.868L5405.376,3185.868L4309.882,7666.805L3726.587,7666.805L4859.836,3185.868Z" style="fill:rgb(231,190,106);"/>
            </g>
            <g transform="matrix(0.753613,0,0,1.245803,-1706.470119,-8253.594822)">
                <path d="M5104.367,3185.868L5953.515,3165.077L4673.627,7666.805L3499.087,7666.805L5104.367,3185.868Z" style="fill:rgb(231,190,106);"/>
            </g>
        </g>
    </g>
    <g transform="matrix(1,0,0,1,-330.144278,-3045.988745)">
        <path d="M4546.001,8966.434L4119.334,8966.434C4156.312,8837.012 4179.779,8732.123 4189.734,8651.767C4199.69,8571.412 4204.668,8456.567 4204.668,8307.234C4204.668,8058.345 4189.734,7891.234 4159.868,7805.901C4117.201,7739.056 4083.068,7681.456 4057.468,7633.101L4499.068,7355.767L4511.868,7355.767L4511.868,8580.301L4546.001,8966.434Z" style="fill:rgb(202,136,0);fill-rule:nonzero;"/>
        <clipPath id="_clip14">
            <path d="M4546.001,8966.434L4119.334,8966.434C4156.312,8837.012 4179.779,8732.123 4189.734,8651.767C4199.69,8571.412 4204.668,8456.567 4204.668,8307.234C4204.668,8058.345 4189.734,7891.234 4159.868,7805.901C4117.201,7739.056 4083.068,7681.456 4057.468,7633.101L4499.068,7355.767L4511.868,7355.767L4511.868,8580.301L4546.001,8966.434Z" clip-rule="nonzero"/>
        </clipPath>
        <g clip-path="url(#_clip14)">
            <g transform="matrix(0.753613,0,0,1.245803,1889.550517,1161.461934)">
                <path d="M5104.367,3185.868L5953.515,3165.077L4673.627,7666.805L3499.087,7666.805L5104.367,3185.868Z" style="fill:rgb(231,190,106);"/>
            </g>
            <g transform="matrix(0.819735,0,0,1,1002.652168,3045.988745)">
                <path d="M4859.836,3185.868L5405.376,3185.868L4309.882,7666.805L3726.587,7666.805L4859.836,3185.868Z" style="fill:rgb(231,190,106);"/>
            </g>
        </g>
        <path d="M5126.268,8966.434L4699.601,8966.434C4736.579,8837.012 4760.046,8732.123 4770.001,8651.767C4779.957,8571.412 4784.934,8456.567 4784.934,8307.234C4784.934,8058.345 4770.001,7891.234 4740.134,7805.901C4697.468,7739.056 4663.334,7681.456 4637.734,7633.101L5079.334,7355.767L5092.134,7355.767L5092.134,8580.301L5126.268,8966.434Z" style="fill:rgb(202,136,0);fill-rule:nonzero;"/>
        <clipPath id="_clip15">
            <path d="M5126.268,8966.434L4699.601,8966.434C4736.579,8837.012 4760.046,8732.123 4770.001,8651.767C4779.957,8571.412 4784.934,8456.567 4784.934,8307.234C4784.934,8058.345 4770.001,7891.234 4740.134,7805.901C4697.468,7739.056 4663.334,7681.456 4637.734,7633.101L5079.334,7355.767L5092.134,7355.767L5092.134,8580.301L5126.268,8966.434Z" clip-rule="nonzero"/>
        </clipPath>
        <g clip-path="url(#_clip15)">
            <g transform="matrix(0.753613,0,0,1.245803,1889.550517,1161.461934)">
                <path d="M5104.367,3185.868L5953.515,3165.077L4673.627,7666.805L3499.087,7666.805L5104.367,3185.868Z" style="fill:rgb(231,190,106);"/>
            </g>
            <g transform="matrix(0.819735,0,0,1,1002.652168,3045.988745)">
                <path d="M4859.836,3185.868L5405.376,3185.868L4309.882,7666.805L3726.587,7666.805L4859.836,3185.868Z" style="fill:rgb(231,190,106);"/>
            </g>
        </g>
        <path d="M6274.001,8091.501C6274.001,8159.789 6268.312,8224.878 6256.934,8286.767C6245.557,8348.634 6217.823,8420.123 6173.734,8501.234C6135.334,8548.167 6100.134,8589.423 6068.134,8625.001C6036.134,8660.556 6008.046,8688.301 5983.868,8708.234C5959.69,8728.145 5886.446,8774.023 5764.134,8845.867C5641.823,8917.712 5555.779,8953.634 5506.001,8953.634C5478.979,8953.634 5465.468,8934.434 5465.468,8896.034C5516.668,8863.323 5575.69,8822.789 5642.534,8774.434C5709.379,8726.078 5769.112,8665.634 5821.734,8593.101C5874.357,8520.567 5909.201,8460.123 5926.268,8411.767C5943.334,8363.412 5961.112,8310.789 5979.601,8253.901L5956.134,8253.901C5933.379,8262.434 5876.134,8303.678 5784.401,8377.634C5692.668,8451.589 5637.557,8488.567 5619.068,8488.567C5607.69,8488.567 5568.934,8469.723 5502.801,8432.034C5436.668,8394.345 5374.446,8338.156 5316.134,8263.467C5257.823,8188.778 5228.668,8096.656 5228.668,7987.101C5228.668,7873.256 5261.023,7770.801 5325.734,7679.734C5390.446,7588.645 5457.646,7518.201 5527.334,7468.401C5577.112,7428.556 5628.668,7389.067 5682.001,7349.934C5735.334,7310.801 5771.957,7291.234 5791.868,7291.234C5804.668,7291.234 5852.312,7324.312 5934.801,7390.467C6017.29,7456.623 6094.446,7549.101 6166.268,7667.901C6238.09,7786.678 6274.001,7927.878 6274.001,8091.501ZM5979.601,8102.434C5979.601,7971.589 5929.823,7844.656 5830.268,7721.634C5730.712,7598.612 5663.868,7537.101 5629.734,7537.101C5595.601,7537.101 5561.468,7573.012 5527.334,7644.834C5493.201,7716.656 5476.134,7771.767 5476.134,7810.167C5476.134,7921.101 5507.423,8014.967 5570.001,8091.767C5632.579,8168.567 5696.579,8206.967 5762.001,8206.967C5797.557,8206.967 5842.712,8192.034 5897.468,8162.167C5952.223,8132.301 5979.601,8112.389 5979.601,8102.434Z" style="fill:rgb(202,136,0);fill-rule:nonzero;"/>
        <clipPath id="_clip16">
            <path d="M6274.001,8091.501C6274.001,8159.789 6268.312,8224.878 6256.934,8286.767C6245.557,8348.634 6217.823,8420.123 6173.734,8501.234C6135.334,8548.167 6100.134,8589.423 6068.134,8625.001C6036.134,8660.556 6008.046,8688.301 5983.868,8708.234C5959.69,8728.145 5886.446,8774.023 5764.134,8845.867C5641.823,8917.712 5555.779,8953.634 5506.001,8953.634C5478.979,8953.634 5465.468,8934.434 5465.468,8896.034C5516.668,8863.323 5575.69,8822.789 5642.534,8774.434C5709.379,8726.078 5769.112,8665.634 5821.734,8593.101C5874.357,8520.567 5909.201,8460.123 5926.268,8411.767C5943.334,8363.412 5961.112,8310.789 5979.601,8253.901L5956.134,8253.901C5933.379,8262.434 5876.134,8303.678 5784.401,8377.634C5692.668,8451.589 5637.557,8488.567 5619.068,8488.567C5607.69,8488.567 5568.934,8469.723 5502.801,8432.034C5436.668,8394.345 5374.446,8338.156 5316.134,8263.467C5257.823,8188.778 5228.668,8096.656 5228.668,7987.101C5228.668,7873.256 5261.023,7770.801 5325.734,7679.734C5390.446,7588.645 5457.646,7518.201 5527.334,7468.401C5577.112,7428.556 5628.668,7389.067 5682.001,7349.934C5735.334,7310.801 5771.957,7291.234 5791.868,7291.234C5804.668,7291.234 5852.312,7324.312 5934.801,7390.467C6017.29,7456.623 6094.446,7549.101 6166.268,7667.901C6238.09,7786.678 6274.001,7927.878 6274.001,8091.501ZM5979.601,8102.434C5979.601,7971.589 5929.823,7844.656 5830.268,7721.634C5730.712,7598.612 5663.868,7537.101 5629.734,7537.101C5595.601,7537.101 5561.468,7573.012 5527.334,7644.834C5493.201,7716.656 5476.134,7771.767 5476.134,7810.167C5476.134,7921.101 5507.423,8014.967 5570.001,8091.767C5632.579,8168.567 5696.579,8206.967 5762.001,8206.967C5797.557,8206.967 5842.712,8192.034 5897.468,8162.167C5952.223,8132.301 5979.601,8112.389 5979.601,8102.434Z" clip-rule="nonzero"/>
        </clipPath>
        <g clip-path="url(#_clip16)">
            <g transform="matrix(0.753613,0,0,1.245803,1889.550517,1161.461934)">
                <path d="M5104.367,3185.868L5953.515,3165.077L4673.627,7666.805L3499.087,7666.805L5104.367,3185.868Z" style="fill:rgb(231,190,106);"/>
            </g>
            <g transform="matrix(0.819735,0,0,1,1002.652168,3045.988745)">
                <path d="M4859.836,3185.868L5405.376,3185.868L4309.882,7666.805L3726.587,7666.805L4859.836,3185.868Z" style="fill:rgb(231,190,106);"/>
            </g>
        </g>
        <path d="M7417.468,8232.567C7417.468,8406.078 7379.423,8542.612 7303.334,8642.167C7227.246,8741.723 7118.09,8822.078 6975.868,8883.234C6957.379,8898.878 6934.979,8916.656 6908.668,8936.567C6882.357,8956.478 6861.379,8966.434 6845.734,8966.434C6746.179,8966.434 6642.001,8887.856 6533.201,8730.701C6424.401,8573.545 6370.001,8370.523 6370.001,8121.634C6370.001,7949.545 6411.601,7805.189 6494.801,7688.567C6578.001,7571.945 6666.534,7484.834 6760.401,7427.234C6854.268,7369.634 6911.157,7340.834 6931.068,7340.834C6966.623,7340.834 7024.223,7375.323 7103.868,7444.301C7183.512,7513.278 7255.69,7614.967 7320.401,7749.367C7385.112,7883.767 7417.468,8044.834 7417.468,8232.567ZM7268.134,8324.301C7268.134,8213.367 7215.868,8088.212 7111.334,7948.834C7006.801,7809.456 6889.823,7739.767 6760.401,7739.767C6687.868,7739.767 6627.779,7765.723 6580.134,7817.634C6532.49,7869.545 6508.668,7933.901 6508.668,8010.701C6508.668,8113.101 6561.646,8232.212 6667.601,8368.034C6773.557,8503.856 6889.112,8571.767 7014.268,8571.767C7088.223,8571.767 7149.023,8554.701 7196.668,8520.567C7244.312,8486.434 7268.134,8421.012 7268.134,8324.301Z" style="fill:rgb(202,136,0);fill-rule:nonzero;"/>
        <clipPath id="_clip17">
            <path d="M7417.468,8232.567C7417.468,8406.078 7379.423,8542.612 7303.334,8642.167C7227.246,8741.723 7118.09,8822.078 6975.868,8883.234C6957.379,8898.878 6934.979,8916.656 6908.668,8936.567C6882.357,8956.478 6861.379,8966.434 6845.734,8966.434C6746.179,8966.434 6642.001,8887.856 6533.201,8730.701C6424.401,8573.545 6370.001,8370.523 6370.001,8121.634C6370.001,7949.545 6411.601,7805.189 6494.801,7688.567C6578.001,7571.945 6666.534,7484.834 6760.401,7427.234C6854.268,7369.634 6911.157,7340.834 6931.068,7340.834C6966.623,7340.834 7024.223,7375.323 7103.868,7444.301C7183.512,7513.278 7255.69,7614.967 7320.401,7749.367C7385.112,7883.767 7417.468,8044.834 7417.468,8232.567ZM7268.134,8324.301C7268.134,8213.367 7215.868,8088.212 7111.334,7948.834C7006.801,7809.456 6889.823,7739.767 6760.401,7739.767C6687.868,7739.767 6627.779,7765.723 6580.134,7817.634C6532.49,7869.545 6508.668,7933.901 6508.668,8010.701C6508.668,8113.101 6561.646,8232.212 6667.601,8368.034C6773.557,8503.856 6889.112,8571.767 7014.268,8571.767C7088.223,8571.767 7149.023,8554.701 7196.668,8520.567C7244.312,8486.434 7268.134,8421.012 7268.134,8324.301Z" clip-rule="nonzero"/>
        </clipPath>
        <g clip-path="url(#_clip17)">
            <g transform="matrix(0.753613,0,0,1.245803,1889.550517,1161.461934)">
                <path d="M5104.367,3185.868L5953.515,3165.077L4673.627,7666.805L3499.087,7666.805L5104.367,3185.868Z" style="fill:rgb(231,190,106);"/>
            </g>
            <g transform="matrix(0.819735,0,0,1,1002.652168,3045.988745)">
                <path d="M4859.836,3185.868L5405.376,3185.868L4309.882,7666.805L3726.587,7666.805L4859.836,3185.868Z" style="fill:rgb(231,190,106);"/>
            </g>
        </g>
    </g>
</svg>